M48
; DRILL file KiCad 10.0.1 date 2026-05-07T19:21:00
; FORMAT={-:-/ absolute / inch / decimal}
; #@! TF.CreationDate,2026-05-07T19:21:00-07:00
; #@! TF.GenerationSoftware,Kicad,Pcbnew,10.0.1
; #@! TF.FileFunction,Plated,1,4,PTH
FMAT,2
INCH
; #@! TA.AperFunction,Plated,PTH,ViaDrill
T1C0.0118
; #@! TA.AperFunction,Plated,PTH,ComponentDrill
T2C0.0118
; #@! TA.AperFunction,Plated,PTH,ComponentDrill
T3C0.0236
; #@! TA.AperFunction,Plated,PTH,ComponentDrill
T4C0.0256
; #@! TA.AperFunction,Plated,PTH,ComponentDrill
T5C0.0453
; #@! TA.AperFunction,Plated,PTH,ViaDrill
T6C0.0610
; #@! TA.AperFunction,Plated,PTH,ComponentDrill
T7C0.1063
%
G90
G05
T1
X5.1Y-4.6987
X5.1299Y-4.925
X5.1678Y-4.73
X5.1683Y-5.3923
X5.1689Y-5.19
X5.219Y-3.51
X5.22Y-4.845
X5.2447Y-4.9239
X5.268Y-4.158
X5.2801Y-3.92
X5.2962Y-4.95
X5.3Y-4.57
X5.316Y-3.434
X5.334Y-4.95
X5.35Y-4.085
X5.3572Y-4.5572
X5.37Y-4.6278
X5.375Y-4.3559
X5.38Y-4.27
X5.3925Y-5.1375
X5.4Y-4.69
X5.41Y-4.7499
X5.41Y-4.95
X5.412Y-3.04
X5.414Y-3.7403
X5.416Y-4.8969
X5.4297Y-4.65
X5.43Y-4.25
X5.4499Y-4.824
X5.451Y-4.8744
X5.453Y-3.894
X5.461Y-4.447
X5.4675Y-4.7075
X5.4841Y-3.434
X5.4848Y-2.9943
X5.486Y-4.66
X5.4953Y-4.4713
X5.505Y-4.895
X5.506Y-3.105
X5.516Y-4.708
X5.5222Y-3.23
X5.5222Y-3.28
X5.524Y-2.7372
X5.53Y-3.695
X5.53Y-5.19
X5.536Y-4.56
X5.54Y-4.92
X5.544Y-5.1291
X5.545Y-5.095
X5.545Y-5.335
X5.547Y-4.9998
X5.547Y-5.04
X5.5493Y-4.8543
X5.55Y-2.8651
X5.55Y-2.98
X5.56Y-5.275
X5.5675Y-3.559
X5.57Y-4.1803
X5.5708Y-4.5906
X5.5758Y-4.0811
X5.58Y-3.495
X5.58Y-4.5271
X5.585Y-5.345
X5.596Y-5.464
X5.605Y-5.2078
X5.606Y-4.74
X5.61Y-4.205
X5.61Y-5.38
X5.6106Y-5.294
X5.6154Y-4.4558
X5.65Y-2.8752
X5.65Y-5.1411
X5.65Y-5.1789
X5.655Y-5.33
X5.658Y-4.31
X5.665Y-4.63
X5.67Y-4.59
X5.6747Y-4.0068
X5.675Y-5.375
X5.681Y-5.434
X5.682Y-4.498
X5.6874Y-3.8298
X5.69Y-4.045
X5.7Y-4.1003
X5.7Y-5.1411
X5.7075Y-3.6925
X5.715Y-4.195
X5.715Y-4.565
X5.7201Y-5.01
X5.722Y-3.272
X5.7222Y-4.892
X5.75Y-2.8601
X5.75Y-3.069
X5.765Y-4.73
X5.775Y-4.7968
X5.776Y-2.7372
X5.78Y-3.88
X5.7865Y-3.2065
X5.805Y-4.855
X5.808Y-3.041
X5.81Y-3.83
X5.8232Y-3.2656
X5.83Y-4.82
X5.837Y-5.0451
X5.84Y-5.09
X5.846Y-3.332
X5.855Y-4.76
X5.8665Y-3.0805
X5.87Y-3.51
X5.8772Y-4.701
X5.8772Y-4.795
X5.88Y-3.83
X5.8825Y-4.2125
X5.885Y-4.605
X5.89Y-3.6272
X5.9022Y-5.0
X5.91Y-4.86
X5.91Y-5.16
X5.918Y-3.973
X5.935Y-4.675
X5.94Y-4.95
X5.94Y-5.05
X5.945Y-4.31
X5.9491Y-5.218
X5.95Y-3.77
X5.95Y-5.26
X5.954Y-3.92
X5.955Y-4.8051
X5.965Y-5.3077
X5.9688Y-3.5712
X5.98Y-3.6509
X6.005Y-4.875
X6.0091Y-3.425
X6.01Y-5.13
X6.0225Y-4.9475
X6.0338Y-3.56
X6.035Y-5.065
X6.058Y-5.262
X6.0657Y-4.1821
X6.084Y-2.993
X6.085Y-3.56
X6.0859Y-4.0509
X6.0925Y-4.2675
X6.0934Y-4.3666
X6.099Y-3.1944
X6.099Y-3.2436
X6.1104Y-4.2934
X6.12Y-4.8089
X6.134Y-3.844
X6.152Y-4.1419
X6.16Y-5.22
X6.165Y-4.485
X6.1805Y-4.42
X6.1831Y-3.46
X6.19Y-4.9852
X6.2546Y-4.2961
X6.2546Y-4.5972
T2
X5.8488Y-3.238
X5.8488Y-3.2656
X5.8803Y-3.238
X5.8803Y-3.2656
T4
X5.105Y-4.225
X5.105Y-4.275
X5.105Y-4.325
X5.105Y-4.375
X5.105Y-4.425
X5.155Y-4.225
X5.155Y-4.275
X5.155Y-4.325
X5.155Y-4.375
X5.155Y-4.425
T5
X5.072Y-4.8472
X5.1Y-3.137
X5.1Y-3.3181
X5.1Y-3.4704
X5.1Y-3.6516
X6.23Y-4.824
X6.23Y-5.29
T6
X5.1Y-2.55
X5.1Y-5.55
X6.2Y-2.55
X6.2Y-5.55
T7
X5.13Y-2.745
X5.13Y-2.9419
T3
G00X5.4799Y-2.5657
M15
G01X5.4799Y-2.5343
M16
G05
G00X5.4799Y-2.7362
M15
G01X5.4799Y-2.6929
M16
G05
G00X5.8201Y-2.5657
M15
G01X5.8201Y-2.5343
M16
G05
G00X5.8201Y-2.7362
M15
G01X5.8201Y-2.6929
M16
G05
M30
