%TF.GenerationSoftware,KiCad,Pcbnew,10.0.1*%
%TF.CreationDate,2026-05-05T10:01:04-07:00*%
%TF.ProjectId,versorlite,76657273-6f72-46c6-9974-652e6b696361,rev?*%
%TF.SameCoordinates,Original*%
%TF.FileFunction,Copper,L2,Inr*%
%TF.FilePolarity,Positive*%
%FSLAX46Y46*%
G04 Gerber Fmt 4.6, Leading zero omitted, Abs format (unit mm)*
G04 Created by KiCad (PCBNEW 10.0.1) date 2026-05-05 10:01:04*
%MOMM*%
%LPD*%
G01*
G04 APERTURE LIST*
G04 Aperture macros list*
%AMRoundRect*
0 Rectangle with rounded corners*
0 $1 Rounding radius*
0 $2 $3 $4 $5 $6 $7 $8 $9 X,Y pos of 4 corners*
0 Add a 4 corners polygon primitive as box body*
4,1,4,$2,$3,$4,$5,$6,$7,$8,$9,$2,$3,0*
0 Add four circle primitives for the rounded corners*
1,1,$1+$1,$2,$3*
1,1,$1+$1,$4,$5*
1,1,$1+$1,$6,$7*
1,1,$1+$1,$8,$9*
0 Add four rect primitives between the rounded corners*
20,1,$1+$1,$2,$3,$4,$5,0*
20,1,$1+$1,$4,$5,$6,$7,0*
20,1,$1+$1,$6,$7,$8,$9,0*
20,1,$1+$1,$8,$9,$2,$3,0*%
G04 Aperture macros list end*
%TA.AperFunction,ComponentPad*%
%ADD10R,1.000000X1.000000*%
%TD*%
%TA.AperFunction,ComponentPad*%
%ADD11C,1.000000*%
%TD*%
%TA.AperFunction,ComponentPad*%
%ADD12O,1.000000X2.100000*%
%TD*%
%TA.AperFunction,ComponentPad*%
%ADD13O,1.000000X1.800000*%
%TD*%
%TA.AperFunction,ComponentPad*%
%ADD14RoundRect,0.250000X-0.825000X-0.825000X0.825000X-0.825000X0.825000X0.825000X-0.825000X0.825000X0*%
%TD*%
%TA.AperFunction,ComponentPad*%
%ADD15RoundRect,0.250000X0.825000X-0.825000X0.825000X0.825000X-0.825000X0.825000X-0.825000X-0.825000X0*%
%TD*%
%TA.AperFunction,ComponentPad*%
%ADD16C,2.150000*%
%TD*%
%TA.AperFunction,ComponentPad*%
%ADD17RoundRect,0.760000X-1.140000X1.140000X-1.140000X-1.140000X1.140000X-1.140000X1.140000X1.140000X0*%
%TD*%
%TA.AperFunction,ComponentPad*%
%ADD18C,4.000000*%
%TD*%
%TA.AperFunction,HeatsinkPad*%
%ADD19C,0.500000*%
%TD*%
%TA.AperFunction,ViaPad*%
%ADD20C,2.000000*%
%TD*%
%TA.AperFunction,ViaPad*%
%ADD21C,0.600000*%
%TD*%
%TA.AperFunction,Conductor*%
%ADD22C,0.200000*%
%TD*%
%TA.AperFunction,Conductor*%
%ADD23C,0.508000*%
%TD*%
%TA.AperFunction,Conductor*%
%ADD24C,0.127000*%
%TD*%
%TA.AperFunction,Conductor*%
%ADD25C,0.254000*%
%TD*%
G04 APERTURE END LIST*
D10*
%TO.N,+3.3V_MAIN*%
%TO.C,J6*%
X129667000Y-107315000D03*
D11*
%TO.N,/MCU/SWDIO*%
X130937000Y-107315000D03*
%TO.N,GND*%
X129667000Y-108585000D03*
%TO.N,/MCU/SWCLK*%
X130937000Y-108585000D03*
%TO.N,GND*%
X129667000Y-109855000D03*
%TO.N,/MCU/SWO*%
X130937000Y-109855000D03*
%TO.N,unconnected-(J6-KEY-Pad7)*%
X129667000Y-111125000D03*
%TO.N,unconnected-(J6-NC{slash}TDI-Pad8)*%
X130937000Y-111125000D03*
%TO.N,GND*%
X129667000Y-112395000D03*
%TO.N,/MCU/NRST*%
X130937000Y-112395000D03*
%TD*%
D12*
%TO.N,GND*%
%TO.C,J8*%
X147830000Y-68950000D03*
D13*
X147830000Y-64770000D03*
D12*
X139190000Y-68950000D03*
D13*
X139190000Y-64770000D03*
%TD*%
D14*
%TO.N,/MCU/PWM_TIM9_CH1*%
%TO.C,J3*%
X128828800Y-123118600D03*
%TD*%
D15*
%TO.N,Net-(J11-Pin_1)*%
%TO.C,J11*%
X129540000Y-84279800D03*
D16*
%TO.N,+9V*%
X129540000Y-79679800D03*
%TD*%
D17*
%TO.N,GND*%
%TO.C,J10*%
X130302000Y-69723000D03*
D18*
%TO.N,+9V*%
X130302000Y-74723000D03*
%TD*%
D14*
%TO.N,/MCU/PWM_TIM1_CH4*%
%TO.C,J2*%
X158242000Y-122529600D03*
%TD*%
D15*
%TO.N,Net-(J12-Pin_1)*%
%TO.C,J12*%
X129540000Y-92749400D03*
D16*
%TO.N,+9V*%
X129540000Y-88149400D03*
%TD*%
D14*
%TO.N,/MCU/PWM_TIM1_CH3*%
%TO.C,J1*%
X158242000Y-134366000D03*
%TD*%
D19*
%TO.N,+5V*%
%TO.C,U12*%
X149360200Y-82245200D03*
%TO.N,/Power/IN2*%
X149360200Y-82945200D03*
%TO.N,/Power/+VBUS*%
X148560200Y-82945200D03*
%TO.N,+5V*%
X148560200Y-82245200D03*
%TD*%
D20*
%TO.N,*%
X157480000Y-140970000D03*
X129540000Y-140970000D03*
X129540000Y-64770000D03*
X157480000Y-64770000D03*
D21*
%TO.N,/MCU/IGN_ADC2*%
X134113998Y-99568000D03*
X143713200Y-109474000D03*
%TO.N,GND*%
X142138400Y-138785600D03*
X144297400Y-138023600D03*
X157226000Y-126624002D03*
X140970000Y-72772999D03*
X140106400Y-119583200D03*
X137464800Y-77216000D03*
X145291000Y-127254000D03*
X139852400Y-78867000D03*
X142560001Y-97276500D03*
X142494000Y-136652000D03*
X140310000Y-69525000D03*
X146050000Y-72645999D03*
X143510000Y-131544000D03*
X145338800Y-83108800D03*
X143510000Y-73030500D03*
X137566400Y-124381200D03*
X143891000Y-117602000D03*
X146710000Y-69525000D03*
X129540000Y-119348001D03*
X149606000Y-92131000D03*
X156985000Y-112268000D03*
X140843000Y-135509000D03*
X137160000Y-119126000D03*
X144145000Y-136525000D03*
X134523600Y-125730000D03*
X132562600Y-89154000D03*
X141859000Y-135763000D03*
X149916000Y-127000000D03*
X141224000Y-133985000D03*
X141498000Y-116600406D03*
X149606000Y-78841600D03*
X134620000Y-116078000D03*
X142508468Y-134466494D03*
X144459999Y-97276500D03*
X148488400Y-84632800D03*
X142367000Y-132278500D03*
X143637000Y-135382000D03*
%TO.N,/MCU/NRST*%
X151511000Y-134815000D03*
X136398000Y-117547107D03*
%TO.N,+3V3_SENSORS*%
X138454915Y-123809000D03*
X151130000Y-133604000D03*
X143510000Y-130584000D03*
X144322800Y-114249200D03*
X153873200Y-133654800D03*
X151107200Y-132537200D03*
X139827000Y-124333000D03*
X150876000Y-128270000D03*
X150876000Y-125730000D03*
X144780000Y-130584000D03*
X135483600Y-125730000D03*
X131261999Y-120141999D03*
X130300001Y-125095000D03*
X138427550Y-122528458D03*
X140817600Y-130279200D03*
X140892805Y-126996002D03*
%TO.N,/MCU/SPI1_SCK*%
X140462000Y-131826000D03*
X133215000Y-125067165D03*
X152527000Y-123825000D03*
X149280500Y-121793000D03*
X146685000Y-121838001D03*
%TO.N,/MCU/SPI1_MOSI*%
X148082000Y-122428000D03*
X137414000Y-125730000D03*
X152970800Y-125667200D03*
%TO.N,/MCU/SPI1_MISO*%
X136968356Y-130493644D03*
X152654000Y-130302000D03*
X147447000Y-123317000D03*
X140716000Y-124968000D03*
%TO.N,/MCU/CS_BARO_LOW*%
X140892805Y-128016000D03*
X148717000Y-120904000D03*
%TO.N,/MCU/EXTI0_BARO_LOW*%
X145161000Y-115951000D03*
X140843000Y-129413000D03*
%TO.N,+3.3V_MAIN*%
X151257000Y-122048999D03*
X136071893Y-115751893D03*
X139344400Y-118364000D03*
X154771596Y-110912404D03*
X144971644Y-93788356D03*
X156591000Y-113919000D03*
X141625000Y-103660000D03*
X155448000Y-122146000D03*
X156260800Y-105204801D03*
X136525000Y-110639800D03*
X144018000Y-116586000D03*
X144137000Y-101772022D03*
X151607186Y-90708814D03*
%TO.N,Net-(U1-BOOT0)*%
X136652000Y-108458000D03*
X131290601Y-131826000D03*
%TO.N,/MCU/SWDIO*%
X144526000Y-102743000D03*
X137922000Y-107950000D03*
%TO.N,/MCU/SWO*%
X135890000Y-103759000D03*
%TO.N,/MCU/CS_MAG*%
X150114000Y-123444000D03*
X153289000Y-128651000D03*
X150749000Y-118745000D03*
%TO.N,Net-(U13-VSENSE)*%
X140265000Y-82042000D03*
%TO.N,/Power/IN2*%
X148005800Y-77012800D03*
%TO.N,Net-(D2-DOUT)*%
X147574000Y-97282000D03*
X137515000Y-95004800D03*
%TO.N,+5V*%
X157050800Y-87884000D03*
X140462000Y-93853000D03*
X149098000Y-89154000D03*
%TO.N,Net-(D1-A)*%
X150114000Y-131064000D03*
%TO.N,+3V3_MCU*%
X140614400Y-115824000D03*
X142630299Y-113177988D03*
X141732000Y-114988400D03*
X131275000Y-136965000D03*
%TO.N,/MCU/RADIO_GPIO*%
X152631185Y-86995000D03*
X151892000Y-92732815D03*
%TO.N,/MCU/USART3_TX_RADIO*%
X144780000Y-104148000D03*
X154915000Y-82387200D03*
%TO.N,/MCU/USART3_RX_RADIO*%
X149414356Y-106996356D03*
X154915000Y-81137200D03*
%TO.N,/Power/+VBUS*%
X147910197Y-82945200D03*
%TO.N,/MCU/IGN_ADC1*%
X141732000Y-88773000D03*
X142494000Y-106807000D03*
%TO.N,Net-(U13-COMP)*%
X140265000Y-83312000D03*
%TO.N,/MCU/D+*%
X140970000Y-75692000D03*
X149352000Y-97282000D03*
%TO.N,/MCU/D-*%
X151130000Y-95758000D03*
X146050000Y-77952600D03*
%TO.N,/MCU/CS_IMU_LOWG_GYRO*%
X132588000Y-123063000D03*
%TO.N,/MCU/CS_IMU_LOWG_ACCEL*%
X137414000Y-120648001D03*
%TO.N,/MCU/OSC_IN*%
X138709400Y-112953800D03*
%TO.N,/MCU/OSC_OUT*%
X139580535Y-113570935D03*
%TO.N,/MCU/BATT_READ*%
X141478000Y-106180000D03*
X138912600Y-76187800D03*
%TO.N,/MCU/EXTI1_IMU_LOWG_ACCEL*%
X137914000Y-118110000D03*
%TO.N,/MCU/EXTI2_IMU_LOWG_GYRO*%
X138874500Y-119570500D03*
%TO.N,/MCU/EXTI3_IMU_HIGHG*%
X140952545Y-123299545D03*
%TO.N,/MCU/USART2_TX_GPS*%
X142392400Y-120396000D03*
X148336000Y-129286000D03*
%TO.N,/MCU/USART2_RX_GPS*%
X146431000Y-120142000D03*
X148260000Y-128145000D03*
%TO.N,/MCU/MICRO_SD_DETECT*%
X149280500Y-119405000D03*
%TO.N,/MCU/CS_IMU_HIGHG*%
X145343500Y-124256800D03*
X149479000Y-116967000D03*
%TO.N,/MCU/GPS_RESET*%
X156464000Y-132588000D03*
%TO.N,/MCU/SPI2_NSS_MICROSD*%
X154068733Y-106224799D03*
%TO.N,/MCU/SPI2_SCK*%
X155803600Y-97637600D03*
X154749500Y-108394500D03*
%TO.N,/MCU/SPI2_MISO*%
X154559000Y-90424000D03*
X155203345Y-109053309D03*
%TO.N,/MCU/SPI2_MOSI*%
X151003000Y-109474000D03*
X154581776Y-102892776D03*
%TO.N,/MCU/BUZZ_TIM8_CH4*%
X150317200Y-100914200D03*
X154533600Y-76022200D03*
%TO.N,/MCU/POWER_STATUS*%
X146977200Y-81445200D03*
X151231600Y-99568000D03*
%TO.N,Net-(U1-VCAP_2)*%
X146812000Y-98552000D03*
%TO.N,/MCU/SPI2_NSS_FLASH*%
X153258185Y-90423315D03*
X133807200Y-105613200D03*
X145161000Y-106553000D03*
%TO.N,Net-(J9-DAT1)*%
X158866000Y-109120000D03*
X158866000Y-116770001D03*
%TO.N,Net-(U13-BOOT)*%
X135026400Y-87223600D03*
X139296200Y-87223600D03*
%TD*%
%TO.N,/MCU/IGN_ADC2*%
D22*
X135898000Y-107796000D02*
X136644000Y-107050000D01*
X136644000Y-102098002D02*
X134113998Y-99568000D01*
X136644000Y-107050000D02*
X136644000Y-102098002D01*
X143713200Y-109474000D02*
X136812400Y-109474000D01*
X136812400Y-109474000D02*
X135898000Y-108559600D01*
X135898000Y-108559600D02*
X135898000Y-107796000D01*
%TO.N,GND*%
D23*
X137160000Y-117602000D02*
X138176000Y-116586000D01*
X137160000Y-119126000D02*
X137160000Y-117602000D01*
D24*
X135834500Y-117313697D02*
X136714597Y-116433600D01*
X137160000Y-122128448D02*
X135839200Y-120807648D01*
X135839200Y-118922800D02*
X135834500Y-118918100D01*
X136714597Y-116433600D02*
X136906000Y-116433600D01*
X135839200Y-120807648D02*
X135839200Y-118922800D01*
X137160000Y-122682000D02*
X137160000Y-122128448D01*
X135834500Y-118918100D02*
X135834500Y-117313697D01*
%TO.N,/MCU/NRST*%
X138616000Y-121920000D02*
X137414000Y-121920000D01*
X137414000Y-121920000D02*
X136398000Y-120904000D01*
X151511000Y-134815000D02*
X138616000Y-121920000D01*
X136398000Y-120904000D02*
X136398000Y-117547107D01*
X151511000Y-134815000D02*
X151511000Y-134747000D01*
%TO.N,/MCU/SPI1_SCK*%
X133215000Y-127500000D02*
X135001000Y-129286000D01*
X135001000Y-129286000D02*
X135001000Y-131318000D01*
X133215000Y-125067165D02*
X133215000Y-127500000D01*
X149280500Y-121793000D02*
X146730001Y-121793000D01*
X139827000Y-132461000D02*
X140462000Y-131826000D01*
X135001000Y-131318000D02*
X136144000Y-132461000D01*
X146730001Y-121793000D02*
X146685000Y-121838001D01*
X136144000Y-132461000D02*
X139827000Y-132461000D01*
%TO.N,/MCU/SPI1_MOSI*%
X148082000Y-122428000D02*
X148082000Y-123317000D01*
X149098000Y-124333000D02*
X151638000Y-124333000D01*
X152970800Y-125665800D02*
X152970800Y-125667200D01*
X148082000Y-123317000D02*
X149098000Y-124333000D01*
X151638000Y-124333000D02*
X152970800Y-125665800D01*
%TO.N,/MCU/SPI1_MISO*%
X147447000Y-123317000D02*
X152654000Y-128524000D01*
X139192000Y-128270000D02*
X139192000Y-126492000D01*
X139192000Y-126492000D02*
X140716000Y-124968000D01*
X136968356Y-130493644D02*
X139192000Y-128270000D01*
X152654000Y-128524000D02*
X152654000Y-130302000D01*
%TO.N,/MCU/EXTI0_BARO_LOW*%
X135890000Y-127889000D02*
X136398000Y-127381000D01*
X135890000Y-130810000D02*
X135890000Y-127889000D01*
X136601200Y-114350800D02*
X143560800Y-114350800D01*
X136525000Y-131445000D02*
X135890000Y-130810000D01*
X140843000Y-129413000D02*
X139573000Y-129413000D01*
X139573000Y-129413000D02*
X137541000Y-131445000D01*
X136398000Y-121920000D02*
X135382000Y-120904000D01*
X135382000Y-115570000D02*
X136601200Y-114350800D01*
X137541000Y-131445000D02*
X136525000Y-131445000D01*
X143560800Y-114350800D02*
X145161000Y-115951000D01*
X135382000Y-120904000D02*
X135382000Y-115570000D01*
X136398000Y-127381000D02*
X136398000Y-121920000D01*
%TO.N,/MCU/SWDIO*%
D25*
X138681712Y-104904288D02*
X140843000Y-102743000D01*
X140843000Y-102743000D02*
X144526000Y-102743000D01*
X137922000Y-107950000D02*
X138681712Y-107190288D01*
X138681712Y-107190288D02*
X138681712Y-104904288D01*
%TO.N,/MCU/SWO*%
D24*
X135890000Y-104902000D02*
X130937000Y-109855000D01*
X135890000Y-103759000D02*
X135890000Y-104902000D01*
%TO.N,/MCU/CS_MAG*%
X150114000Y-123444000D02*
X150114000Y-120777000D01*
X150749000Y-120142000D02*
X150749000Y-118745000D01*
X150114000Y-120777000D02*
X150749000Y-120142000D01*
%TO.N,Net-(D2-DOUT)*%
X145288000Y-94996000D02*
X145034000Y-94996000D01*
X145034000Y-94996000D02*
X145025200Y-95004800D01*
X147574000Y-97282000D02*
X145288000Y-94996000D01*
X145025200Y-95004800D02*
X137515000Y-95004800D01*
%TO.N,/MCU/IGN_ADC1*%
D25*
X150041000Y-98625000D02*
X147574000Y-101092000D01*
X147574000Y-103378000D02*
X145542000Y-105410000D01*
X141732000Y-88773000D02*
X141732000Y-88775288D01*
X143891000Y-105410000D02*
X142494000Y-106807000D01*
X141732000Y-88775288D02*
X150041000Y-97084288D01*
X145542000Y-105410000D02*
X143891000Y-105410000D01*
X147574000Y-101092000D02*
X147574000Y-103378000D01*
X150041000Y-97084288D02*
X150041000Y-98625000D01*
%TO.N,/MCU/D+*%
X138099800Y-78155800D02*
X140563600Y-75692000D01*
X147499250Y-96655000D02*
X145449750Y-94605500D01*
X144863450Y-94614300D02*
X144322100Y-94614300D01*
X145449750Y-94605500D02*
X144872250Y-94605500D01*
X144322100Y-94614300D02*
X138099800Y-88392000D01*
X148201000Y-97282000D02*
X148201000Y-97022288D01*
X140563600Y-75692000D02*
X140970000Y-75692000D01*
X148201000Y-97022288D02*
X147833712Y-96655000D01*
X149352000Y-97282000D02*
X148201000Y-97282000D01*
X147833712Y-96655000D02*
X147499250Y-96655000D01*
X144872250Y-94605500D02*
X144863450Y-94614300D01*
X138099800Y-88392000D02*
X138099800Y-78155800D01*
%TO.N,/MCU/D-*%
D22*
X146050000Y-90678000D02*
X151130000Y-95758000D01*
X146050000Y-77952600D02*
X146050000Y-90678000D01*
%TO.N,/MCU/USART2_TX_GPS*%
D24*
X142392400Y-120396000D02*
X142392400Y-120456196D01*
X142392400Y-120456196D02*
X141478000Y-121370596D01*
X141478000Y-122428000D02*
X148336000Y-129286000D01*
X141478000Y-121370596D02*
X141478000Y-122428000D01*
%TO.N,/MCU/USART2_RX_GPS*%
X145338800Y-123139200D02*
X145338800Y-121234200D01*
X145338800Y-121234200D02*
X146431000Y-120142000D01*
X148260000Y-128145000D02*
X144780000Y-124665000D01*
X144780000Y-124665000D02*
X144780000Y-123698000D01*
X144780000Y-123698000D02*
X145338800Y-123139200D01*
%TO.N,/MCU/CS_IMU_HIGHG*%
X149479000Y-118237000D02*
X149479000Y-116967000D01*
X145670999Y-122045001D02*
X149479000Y-118237000D01*
X145343500Y-124256800D02*
X145670999Y-123929301D01*
X145670999Y-123929301D02*
X145670999Y-122045001D01*
%TO.N,/MCU/SPI2_MISO*%
X155614691Y-109053309D02*
X157607000Y-107061000D01*
X157607000Y-107061000D02*
X157607000Y-93472000D01*
X155203345Y-109053309D02*
X155614691Y-109053309D01*
X157607000Y-93472000D02*
X154559000Y-90424000D01*
%TO.N,/MCU/BUZZ_TIM8_CH4*%
D22*
X154315000Y-86159714D02*
X154315000Y-76240800D01*
X154315000Y-76240800D02*
X154533600Y-76022200D01*
X152492000Y-87982714D02*
X154315000Y-86159714D01*
X152492000Y-99156129D02*
X152492000Y-87982714D01*
X150733929Y-100914200D02*
X152492000Y-99156129D01*
X150317200Y-100914200D02*
X150733929Y-100914200D01*
%TO.N,/MCU/POWER_STATUS*%
X151730000Y-95509471D02*
X151730000Y-99069600D01*
X151730000Y-99069600D02*
X151231600Y-99568000D01*
X146977200Y-90756671D02*
X151730000Y-95509471D01*
X146977200Y-81445200D02*
X146977200Y-90756671D01*
%TO.N,/MCU/SPI2_NSS_FLASH*%
D25*
X153258185Y-90423315D02*
X153258185Y-102265815D01*
X153258185Y-102265815D02*
X148971000Y-106553000D01*
X148971000Y-106553000D02*
X145161000Y-106553000D01*
%TO.N,Net-(J9-DAT1)*%
D22*
X158866000Y-109120000D02*
X158866000Y-116770001D01*
X158866000Y-109120000D02*
X158966000Y-109220000D01*
%TD*%
%TA.AperFunction,Conductor*%
%TO.N,GND*%
G36*
X137148029Y-122417693D02*
G01*
X137149428Y-122418501D01*
X137196304Y-122445565D01*
X137339747Y-122484000D01*
X137339748Y-122484000D01*
X137503050Y-122484000D01*
X137570089Y-122503685D01*
X137615844Y-122556489D01*
X137625597Y-122601324D01*
X137626453Y-122601240D01*
X137627050Y-122607304D01*
X137657811Y-122761947D01*
X137657814Y-122761959D01*
X137718152Y-122907630D01*
X137718159Y-122907643D01*
X137805760Y-123038746D01*
X137805763Y-123038750D01*
X137861743Y-123094730D01*
X137895228Y-123156053D01*
X137890244Y-123225745D01*
X137861745Y-123270091D01*
X137833125Y-123298711D01*
X137745524Y-123429814D01*
X137745517Y-123429827D01*
X137685179Y-123575498D01*
X137685176Y-123575510D01*
X137654415Y-123730153D01*
X137654415Y-123887846D01*
X137685176Y-124042489D01*
X137685179Y-124042501D01*
X137745517Y-124188172D01*
X137745524Y-124188185D01*
X137833125Y-124319288D01*
X137833128Y-124319292D01*
X137944622Y-124430786D01*
X137944626Y-124430789D01*
X138075729Y-124518390D01*
X138075742Y-124518397D01*
X138221413Y-124578735D01*
X138221418Y-124578737D01*
X138354521Y-124605213D01*
X138376068Y-124609499D01*
X138376071Y-124609500D01*
X138376073Y-124609500D01*
X138533759Y-124609500D01*
X138533760Y-124609499D01*
X138688412Y-124578737D01*
X138834094Y-124518394D01*
X138868501Y-124495404D01*
X138935178Y-124474525D01*
X139002558Y-124493008D01*
X139049249Y-124544987D01*
X139056053Y-124562509D01*
X139057262Y-124566497D01*
X139117602Y-124712172D01*
X139117609Y-124712185D01*
X139205210Y-124843288D01*
X139205213Y-124843292D01*
X139316707Y-124954786D01*
X139316711Y-124954789D01*
X139447814Y-125042390D01*
X139447827Y-125042397D01*
X139556501Y-125087411D01*
X139610905Y-125131252D01*
X139632970Y-125197546D01*
X139615691Y-125265245D01*
X139596730Y-125289653D01*
X138740689Y-126145693D01*
X138740685Y-126145699D01*
X138666434Y-126274305D01*
X138666433Y-126274306D01*
X138640660Y-126370499D01*
X138640660Y-126370500D01*
X138628000Y-126417748D01*
X138628000Y-127985021D01*
X138608315Y-128052060D01*
X138591681Y-128072702D01*
X137007559Y-129656825D01*
X136946236Y-129690310D01*
X136919878Y-129693144D01*
X136889511Y-129693144D01*
X136734866Y-129723905D01*
X136734854Y-129723908D01*
X136625452Y-129769224D01*
X136555983Y-129776693D01*
X136493504Y-129745418D01*
X136457852Y-129685328D01*
X136454000Y-129654663D01*
X136454000Y-128173977D01*
X136473685Y-128106938D01*
X136490315Y-128086300D01*
X136734094Y-127842520D01*
X136734099Y-127842517D01*
X136744302Y-127832313D01*
X136744304Y-127832313D01*
X136849313Y-127727304D01*
X136897121Y-127644499D01*
X136901553Y-127636824D01*
X136923562Y-127598702D01*
X136923563Y-127598700D01*
X136923562Y-127598700D01*
X136923565Y-127598697D01*
X136962000Y-127455253D01*
X136962000Y-127306748D01*
X136962000Y-126594809D01*
X136981685Y-126527770D01*
X137034489Y-126482015D01*
X137103647Y-126472071D01*
X137133450Y-126480247D01*
X137180503Y-126499737D01*
X137335153Y-126530499D01*
X137335156Y-126530500D01*
X137335158Y-126530500D01*
X137492844Y-126530500D01*
X137492845Y-126530499D01*
X137647497Y-126499737D01*
X137793179Y-126439394D01*
X137924289Y-126351789D01*
X138035789Y-126240289D01*
X138123394Y-126109179D01*
X138183737Y-125963497D01*
X138214500Y-125808842D01*
X138214500Y-125651158D01*
X138214500Y-125651155D01*
X138214499Y-125651153D01*
X138205376Y-125605288D01*
X138183737Y-125496503D01*
X138174487Y-125474172D01*
X138123397Y-125350827D01*
X138123390Y-125350814D01*
X138035789Y-125219711D01*
X138035786Y-125219707D01*
X137924292Y-125108213D01*
X137924288Y-125108210D01*
X137793185Y-125020609D01*
X137793172Y-125020602D01*
X137647501Y-124960264D01*
X137647489Y-124960261D01*
X137492845Y-124929500D01*
X137492842Y-124929500D01*
X137335158Y-124929500D01*
X137335155Y-124929500D01*
X137180510Y-124960261D01*
X137180503Y-124960263D01*
X137133451Y-124979752D01*
X137063982Y-124987219D01*
X137001503Y-124955944D01*
X136965851Y-124895854D01*
X136962000Y-124865190D01*
X136962000Y-122525063D01*
X136981685Y-122458024D01*
X137034489Y-122412269D01*
X137103647Y-122402325D01*
X137148029Y-122417693D01*
G37*
%TD.AperFunction*%
%TA.AperFunction,Conductor*%
G36*
X137167203Y-118433153D02*
G01*
X137200562Y-118479416D01*
X137204604Y-118489175D01*
X137204609Y-118489185D01*
X137292210Y-118620288D01*
X137292213Y-118620292D01*
X137403707Y-118731786D01*
X137403711Y-118731789D01*
X137534814Y-118819390D01*
X137534827Y-118819397D01*
X137680498Y-118879735D01*
X137680503Y-118879737D01*
X137835153Y-118910499D01*
X137835156Y-118910500D01*
X137835158Y-118910500D01*
X137992843Y-118910500D01*
X138025654Y-118903973D01*
X138114300Y-118886340D01*
X138183890Y-118892567D01*
X138239068Y-118935429D01*
X138262313Y-119001319D01*
X138246246Y-119069316D01*
X138241594Y-119076847D01*
X138165108Y-119191316D01*
X138165102Y-119191327D01*
X138104764Y-119336998D01*
X138104761Y-119337010D01*
X138074000Y-119491653D01*
X138074000Y-119649346D01*
X138104761Y-119803989D01*
X138104764Y-119804001D01*
X138150944Y-119915491D01*
X138158413Y-119984961D01*
X138127137Y-120047440D01*
X138067048Y-120083091D01*
X137997223Y-120080597D01*
X137948702Y-120050624D01*
X137924292Y-120026214D01*
X137924288Y-120026211D01*
X137793185Y-119938610D01*
X137793172Y-119938603D01*
X137647501Y-119878265D01*
X137647489Y-119878262D01*
X137492845Y-119847501D01*
X137492842Y-119847501D01*
X137335158Y-119847501D01*
X137335155Y-119847501D01*
X137180510Y-119878262D01*
X137180503Y-119878264D01*
X137133451Y-119897753D01*
X137063982Y-119905220D01*
X137001503Y-119873945D01*
X136965851Y-119813855D01*
X136962000Y-119783191D01*
X136962000Y-118526866D01*
X136981685Y-118459827D01*
X137034489Y-118414072D01*
X137103647Y-118404128D01*
X137167203Y-118433153D01*
G37*
%TD.AperFunction*%
%TA.AperFunction,Conductor*%
G36*
X159462539Y-62750185D02*
G01*
X159508294Y-62802989D01*
X159519500Y-62854500D01*
X159519500Y-108361913D01*
X159499815Y-108428952D01*
X159447011Y-108474707D01*
X159377853Y-108484651D01*
X159326609Y-108465015D01*
X159245185Y-108410609D01*
X159245172Y-108410602D01*
X159099501Y-108350264D01*
X159099489Y-108350261D01*
X158944845Y-108319500D01*
X158944842Y-108319500D01*
X158787158Y-108319500D01*
X158787155Y-108319500D01*
X158632510Y-108350261D01*
X158632498Y-108350264D01*
X158486827Y-108410602D01*
X158486814Y-108410609D01*
X158355711Y-108498210D01*
X158355707Y-108498213D01*
X158244213Y-108609707D01*
X158244210Y-108609711D01*
X158156609Y-108740814D01*
X158156602Y-108740827D01*
X158096264Y-108886498D01*
X158096261Y-108886510D01*
X158065500Y-109041153D01*
X158065500Y-109198846D01*
X158096261Y-109353489D01*
X158096264Y-109353501D01*
X158156602Y-109499172D01*
X158156609Y-109499185D01*
X158244602Y-109630874D01*
X158265480Y-109697551D01*
X158265500Y-109699765D01*
X158265500Y-116190235D01*
X158245815Y-116257274D01*
X158244602Y-116259126D01*
X158156609Y-116390815D01*
X158156602Y-116390828D01*
X158096264Y-116536499D01*
X158096261Y-116536511D01*
X158065500Y-116691154D01*
X158065500Y-116848847D01*
X158096261Y-117003490D01*
X158096264Y-117003502D01*
X158156602Y-117149173D01*
X158156609Y-117149186D01*
X158244210Y-117280289D01*
X158244213Y-117280293D01*
X158355707Y-117391787D01*
X158355711Y-117391790D01*
X158486814Y-117479391D01*
X158486827Y-117479398D01*
X158632498Y-117539736D01*
X158632503Y-117539738D01*
X158751962Y-117563500D01*
X158787153Y-117570500D01*
X158787156Y-117570501D01*
X158787158Y-117570501D01*
X158944844Y-117570501D01*
X158944845Y-117570500D01*
X159099497Y-117539738D01*
X159245179Y-117479395D01*
X159326609Y-117424984D01*
X159393286Y-117404107D01*
X159460666Y-117422591D01*
X159507357Y-117474570D01*
X159519500Y-117528087D01*
X159519500Y-120892193D01*
X159499815Y-120959232D01*
X159447011Y-121004987D01*
X159377853Y-121014931D01*
X159356499Y-121009899D01*
X159219797Y-120964601D01*
X159219795Y-120964600D01*
X159117010Y-120954100D01*
X157366998Y-120954100D01*
X157366981Y-120954101D01*
X157264203Y-120964600D01*
X157264200Y-120964601D01*
X157097668Y-121019785D01*
X157097663Y-121019787D01*
X156948342Y-121111889D01*
X156824289Y-121235942D01*
X156732187Y-121385263D01*
X156732185Y-121385268D01*
X156704544Y-121468685D01*
X156677001Y-121551803D01*
X156677001Y-121551804D01*
X156677000Y-121551804D01*
X156666500Y-121654583D01*
X156666500Y-123404601D01*
X156666501Y-123404618D01*
X156677000Y-123507396D01*
X156677001Y-123507399D01*
X156732185Y-123673931D01*
X156732187Y-123673936D01*
X156766862Y-123730153D01*
X156824288Y-123823256D01*
X156948344Y-123947312D01*
X157097666Y-124039414D01*
X157264203Y-124094599D01*
X157366991Y-124105100D01*
X159117008Y-124105099D01*
X159219797Y-124094599D01*
X159356497Y-124049300D01*
X159426324Y-124046899D01*
X159486366Y-124082631D01*
X159517559Y-124145151D01*
X159519500Y-124167007D01*
X159519500Y-132728593D01*
X159499815Y-132795632D01*
X159447011Y-132841387D01*
X159377853Y-132851331D01*
X159356499Y-132846299D01*
X159219797Y-132801001D01*
X159219795Y-132801000D01*
X159117016Y-132790500D01*
X157388500Y-132790500D01*
X157321461Y-132770815D01*
X157275706Y-132718011D01*
X157264500Y-132666500D01*
X157264500Y-132509155D01*
X157264499Y-132509153D01*
X157254395Y-132458358D01*
X157233737Y-132354503D01*
X157212693Y-132303698D01*
X157173397Y-132208827D01*
X157173390Y-132208814D01*
X157085789Y-132077711D01*
X157085786Y-132077707D01*
X156974292Y-131966213D01*
X156974288Y-131966210D01*
X156843185Y-131878609D01*
X156843172Y-131878602D01*
X156697501Y-131818264D01*
X156697489Y-131818261D01*
X156542845Y-131787500D01*
X156542842Y-131787500D01*
X156385158Y-131787500D01*
X156385155Y-131787500D01*
X156230510Y-131818261D01*
X156230498Y-131818264D01*
X156084827Y-131878602D01*
X156084814Y-131878609D01*
X155953711Y-131966210D01*
X155953707Y-131966213D01*
X155842213Y-132077707D01*
X155842210Y-132077711D01*
X155754609Y-132208814D01*
X155754602Y-132208827D01*
X155694264Y-132354498D01*
X155694261Y-132354510D01*
X155663500Y-132509153D01*
X155663500Y-132666846D01*
X155694261Y-132821489D01*
X155694264Y-132821501D01*
X155754602Y-132967172D01*
X155754609Y-132967185D01*
X155842210Y-133098288D01*
X155842213Y-133098292D01*
X155953707Y-133209786D01*
X155953711Y-133209789D01*
X156084814Y-133297390D01*
X156084827Y-133297397D01*
X156230498Y-133357735D01*
X156230503Y-133357737D01*
X156383665Y-133388203D01*
X156385153Y-133388499D01*
X156385156Y-133388500D01*
X156542500Y-133388500D01*
X156609539Y-133408185D01*
X156655294Y-133460989D01*
X156666500Y-133512500D01*
X156666500Y-135241001D01*
X156666501Y-135241018D01*
X156677000Y-135343796D01*
X156677001Y-135343799D01*
X156732185Y-135510331D01*
X156732186Y-135510334D01*
X156824288Y-135659656D01*
X156948344Y-135783712D01*
X157097666Y-135875814D01*
X157264203Y-135930999D01*
X157366991Y-135941500D01*
X159117008Y-135941499D01*
X159219797Y-135930999D01*
X159356497Y-135885700D01*
X159426324Y-135883299D01*
X159486366Y-135919031D01*
X159517559Y-135981551D01*
X159519500Y-136003407D01*
X159519500Y-142885500D01*
X159499815Y-142952539D01*
X159447011Y-142998294D01*
X159395500Y-143009500D01*
X127624500Y-143009500D01*
X127557461Y-142989815D01*
X127511706Y-142937011D01*
X127500500Y-142885500D01*
X127500500Y-140851902D01*
X128039500Y-140851902D01*
X128039500Y-141088097D01*
X128076446Y-141321368D01*
X128149433Y-141545996D01*
X128256657Y-141756433D01*
X128395483Y-141947510D01*
X128562490Y-142114517D01*
X128753567Y-142253343D01*
X128852991Y-142304002D01*
X128964003Y-142360566D01*
X128964005Y-142360566D01*
X128964008Y-142360568D01*
X129084412Y-142399689D01*
X129188631Y-142433553D01*
X129421903Y-142470500D01*
X129421908Y-142470500D01*
X129658097Y-142470500D01*
X129891368Y-142433553D01*
X130115992Y-142360568D01*
X130326433Y-142253343D01*
X130517510Y-142114517D01*
X130684517Y-141947510D01*
X130823343Y-141756433D01*
X130930568Y-141545992D01*
X131003553Y-141321368D01*
X131040500Y-141088097D01*
X131040500Y-140851902D01*
X155979500Y-140851902D01*
X155979500Y-141088097D01*
X156016446Y-141321368D01*
X156089433Y-141545996D01*
X156196657Y-141756433D01*
X156335483Y-141947510D01*
X156502490Y-142114517D01*
X156693567Y-142253343D01*
X156792991Y-142304002D01*
X156904003Y-142360566D01*
X156904005Y-142360566D01*
X156904008Y-142360568D01*
X157024412Y-142399689D01*
X157128631Y-142433553D01*
X157361903Y-142470500D01*
X157361908Y-142470500D01*
X157598097Y-142470500D01*
X157831368Y-142433553D01*
X158055992Y-142360568D01*
X158266433Y-142253343D01*
X158457510Y-142114517D01*
X158624517Y-141947510D01*
X158763343Y-141756433D01*
X158870568Y-141545992D01*
X158943553Y-141321368D01*
X158980500Y-141088097D01*
X158980500Y-140851902D01*
X158943553Y-140618631D01*
X158870566Y-140394003D01*
X158763342Y-140183566D01*
X158624517Y-139992490D01*
X158457510Y-139825483D01*
X158266433Y-139686657D01*
X158055996Y-139579433D01*
X157831368Y-139506446D01*
X157598097Y-139469500D01*
X157598092Y-139469500D01*
X157361908Y-139469500D01*
X157361903Y-139469500D01*
X157128631Y-139506446D01*
X156904003Y-139579433D01*
X156693566Y-139686657D01*
X156584550Y-139765862D01*
X156502490Y-139825483D01*
X156502488Y-139825485D01*
X156502487Y-139825485D01*
X156335485Y-139992487D01*
X156335485Y-139992488D01*
X156335483Y-139992490D01*
X156275862Y-140074550D01*
X156196657Y-140183566D01*
X156089433Y-140394003D01*
X156016446Y-140618631D01*
X155979500Y-140851902D01*
X131040500Y-140851902D01*
X131003553Y-140618631D01*
X130930566Y-140394003D01*
X130823342Y-140183566D01*
X130684517Y-139992490D01*
X130517510Y-139825483D01*
X130326433Y-139686657D01*
X130115996Y-139579433D01*
X129891368Y-139506446D01*
X129658097Y-139469500D01*
X129658092Y-139469500D01*
X129421908Y-139469500D01*
X129421903Y-139469500D01*
X129188631Y-139506446D01*
X128964003Y-139579433D01*
X128753566Y-139686657D01*
X128644550Y-139765862D01*
X128562490Y-139825483D01*
X128562488Y-139825485D01*
X128562487Y-139825485D01*
X128395485Y-139992487D01*
X128395485Y-139992488D01*
X128395483Y-139992490D01*
X128335862Y-140074550D01*
X128256657Y-140183566D01*
X128149433Y-140394003D01*
X128076446Y-140618631D01*
X128039500Y-140851902D01*
X127500500Y-140851902D01*
X127500500Y-136886153D01*
X130474500Y-136886153D01*
X130474500Y-137043846D01*
X130505261Y-137198489D01*
X130505264Y-137198501D01*
X130565602Y-137344172D01*
X130565609Y-137344185D01*
X130653210Y-137475288D01*
X130653213Y-137475292D01*
X130764707Y-137586786D01*
X130764711Y-137586789D01*
X130895814Y-137674390D01*
X130895827Y-137674397D01*
X131041498Y-137734735D01*
X131041503Y-137734737D01*
X131196153Y-137765499D01*
X131196156Y-137765500D01*
X131196158Y-137765500D01*
X131353844Y-137765500D01*
X131353845Y-137765499D01*
X131508497Y-137734737D01*
X131654179Y-137674394D01*
X131785289Y-137586789D01*
X131896789Y-137475289D01*
X131984394Y-137344179D01*
X132044737Y-137198497D01*
X132075500Y-137043842D01*
X132075500Y-136886158D01*
X132075500Y-136886155D01*
X132075499Y-136886153D01*
X132044738Y-136731510D01*
X132044737Y-136731503D01*
X132044735Y-136731498D01*
X131984397Y-136585827D01*
X131984390Y-136585814D01*
X131896789Y-136454711D01*
X131896786Y-136454707D01*
X131785292Y-136343213D01*
X131785288Y-136343210D01*
X131654185Y-136255609D01*
X131654172Y-136255602D01*
X131508501Y-136195264D01*
X131508489Y-136195261D01*
X131353845Y-136164500D01*
X131353842Y-136164500D01*
X131196158Y-136164500D01*
X131196155Y-136164500D01*
X131041510Y-136195261D01*
X131041498Y-136195264D01*
X130895827Y-136255602D01*
X130895814Y-136255609D01*
X130764711Y-136343210D01*
X130764707Y-136343213D01*
X130653213Y-136454707D01*
X130653210Y-136454711D01*
X130565609Y-136585814D01*
X130565602Y-136585827D01*
X130505264Y-136731498D01*
X130505261Y-136731510D01*
X130474500Y-136886153D01*
X127500500Y-136886153D01*
X127500500Y-131747153D01*
X130490101Y-131747153D01*
X130490101Y-131904846D01*
X130520862Y-132059489D01*
X130520865Y-132059501D01*
X130581203Y-132205172D01*
X130581210Y-132205185D01*
X130668811Y-132336288D01*
X130668814Y-132336292D01*
X130780308Y-132447786D01*
X130780312Y-132447789D01*
X130911415Y-132535390D01*
X130911428Y-132535397D01*
X131020948Y-132580761D01*
X131057104Y-132595737D01*
X131159204Y-132616046D01*
X131211754Y-132626499D01*
X131211757Y-132626500D01*
X131211759Y-132626500D01*
X131369445Y-132626500D01*
X131369446Y-132626499D01*
X131524098Y-132595737D01*
X131669780Y-132535394D01*
X131800890Y-132447789D01*
X131912390Y-132336289D01*
X131999995Y-132205179D01*
X132060338Y-132059497D01*
X132091101Y-131904842D01*
X132091101Y-131747158D01*
X132091101Y-131747155D01*
X132091100Y-131747153D01*
X132075478Y-131668617D01*
X132060338Y-131592503D01*
X132036808Y-131535696D01*
X131999998Y-131446827D01*
X131999991Y-131446814D01*
X131912390Y-131315711D01*
X131912387Y-131315707D01*
X131800893Y-131204213D01*
X131800889Y-131204210D01*
X131669786Y-131116609D01*
X131669773Y-131116602D01*
X131524102Y-131056264D01*
X131524090Y-131056261D01*
X131369446Y-131025500D01*
X131369443Y-131025500D01*
X131211759Y-131025500D01*
X131211756Y-131025500D01*
X131057111Y-131056261D01*
X131057099Y-131056264D01*
X130911428Y-131116602D01*
X130911415Y-131116609D01*
X130780312Y-131204210D01*
X130780308Y-131204213D01*
X130668814Y-131315707D01*
X130668811Y-131315711D01*
X130581210Y-131446814D01*
X130581203Y-131446827D01*
X130520865Y-131592498D01*
X130520862Y-131592510D01*
X130490101Y-131747153D01*
X127500500Y-131747153D01*
X127500500Y-124737117D01*
X127520185Y-124670078D01*
X127572989Y-124624323D01*
X127642147Y-124614379D01*
X127677124Y-124627061D01*
X127677918Y-124625360D01*
X127684459Y-124628410D01*
X127684466Y-124628414D01*
X127851003Y-124683599D01*
X127953791Y-124694100D01*
X129414025Y-124694099D01*
X129481064Y-124713784D01*
X129526819Y-124766587D01*
X129536763Y-124835746D01*
X129531357Y-124855471D01*
X129532032Y-124855676D01*
X129530262Y-124861510D01*
X129499501Y-125016153D01*
X129499501Y-125173846D01*
X129530262Y-125328489D01*
X129530265Y-125328501D01*
X129590603Y-125474172D01*
X129590610Y-125474185D01*
X129678211Y-125605288D01*
X129678214Y-125605292D01*
X129789708Y-125716786D01*
X129789712Y-125716789D01*
X129920815Y-125804390D01*
X129920828Y-125804397D01*
X130066499Y-125864735D01*
X130066504Y-125864737D01*
X130221154Y-125895499D01*
X130221157Y-125895500D01*
X130221159Y-125895500D01*
X130378845Y-125895500D01*
X130378846Y-125895499D01*
X130533498Y-125864737D01*
X130668437Y-125808844D01*
X130679173Y-125804397D01*
X130679173Y-125804396D01*
X130679180Y-125804394D01*
X130810290Y-125716789D01*
X130921790Y-125605289D01*
X131009395Y-125474179D01*
X131069738Y-125328497D01*
X131100501Y-125173842D01*
X131100501Y-125016158D01*
X131100501Y-125016155D01*
X131098565Y-125006423D01*
X131098565Y-125006422D01*
X131094964Y-124988318D01*
X132414500Y-124988318D01*
X132414500Y-125146011D01*
X132445261Y-125300654D01*
X132445264Y-125300666D01*
X132505602Y-125446337D01*
X132505609Y-125446350D01*
X132593209Y-125577452D01*
X132593210Y-125577453D01*
X132593211Y-125577454D01*
X132614681Y-125598924D01*
X132648166Y-125660245D01*
X132651000Y-125686605D01*
X132651000Y-127425747D01*
X132651000Y-127574253D01*
X132657551Y-127598702D01*
X132682960Y-127693533D01*
X132689435Y-127717696D01*
X132689436Y-127717699D01*
X132763684Y-127846300D01*
X132763689Y-127846306D01*
X132875761Y-127958378D01*
X132875767Y-127958383D01*
X134400681Y-129483297D01*
X134434166Y-129544620D01*
X134437000Y-129570978D01*
X134437000Y-131392254D01*
X134451620Y-131446820D01*
X134451621Y-131446820D01*
X134475436Y-131535699D01*
X134549684Y-131664300D01*
X134549689Y-131664306D01*
X134661761Y-131776378D01*
X134661767Y-131776383D01*
X135688346Y-132802962D01*
X135688356Y-132802973D01*
X135692686Y-132807303D01*
X135692687Y-132807304D01*
X135797696Y-132912313D01*
X135892727Y-132967179D01*
X135926304Y-132986565D01*
X136069747Y-133025000D01*
X136069748Y-133025000D01*
X136069749Y-133025000D01*
X139901251Y-133025000D01*
X139901253Y-133025000D01*
X140044696Y-132986565D01*
X140078273Y-132967179D01*
X140173304Y-132912313D01*
X140278313Y-132807304D01*
X140278313Y-132807302D01*
X140288513Y-132797103D01*
X140288516Y-132797098D01*
X140422798Y-132662817D01*
X140484121Y-132629334D01*
X140510478Y-132626500D01*
X140540844Y-132626500D01*
X140540845Y-132626499D01*
X140695497Y-132595737D01*
X140841179Y-132535394D01*
X140972289Y-132447789D01*
X141083789Y-132336289D01*
X141171394Y-132205179D01*
X141231737Y-132059497D01*
X141262500Y-131904842D01*
X141262500Y-131747158D01*
X141262500Y-131747155D01*
X141262499Y-131747153D01*
X141246877Y-131668617D01*
X141231737Y-131592503D01*
X141208207Y-131535696D01*
X141171397Y-131446827D01*
X141171390Y-131446814D01*
X141083789Y-131315711D01*
X141083786Y-131315707D01*
X141016800Y-131248721D01*
X140983315Y-131187398D01*
X140988299Y-131117706D01*
X141030171Y-131061773D01*
X141057020Y-131046483D01*
X141196779Y-130988594D01*
X141327889Y-130900989D01*
X141439389Y-130789489D01*
X141526994Y-130658379D01*
X141587337Y-130512697D01*
X141588838Y-130505153D01*
X142709500Y-130505153D01*
X142709500Y-130662846D01*
X142740261Y-130817489D01*
X142740264Y-130817501D01*
X142800602Y-130963172D01*
X142800609Y-130963185D01*
X142888210Y-131094288D01*
X142888213Y-131094292D01*
X142999707Y-131205786D01*
X142999711Y-131205789D01*
X143130814Y-131293390D01*
X143130827Y-131293397D01*
X143184699Y-131315711D01*
X143276503Y-131353737D01*
X143431153Y-131384499D01*
X143431156Y-131384500D01*
X143431158Y-131384500D01*
X143588844Y-131384500D01*
X143588845Y-131384499D01*
X143743497Y-131353737D01*
X143879264Y-131297501D01*
X143889172Y-131293397D01*
X143889172Y-131293396D01*
X143889179Y-131293394D01*
X144020289Y-131205789D01*
X144038680Y-131187398D01*
X144057319Y-131168760D01*
X144118642Y-131135275D01*
X144188334Y-131140259D01*
X144232681Y-131168760D01*
X144269707Y-131205786D01*
X144269711Y-131205789D01*
X144400814Y-131293390D01*
X144400827Y-131293397D01*
X144454699Y-131315711D01*
X144546503Y-131353737D01*
X144701153Y-131384499D01*
X144701156Y-131384500D01*
X144701158Y-131384500D01*
X144858844Y-131384500D01*
X144858845Y-131384499D01*
X145013497Y-131353737D01*
X145149264Y-131297501D01*
X145159172Y-131293397D01*
X145159172Y-131293396D01*
X145159179Y-131293394D01*
X145290289Y-131205789D01*
X145401789Y-131094289D01*
X145489394Y-130963179D01*
X145549737Y-130817497D01*
X145580500Y-130662842D01*
X145580500Y-130505158D01*
X145580500Y-130505155D01*
X145580499Y-130505153D01*
X145567979Y-130442210D01*
X145549737Y-130350503D01*
X145526441Y-130294261D01*
X145489397Y-130204827D01*
X145489390Y-130204814D01*
X145401789Y-130073711D01*
X145401786Y-130073707D01*
X145290292Y-129962213D01*
X145290288Y-129962210D01*
X145159185Y-129874609D01*
X145159172Y-129874602D01*
X145013501Y-129814264D01*
X145013489Y-129814261D01*
X144858845Y-129783500D01*
X144858842Y-129783500D01*
X144701158Y-129783500D01*
X144701155Y-129783500D01*
X144546510Y-129814261D01*
X144546498Y-129814264D01*
X144400827Y-129874602D01*
X144400814Y-129874609D01*
X144269711Y-129962210D01*
X144269707Y-129962213D01*
X144232681Y-129999240D01*
X144171358Y-130032725D01*
X144101666Y-130027741D01*
X144057319Y-129999240D01*
X144020292Y-129962213D01*
X144020288Y-129962210D01*
X143889185Y-129874609D01*
X143889172Y-129874602D01*
X143743501Y-129814264D01*
X143743489Y-129814261D01*
X143588845Y-129783500D01*
X143588842Y-129783500D01*
X143431158Y-129783500D01*
X143431155Y-129783500D01*
X143276510Y-129814261D01*
X143276498Y-129814264D01*
X143130827Y-129874602D01*
X143130814Y-129874609D01*
X142999711Y-129962210D01*
X142999707Y-129962213D01*
X142888213Y-130073707D01*
X142888210Y-130073711D01*
X142800609Y-130204814D01*
X142800602Y-130204827D01*
X142740264Y-130350498D01*
X142740261Y-130350510D01*
X142709500Y-130505153D01*
X141588838Y-130505153D01*
X141618100Y-130358042D01*
X141618100Y-130200358D01*
X141618100Y-130200355D01*
X141618099Y-130200353D01*
X141603148Y-130125191D01*
X141587337Y-130045703D01*
X141534501Y-129918146D01*
X141527033Y-129848680D01*
X141545960Y-129801807D01*
X141552394Y-129792179D01*
X141612737Y-129646497D01*
X141643500Y-129491842D01*
X141643500Y-129334158D01*
X141643500Y-129334155D01*
X141643499Y-129334153D01*
X141631292Y-129272786D01*
X141612737Y-129179503D01*
X141567587Y-129070500D01*
X141552397Y-129033827D01*
X141552390Y-129033814D01*
X141464789Y-128902711D01*
X141464786Y-128902707D01*
X141388108Y-128826029D01*
X141354623Y-128764706D01*
X141359607Y-128695014D01*
X141398996Y-128642397D01*
X141398386Y-128641653D01*
X141401413Y-128639168D01*
X141401479Y-128639081D01*
X141401775Y-128638871D01*
X141403090Y-128637791D01*
X141403094Y-128637789D01*
X141514594Y-128526289D01*
X141602199Y-128395179D01*
X141662542Y-128249497D01*
X141693305Y-128094842D01*
X141693305Y-127937158D01*
X141693305Y-127937155D01*
X141693304Y-127937153D01*
X141688201Y-127911498D01*
X141662542Y-127782503D01*
X141639678Y-127727304D01*
X141602201Y-127636825D01*
X141602199Y-127636821D01*
X141576725Y-127598697D01*
X141560818Y-127574891D01*
X141539940Y-127508216D01*
X141558424Y-127440835D01*
X141560818Y-127437111D01*
X141602199Y-127375181D01*
X141662542Y-127229499D01*
X141693305Y-127074844D01*
X141693305Y-126917160D01*
X141693305Y-126917157D01*
X141693304Y-126917155D01*
X141662543Y-126762512D01*
X141662542Y-126762505D01*
X141640769Y-126709939D01*
X141602202Y-126616829D01*
X141602195Y-126616816D01*
X141514594Y-126485713D01*
X141514591Y-126485709D01*
X141403097Y-126374215D01*
X141403093Y-126374212D01*
X141271990Y-126286611D01*
X141271977Y-126286604D01*
X141126306Y-126226266D01*
X141126294Y-126226263D01*
X140971650Y-126195502D01*
X140971647Y-126195502D01*
X140813963Y-126195502D01*
X140813960Y-126195502D01*
X140659315Y-126226263D01*
X140659303Y-126226266D01*
X140545646Y-126273344D01*
X140476176Y-126280813D01*
X140413697Y-126249537D01*
X140378046Y-126189448D01*
X140380540Y-126119623D01*
X140410511Y-126071104D01*
X140676797Y-125804819D01*
X140738120Y-125771334D01*
X140764478Y-125768500D01*
X140794844Y-125768500D01*
X140794845Y-125768499D01*
X140949497Y-125737737D01*
X141095179Y-125677394D01*
X141226289Y-125589789D01*
X141269549Y-125546529D01*
X141330872Y-125513043D01*
X141400563Y-125518027D01*
X141444912Y-125546528D01*
X150674181Y-134775797D01*
X150707666Y-134837120D01*
X150710500Y-134863478D01*
X150710500Y-134893846D01*
X150741261Y-135048489D01*
X150741264Y-135048501D01*
X150801602Y-135194172D01*
X150801609Y-135194185D01*
X150889210Y-135325288D01*
X150889213Y-135325292D01*
X151000707Y-135436786D01*
X151000711Y-135436789D01*
X151131814Y-135524390D01*
X151131827Y-135524397D01*
X151277498Y-135584735D01*
X151277503Y-135584737D01*
X151432153Y-135615499D01*
X151432156Y-135615500D01*
X151432158Y-135615500D01*
X151589844Y-135615500D01*
X151589845Y-135615499D01*
X151744497Y-135584737D01*
X151890179Y-135524394D01*
X152021289Y-135436789D01*
X152132789Y-135325289D01*
X152220394Y-135194179D01*
X152280737Y-135048497D01*
X152311500Y-134893842D01*
X152311500Y-134736158D01*
X152311500Y-134736155D01*
X152311499Y-134736153D01*
X152280738Y-134581510D01*
X152280737Y-134581503D01*
X152280735Y-134581498D01*
X152220397Y-134435827D01*
X152220390Y-134435814D01*
X152132789Y-134304711D01*
X152132786Y-134304707D01*
X152021292Y-134193213D01*
X152021288Y-134193210D01*
X151895298Y-134109026D01*
X151850493Y-134055414D01*
X151841786Y-133986089D01*
X151849628Y-133958471D01*
X151878693Y-133888301D01*
X151899737Y-133837497D01*
X151930500Y-133682842D01*
X151930500Y-133575953D01*
X153072700Y-133575953D01*
X153072700Y-133733646D01*
X153103461Y-133888289D01*
X153103464Y-133888301D01*
X153163802Y-134033972D01*
X153163809Y-134033985D01*
X153251410Y-134165088D01*
X153251413Y-134165092D01*
X153362907Y-134276586D01*
X153362911Y-134276589D01*
X153494014Y-134364190D01*
X153494027Y-134364197D01*
X153639698Y-134424535D01*
X153639703Y-134424537D01*
X153794353Y-134455299D01*
X153794356Y-134455300D01*
X153794358Y-134455300D01*
X153952044Y-134455300D01*
X153952045Y-134455299D01*
X154106697Y-134424537D01*
X154252379Y-134364194D01*
X154383489Y-134276589D01*
X154494989Y-134165089D01*
X154582594Y-134033979D01*
X154642937Y-133888297D01*
X154673700Y-133733642D01*
X154673700Y-133575958D01*
X154673700Y-133575955D01*
X154673699Y-133575953D01*
X154663595Y-133525158D01*
X154642937Y-133421303D01*
X154621893Y-133370498D01*
X154582597Y-133275627D01*
X154582590Y-133275614D01*
X154494989Y-133144511D01*
X154494986Y-133144507D01*
X154383492Y-133033013D01*
X154383488Y-133033010D01*
X154252385Y-132945409D01*
X154252372Y-132945402D01*
X154106701Y-132885064D01*
X154106689Y-132885061D01*
X153952045Y-132854300D01*
X153952042Y-132854300D01*
X153794358Y-132854300D01*
X153794355Y-132854300D01*
X153639710Y-132885061D01*
X153639698Y-132885064D01*
X153494027Y-132945402D01*
X153494014Y-132945409D01*
X153362911Y-133033010D01*
X153362907Y-133033013D01*
X153251413Y-133144507D01*
X153251410Y-133144511D01*
X153163809Y-133275614D01*
X153163802Y-133275627D01*
X153103464Y-133421298D01*
X153103461Y-133421310D01*
X153072700Y-133575953D01*
X151930500Y-133575953D01*
X151930500Y-133525158D01*
X151930500Y-133525155D01*
X151930499Y-133525153D01*
X151903317Y-133388500D01*
X151899737Y-133370503D01*
X151869456Y-133297397D01*
X151839397Y-133224827D01*
X151839390Y-133224814D01*
X151770978Y-133122429D01*
X151750100Y-133055752D01*
X151768584Y-132988372D01*
X151770979Y-132984646D01*
X151816589Y-132916387D01*
X151816590Y-132916384D01*
X151816594Y-132916379D01*
X151876937Y-132770697D01*
X151907700Y-132616042D01*
X151907700Y-132458358D01*
X151907700Y-132458355D01*
X151907699Y-132458353D01*
X151883419Y-132336292D01*
X151876937Y-132303703D01*
X151876935Y-132303698D01*
X151816597Y-132158027D01*
X151816590Y-132158014D01*
X151728989Y-132026911D01*
X151728986Y-132026907D01*
X151617492Y-131915413D01*
X151617488Y-131915410D01*
X151486385Y-131827809D01*
X151486372Y-131827802D01*
X151340701Y-131767464D01*
X151340689Y-131767461D01*
X151186045Y-131736700D01*
X151186042Y-131736700D01*
X151028358Y-131736700D01*
X151028355Y-131736700D01*
X150873709Y-131767461D01*
X150870163Y-131768537D01*
X150868213Y-131768554D01*
X150867728Y-131768651D01*
X150867709Y-131768558D01*
X150800296Y-131769160D01*
X150741183Y-131731911D01*
X150711592Y-131668617D01*
X150720919Y-131599373D01*
X150733029Y-131579771D01*
X150732405Y-131579354D01*
X150823390Y-131443185D01*
X150823390Y-131443184D01*
X150823394Y-131443179D01*
X150883737Y-131297497D01*
X150914500Y-131142842D01*
X150914500Y-130985158D01*
X150914500Y-130985155D01*
X150914499Y-130985153D01*
X150901102Y-130917801D01*
X150883737Y-130830503D01*
X150883735Y-130830498D01*
X150823397Y-130684827D01*
X150823390Y-130684814D01*
X150735789Y-130553711D01*
X150735786Y-130553707D01*
X150624292Y-130442213D01*
X150624288Y-130442210D01*
X150493185Y-130354609D01*
X150493172Y-130354602D01*
X150347501Y-130294264D01*
X150347489Y-130294261D01*
X150192845Y-130263500D01*
X150192842Y-130263500D01*
X150035158Y-130263500D01*
X150035155Y-130263500D01*
X149880510Y-130294261D01*
X149880498Y-130294264D01*
X149734827Y-130354602D01*
X149734814Y-130354609D01*
X149603711Y-130442210D01*
X149603707Y-130442213D01*
X149492213Y-130553707D01*
X149492210Y-130553711D01*
X149404609Y-130684814D01*
X149404602Y-130684827D01*
X149344264Y-130830498D01*
X149344261Y-130830510D01*
X149313500Y-130985153D01*
X149313500Y-131142846D01*
X149344261Y-131297489D01*
X149344264Y-131297501D01*
X149404602Y-131443172D01*
X149404609Y-131443185D01*
X149492210Y-131574288D01*
X149492213Y-131574292D01*
X149603707Y-131685786D01*
X149603711Y-131685789D01*
X149734814Y-131773390D01*
X149734827Y-131773397D01*
X149866184Y-131827806D01*
X149880503Y-131833737D01*
X150035153Y-131864499D01*
X150035156Y-131864500D01*
X150035158Y-131864500D01*
X150192844Y-131864500D01*
X150192845Y-131864499D01*
X150347497Y-131833737D01*
X150347509Y-131833732D01*
X150351021Y-131832667D01*
X150352967Y-131832649D01*
X150353472Y-131832549D01*
X150353491Y-131832644D01*
X150420888Y-131832035D01*
X150480005Y-131869276D01*
X150509604Y-131932566D01*
X150500287Y-132001812D01*
X150488175Y-132021431D01*
X150488795Y-132021846D01*
X150397809Y-132158014D01*
X150397802Y-132158027D01*
X150337464Y-132303698D01*
X150337461Y-132303710D01*
X150306700Y-132458353D01*
X150306700Y-132513722D01*
X150287015Y-132580761D01*
X150234211Y-132626516D01*
X150165053Y-132636460D01*
X150101497Y-132607435D01*
X150095019Y-132601403D01*
X141526573Y-124032957D01*
X141493088Y-123971634D01*
X141498072Y-123901942D01*
X141526574Y-123857594D01*
X141574331Y-123809837D01*
X141574334Y-123809834D01*
X141661939Y-123678724D01*
X141669758Y-123659845D01*
X141713594Y-123605445D01*
X141779886Y-123583376D01*
X141847587Y-123600652D01*
X141872000Y-123619616D01*
X147499181Y-129246797D01*
X147532666Y-129308120D01*
X147535500Y-129334478D01*
X147535500Y-129364846D01*
X147566261Y-129519489D01*
X147566264Y-129519501D01*
X147626602Y-129665172D01*
X147626609Y-129665185D01*
X147714210Y-129796288D01*
X147714213Y-129796292D01*
X147825707Y-129907786D01*
X147825711Y-129907789D01*
X147956814Y-129995390D01*
X147956827Y-129995397D01*
X148078295Y-130045710D01*
X148102503Y-130055737D01*
X148257153Y-130086499D01*
X148257156Y-130086500D01*
X148257158Y-130086500D01*
X148414844Y-130086500D01*
X148414845Y-130086499D01*
X148569497Y-130055737D01*
X148715179Y-129995394D01*
X148846289Y-129907789D01*
X148957789Y-129796289D01*
X149045394Y-129665179D01*
X149105737Y-129519497D01*
X149136500Y-129364842D01*
X149136500Y-129207158D01*
X149136500Y-129207155D01*
X149136499Y-129207153D01*
X149109317Y-129070500D01*
X149105737Y-129052503D01*
X149075456Y-128979397D01*
X149045397Y-128906827D01*
X149045390Y-128906814D01*
X148957790Y-128775712D01*
X148957789Y-128775711D01*
X148935953Y-128753875D01*
X148902469Y-128692555D01*
X148907452Y-128622864D01*
X148920529Y-128597309D01*
X148969394Y-128524179D01*
X149029737Y-128378497D01*
X149060500Y-128223842D01*
X149060500Y-128066158D01*
X149060500Y-128066155D01*
X149060499Y-128066153D01*
X149053151Y-128029211D01*
X149029737Y-127911503D01*
X149021170Y-127890821D01*
X148969397Y-127765827D01*
X148969390Y-127765814D01*
X148881789Y-127634711D01*
X148881786Y-127634707D01*
X148770292Y-127523213D01*
X148770288Y-127523210D01*
X148639185Y-127435609D01*
X148639172Y-127435602D01*
X148493501Y-127375264D01*
X148493489Y-127375261D01*
X148338845Y-127344500D01*
X148338842Y-127344500D01*
X148308478Y-127344500D01*
X148241439Y-127324815D01*
X148220797Y-127308181D01*
X145910178Y-124997562D01*
X145876693Y-124936239D01*
X145881677Y-124866547D01*
X145910176Y-124822201D01*
X145965289Y-124767089D01*
X146052894Y-124635979D01*
X146113237Y-124490297D01*
X146144000Y-124335642D01*
X146144000Y-124271265D01*
X146160614Y-124209264D01*
X146196561Y-124147002D01*
X146196562Y-124147001D01*
X146196562Y-124146999D01*
X146196564Y-124146997D01*
X146235000Y-124003553D01*
X146235000Y-123855048D01*
X146235000Y-123847453D01*
X146234999Y-123847435D01*
X146234999Y-122703638D01*
X146254684Y-122636599D01*
X146307488Y-122590844D01*
X146376646Y-122580900D01*
X146406449Y-122589076D01*
X146451503Y-122607738D01*
X146584244Y-122634142D01*
X146606153Y-122638500D01*
X146606156Y-122638501D01*
X146705617Y-122638501D01*
X146772656Y-122658186D01*
X146818411Y-122710990D01*
X146828355Y-122780148D01*
X146808719Y-122831392D01*
X146737609Y-122937814D01*
X146737602Y-122937827D01*
X146677264Y-123083498D01*
X146677261Y-123083510D01*
X146646500Y-123238153D01*
X146646500Y-123395846D01*
X146677261Y-123550489D01*
X146677264Y-123550501D01*
X146737602Y-123696172D01*
X146737609Y-123696185D01*
X146825210Y-123827288D01*
X146825213Y-123827292D01*
X146936707Y-123938786D01*
X146936711Y-123938789D01*
X147067814Y-124026390D01*
X147067827Y-124026397D01*
X147170732Y-124069021D01*
X147213503Y-124086737D01*
X147368153Y-124117499D01*
X147368156Y-124117500D01*
X147368158Y-124117500D01*
X147398522Y-124117500D01*
X147465561Y-124137185D01*
X147486203Y-124153819D01*
X150645730Y-127313346D01*
X150679215Y-127374669D01*
X150674231Y-127444361D01*
X150632359Y-127500294D01*
X150605502Y-127515588D01*
X150496824Y-127560604D01*
X150496814Y-127560609D01*
X150365711Y-127648210D01*
X150365707Y-127648213D01*
X150254213Y-127759707D01*
X150254210Y-127759711D01*
X150166609Y-127890814D01*
X150166602Y-127890827D01*
X150106264Y-128036498D01*
X150106261Y-128036510D01*
X150075500Y-128191153D01*
X150075500Y-128348846D01*
X150106261Y-128503489D01*
X150106264Y-128503501D01*
X150166602Y-128649172D01*
X150166609Y-128649185D01*
X150254210Y-128780288D01*
X150254213Y-128780292D01*
X150365707Y-128891786D01*
X150365711Y-128891789D01*
X150496814Y-128979390D01*
X150496827Y-128979397D01*
X150628220Y-129033821D01*
X150642503Y-129039737D01*
X150797153Y-129070499D01*
X150797156Y-129070500D01*
X150797158Y-129070500D01*
X150954844Y-129070500D01*
X150954845Y-129070499D01*
X151109497Y-129039737D01*
X151255179Y-128979394D01*
X151386289Y-128891789D01*
X151497789Y-128780289D01*
X151585394Y-128649179D01*
X151630411Y-128540498D01*
X151674251Y-128486094D01*
X151740545Y-128464029D01*
X151808245Y-128481308D01*
X151832653Y-128500269D01*
X152053681Y-128721297D01*
X152087166Y-128782620D01*
X152090000Y-128808978D01*
X152090000Y-129682559D01*
X152070315Y-129749598D01*
X152053681Y-129770240D01*
X152032213Y-129791707D01*
X152032210Y-129791711D01*
X151944609Y-129922814D01*
X151944602Y-129922827D01*
X151884264Y-130068498D01*
X151884261Y-130068510D01*
X151853500Y-130223153D01*
X151853500Y-130380846D01*
X151884261Y-130535489D01*
X151884264Y-130535501D01*
X151944602Y-130681172D01*
X151944609Y-130681185D01*
X152032210Y-130812288D01*
X152032213Y-130812292D01*
X152143707Y-130923786D01*
X152143711Y-130923789D01*
X152274814Y-131011390D01*
X152274827Y-131011397D01*
X152420498Y-131071735D01*
X152420503Y-131071737D01*
X152533874Y-131094288D01*
X152575153Y-131102499D01*
X152575156Y-131102500D01*
X152575158Y-131102500D01*
X152732844Y-131102500D01*
X152732845Y-131102499D01*
X152887497Y-131071737D01*
X153033179Y-131011394D01*
X153164289Y-130923789D01*
X153275789Y-130812289D01*
X153363394Y-130681179D01*
X153423737Y-130535497D01*
X153454500Y-130380842D01*
X153454500Y-130223158D01*
X153454500Y-130223155D01*
X153454499Y-130223153D01*
X153450854Y-130204827D01*
X153423737Y-130068503D01*
X153414293Y-130045702D01*
X153363397Y-129922827D01*
X153363390Y-129922814D01*
X153275789Y-129791711D01*
X153275786Y-129791707D01*
X153254319Y-129770240D01*
X153239615Y-129743312D01*
X153223023Y-129717494D01*
X153222131Y-129711293D01*
X153220834Y-129708917D01*
X153218000Y-129682559D01*
X153218000Y-129575500D01*
X153237685Y-129508461D01*
X153290489Y-129462706D01*
X153342000Y-129451500D01*
X153367844Y-129451500D01*
X153367845Y-129451499D01*
X153522497Y-129420737D01*
X153657436Y-129364844D01*
X153668172Y-129360397D01*
X153668172Y-129360396D01*
X153668179Y-129360394D01*
X153799289Y-129272789D01*
X153910789Y-129161289D01*
X153998394Y-129030179D01*
X154058737Y-128884497D01*
X154089500Y-128729842D01*
X154089500Y-128572158D01*
X154089500Y-128572155D01*
X154089499Y-128572153D01*
X154072699Y-128487696D01*
X154058737Y-128417503D01*
X154028396Y-128344252D01*
X153998397Y-128271827D01*
X153998390Y-128271814D01*
X153910789Y-128140711D01*
X153910786Y-128140707D01*
X153799292Y-128029213D01*
X153799288Y-128029210D01*
X153668185Y-127941609D01*
X153668172Y-127941602D01*
X153522501Y-127881264D01*
X153522489Y-127881261D01*
X153367845Y-127850500D01*
X153367842Y-127850500D01*
X153210158Y-127850500D01*
X153210155Y-127850500D01*
X153055510Y-127881261D01*
X153055498Y-127881264D01*
X152957659Y-127921790D01*
X152888189Y-127929259D01*
X152825710Y-127897983D01*
X152822526Y-127894910D01*
X151420528Y-126492912D01*
X151387043Y-126431589D01*
X151392027Y-126361897D01*
X151420526Y-126317551D01*
X151497789Y-126240289D01*
X151585394Y-126109179D01*
X151645737Y-125963497D01*
X151676500Y-125808842D01*
X151676500Y-125651158D01*
X151676500Y-125651155D01*
X151676499Y-125651153D01*
X151667376Y-125605288D01*
X151645737Y-125496503D01*
X151631046Y-125461037D01*
X151623578Y-125391570D01*
X151654853Y-125329090D01*
X151714942Y-125293438D01*
X151784767Y-125295931D01*
X151833289Y-125325905D01*
X152133981Y-125626597D01*
X152167466Y-125687920D01*
X152170300Y-125714278D01*
X152170300Y-125746046D01*
X152201061Y-125900689D01*
X152201064Y-125900701D01*
X152261402Y-126046372D01*
X152261409Y-126046385D01*
X152349010Y-126177488D01*
X152349013Y-126177492D01*
X152460507Y-126288986D01*
X152460511Y-126288989D01*
X152591614Y-126376590D01*
X152591627Y-126376597D01*
X152737298Y-126436935D01*
X152737303Y-126436937D01*
X152891953Y-126467699D01*
X152891956Y-126467700D01*
X152891958Y-126467700D01*
X153049644Y-126467700D01*
X153049645Y-126467699D01*
X153204297Y-126436937D01*
X153349979Y-126376594D01*
X153481089Y-126288989D01*
X153592589Y-126177489D01*
X153680194Y-126046379D01*
X153740537Y-125900697D01*
X153771300Y-125746042D01*
X153771300Y-125588358D01*
X153771300Y-125588355D01*
X153771299Y-125588353D01*
X153753029Y-125496503D01*
X153740537Y-125433703D01*
X153706209Y-125350827D01*
X153680197Y-125288027D01*
X153680190Y-125288014D01*
X153592589Y-125156911D01*
X153592586Y-125156907D01*
X153481092Y-125045413D01*
X153481088Y-125045410D01*
X153349985Y-124957809D01*
X153349972Y-124957802D01*
X153204301Y-124897464D01*
X153204289Y-124897461D01*
X153049645Y-124866700D01*
X153049642Y-124866700D01*
X153020678Y-124866700D01*
X152991237Y-124858055D01*
X152961251Y-124851532D01*
X152956235Y-124847777D01*
X152953639Y-124847015D01*
X152932997Y-124830381D01*
X152847071Y-124744455D01*
X152813586Y-124683132D01*
X152818570Y-124613440D01*
X152860442Y-124557507D01*
X152887293Y-124542216D01*
X152906179Y-124534394D01*
X153037289Y-124446789D01*
X153148789Y-124335289D01*
X153236394Y-124204179D01*
X153241539Y-124191759D01*
X153264144Y-124137185D01*
X153296737Y-124058497D01*
X153327500Y-123903842D01*
X153327500Y-123746158D01*
X153327500Y-123746155D01*
X153327499Y-123746153D01*
X153324316Y-123730153D01*
X153296737Y-123591503D01*
X153279749Y-123550489D01*
X153236397Y-123445827D01*
X153236390Y-123445814D01*
X153148789Y-123314711D01*
X153148786Y-123314707D01*
X153037292Y-123203213D01*
X153037288Y-123203210D01*
X152906185Y-123115609D01*
X152906172Y-123115602D01*
X152760501Y-123055264D01*
X152760489Y-123055261D01*
X152605845Y-123024500D01*
X152605842Y-123024500D01*
X152448158Y-123024500D01*
X152448155Y-123024500D01*
X152293510Y-123055261D01*
X152293498Y-123055264D01*
X152147827Y-123115602D01*
X152147814Y-123115609D01*
X152016711Y-123203210D01*
X152016707Y-123203213D01*
X151905213Y-123314707D01*
X151905210Y-123314711D01*
X151817609Y-123445814D01*
X151817602Y-123445827D01*
X151757264Y-123591498D01*
X151757261Y-123591508D01*
X151741809Y-123669192D01*
X151709424Y-123731103D01*
X151648708Y-123765677D01*
X151620192Y-123769000D01*
X151016631Y-123769000D01*
X150949592Y-123749315D01*
X150903837Y-123696511D01*
X150893893Y-123627353D01*
X150895014Y-123620809D01*
X150914499Y-123522846D01*
X150914500Y-123522844D01*
X150914500Y-123365155D01*
X150914499Y-123365153D01*
X150904465Y-123314711D01*
X150883737Y-123210503D01*
X150874089Y-123187211D01*
X150823397Y-123064827D01*
X150823390Y-123064814D01*
X150746566Y-122949839D01*
X150725688Y-122883161D01*
X150744173Y-122815781D01*
X150796151Y-122769091D01*
X150865121Y-122757915D01*
X150897120Y-122766387D01*
X151023498Y-122818734D01*
X151023503Y-122818736D01*
X151178153Y-122849498D01*
X151178156Y-122849499D01*
X151178158Y-122849499D01*
X151335844Y-122849499D01*
X151335845Y-122849498D01*
X151490497Y-122818736D01*
X151636179Y-122758393D01*
X151767289Y-122670788D01*
X151878789Y-122559288D01*
X151966394Y-122428178D01*
X152026737Y-122282496D01*
X152057500Y-122127841D01*
X152057500Y-122067153D01*
X154647500Y-122067153D01*
X154647500Y-122224846D01*
X154678261Y-122379489D01*
X154678264Y-122379501D01*
X154738602Y-122525172D01*
X154738609Y-122525185D01*
X154826210Y-122656288D01*
X154826213Y-122656292D01*
X154937707Y-122767786D01*
X154937711Y-122767789D01*
X155068814Y-122855390D01*
X155068827Y-122855397D01*
X155194962Y-122907643D01*
X155214503Y-122915737D01*
X155369153Y-122946499D01*
X155369156Y-122946500D01*
X155369158Y-122946500D01*
X155526844Y-122946500D01*
X155526845Y-122946499D01*
X155681497Y-122915737D01*
X155827179Y-122855394D01*
X155958289Y-122767789D01*
X156069789Y-122656289D01*
X156157394Y-122525179D01*
X156217737Y-122379497D01*
X156248500Y-122224842D01*
X156248500Y-122067158D01*
X156248500Y-122067155D01*
X156248499Y-122067153D01*
X156230023Y-121974268D01*
X156217737Y-121912503D01*
X156181469Y-121824944D01*
X156157397Y-121766827D01*
X156157390Y-121766814D01*
X156069789Y-121635711D01*
X156069786Y-121635707D01*
X155958292Y-121524213D01*
X155958288Y-121524210D01*
X155827185Y-121436609D01*
X155827172Y-121436602D01*
X155681501Y-121376264D01*
X155681489Y-121376261D01*
X155526845Y-121345500D01*
X155526842Y-121345500D01*
X155369158Y-121345500D01*
X155369155Y-121345500D01*
X155214510Y-121376261D01*
X155214498Y-121376264D01*
X155068827Y-121436602D01*
X155068814Y-121436609D01*
X154937711Y-121524210D01*
X154937707Y-121524213D01*
X154826213Y-121635707D01*
X154826210Y-121635711D01*
X154738609Y-121766814D01*
X154738602Y-121766827D01*
X154678264Y-121912498D01*
X154678261Y-121912510D01*
X154647500Y-122067153D01*
X152057500Y-122067153D01*
X152057500Y-121970157D01*
X152057500Y-121970154D01*
X152057499Y-121970152D01*
X152028615Y-121824944D01*
X152026737Y-121815502D01*
X152026735Y-121815497D01*
X151966397Y-121669826D01*
X151966390Y-121669813D01*
X151878789Y-121538710D01*
X151878786Y-121538706D01*
X151767292Y-121427212D01*
X151767288Y-121427209D01*
X151636185Y-121339608D01*
X151636172Y-121339601D01*
X151490501Y-121279263D01*
X151490489Y-121279260D01*
X151335845Y-121248499D01*
X151335842Y-121248499D01*
X151178158Y-121248499D01*
X151178155Y-121248499D01*
X151023510Y-121279260D01*
X151023498Y-121279263D01*
X150877827Y-121339601D01*
X150877809Y-121339611D01*
X150870886Y-121344237D01*
X150861189Y-121347272D01*
X150853511Y-121353926D01*
X150828409Y-121357535D01*
X150804208Y-121365112D01*
X150794410Y-121362423D01*
X150784353Y-121363870D01*
X150761281Y-121353333D01*
X150736828Y-121346624D01*
X150730039Y-121339066D01*
X150720797Y-121334845D01*
X150707084Y-121313507D01*
X150690141Y-121294643D01*
X150687510Y-121283050D01*
X150683023Y-121276067D01*
X150678000Y-121241132D01*
X150678000Y-121061978D01*
X150697685Y-120994939D01*
X150714319Y-120974297D01*
X150924831Y-120763785D01*
X151200313Y-120488304D01*
X151274565Y-120359696D01*
X151313001Y-120216252D01*
X151313001Y-120067747D01*
X151313001Y-120060152D01*
X151313000Y-120060134D01*
X151313000Y-119364440D01*
X151332685Y-119297401D01*
X151349315Y-119276762D01*
X151370789Y-119255289D01*
X151458394Y-119124179D01*
X151518737Y-118978497D01*
X151549500Y-118823842D01*
X151549500Y-118666158D01*
X151549500Y-118666155D01*
X151549499Y-118666153D01*
X151518738Y-118511510D01*
X151518737Y-118511503D01*
X151490297Y-118442842D01*
X151458397Y-118365827D01*
X151458390Y-118365814D01*
X151370789Y-118234711D01*
X151370786Y-118234707D01*
X151259292Y-118123213D01*
X151259288Y-118123210D01*
X151128185Y-118035609D01*
X151128172Y-118035602D01*
X150982501Y-117975264D01*
X150982489Y-117975261D01*
X150827845Y-117944500D01*
X150827842Y-117944500D01*
X150670158Y-117944500D01*
X150670155Y-117944500D01*
X150515510Y-117975261D01*
X150515498Y-117975264D01*
X150369827Y-118035602D01*
X150369809Y-118035612D01*
X150235890Y-118125094D01*
X150169213Y-118145972D01*
X150101833Y-118127487D01*
X150055143Y-118075508D01*
X150043000Y-118021992D01*
X150043000Y-117586440D01*
X150062685Y-117519401D01*
X150079315Y-117498762D01*
X150100789Y-117477289D01*
X150188394Y-117346179D01*
X150190845Y-117340263D01*
X150235344Y-117232831D01*
X150248737Y-117200497D01*
X150279500Y-117045842D01*
X150279500Y-116888158D01*
X150279500Y-116888155D01*
X150279499Y-116888153D01*
X150279144Y-116886370D01*
X150248737Y-116733503D01*
X150231196Y-116691154D01*
X150188397Y-116587827D01*
X150188390Y-116587814D01*
X150100789Y-116456711D01*
X150100786Y-116456707D01*
X149989292Y-116345213D01*
X149989288Y-116345210D01*
X149858185Y-116257609D01*
X149858172Y-116257602D01*
X149712501Y-116197264D01*
X149712489Y-116197261D01*
X149557845Y-116166500D01*
X149557842Y-116166500D01*
X149400158Y-116166500D01*
X149400155Y-116166500D01*
X149245510Y-116197261D01*
X149245498Y-116197264D01*
X149099827Y-116257602D01*
X149099814Y-116257609D01*
X148968711Y-116345210D01*
X148968707Y-116345213D01*
X148857213Y-116456707D01*
X148857210Y-116456711D01*
X148769609Y-116587814D01*
X148769602Y-116587827D01*
X148709264Y-116733498D01*
X148709261Y-116733510D01*
X148678500Y-116888153D01*
X148678500Y-117045846D01*
X148709261Y-117200489D01*
X148709264Y-117200501D01*
X148769602Y-117346172D01*
X148769609Y-117346185D01*
X148857209Y-117477287D01*
X148857210Y-117477288D01*
X148857211Y-117477289D01*
X148878681Y-117498759D01*
X148912166Y-117560080D01*
X148915000Y-117586440D01*
X148915000Y-117952020D01*
X148895315Y-118019059D01*
X148878681Y-118039701D01*
X147253309Y-119665073D01*
X147191986Y-119698558D01*
X147122294Y-119693574D01*
X147066361Y-119651702D01*
X147062526Y-119646283D01*
X147052789Y-119631710D01*
X146941292Y-119520213D01*
X146941288Y-119520210D01*
X146810185Y-119432609D01*
X146810172Y-119432602D01*
X146664501Y-119372264D01*
X146664489Y-119372261D01*
X146509845Y-119341500D01*
X146509842Y-119341500D01*
X146352158Y-119341500D01*
X146352155Y-119341500D01*
X146197510Y-119372261D01*
X146197498Y-119372264D01*
X146051827Y-119432602D01*
X146051814Y-119432609D01*
X145920711Y-119520210D01*
X145920707Y-119520213D01*
X145809213Y-119631707D01*
X145809210Y-119631711D01*
X145721609Y-119762814D01*
X145721602Y-119762827D01*
X145661264Y-119908498D01*
X145661261Y-119908510D01*
X145630500Y-120063153D01*
X145630500Y-120093521D01*
X145610815Y-120160560D01*
X145594181Y-120181202D01*
X144887489Y-120887893D01*
X144887485Y-120887899D01*
X144839122Y-120971665D01*
X144839120Y-120971669D01*
X144833294Y-120981761D01*
X144813235Y-121016504D01*
X144780816Y-121137497D01*
X144779623Y-121141945D01*
X144779621Y-121141954D01*
X144774800Y-121159947D01*
X144774800Y-122854220D01*
X144755115Y-122921259D01*
X144738481Y-122941901D01*
X144426626Y-123253755D01*
X144426627Y-123253756D01*
X144328684Y-123351699D01*
X144282367Y-123431922D01*
X144282364Y-123431929D01*
X144276447Y-123442179D01*
X144254435Y-123480304D01*
X144217204Y-123619256D01*
X144216060Y-123623523D01*
X144216060Y-123623524D01*
X144216000Y-123623748D01*
X144216000Y-124069021D01*
X144196315Y-124136060D01*
X144143511Y-124181815D01*
X144074353Y-124191759D01*
X144010797Y-124162734D01*
X144004319Y-124156702D01*
X142078319Y-122230702D01*
X142044834Y-122169379D01*
X142042000Y-122143021D01*
X142042000Y-121655574D01*
X142061685Y-121588535D01*
X142078319Y-121567893D01*
X142219003Y-121427209D01*
X142417769Y-121228442D01*
X142479090Y-121194959D01*
X142481257Y-121194508D01*
X142505794Y-121189626D01*
X142625897Y-121165737D01*
X142771579Y-121105394D01*
X142902689Y-121017789D01*
X143014189Y-120906289D01*
X143101794Y-120775179D01*
X143162137Y-120629497D01*
X143192900Y-120474842D01*
X143192900Y-120317158D01*
X143192900Y-120317155D01*
X143192899Y-120317153D01*
X143190086Y-120303009D01*
X143162137Y-120162503D01*
X143154839Y-120144884D01*
X143101797Y-120016827D01*
X143101790Y-120016814D01*
X143014189Y-119885711D01*
X143014186Y-119885707D01*
X142902692Y-119774213D01*
X142902688Y-119774210D01*
X142771585Y-119686609D01*
X142771572Y-119686602D01*
X142625901Y-119626264D01*
X142625889Y-119626261D01*
X142471245Y-119595500D01*
X142471242Y-119595500D01*
X142313558Y-119595500D01*
X142313555Y-119595500D01*
X142158910Y-119626261D01*
X142158898Y-119626264D01*
X142013227Y-119686602D01*
X142013214Y-119686609D01*
X141882111Y-119774210D01*
X141882107Y-119774213D01*
X141770613Y-119885707D01*
X141770610Y-119885711D01*
X141683009Y-120016814D01*
X141683002Y-120016827D01*
X141622664Y-120162498D01*
X141622661Y-120162510D01*
X141591900Y-120317153D01*
X141591900Y-120407717D01*
X141572215Y-120474756D01*
X141555581Y-120495398D01*
X141026689Y-121024289D01*
X141026685Y-121024295D01*
X140952436Y-121152897D01*
X140952436Y-121152898D01*
X140952435Y-121152900D01*
X140926336Y-121250304D01*
X140916311Y-121287720D01*
X140916310Y-121287725D01*
X140914000Y-121296344D01*
X140914000Y-122389265D01*
X140894315Y-122456304D01*
X140841511Y-122502059D01*
X140814192Y-122510882D01*
X140719053Y-122529806D01*
X140719043Y-122529809D01*
X140573372Y-122590147D01*
X140573359Y-122590154D01*
X140442256Y-122677755D01*
X140442251Y-122677759D01*
X140394493Y-122725517D01*
X140333170Y-122759001D01*
X140263478Y-122754016D01*
X140219132Y-122725516D01*
X139074383Y-121580767D01*
X139074381Y-121580764D01*
X138962306Y-121468689D01*
X138962304Y-121468687D01*
X138833698Y-121394436D01*
X138833697Y-121394435D01*
X138799465Y-121385263D01*
X138765876Y-121376263D01*
X138765875Y-121376262D01*
X138710515Y-121361429D01*
X138690253Y-121356000D01*
X138690252Y-121356000D01*
X138135671Y-121356000D01*
X138068632Y-121336315D01*
X138022877Y-121283511D01*
X138012933Y-121214353D01*
X138032569Y-121163109D01*
X138123390Y-121027186D01*
X138123390Y-121027185D01*
X138123394Y-121027180D01*
X138124592Y-121024289D01*
X138168087Y-120919281D01*
X138183737Y-120881498D01*
X138214500Y-120726843D01*
X138214500Y-120569159D01*
X138214500Y-120569156D01*
X138214499Y-120569154D01*
X138212540Y-120559304D01*
X138183737Y-120414504D01*
X138167581Y-120375500D01*
X138137555Y-120303009D01*
X138130086Y-120233540D01*
X138161361Y-120171061D01*
X138221450Y-120135409D01*
X138291276Y-120137903D01*
X138339797Y-120167876D01*
X138364207Y-120192286D01*
X138364211Y-120192289D01*
X138495314Y-120279890D01*
X138495327Y-120279897D01*
X138640998Y-120340235D01*
X138641003Y-120340237D01*
X138795653Y-120370999D01*
X138795656Y-120371000D01*
X138795658Y-120371000D01*
X138953344Y-120371000D01*
X138953345Y-120370999D01*
X139107997Y-120340237D01*
X139253679Y-120279894D01*
X139384789Y-120192289D01*
X139496289Y-120080789D01*
X139583894Y-119949679D01*
X139644237Y-119803997D01*
X139675000Y-119649342D01*
X139675000Y-119491658D01*
X139675000Y-119491655D01*
X139674999Y-119491653D01*
X139663254Y-119432606D01*
X139644237Y-119337003D01*
X139610108Y-119254609D01*
X139602640Y-119185141D01*
X139633915Y-119122662D01*
X139677216Y-119092597D01*
X139723579Y-119073394D01*
X139854689Y-118985789D01*
X139966189Y-118874289D01*
X140053794Y-118743179D01*
X140114137Y-118597497D01*
X140144900Y-118442842D01*
X140144900Y-118285158D01*
X140144900Y-118285155D01*
X140144899Y-118285153D01*
X140134865Y-118234711D01*
X140114137Y-118130503D01*
X140107792Y-118115185D01*
X140053797Y-117984827D01*
X140053790Y-117984814D01*
X139966189Y-117853711D01*
X139966186Y-117853707D01*
X139854692Y-117742213D01*
X139854688Y-117742210D01*
X139723585Y-117654609D01*
X139723572Y-117654602D01*
X139577901Y-117594264D01*
X139577889Y-117594261D01*
X139423245Y-117563500D01*
X139423242Y-117563500D01*
X139265558Y-117563500D01*
X139265555Y-117563500D01*
X139110910Y-117594261D01*
X139110898Y-117594264D01*
X138965227Y-117654602D01*
X138965214Y-117654609D01*
X138834111Y-117742210D01*
X138834105Y-117742214D01*
X138818982Y-117757338D01*
X138757658Y-117790822D01*
X138687966Y-117785836D01*
X138632034Y-117743963D01*
X138626859Y-117735832D01*
X138626779Y-117735886D01*
X138535789Y-117599711D01*
X138535786Y-117599707D01*
X138424292Y-117488213D01*
X138424288Y-117488210D01*
X138293185Y-117400609D01*
X138293172Y-117400602D01*
X138147501Y-117340264D01*
X138147489Y-117340261D01*
X137992845Y-117309500D01*
X137992842Y-117309500D01*
X137835158Y-117309500D01*
X137835155Y-117309500D01*
X137680510Y-117340261D01*
X137680498Y-117340264D01*
X137534827Y-117400602D01*
X137534814Y-117400609D01*
X137403711Y-117488210D01*
X137403709Y-117488211D01*
X137399890Y-117492031D01*
X137338565Y-117525512D01*
X137268873Y-117520523D01*
X137212942Y-117478648D01*
X137190597Y-117428535D01*
X137185042Y-117400609D01*
X137167737Y-117313610D01*
X137153935Y-117280289D01*
X137107397Y-117167934D01*
X137107390Y-117167921D01*
X137019789Y-117036818D01*
X137019786Y-117036814D01*
X136908292Y-116925320D01*
X136908288Y-116925317D01*
X136777185Y-116837716D01*
X136777172Y-116837709D01*
X136631501Y-116777371D01*
X136631489Y-116777368D01*
X136476845Y-116746607D01*
X136476842Y-116746607D01*
X136385638Y-116746607D01*
X136318599Y-116726922D01*
X136272844Y-116674118D01*
X136262900Y-116604960D01*
X136291925Y-116541404D01*
X136338186Y-116508046D01*
X136451065Y-116461290D01*
X136451065Y-116461289D01*
X136451072Y-116461287D01*
X136582182Y-116373682D01*
X136693682Y-116262182D01*
X136781287Y-116131072D01*
X136841630Y-115985390D01*
X136872393Y-115830735D01*
X136872393Y-115673051D01*
X136872393Y-115673048D01*
X136872392Y-115673046D01*
X136852257Y-115571821D01*
X136841630Y-115518396D01*
X136841628Y-115518391D01*
X136781290Y-115372720D01*
X136781283Y-115372707D01*
X136693682Y-115241604D01*
X136693679Y-115241600D01*
X136688528Y-115236449D01*
X136684189Y-115228503D01*
X136676942Y-115223078D01*
X136667707Y-115198319D01*
X136655043Y-115175126D01*
X136655688Y-115166095D01*
X136652525Y-115157613D01*
X136658141Y-115131792D01*
X136660027Y-115105434D01*
X136665845Y-115096379D01*
X136667377Y-115089341D01*
X136688522Y-115061093D01*
X136798499Y-114951116D01*
X136859820Y-114917634D01*
X136886178Y-114914800D01*
X140125478Y-114914800D01*
X140192517Y-114934485D01*
X140238272Y-114987289D01*
X140248216Y-115056447D01*
X140219191Y-115120003D01*
X140194369Y-115141902D01*
X140104111Y-115202210D01*
X140104107Y-115202213D01*
X139992613Y-115313707D01*
X139992610Y-115313711D01*
X139905009Y-115444814D01*
X139905002Y-115444827D01*
X139844664Y-115590498D01*
X139844661Y-115590510D01*
X139813900Y-115745153D01*
X139813900Y-115902846D01*
X139844661Y-116057489D01*
X139844664Y-116057501D01*
X139905002Y-116203172D01*
X139905009Y-116203185D01*
X139992610Y-116334288D01*
X139992613Y-116334292D01*
X140104107Y-116445786D01*
X140104111Y-116445789D01*
X140235214Y-116533390D01*
X140235227Y-116533397D01*
X140366620Y-116587821D01*
X140380903Y-116593737D01*
X140535553Y-116624499D01*
X140535556Y-116624500D01*
X140535558Y-116624500D01*
X140693244Y-116624500D01*
X140693245Y-116624499D01*
X140847897Y-116593737D01*
X140993579Y-116533394D01*
X141124689Y-116445789D01*
X141236189Y-116334289D01*
X141323794Y-116203179D01*
X141326245Y-116197263D01*
X141353664Y-116131065D01*
X141384137Y-116057497D01*
X141414900Y-115902842D01*
X141414900Y-115892602D01*
X141434585Y-115825563D01*
X141487389Y-115779808D01*
X141556547Y-115769864D01*
X141563092Y-115770985D01*
X141653155Y-115788900D01*
X141653158Y-115788900D01*
X141810844Y-115788900D01*
X141810845Y-115788899D01*
X141965497Y-115758137D01*
X142111179Y-115697794D01*
X142242289Y-115610189D01*
X142353789Y-115498689D01*
X142441394Y-115367579D01*
X142501737Y-115221897D01*
X142532500Y-115067242D01*
X142532500Y-115038800D01*
X142552185Y-114971761D01*
X142604989Y-114926006D01*
X142656500Y-114914800D01*
X143275822Y-114914800D01*
X143342861Y-114934485D01*
X143363503Y-114951119D01*
X143990917Y-115578534D01*
X144024402Y-115639857D01*
X144019418Y-115709549D01*
X143977546Y-115765482D01*
X143927428Y-115787832D01*
X143784508Y-115816261D01*
X143784498Y-115816264D01*
X143638827Y-115876602D01*
X143638814Y-115876609D01*
X143507711Y-115964210D01*
X143507707Y-115964213D01*
X143396213Y-116075707D01*
X143396210Y-116075711D01*
X143308609Y-116206814D01*
X143308602Y-116206827D01*
X143248264Y-116352498D01*
X143248261Y-116352510D01*
X143217500Y-116507153D01*
X143217500Y-116664846D01*
X143248261Y-116819489D01*
X143248264Y-116819501D01*
X143308602Y-116965172D01*
X143308609Y-116965185D01*
X143396210Y-117096288D01*
X143396213Y-117096292D01*
X143507707Y-117207786D01*
X143507711Y-117207789D01*
X143638814Y-117295390D01*
X143638827Y-117295397D01*
X143761442Y-117346185D01*
X143784503Y-117355737D01*
X143939153Y-117386499D01*
X143939156Y-117386500D01*
X143939158Y-117386500D01*
X144096844Y-117386500D01*
X144096845Y-117386499D01*
X144251497Y-117355737D01*
X144397179Y-117295394D01*
X144528289Y-117207789D01*
X144639789Y-117096289D01*
X144727394Y-116965179D01*
X144787737Y-116819497D01*
X144787759Y-116819382D01*
X144787787Y-116819329D01*
X144789507Y-116813662D01*
X144790580Y-116813987D01*
X144820136Y-116757469D01*
X144880848Y-116722888D01*
X144933571Y-116721944D01*
X145082155Y-116751500D01*
X145082158Y-116751500D01*
X145239844Y-116751500D01*
X145239845Y-116751499D01*
X145394497Y-116720737D01*
X145529431Y-116664846D01*
X145540172Y-116660397D01*
X145540172Y-116660396D01*
X145540179Y-116660394D01*
X145671289Y-116572789D01*
X145782789Y-116461289D01*
X145870394Y-116330179D01*
X145930737Y-116184497D01*
X145961500Y-116029842D01*
X145961500Y-115872158D01*
X145961500Y-115872155D01*
X145961499Y-115872153D01*
X145953260Y-115830735D01*
X145930737Y-115717503D01*
X145912323Y-115673048D01*
X145870397Y-115571827D01*
X145870390Y-115571814D01*
X145782789Y-115440711D01*
X145782786Y-115440707D01*
X145671292Y-115329213D01*
X145671288Y-115329210D01*
X145540185Y-115241609D01*
X145540172Y-115241602D01*
X145394501Y-115181264D01*
X145394489Y-115181261D01*
X145239845Y-115150500D01*
X145239842Y-115150500D01*
X145209479Y-115150500D01*
X145142440Y-115130815D01*
X145121798Y-115114181D01*
X144943528Y-114935911D01*
X144910043Y-114874588D01*
X144915027Y-114804896D01*
X144941029Y-114764440D01*
X144940728Y-114764193D01*
X144942852Y-114761605D01*
X144943534Y-114760543D01*
X144944589Y-114759489D01*
X145032194Y-114628379D01*
X145092537Y-114482697D01*
X145123300Y-114328042D01*
X145123300Y-114170358D01*
X145123300Y-114170355D01*
X145123299Y-114170353D01*
X145092538Y-114015710D01*
X145092537Y-114015703D01*
X145087895Y-114004496D01*
X145036973Y-113881558D01*
X145036957Y-113881520D01*
X145032194Y-113870021D01*
X145032191Y-113870016D01*
X145032190Y-113870014D01*
X145012237Y-113840153D01*
X155790500Y-113840153D01*
X155790500Y-113997846D01*
X155821261Y-114152489D01*
X155821264Y-114152501D01*
X155881602Y-114298172D01*
X155881609Y-114298185D01*
X155969210Y-114429288D01*
X155969213Y-114429292D01*
X156080707Y-114540786D01*
X156080711Y-114540789D01*
X156211814Y-114628390D01*
X156211827Y-114628397D01*
X156357498Y-114688735D01*
X156357503Y-114688737D01*
X156512153Y-114719499D01*
X156512156Y-114719500D01*
X156512158Y-114719500D01*
X156669844Y-114719500D01*
X156669845Y-114719499D01*
X156824497Y-114688737D01*
X156970179Y-114628394D01*
X157101289Y-114540789D01*
X157212789Y-114429289D01*
X157300394Y-114298179D01*
X157360737Y-114152497D01*
X157391500Y-113997842D01*
X157391500Y-113840158D01*
X157391500Y-113840155D01*
X157391499Y-113840153D01*
X157380886Y-113786800D01*
X157360737Y-113685503D01*
X157360735Y-113685498D01*
X157300397Y-113539827D01*
X157300390Y-113539814D01*
X157212789Y-113408711D01*
X157212786Y-113408707D01*
X157101292Y-113297213D01*
X157101288Y-113297210D01*
X156970185Y-113209609D01*
X156970172Y-113209602D01*
X156824501Y-113149264D01*
X156824489Y-113149261D01*
X156669845Y-113118500D01*
X156669842Y-113118500D01*
X156512158Y-113118500D01*
X156512155Y-113118500D01*
X156357510Y-113149261D01*
X156357498Y-113149264D01*
X156211827Y-113209602D01*
X156211814Y-113209609D01*
X156080711Y-113297210D01*
X156080707Y-113297213D01*
X155969213Y-113408707D01*
X155969210Y-113408711D01*
X155881609Y-113539814D01*
X155881602Y-113539827D01*
X155821264Y-113685498D01*
X155821261Y-113685510D01*
X155790500Y-113840153D01*
X145012237Y-113840153D01*
X144944589Y-113738911D01*
X144944586Y-113738907D01*
X144833092Y-113627413D01*
X144833088Y-113627410D01*
X144701985Y-113539809D01*
X144701972Y-113539802D01*
X144556301Y-113479464D01*
X144556289Y-113479461D01*
X144401645Y-113448700D01*
X144401642Y-113448700D01*
X144243958Y-113448700D01*
X144243955Y-113448700D01*
X144089310Y-113479461D01*
X144089298Y-113479464D01*
X143943627Y-113539802D01*
X143943614Y-113539809D01*
X143812512Y-113627409D01*
X143701010Y-113738912D01*
X143698913Y-113741468D01*
X143697490Y-113742437D01*
X143696775Y-113744003D01*
X143668734Y-113762023D01*
X143641166Y-113780801D01*
X143638980Y-113781145D01*
X143637997Y-113781777D01*
X143603062Y-113786800D01*
X143418245Y-113786800D01*
X143351206Y-113767115D01*
X143305451Y-113714311D01*
X143295507Y-113645153D01*
X143315143Y-113593909D01*
X143327698Y-113575119D01*
X143339693Y-113557167D01*
X143400036Y-113411485D01*
X143430799Y-113256830D01*
X143430799Y-113099146D01*
X143430799Y-113099143D01*
X143430798Y-113099141D01*
X143400962Y-112949146D01*
X143400036Y-112944491D01*
X143368734Y-112868920D01*
X143339696Y-112798815D01*
X143339689Y-112798802D01*
X143252088Y-112667699D01*
X143252085Y-112667695D01*
X143140591Y-112556201D01*
X143140587Y-112556198D01*
X143009484Y-112468597D01*
X143009471Y-112468590D01*
X142863800Y-112408252D01*
X142863788Y-112408249D01*
X142709144Y-112377488D01*
X142709141Y-112377488D01*
X142551457Y-112377488D01*
X142551454Y-112377488D01*
X142396809Y-112408249D01*
X142396797Y-112408252D01*
X142251126Y-112468590D01*
X142251113Y-112468597D01*
X142120010Y-112556198D01*
X142120006Y-112556201D01*
X142008512Y-112667695D01*
X142008509Y-112667699D01*
X141920908Y-112798802D01*
X141920901Y-112798815D01*
X141860563Y-112944486D01*
X141860560Y-112944498D01*
X141829799Y-113099141D01*
X141829799Y-113256834D01*
X141860560Y-113411477D01*
X141860563Y-113411489D01*
X141920901Y-113557160D01*
X141920908Y-113557172D01*
X141945455Y-113593909D01*
X141966333Y-113660586D01*
X141947849Y-113727966D01*
X141895870Y-113774657D01*
X141842353Y-113786800D01*
X140504352Y-113786800D01*
X140437313Y-113767115D01*
X140391558Y-113714311D01*
X140381821Y-113655869D01*
X140381035Y-113655869D01*
X140381035Y-113651150D01*
X140380950Y-113650640D01*
X140381035Y-113649777D01*
X140381035Y-113492090D01*
X140381034Y-113492088D01*
X140375464Y-113464088D01*
X140350272Y-113337438D01*
X140348422Y-113332972D01*
X140289932Y-113191762D01*
X140289925Y-113191749D01*
X140202324Y-113060646D01*
X140202321Y-113060642D01*
X140090827Y-112949148D01*
X140090823Y-112949145D01*
X139959720Y-112861544D01*
X139959707Y-112861537D01*
X139814036Y-112801199D01*
X139814024Y-112801196D01*
X139659380Y-112770435D01*
X139659377Y-112770435D01*
X139582756Y-112770435D01*
X139515717Y-112750750D01*
X139469962Y-112697946D01*
X139468195Y-112693887D01*
X139418797Y-112574626D01*
X139418790Y-112574614D01*
X139331189Y-112443511D01*
X139331186Y-112443507D01*
X139219692Y-112332013D01*
X139219688Y-112332010D01*
X139088585Y-112244409D01*
X139088572Y-112244402D01*
X138942901Y-112184064D01*
X138942889Y-112184061D01*
X138788245Y-112153300D01*
X138788242Y-112153300D01*
X138630558Y-112153300D01*
X138630555Y-112153300D01*
X138475910Y-112184061D01*
X138475898Y-112184064D01*
X138330227Y-112244402D01*
X138330214Y-112244409D01*
X138199111Y-112332010D01*
X138199107Y-112332013D01*
X138087613Y-112443507D01*
X138087610Y-112443511D01*
X138000009Y-112574614D01*
X138000002Y-112574627D01*
X137939664Y-112720298D01*
X137939661Y-112720310D01*
X137908900Y-112874953D01*
X137908900Y-113032646D01*
X137939661Y-113187289D01*
X137939664Y-113187301D01*
X138000002Y-113332972D01*
X138000009Y-113332985D01*
X138087610Y-113464088D01*
X138087613Y-113464092D01*
X138198640Y-113575119D01*
X138232125Y-113636442D01*
X138227141Y-113706134D01*
X138185269Y-113762067D01*
X138119805Y-113786484D01*
X138110959Y-113786800D01*
X136526947Y-113786800D01*
X136461143Y-113804431D01*
X136461143Y-113804432D01*
X136435263Y-113811366D01*
X136383502Y-113825235D01*
X136383501Y-113825236D01*
X136254899Y-113899485D01*
X136254893Y-113899489D01*
X134930689Y-115223693D01*
X134930685Y-115223699D01*
X134856434Y-115352304D01*
X134831404Y-115445723D01*
X134818000Y-115495746D01*
X134818000Y-120978254D01*
X134829587Y-121021500D01*
X134829588Y-121021500D01*
X134829588Y-121021501D01*
X134834056Y-121038175D01*
X134856435Y-121121697D01*
X134856436Y-121121698D01*
X134874451Y-121152900D01*
X134930687Y-121250304D01*
X134930689Y-121250306D01*
X135042761Y-121362378D01*
X135042767Y-121362383D01*
X135797681Y-122117297D01*
X135831166Y-122178620D01*
X135834000Y-122204978D01*
X135834000Y-124832421D01*
X135814315Y-124899460D01*
X135761511Y-124945215D01*
X135692353Y-124955159D01*
X135685809Y-124954038D01*
X135562446Y-124929500D01*
X135562442Y-124929500D01*
X135404758Y-124929500D01*
X135404755Y-124929500D01*
X135250110Y-124960261D01*
X135250098Y-124960264D01*
X135104427Y-125020602D01*
X135104414Y-125020609D01*
X134973311Y-125108210D01*
X134973307Y-125108213D01*
X134861813Y-125219707D01*
X134861810Y-125219711D01*
X134774209Y-125350814D01*
X134774202Y-125350827D01*
X134713864Y-125496498D01*
X134713861Y-125496510D01*
X134683100Y-125651153D01*
X134683100Y-125808846D01*
X134713861Y-125963489D01*
X134713864Y-125963501D01*
X134774202Y-126109172D01*
X134774209Y-126109185D01*
X134861810Y-126240288D01*
X134861813Y-126240292D01*
X134973307Y-126351786D01*
X134973311Y-126351789D01*
X135104414Y-126439390D01*
X135104427Y-126439397D01*
X135231093Y-126491863D01*
X135250103Y-126499737D01*
X135404753Y-126530499D01*
X135404756Y-126530500D01*
X135404758Y-126530500D01*
X135562444Y-126530500D01*
X135685808Y-126505961D01*
X135755400Y-126512188D01*
X135810577Y-126555051D01*
X135833822Y-126620941D01*
X135834000Y-126627578D01*
X135834000Y-127096021D01*
X135814315Y-127163060D01*
X135797681Y-127183702D01*
X135438689Y-127542693D01*
X135377768Y-127648211D01*
X135364435Y-127671302D01*
X135339404Y-127764723D01*
X135326000Y-127814746D01*
X135326000Y-128514022D01*
X135306315Y-128581061D01*
X135253511Y-128626816D01*
X135184353Y-128636760D01*
X135120797Y-128607735D01*
X135114319Y-128601703D01*
X133815319Y-127302703D01*
X133781834Y-127241380D01*
X133779000Y-127215022D01*
X133779000Y-125686605D01*
X133798685Y-125619566D01*
X133815315Y-125598927D01*
X133836789Y-125577454D01*
X133924394Y-125446344D01*
X133984737Y-125300662D01*
X134015500Y-125146007D01*
X134015500Y-124988323D01*
X134015500Y-124988320D01*
X134015499Y-124988318D01*
X134003799Y-124929500D01*
X133984737Y-124833668D01*
X133984735Y-124833663D01*
X133924397Y-124687992D01*
X133924390Y-124687979D01*
X133836789Y-124556876D01*
X133836786Y-124556872D01*
X133725292Y-124445378D01*
X133725288Y-124445375D01*
X133594185Y-124357774D01*
X133594172Y-124357767D01*
X133448501Y-124297429D01*
X133448489Y-124297426D01*
X133293845Y-124266665D01*
X133293842Y-124266665D01*
X133136158Y-124266665D01*
X133136155Y-124266665D01*
X132981510Y-124297426D01*
X132981498Y-124297429D01*
X132835827Y-124357767D01*
X132835814Y-124357774D01*
X132704711Y-124445375D01*
X132704707Y-124445378D01*
X132593213Y-124556872D01*
X132593210Y-124556876D01*
X132505609Y-124687979D01*
X132505602Y-124687992D01*
X132445264Y-124833663D01*
X132445261Y-124833675D01*
X132414500Y-124988318D01*
X131094964Y-124988318D01*
X131076891Y-124897463D01*
X131069738Y-124861503D01*
X131067324Y-124855676D01*
X131009398Y-124715827D01*
X131009391Y-124715814D01*
X130921790Y-124584711D01*
X130921787Y-124584707D01*
X130810293Y-124473213D01*
X130810289Y-124473210D01*
X130679186Y-124385609D01*
X130679173Y-124385602D01*
X130533502Y-124325264D01*
X130533492Y-124325261D01*
X130468952Y-124312423D01*
X130407041Y-124280037D01*
X130372467Y-124219321D01*
X130375438Y-124151804D01*
X130393799Y-124096397D01*
X130404300Y-123993609D01*
X130404299Y-122984153D01*
X131787500Y-122984153D01*
X131787500Y-123141846D01*
X131818261Y-123296489D01*
X131818264Y-123296501D01*
X131878602Y-123442172D01*
X131878609Y-123442185D01*
X131966210Y-123573288D01*
X131966213Y-123573292D01*
X132077707Y-123684786D01*
X132077711Y-123684789D01*
X132208814Y-123772390D01*
X132208827Y-123772397D01*
X132354498Y-123832735D01*
X132354503Y-123832737D01*
X132479467Y-123857594D01*
X132509153Y-123863499D01*
X132509156Y-123863500D01*
X132509158Y-123863500D01*
X132666844Y-123863500D01*
X132666845Y-123863499D01*
X132821497Y-123832737D01*
X132967179Y-123772394D01*
X133098289Y-123684789D01*
X133209789Y-123573289D01*
X133297394Y-123442179D01*
X133357737Y-123296497D01*
X133388500Y-123141842D01*
X133388500Y-122984158D01*
X133388500Y-122984155D01*
X133388499Y-122984153D01*
X133381009Y-122946499D01*
X133357737Y-122829503D01*
X133332714Y-122769091D01*
X133297397Y-122683827D01*
X133297390Y-122683814D01*
X133209789Y-122552711D01*
X133209786Y-122552707D01*
X133098292Y-122441213D01*
X133098288Y-122441210D01*
X132967185Y-122353609D01*
X132967172Y-122353602D01*
X132821501Y-122293264D01*
X132821489Y-122293261D01*
X132666845Y-122262500D01*
X132666842Y-122262500D01*
X132509158Y-122262500D01*
X132509155Y-122262500D01*
X132354510Y-122293261D01*
X132354498Y-122293264D01*
X132208827Y-122353602D01*
X132208814Y-122353609D01*
X132077711Y-122441210D01*
X132077707Y-122441213D01*
X131966213Y-122552707D01*
X131966210Y-122552711D01*
X131878609Y-122683814D01*
X131878602Y-122683827D01*
X131818264Y-122829498D01*
X131818261Y-122829510D01*
X131787500Y-122984153D01*
X130404299Y-122984153D01*
X130404299Y-122243592D01*
X130393799Y-122140803D01*
X130338614Y-121974266D01*
X130246512Y-121824944D01*
X130122456Y-121700888D01*
X129997897Y-121624060D01*
X129973136Y-121608787D01*
X129973131Y-121608785D01*
X129971662Y-121608298D01*
X129806597Y-121553601D01*
X129806595Y-121553600D01*
X129703810Y-121543100D01*
X127953798Y-121543100D01*
X127953781Y-121543101D01*
X127851003Y-121553600D01*
X127851000Y-121553601D01*
X127684468Y-121608785D01*
X127677918Y-121611840D01*
X127676672Y-121609168D01*
X127622145Y-121624060D01*
X127555491Y-121603105D01*
X127510748Y-121549442D01*
X127500500Y-121500082D01*
X127500500Y-120063152D01*
X130461499Y-120063152D01*
X130461499Y-120220845D01*
X130492260Y-120375488D01*
X130492263Y-120375500D01*
X130552601Y-120521171D01*
X130552608Y-120521184D01*
X130640209Y-120652287D01*
X130640212Y-120652291D01*
X130751706Y-120763785D01*
X130751710Y-120763788D01*
X130882813Y-120851389D01*
X130882826Y-120851396D01*
X131015359Y-120906292D01*
X131028502Y-120911736D01*
X131183152Y-120942498D01*
X131183155Y-120942499D01*
X131183157Y-120942499D01*
X131340843Y-120942499D01*
X131340844Y-120942498D01*
X131495496Y-120911736D01*
X131641178Y-120851393D01*
X131772288Y-120763788D01*
X131883788Y-120652288D01*
X131971393Y-120521178D01*
X132031736Y-120375496D01*
X132062499Y-120220841D01*
X132062499Y-120063157D01*
X132062499Y-120063154D01*
X132062498Y-120063152D01*
X132055265Y-120026789D01*
X132031736Y-119908502D01*
X132006469Y-119847501D01*
X131971396Y-119762826D01*
X131971389Y-119762813D01*
X131883788Y-119631710D01*
X131883785Y-119631706D01*
X131772291Y-119520212D01*
X131772287Y-119520209D01*
X131641184Y-119432608D01*
X131641171Y-119432601D01*
X131495500Y-119372263D01*
X131495488Y-119372260D01*
X131340844Y-119341499D01*
X131340841Y-119341499D01*
X131183157Y-119341499D01*
X131183154Y-119341499D01*
X131028509Y-119372260D01*
X131028497Y-119372263D01*
X130882826Y-119432601D01*
X130882813Y-119432608D01*
X130751710Y-119520209D01*
X130751706Y-119520212D01*
X130640212Y-119631706D01*
X130640209Y-119631710D01*
X130552608Y-119762813D01*
X130552601Y-119762826D01*
X130492263Y-119908497D01*
X130492260Y-119908509D01*
X130461499Y-120063152D01*
X127500500Y-120063152D01*
X127500500Y-111223543D01*
X128666499Y-111223543D01*
X128704947Y-111416829D01*
X128704950Y-111416839D01*
X128780365Y-111598907D01*
X128780368Y-111598914D01*
X128795656Y-111621794D01*
X128842271Y-111691559D01*
X128863148Y-111758236D01*
X128844663Y-111825616D01*
X128842271Y-111829339D01*
X128780809Y-111921325D01*
X128705430Y-112103306D01*
X128705427Y-112103318D01*
X128667000Y-112296504D01*
X128667000Y-112493495D01*
X128705427Y-112686681D01*
X128705430Y-112686693D01*
X128780808Y-112868673D01*
X128780809Y-112868675D01*
X128804426Y-112904019D01*
X129342000Y-112366445D01*
X129342000Y-112437787D01*
X129364149Y-112520445D01*
X129406936Y-112594554D01*
X129467446Y-112655064D01*
X129541555Y-112697851D01*
X129624213Y-112720000D01*
X129695552Y-112720000D01*
X129157979Y-113257572D01*
X129193328Y-113281192D01*
X129375306Y-113356569D01*
X129375318Y-113356572D01*
X129568504Y-113394999D01*
X129568508Y-113395000D01*
X129765492Y-113395000D01*
X129765495Y-113394999D01*
X129958681Y-113356572D01*
X129958693Y-113356569D01*
X130140673Y-113281191D01*
X130140676Y-113281189D01*
X130232657Y-113219729D01*
X130299334Y-113198850D01*
X130366715Y-113217334D01*
X130370440Y-113219728D01*
X130463079Y-113281628D01*
X130463092Y-113281635D01*
X130645160Y-113357049D01*
X130645165Y-113357051D01*
X130645169Y-113357051D01*
X130645170Y-113357052D01*
X130838456Y-113395500D01*
X130838459Y-113395500D01*
X131035543Y-113395500D01*
X131165582Y-113369632D01*
X131228835Y-113357051D01*
X131410914Y-113281632D01*
X131574782Y-113172139D01*
X131714139Y-113032782D01*
X131823632Y-112868914D01*
X131899051Y-112686835D01*
X131921372Y-112574621D01*
X131937500Y-112493543D01*
X131937500Y-112296456D01*
X131899052Y-112103170D01*
X131899051Y-112103169D01*
X131899051Y-112103165D01*
X131894488Y-112092149D01*
X131823635Y-111921092D01*
X131823633Y-111921088D01*
X131823632Y-111921086D01*
X131762029Y-111828891D01*
X131741151Y-111762214D01*
X131759635Y-111694834D01*
X131762029Y-111691109D01*
X131808344Y-111621794D01*
X131823632Y-111598914D01*
X131899051Y-111416835D01*
X131923964Y-111291589D01*
X131937500Y-111223543D01*
X131937500Y-111026456D01*
X131899052Y-110833170D01*
X131899051Y-110833169D01*
X131899051Y-110833165D01*
X131886672Y-110803279D01*
X131823635Y-110651092D01*
X131823633Y-110651088D01*
X131823632Y-110651086D01*
X131762029Y-110558891D01*
X131741151Y-110492214D01*
X131759635Y-110424834D01*
X131762029Y-110421109D01*
X131774872Y-110401887D01*
X131823632Y-110328914D01*
X131899051Y-110146835D01*
X131911960Y-110081936D01*
X131937500Y-109953543D01*
X131937500Y-109756456D01*
X131937499Y-109756454D01*
X131933119Y-109734431D01*
X131939346Y-109664840D01*
X131967053Y-109622561D01*
X135831821Y-105757794D01*
X135893142Y-105724311D01*
X135962834Y-105729295D01*
X136018767Y-105771167D01*
X136043184Y-105836631D01*
X136043500Y-105845477D01*
X136043500Y-106749902D01*
X136023815Y-106816941D01*
X136007181Y-106837583D01*
X135417481Y-107427282D01*
X135417479Y-107427285D01*
X135374557Y-107501630D01*
X135374556Y-107501631D01*
X135338423Y-107564214D01*
X135338423Y-107564215D01*
X135297499Y-107716943D01*
X135297499Y-107716945D01*
X135297499Y-107885046D01*
X135297500Y-107885059D01*
X135297500Y-108472930D01*
X135297499Y-108472948D01*
X135297499Y-108638654D01*
X135297498Y-108638654D01*
X135338423Y-108791385D01*
X135367358Y-108841500D01*
X135367359Y-108841504D01*
X135367360Y-108841504D01*
X135406905Y-108910000D01*
X135417479Y-108928314D01*
X135417481Y-108928317D01*
X135536349Y-109047185D01*
X135536355Y-109047190D01*
X136208167Y-109719002D01*
X136241652Y-109780325D01*
X136236668Y-109850017D01*
X136194796Y-109905950D01*
X136167940Y-109921244D01*
X136145820Y-109930406D01*
X136145814Y-109930409D01*
X136014711Y-110018010D01*
X136014707Y-110018013D01*
X135903213Y-110129507D01*
X135903210Y-110129511D01*
X135815609Y-110260614D01*
X135815602Y-110260627D01*
X135755264Y-110406298D01*
X135755261Y-110406310D01*
X135724500Y-110560953D01*
X135724500Y-110718646D01*
X135755261Y-110873289D01*
X135755264Y-110873301D01*
X135815602Y-111018972D01*
X135815609Y-111018985D01*
X135903210Y-111150088D01*
X135903213Y-111150092D01*
X136014707Y-111261586D01*
X136014711Y-111261589D01*
X136145814Y-111349190D01*
X136145827Y-111349197D01*
X136291498Y-111409535D01*
X136291503Y-111409537D01*
X136446153Y-111440299D01*
X136446156Y-111440300D01*
X136446158Y-111440300D01*
X136603844Y-111440300D01*
X136603845Y-111440299D01*
X136758497Y-111409537D01*
X136904179Y-111349194D01*
X137035289Y-111261589D01*
X137146789Y-111150089D01*
X137234394Y-111018979D01*
X137294737Y-110873297D01*
X137302642Y-110833557D01*
X153971096Y-110833557D01*
X153971096Y-110991250D01*
X154001857Y-111145893D01*
X154001860Y-111145905D01*
X154062198Y-111291576D01*
X154062205Y-111291589D01*
X154149806Y-111422692D01*
X154149809Y-111422696D01*
X154261303Y-111534190D01*
X154261307Y-111534193D01*
X154392410Y-111621794D01*
X154392423Y-111621801D01*
X154538094Y-111682139D01*
X154538099Y-111682141D01*
X154692749Y-111712903D01*
X154692752Y-111712904D01*
X154692754Y-111712904D01*
X154850440Y-111712904D01*
X154850441Y-111712903D01*
X155005093Y-111682141D01*
X155150775Y-111621798D01*
X155281885Y-111534193D01*
X155393385Y-111422693D01*
X155480990Y-111291583D01*
X155541333Y-111145901D01*
X155572096Y-110991246D01*
X155572096Y-110833562D01*
X155572096Y-110833559D01*
X155572095Y-110833557D01*
X155566072Y-110803278D01*
X155541333Y-110678907D01*
X155529807Y-110651080D01*
X155480993Y-110533231D01*
X155480986Y-110533218D01*
X155393385Y-110402115D01*
X155393382Y-110402111D01*
X155281888Y-110290617D01*
X155281884Y-110290614D01*
X155150781Y-110203013D01*
X155150768Y-110203006D01*
X155005097Y-110142668D01*
X155005085Y-110142665D01*
X154850441Y-110111904D01*
X154850438Y-110111904D01*
X154692754Y-110111904D01*
X154692751Y-110111904D01*
X154538106Y-110142665D01*
X154538094Y-110142668D01*
X154392423Y-110203006D01*
X154392410Y-110203013D01*
X154261307Y-110290614D01*
X154261303Y-110290617D01*
X154149809Y-110402111D01*
X154149806Y-110402115D01*
X154062205Y-110533218D01*
X154062198Y-110533231D01*
X154001860Y-110678902D01*
X154001857Y-110678914D01*
X153971096Y-110833557D01*
X137302642Y-110833557D01*
X137308665Y-110803278D01*
X137325500Y-110718644D01*
X137325500Y-110560955D01*
X137325499Y-110560953D01*
X137319985Y-110533231D01*
X137294737Y-110406303D01*
X137262679Y-110328907D01*
X137234394Y-110260620D01*
X137232434Y-110256953D01*
X137218192Y-110188551D01*
X137243192Y-110123307D01*
X137299497Y-110081936D01*
X137341792Y-110074500D01*
X143133434Y-110074500D01*
X143200473Y-110094185D01*
X143202325Y-110095398D01*
X143334014Y-110183390D01*
X143334027Y-110183397D01*
X143466741Y-110238368D01*
X143479703Y-110243737D01*
X143634353Y-110274499D01*
X143634356Y-110274500D01*
X143634358Y-110274500D01*
X143792044Y-110274500D01*
X143792045Y-110274499D01*
X143946697Y-110243737D01*
X144092379Y-110183394D01*
X144223489Y-110095789D01*
X144334989Y-109984289D01*
X144422594Y-109853179D01*
X144482937Y-109707497D01*
X144513700Y-109552842D01*
X144513700Y-109395158D01*
X144513700Y-109395155D01*
X144513699Y-109395153D01*
X150202500Y-109395153D01*
X150202500Y-109552846D01*
X150233261Y-109707489D01*
X150233264Y-109707501D01*
X150293602Y-109853172D01*
X150293609Y-109853185D01*
X150381210Y-109984288D01*
X150381213Y-109984292D01*
X150492707Y-110095786D01*
X150492711Y-110095789D01*
X150623814Y-110183390D01*
X150623827Y-110183397D01*
X150756541Y-110238368D01*
X150769503Y-110243737D01*
X150924153Y-110274499D01*
X150924156Y-110274500D01*
X150924158Y-110274500D01*
X151081844Y-110274500D01*
X151081845Y-110274499D01*
X151236497Y-110243737D01*
X151382179Y-110183394D01*
X151513289Y-110095789D01*
X151624789Y-109984289D01*
X151712394Y-109853179D01*
X151772737Y-109707497D01*
X151803500Y-109552842D01*
X151803500Y-109395158D01*
X151803500Y-109395155D01*
X151803499Y-109395153D01*
X151795211Y-109353489D01*
X151772737Y-109240503D01*
X151772735Y-109240498D01*
X151712397Y-109094827D01*
X151712390Y-109094814D01*
X151624789Y-108963711D01*
X151624786Y-108963707D01*
X151513292Y-108852213D01*
X151513288Y-108852210D01*
X151382185Y-108764609D01*
X151382172Y-108764602D01*
X151236501Y-108704264D01*
X151236489Y-108704261D01*
X151081845Y-108673500D01*
X151081842Y-108673500D01*
X150924158Y-108673500D01*
X150924155Y-108673500D01*
X150769510Y-108704261D01*
X150769498Y-108704264D01*
X150623827Y-108764602D01*
X150623814Y-108764609D01*
X150492711Y-108852210D01*
X150492707Y-108852213D01*
X150381213Y-108963707D01*
X150381210Y-108963711D01*
X150293609Y-109094814D01*
X150293602Y-109094827D01*
X150233264Y-109240498D01*
X150233261Y-109240510D01*
X150202500Y-109395153D01*
X144513699Y-109395153D01*
X144505411Y-109353489D01*
X144482937Y-109240503D01*
X144482935Y-109240498D01*
X144422597Y-109094827D01*
X144422590Y-109094814D01*
X144334989Y-108963711D01*
X144334986Y-108963707D01*
X144223492Y-108852213D01*
X144223488Y-108852210D01*
X144092385Y-108764609D01*
X144092372Y-108764602D01*
X143946701Y-108704264D01*
X143946689Y-108704261D01*
X143792045Y-108673500D01*
X143792042Y-108673500D01*
X143634358Y-108673500D01*
X143634355Y-108673500D01*
X143479710Y-108704261D01*
X143479698Y-108704264D01*
X143334027Y-108764602D01*
X143334014Y-108764609D01*
X143202325Y-108852602D01*
X143135647Y-108873480D01*
X143133434Y-108873500D01*
X138389521Y-108873500D01*
X138322482Y-108853815D01*
X138276727Y-108801011D01*
X138266783Y-108731853D01*
X138295808Y-108668297D01*
X138320630Y-108646398D01*
X138412517Y-108585000D01*
X138432289Y-108571789D01*
X138543789Y-108460289D01*
X138631394Y-108329179D01*
X138633152Y-108324936D01*
X138650874Y-108282149D01*
X138691737Y-108183497D01*
X138713156Y-108075812D01*
X138745539Y-108013906D01*
X138746980Y-108012437D01*
X139169123Y-107590296D01*
X139209064Y-107530520D01*
X139237795Y-107487521D01*
X139255522Y-107444724D01*
X139285098Y-107373323D01*
X139309212Y-107252091D01*
X139309212Y-107128485D01*
X139309212Y-105215569D01*
X139328897Y-105148530D01*
X139345531Y-105127888D01*
X139978016Y-104495403D01*
X140645542Y-103827876D01*
X140706863Y-103794393D01*
X140776555Y-103799377D01*
X140832488Y-103841249D01*
X140853226Y-103887746D01*
X140853494Y-103887665D01*
X140854140Y-103889795D01*
X140854835Y-103891353D01*
X140855258Y-103893482D01*
X140855264Y-103893501D01*
X140915602Y-104039172D01*
X140915609Y-104039185D01*
X141003210Y-104170288D01*
X141003213Y-104170292D01*
X141114707Y-104281786D01*
X141114711Y-104281789D01*
X141245814Y-104369390D01*
X141245827Y-104369397D01*
X141360456Y-104416877D01*
X141391503Y-104429737D01*
X141546153Y-104460499D01*
X141546156Y-104460500D01*
X141546158Y-104460500D01*
X141703844Y-104460500D01*
X141703845Y-104460499D01*
X141858497Y-104429737D01*
X142004179Y-104369394D01*
X142135289Y-104281789D01*
X142246789Y-104170289D01*
X142334394Y-104039179D01*
X142394737Y-103893497D01*
X142425500Y-103738842D01*
X142425500Y-103581158D01*
X142425500Y-103581155D01*
X142413075Y-103518692D01*
X142419302Y-103449100D01*
X142462165Y-103393923D01*
X142528055Y-103370678D01*
X142534692Y-103370500D01*
X143986643Y-103370500D01*
X144004786Y-103375827D01*
X144023696Y-103376165D01*
X144051913Y-103389665D01*
X144053682Y-103390185D01*
X144055534Y-103391398D01*
X144139107Y-103447240D01*
X144183912Y-103500852D01*
X144192619Y-103570177D01*
X144162464Y-103633205D01*
X144158322Y-103637574D01*
X144158210Y-103637711D01*
X144070609Y-103768814D01*
X144070602Y-103768827D01*
X144010264Y-103914498D01*
X144010261Y-103914510D01*
X143979500Y-104069153D01*
X143979500Y-104226846D01*
X144010261Y-104381489D01*
X144010264Y-104381501D01*
X144070602Y-104527172D01*
X144070609Y-104527185D01*
X144112320Y-104589609D01*
X144133198Y-104656286D01*
X144114714Y-104723667D01*
X144062735Y-104770357D01*
X144009218Y-104782500D01*
X143829195Y-104782500D01*
X143707970Y-104806613D01*
X143707960Y-104806616D01*
X143593773Y-104853913D01*
X143593760Y-104853920D01*
X143490992Y-104922588D01*
X143490988Y-104922591D01*
X142443204Y-105970375D01*
X142381881Y-106003860D01*
X142312189Y-105998876D01*
X142256256Y-105957004D01*
X142240962Y-105930146D01*
X142187397Y-105800827D01*
X142187390Y-105800814D01*
X142099789Y-105669711D01*
X142099786Y-105669707D01*
X141988292Y-105558213D01*
X141988288Y-105558210D01*
X141857185Y-105470609D01*
X141857172Y-105470602D01*
X141711501Y-105410264D01*
X141711489Y-105410261D01*
X141556845Y-105379500D01*
X141556842Y-105379500D01*
X141399158Y-105379500D01*
X141399155Y-105379500D01*
X141244510Y-105410261D01*
X141244498Y-105410264D01*
X141098827Y-105470602D01*
X141098814Y-105470609D01*
X140967711Y-105558210D01*
X140967707Y-105558213D01*
X140856213Y-105669707D01*
X140856210Y-105669711D01*
X140768609Y-105800814D01*
X140768602Y-105800827D01*
X140708264Y-105946498D01*
X140708261Y-105946510D01*
X140677500Y-106101153D01*
X140677500Y-106258846D01*
X140708261Y-106413489D01*
X140708264Y-106413501D01*
X140768602Y-106559172D01*
X140768609Y-106559185D01*
X140856210Y-106690288D01*
X140856213Y-106690292D01*
X140967707Y-106801786D01*
X140967711Y-106801789D01*
X141098814Y-106889390D01*
X141098827Y-106889397D01*
X141244498Y-106949735D01*
X141244503Y-106949737D01*
X141367250Y-106974153D01*
X141399153Y-106980499D01*
X141399156Y-106980500D01*
X141399158Y-106980500D01*
X141556842Y-106980500D01*
X141588748Y-106974153D01*
X141658339Y-106980379D01*
X141713517Y-107023241D01*
X141727502Y-107048318D01*
X141784602Y-107186172D01*
X141784609Y-107186185D01*
X141872210Y-107317288D01*
X141872213Y-107317292D01*
X141983707Y-107428786D01*
X141983711Y-107428789D01*
X142114814Y-107516390D01*
X142114827Y-107516397D01*
X142230272Y-107564215D01*
X142260503Y-107576737D01*
X142411785Y-107606829D01*
X142415153Y-107607499D01*
X142415156Y-107607500D01*
X142415158Y-107607500D01*
X142572844Y-107607500D01*
X142572845Y-107607499D01*
X142727497Y-107576737D01*
X142873179Y-107516394D01*
X143004289Y-107428789D01*
X143115789Y-107317289D01*
X143203394Y-107186179D01*
X143205845Y-107180263D01*
X143228773Y-107124908D01*
X143263737Y-107040497D01*
X143285156Y-106932812D01*
X143317539Y-106870906D01*
X143319033Y-106869384D01*
X144114600Y-106073819D01*
X144141527Y-106059115D01*
X144167346Y-106042523D01*
X144173546Y-106041631D01*
X144175923Y-106040334D01*
X144202281Y-106037500D01*
X144322493Y-106037500D01*
X144389532Y-106057185D01*
X144435287Y-106109989D01*
X144445231Y-106179147D01*
X144437054Y-106208952D01*
X144391264Y-106319498D01*
X144391261Y-106319510D01*
X144360500Y-106474153D01*
X144360500Y-106631846D01*
X144391261Y-106786489D01*
X144391264Y-106786501D01*
X144451602Y-106932172D01*
X144451609Y-106932185D01*
X144539210Y-107063288D01*
X144539213Y-107063292D01*
X144650707Y-107174786D01*
X144650711Y-107174789D01*
X144781814Y-107262390D01*
X144781827Y-107262397D01*
X144927498Y-107322735D01*
X144927503Y-107322737D01*
X145042312Y-107345574D01*
X145082153Y-107353499D01*
X145082156Y-107353500D01*
X145082158Y-107353500D01*
X145239844Y-107353500D01*
X145239845Y-107353499D01*
X145394497Y-107322737D01*
X145540179Y-107262394D01*
X145631466Y-107201398D01*
X145698143Y-107180520D01*
X145700357Y-107180500D01*
X148541322Y-107180500D01*
X148608361Y-107200185D01*
X148654116Y-107252989D01*
X148655883Y-107257048D01*
X148704958Y-107375528D01*
X148704965Y-107375541D01*
X148792566Y-107506644D01*
X148792569Y-107506648D01*
X148904063Y-107618142D01*
X148904067Y-107618145D01*
X149035170Y-107705746D01*
X149035183Y-107705753D01*
X149138641Y-107748606D01*
X149180859Y-107766093D01*
X149335509Y-107796855D01*
X149335512Y-107796856D01*
X149335514Y-107796856D01*
X149493200Y-107796856D01*
X149493201Y-107796855D01*
X149647853Y-107766093D01*
X149793535Y-107705750D01*
X149924645Y-107618145D01*
X150036145Y-107506645D01*
X150123750Y-107375535D01*
X150184093Y-107229853D01*
X150214856Y-107075198D01*
X150214856Y-106917514D01*
X150214856Y-106917511D01*
X150214855Y-106917509D01*
X150209263Y-106889397D01*
X150184093Y-106762859D01*
X150154034Y-106690289D01*
X150123753Y-106617183D01*
X150123746Y-106617170D01*
X150048304Y-106504264D01*
X150027426Y-106437587D01*
X150045910Y-106370207D01*
X150063721Y-106347696D01*
X150265465Y-106145952D01*
X153268233Y-106145952D01*
X153268233Y-106303645D01*
X153298994Y-106458288D01*
X153298997Y-106458300D01*
X153359335Y-106603971D01*
X153359342Y-106603984D01*
X153446943Y-106735087D01*
X153446946Y-106735091D01*
X153558440Y-106846585D01*
X153558444Y-106846588D01*
X153689547Y-106934189D01*
X153689560Y-106934196D01*
X153816434Y-106986748D01*
X153835236Y-106994536D01*
X153979138Y-107023160D01*
X153989886Y-107025298D01*
X153989889Y-107025299D01*
X153989891Y-107025299D01*
X154147577Y-107025299D01*
X154147578Y-107025298D01*
X154302230Y-106994536D01*
X154447912Y-106934193D01*
X154579022Y-106846588D01*
X154690522Y-106735088D01*
X154778127Y-106603978D01*
X154838470Y-106458296D01*
X154869233Y-106303641D01*
X154869233Y-106145957D01*
X154869233Y-106145954D01*
X154869232Y-106145952D01*
X154848696Y-106042711D01*
X154838470Y-105991302D01*
X154829802Y-105970375D01*
X154778130Y-105845626D01*
X154778123Y-105845613D01*
X154690522Y-105714510D01*
X154690519Y-105714506D01*
X154579025Y-105603012D01*
X154579021Y-105603009D01*
X154447918Y-105515408D01*
X154447905Y-105515401D01*
X154302234Y-105455063D01*
X154302222Y-105455060D01*
X154147578Y-105424299D01*
X154147575Y-105424299D01*
X153989891Y-105424299D01*
X153989888Y-105424299D01*
X153835243Y-105455060D01*
X153835231Y-105455063D01*
X153689560Y-105515401D01*
X153689547Y-105515408D01*
X153558444Y-105603009D01*
X153558440Y-105603012D01*
X153446946Y-105714506D01*
X153446943Y-105714510D01*
X153359342Y-105845613D01*
X153359335Y-105845626D01*
X153298997Y-105991297D01*
X153298994Y-105991309D01*
X153268233Y-106145952D01*
X150265465Y-106145952D01*
X153569595Y-102841824D01*
X153630918Y-102808339D01*
X153700610Y-102813323D01*
X153756543Y-102855195D01*
X153780960Y-102920659D01*
X153781276Y-102929505D01*
X153781276Y-102971622D01*
X153812037Y-103126265D01*
X153812040Y-103126277D01*
X153872378Y-103271948D01*
X153872385Y-103271961D01*
X153959986Y-103403064D01*
X153959989Y-103403068D01*
X154071483Y-103514562D01*
X154071487Y-103514565D01*
X154202590Y-103602166D01*
X154202603Y-103602173D01*
X154288401Y-103637711D01*
X154348279Y-103662513D01*
X154502929Y-103693275D01*
X154502932Y-103693276D01*
X154502934Y-103693276D01*
X154660620Y-103693276D01*
X154660621Y-103693275D01*
X154815273Y-103662513D01*
X154960955Y-103602170D01*
X155092065Y-103514565D01*
X155203565Y-103403065D01*
X155291170Y-103271955D01*
X155351513Y-103126273D01*
X155382276Y-102971618D01*
X155382276Y-102813934D01*
X155382276Y-102813931D01*
X155382275Y-102813929D01*
X155381163Y-102808339D01*
X155351513Y-102659279D01*
X155311653Y-102563048D01*
X155291173Y-102513603D01*
X155291166Y-102513590D01*
X155203565Y-102382487D01*
X155203562Y-102382483D01*
X155092068Y-102270989D01*
X155092064Y-102270986D01*
X154960961Y-102183385D01*
X154960948Y-102183378D01*
X154815277Y-102123040D01*
X154815265Y-102123037D01*
X154660621Y-102092276D01*
X154660618Y-102092276D01*
X154502934Y-102092276D01*
X154502931Y-102092276D01*
X154348286Y-102123037D01*
X154348274Y-102123040D01*
X154202603Y-102183378D01*
X154202585Y-102183388D01*
X154078575Y-102266249D01*
X154011898Y-102287127D01*
X153944518Y-102268642D01*
X153897828Y-102216663D01*
X153885685Y-102163147D01*
X153885685Y-97558753D01*
X155003100Y-97558753D01*
X155003100Y-97716446D01*
X155033861Y-97871089D01*
X155033864Y-97871101D01*
X155094202Y-98016772D01*
X155094209Y-98016785D01*
X155181810Y-98147888D01*
X155181813Y-98147892D01*
X155293307Y-98259386D01*
X155293311Y-98259389D01*
X155424414Y-98346990D01*
X155424427Y-98346997D01*
X155570098Y-98407335D01*
X155570103Y-98407337D01*
X155724753Y-98438099D01*
X155724756Y-98438100D01*
X155724758Y-98438100D01*
X155882444Y-98438100D01*
X155882445Y-98438099D01*
X156037097Y-98407337D01*
X156182779Y-98346994D01*
X156313889Y-98259389D01*
X156425389Y-98147889D01*
X156512994Y-98016779D01*
X156523508Y-97991397D01*
X156548774Y-97930398D01*
X156573337Y-97871097D01*
X156604100Y-97716442D01*
X156604100Y-97558758D01*
X156604100Y-97558755D01*
X156604099Y-97558753D01*
X156595495Y-97515497D01*
X156573337Y-97404103D01*
X156531923Y-97304120D01*
X156512997Y-97258427D01*
X156512990Y-97258414D01*
X156425389Y-97127311D01*
X156425386Y-97127307D01*
X156313892Y-97015813D01*
X156313888Y-97015810D01*
X156182785Y-96928209D01*
X156182772Y-96928202D01*
X156037101Y-96867864D01*
X156037089Y-96867861D01*
X155882445Y-96837100D01*
X155882442Y-96837100D01*
X155724758Y-96837100D01*
X155724755Y-96837100D01*
X155570110Y-96867861D01*
X155570098Y-96867864D01*
X155424427Y-96928202D01*
X155424414Y-96928209D01*
X155293311Y-97015810D01*
X155293307Y-97015813D01*
X155181813Y-97127307D01*
X155181810Y-97127311D01*
X155094209Y-97258414D01*
X155094202Y-97258427D01*
X155033864Y-97404098D01*
X155033861Y-97404110D01*
X155003100Y-97558753D01*
X153885685Y-97558753D01*
X153885685Y-91168846D01*
X153905370Y-91101807D01*
X153958174Y-91056052D01*
X154027332Y-91046108D01*
X154078575Y-91065743D01*
X154179821Y-91133394D01*
X154179823Y-91133395D01*
X154179827Y-91133397D01*
X154325498Y-91193735D01*
X154325503Y-91193737D01*
X154453021Y-91219102D01*
X154480153Y-91224499D01*
X154480156Y-91224500D01*
X154480158Y-91224500D01*
X154510522Y-91224500D01*
X154577561Y-91244185D01*
X154598203Y-91260819D01*
X157006681Y-93669297D01*
X157040166Y-93730620D01*
X157043000Y-93756978D01*
X157043000Y-104555560D01*
X157023315Y-104622599D01*
X156970511Y-104668354D01*
X156901353Y-104678298D01*
X156837797Y-104649273D01*
X156831319Y-104643241D01*
X156771092Y-104583014D01*
X156771088Y-104583011D01*
X156639985Y-104495410D01*
X156639972Y-104495403D01*
X156494301Y-104435065D01*
X156494289Y-104435062D01*
X156339645Y-104404301D01*
X156339642Y-104404301D01*
X156181958Y-104404301D01*
X156181955Y-104404301D01*
X156027310Y-104435062D01*
X156027298Y-104435065D01*
X155881627Y-104495403D01*
X155881614Y-104495410D01*
X155750511Y-104583011D01*
X155750507Y-104583014D01*
X155639013Y-104694508D01*
X155639010Y-104694512D01*
X155551409Y-104825615D01*
X155551402Y-104825628D01*
X155491064Y-104971299D01*
X155491061Y-104971311D01*
X155460300Y-105125954D01*
X155460300Y-105283647D01*
X155491061Y-105438290D01*
X155491064Y-105438302D01*
X155551402Y-105583973D01*
X155551409Y-105583986D01*
X155639010Y-105715089D01*
X155639013Y-105715093D01*
X155750507Y-105826587D01*
X155750511Y-105826590D01*
X155881614Y-105914191D01*
X155881627Y-105914198D01*
X156027298Y-105974536D01*
X156027303Y-105974538D01*
X156149658Y-105998876D01*
X156181953Y-106005300D01*
X156181956Y-106005301D01*
X156181958Y-106005301D01*
X156339644Y-106005301D01*
X156339645Y-106005300D01*
X156494297Y-105974538D01*
X156639979Y-105914195D01*
X156771089Y-105826590D01*
X156796865Y-105800814D01*
X156831319Y-105766361D01*
X156892642Y-105732876D01*
X156962334Y-105737860D01*
X157018267Y-105779732D01*
X157042684Y-105845196D01*
X157043000Y-105854042D01*
X157043000Y-106776022D01*
X157023315Y-106843061D01*
X157006681Y-106863703D01*
X155706153Y-108164230D01*
X155644830Y-108197715D01*
X155575138Y-108192731D01*
X155519205Y-108150859D01*
X155503911Y-108124001D01*
X155458897Y-108015327D01*
X155458890Y-108015314D01*
X155371289Y-107884211D01*
X155371286Y-107884207D01*
X155259792Y-107772713D01*
X155259788Y-107772710D01*
X155128685Y-107685109D01*
X155128672Y-107685102D01*
X154983001Y-107624764D01*
X154982989Y-107624761D01*
X154828345Y-107594000D01*
X154828342Y-107594000D01*
X154670658Y-107594000D01*
X154670655Y-107594000D01*
X154516010Y-107624761D01*
X154515998Y-107624764D01*
X154370327Y-107685102D01*
X154370314Y-107685109D01*
X154239211Y-107772710D01*
X154239207Y-107772713D01*
X154127713Y-107884207D01*
X154127710Y-107884211D01*
X154040109Y-108015314D01*
X154040102Y-108015327D01*
X153979764Y-108160998D01*
X153979761Y-108161010D01*
X153949000Y-108315653D01*
X153949000Y-108473346D01*
X153979761Y-108627989D01*
X153979764Y-108628001D01*
X154040102Y-108773672D01*
X154040109Y-108773685D01*
X154127710Y-108904788D01*
X154127713Y-108904792D01*
X154239207Y-109016286D01*
X154239211Y-109016289D01*
X154358641Y-109096090D01*
X154403446Y-109149702D01*
X154411367Y-109175000D01*
X154433606Y-109286800D01*
X154433609Y-109286810D01*
X154493947Y-109432481D01*
X154493954Y-109432494D01*
X154581555Y-109563597D01*
X154581558Y-109563601D01*
X154693052Y-109675095D01*
X154693056Y-109675098D01*
X154824159Y-109762699D01*
X154824172Y-109762706D01*
X154969843Y-109823044D01*
X154969848Y-109823046D01*
X155121301Y-109853172D01*
X155124498Y-109853808D01*
X155124501Y-109853809D01*
X155124503Y-109853809D01*
X155282189Y-109853809D01*
X155282190Y-109853808D01*
X155436842Y-109823046D01*
X155582524Y-109762703D01*
X155713634Y-109675098D01*
X155778117Y-109610613D01*
X155825421Y-109583305D01*
X155824875Y-109581986D01*
X155832381Y-109578875D01*
X155832387Y-109578874D01*
X155960995Y-109504622D01*
X156066004Y-109399613D01*
X156066004Y-109399611D01*
X156076208Y-109389408D01*
X156076212Y-109389403D01*
X157943094Y-107522521D01*
X157943099Y-107522517D01*
X157953302Y-107512313D01*
X157953304Y-107512313D01*
X158058313Y-107407304D01*
X158130782Y-107281785D01*
X158132565Y-107278697D01*
X158171000Y-107135253D01*
X158171000Y-106986748D01*
X158171000Y-93397748D01*
X158160434Y-93358316D01*
X158132565Y-93254304D01*
X158117089Y-93227499D01*
X158058313Y-93125696D01*
X157953304Y-93020687D01*
X157953303Y-93020686D01*
X157948973Y-93016356D01*
X157948962Y-93016346D01*
X155395819Y-90463203D01*
X155362334Y-90401880D01*
X155359500Y-90375522D01*
X155359500Y-90345155D01*
X155359499Y-90345153D01*
X155356411Y-90329628D01*
X155328737Y-90190503D01*
X155328735Y-90190498D01*
X155268397Y-90044827D01*
X155268390Y-90044814D01*
X155180789Y-89913711D01*
X155180786Y-89913707D01*
X155069292Y-89802213D01*
X155069288Y-89802210D01*
X154938185Y-89714609D01*
X154938172Y-89714602D01*
X154792501Y-89654264D01*
X154792489Y-89654261D01*
X154637845Y-89623500D01*
X154637842Y-89623500D01*
X154480158Y-89623500D01*
X154480155Y-89623500D01*
X154325510Y-89654261D01*
X154325498Y-89654264D01*
X154179827Y-89714602D01*
X154179814Y-89714609D01*
X154048711Y-89802210D01*
X154048707Y-89802213D01*
X153996616Y-89854305D01*
X153935293Y-89887790D01*
X153865601Y-89882806D01*
X153821254Y-89854305D01*
X153768477Y-89801528D01*
X153768473Y-89801525D01*
X153637370Y-89713924D01*
X153637357Y-89713917D01*
X153491686Y-89653579D01*
X153491674Y-89653576D01*
X153337030Y-89622815D01*
X153337027Y-89622815D01*
X153216500Y-89622815D01*
X153149461Y-89603130D01*
X153103706Y-89550326D01*
X153092500Y-89498815D01*
X153092500Y-88282810D01*
X153112185Y-88215771D01*
X153128814Y-88195134D01*
X153518795Y-87805153D01*
X156250300Y-87805153D01*
X156250300Y-87962846D01*
X156281061Y-88117489D01*
X156281064Y-88117501D01*
X156341402Y-88263172D01*
X156341409Y-88263185D01*
X156429010Y-88394288D01*
X156429013Y-88394292D01*
X156540507Y-88505786D01*
X156540511Y-88505789D01*
X156671614Y-88593390D01*
X156671627Y-88593397D01*
X156793088Y-88643707D01*
X156817303Y-88653737D01*
X156971953Y-88684499D01*
X156971956Y-88684500D01*
X156971958Y-88684500D01*
X157129644Y-88684500D01*
X157129645Y-88684499D01*
X157284297Y-88653737D01*
X157429979Y-88593394D01*
X157561089Y-88505789D01*
X157672589Y-88394289D01*
X157760194Y-88263179D01*
X157820537Y-88117497D01*
X157851300Y-87962842D01*
X157851300Y-87805158D01*
X157851300Y-87805155D01*
X157851299Y-87805153D01*
X157837124Y-87733892D01*
X157820537Y-87650503D01*
X157800769Y-87602779D01*
X157760197Y-87504827D01*
X157760190Y-87504814D01*
X157672589Y-87373711D01*
X157672586Y-87373707D01*
X157561092Y-87262213D01*
X157561088Y-87262210D01*
X157429985Y-87174609D01*
X157429972Y-87174602D01*
X157284301Y-87114264D01*
X157284289Y-87114261D01*
X157129645Y-87083500D01*
X157129642Y-87083500D01*
X156971958Y-87083500D01*
X156971955Y-87083500D01*
X156817310Y-87114261D01*
X156817298Y-87114264D01*
X156671627Y-87174602D01*
X156671614Y-87174609D01*
X156540511Y-87262210D01*
X156540507Y-87262213D01*
X156429013Y-87373707D01*
X156429010Y-87373711D01*
X156341409Y-87504814D01*
X156341402Y-87504827D01*
X156281064Y-87650498D01*
X156281061Y-87650510D01*
X156250300Y-87805153D01*
X153518795Y-87805153D01*
X154673506Y-86650441D01*
X154673511Y-86650438D01*
X154683714Y-86640234D01*
X154683716Y-86640234D01*
X154795520Y-86528430D01*
X154856332Y-86423100D01*
X154874577Y-86391499D01*
X154915500Y-86238772D01*
X154915500Y-86080657D01*
X154915500Y-83305047D01*
X154935185Y-83238008D01*
X154987989Y-83192253D01*
X155015309Y-83183430D01*
X155031291Y-83180250D01*
X155148497Y-83156937D01*
X155286466Y-83099789D01*
X155294172Y-83096597D01*
X155294172Y-83096596D01*
X155294179Y-83096594D01*
X155425289Y-83008989D01*
X155536789Y-82897489D01*
X155624394Y-82766379D01*
X155684737Y-82620697D01*
X155715500Y-82466042D01*
X155715500Y-82308358D01*
X155715500Y-82308355D01*
X155715499Y-82308353D01*
X155692449Y-82192473D01*
X155684737Y-82153703D01*
X155671127Y-82120846D01*
X155624397Y-82008027D01*
X155624390Y-82008014D01*
X155536789Y-81876911D01*
X155536786Y-81876907D01*
X155509760Y-81849881D01*
X155476275Y-81788558D01*
X155481259Y-81718866D01*
X155509760Y-81674519D01*
X155536786Y-81647492D01*
X155536789Y-81647489D01*
X155624394Y-81516379D01*
X155684737Y-81370697D01*
X155715500Y-81216042D01*
X155715500Y-81058358D01*
X155715500Y-81058355D01*
X155715499Y-81058353D01*
X155709320Y-81027288D01*
X155684737Y-80903703D01*
X155651480Y-80823413D01*
X155624397Y-80758027D01*
X155624390Y-80758014D01*
X155536789Y-80626911D01*
X155536786Y-80626907D01*
X155425292Y-80515413D01*
X155425288Y-80515410D01*
X155294185Y-80427809D01*
X155294172Y-80427802D01*
X155148501Y-80367464D01*
X155148491Y-80367461D01*
X155015308Y-80340969D01*
X154953397Y-80308584D01*
X154918823Y-80247868D01*
X154915500Y-80219352D01*
X154915500Y-76796054D01*
X154935185Y-76729015D01*
X154970607Y-76692953D01*
X155043889Y-76643989D01*
X155155389Y-76532489D01*
X155242994Y-76401379D01*
X155303337Y-76255697D01*
X155334100Y-76101042D01*
X155334100Y-75943358D01*
X155334100Y-75943355D01*
X155334099Y-75943353D01*
X155307299Y-75808621D01*
X155303337Y-75788703D01*
X155296085Y-75771194D01*
X155242997Y-75643027D01*
X155242990Y-75643014D01*
X155155389Y-75511911D01*
X155155386Y-75511907D01*
X155043892Y-75400413D01*
X155043888Y-75400410D01*
X154912785Y-75312809D01*
X154912772Y-75312802D01*
X154767101Y-75252464D01*
X154767089Y-75252461D01*
X154612445Y-75221700D01*
X154612442Y-75221700D01*
X154454758Y-75221700D01*
X154454755Y-75221700D01*
X154300110Y-75252461D01*
X154300098Y-75252464D01*
X154154427Y-75312802D01*
X154154414Y-75312809D01*
X154023311Y-75400410D01*
X154023307Y-75400413D01*
X153911813Y-75511907D01*
X153911810Y-75511911D01*
X153824209Y-75643014D01*
X153824202Y-75643027D01*
X153763864Y-75788698D01*
X153763861Y-75788710D01*
X153733100Y-75943353D01*
X153733100Y-76075998D01*
X153728875Y-76108091D01*
X153714499Y-76161743D01*
X153714499Y-76329846D01*
X153714500Y-76329859D01*
X153714500Y-85859617D01*
X153694815Y-85926656D01*
X153678181Y-85947298D01*
X153279848Y-86345630D01*
X153218525Y-86379115D01*
X153148833Y-86374131D01*
X153123276Y-86361051D01*
X153010370Y-86285609D01*
X153010357Y-86285602D01*
X152864686Y-86225264D01*
X152864674Y-86225261D01*
X152710030Y-86194500D01*
X152710027Y-86194500D01*
X152552343Y-86194500D01*
X152552340Y-86194500D01*
X152397695Y-86225261D01*
X152397683Y-86225264D01*
X152252012Y-86285602D01*
X152251999Y-86285609D01*
X152120896Y-86373210D01*
X152120892Y-86373213D01*
X152009398Y-86484707D01*
X152009395Y-86484711D01*
X151921794Y-86615814D01*
X151921787Y-86615827D01*
X151861449Y-86761498D01*
X151861446Y-86761510D01*
X151830685Y-86916153D01*
X151830685Y-87073846D01*
X151861446Y-87228489D01*
X151861449Y-87228501D01*
X151921787Y-87374172D01*
X151921794Y-87374185D01*
X152001344Y-87493239D01*
X152006130Y-87508525D01*
X152015421Y-87521572D01*
X152016355Y-87541180D01*
X152022222Y-87559916D01*
X152018022Y-87576166D01*
X152018747Y-87591362D01*
X152005630Y-87624128D01*
X151961361Y-87700807D01*
X151961359Y-87700810D01*
X151932425Y-87750923D01*
X151932424Y-87750924D01*
X151924507Y-87780472D01*
X151891499Y-87903657D01*
X151891499Y-87903659D01*
X151891499Y-88071760D01*
X151891500Y-88071773D01*
X151891500Y-89798090D01*
X151871815Y-89865129D01*
X151819011Y-89910884D01*
X151749853Y-89920828D01*
X151743309Y-89919707D01*
X151686032Y-89908314D01*
X151686028Y-89908314D01*
X151528344Y-89908314D01*
X151528341Y-89908314D01*
X151373696Y-89939075D01*
X151373684Y-89939078D01*
X151228013Y-89999416D01*
X151228000Y-89999423D01*
X151096897Y-90087024D01*
X151096893Y-90087027D01*
X150985399Y-90198521D01*
X150985396Y-90198525D01*
X150897795Y-90329628D01*
X150897788Y-90329641D01*
X150837450Y-90475312D01*
X150837447Y-90475324D01*
X150806686Y-90629967D01*
X150806686Y-90787660D01*
X150837447Y-90942303D01*
X150837450Y-90942315D01*
X150897788Y-91087986D01*
X150897795Y-91087999D01*
X150985396Y-91219102D01*
X150985399Y-91219106D01*
X151096893Y-91330600D01*
X151096897Y-91330603D01*
X151228000Y-91418204D01*
X151228013Y-91418211D01*
X151373684Y-91478549D01*
X151373689Y-91478551D01*
X151502368Y-91504147D01*
X151528339Y-91509313D01*
X151528342Y-91509314D01*
X151528344Y-91509314D01*
X151686029Y-91509314D01*
X151712004Y-91504147D01*
X151743308Y-91497920D01*
X151764291Y-91499797D01*
X151785147Y-91496799D01*
X151798395Y-91502849D01*
X151812899Y-91504147D01*
X151829536Y-91517071D01*
X151848703Y-91525824D01*
X151856576Y-91538075D01*
X151868077Y-91547009D01*
X151875086Y-91566878D01*
X151886477Y-91584602D01*
X151890011Y-91609182D01*
X151891322Y-91612898D01*
X151891500Y-91619537D01*
X151891500Y-91814967D01*
X151871815Y-91882006D01*
X151819011Y-91927761D01*
X151791692Y-91936584D01*
X151658508Y-91963076D01*
X151658498Y-91963079D01*
X151512827Y-92023417D01*
X151512814Y-92023424D01*
X151381711Y-92111025D01*
X151381707Y-92111028D01*
X151270213Y-92222522D01*
X151270210Y-92222526D01*
X151182609Y-92353629D01*
X151182602Y-92353642D01*
X151122264Y-92499313D01*
X151122261Y-92499325D01*
X151091500Y-92653968D01*
X151091500Y-92811661D01*
X151122261Y-92966304D01*
X151122264Y-92966316D01*
X151182602Y-93111987D01*
X151182609Y-93112000D01*
X151270210Y-93243103D01*
X151270213Y-93243107D01*
X151381707Y-93354601D01*
X151381711Y-93354604D01*
X151512814Y-93442205D01*
X151512827Y-93442212D01*
X151658498Y-93502550D01*
X151658503Y-93502552D01*
X151768987Y-93524528D01*
X151791691Y-93529045D01*
X151853602Y-93561430D01*
X151888176Y-93622145D01*
X151891500Y-93650662D01*
X151891500Y-94522374D01*
X151871815Y-94589413D01*
X151819011Y-94635168D01*
X151749853Y-94645112D01*
X151686297Y-94616087D01*
X151679819Y-94610055D01*
X147614019Y-90544255D01*
X147580534Y-90482932D01*
X147577700Y-90456574D01*
X147577700Y-89075153D01*
X148297500Y-89075153D01*
X148297500Y-89232846D01*
X148328261Y-89387489D01*
X148328264Y-89387501D01*
X148388602Y-89533172D01*
X148388609Y-89533185D01*
X148476210Y-89664288D01*
X148476213Y-89664292D01*
X148587707Y-89775786D01*
X148587711Y-89775789D01*
X148718814Y-89863390D01*
X148718827Y-89863397D01*
X148857480Y-89920828D01*
X148864503Y-89923737D01*
X149019153Y-89954499D01*
X149019156Y-89954500D01*
X149019158Y-89954500D01*
X149176844Y-89954500D01*
X149176845Y-89954499D01*
X149331497Y-89923737D01*
X149444166Y-89877067D01*
X149477172Y-89863397D01*
X149477172Y-89863396D01*
X149477179Y-89863394D01*
X149608289Y-89775789D01*
X149719789Y-89664289D01*
X149807394Y-89533179D01*
X149867737Y-89387497D01*
X149898500Y-89232842D01*
X149898500Y-89075158D01*
X149898500Y-89075155D01*
X149898499Y-89075153D01*
X149867738Y-88920510D01*
X149867737Y-88920503D01*
X149839297Y-88851842D01*
X149807397Y-88774827D01*
X149807390Y-88774814D01*
X149719789Y-88643711D01*
X149719786Y-88643707D01*
X149608292Y-88532213D01*
X149608288Y-88532210D01*
X149477185Y-88444609D01*
X149477172Y-88444602D01*
X149331501Y-88384264D01*
X149331489Y-88384261D01*
X149176845Y-88353500D01*
X149176842Y-88353500D01*
X149019158Y-88353500D01*
X149019155Y-88353500D01*
X148864510Y-88384261D01*
X148864498Y-88384264D01*
X148718827Y-88444602D01*
X148718814Y-88444609D01*
X148587711Y-88532210D01*
X148587707Y-88532213D01*
X148476213Y-88643707D01*
X148476210Y-88643711D01*
X148388609Y-88774814D01*
X148388602Y-88774827D01*
X148328264Y-88920498D01*
X148328261Y-88920510D01*
X148297500Y-89075153D01*
X147577700Y-89075153D01*
X147577700Y-83846339D01*
X147597385Y-83779300D01*
X147650189Y-83733545D01*
X147719347Y-83723601D01*
X147725892Y-83724722D01*
X147831352Y-83745700D01*
X147831355Y-83745700D01*
X147989041Y-83745700D01*
X147989042Y-83745699D01*
X148143694Y-83714937D01*
X148289376Y-83654594D01*
X148420486Y-83566989D01*
X148531986Y-83455489D01*
X148565861Y-83404792D01*
X148577763Y-83386980D01*
X148631375Y-83342174D01*
X148648766Y-83336097D01*
X148714787Y-83318407D01*
X148806113Y-83265680D01*
X148872519Y-83199274D01*
X148933842Y-83165789D01*
X149003534Y-83170773D01*
X149047881Y-83199274D01*
X149114287Y-83265680D01*
X149205613Y-83318407D01*
X149307473Y-83345700D01*
X149307475Y-83345700D01*
X149412925Y-83345700D01*
X149412927Y-83345700D01*
X149514787Y-83318407D01*
X149606113Y-83265680D01*
X149680680Y-83191113D01*
X149733407Y-83099787D01*
X149760700Y-82997927D01*
X149760700Y-82892473D01*
X149733407Y-82790613D01*
X149680680Y-82699287D01*
X149664274Y-82682881D01*
X149630789Y-82621558D01*
X149635773Y-82551866D01*
X149664274Y-82507519D01*
X149680680Y-82491113D01*
X149733407Y-82399787D01*
X149760700Y-82297927D01*
X149760700Y-82192473D01*
X149733407Y-82090613D01*
X149680680Y-81999287D01*
X149606113Y-81924720D01*
X149514787Y-81871993D01*
X149412927Y-81844700D01*
X149307473Y-81844700D01*
X149205613Y-81871993D01*
X149205610Y-81871994D01*
X149114285Y-81924721D01*
X149047881Y-81991126D01*
X148986558Y-82024611D01*
X148916866Y-82019627D01*
X148872519Y-81991126D01*
X148806114Y-81924721D01*
X148806113Y-81924720D01*
X148714787Y-81871993D01*
X148612927Y-81844700D01*
X148507473Y-81844700D01*
X148405613Y-81871993D01*
X148405610Y-81871994D01*
X148314285Y-81924721D01*
X148239722Y-81999284D01*
X148239720Y-81999286D01*
X148239720Y-81999287D01*
X148207894Y-82054411D01*
X148183019Y-82097496D01*
X148132451Y-82145711D01*
X148063844Y-82158933D01*
X148051441Y-82157112D01*
X147989042Y-82144700D01*
X147989039Y-82144700D01*
X147831355Y-82144700D01*
X147831350Y-82144700D01*
X147725891Y-82165677D01*
X147704907Y-82163799D01*
X147684053Y-82166798D01*
X147670805Y-82160748D01*
X147656299Y-82159450D01*
X147639661Y-82146524D01*
X147620497Y-82137773D01*
X147612622Y-82125520D01*
X147601122Y-82116586D01*
X147594113Y-82096718D01*
X147582723Y-82078995D01*
X147579188Y-82054411D01*
X147577878Y-82050697D01*
X147577700Y-82044060D01*
X147577700Y-82024965D01*
X147597385Y-81957926D01*
X147598598Y-81956074D01*
X147619548Y-81924721D01*
X147686594Y-81824379D01*
X147746937Y-81678697D01*
X147777700Y-81524042D01*
X147777700Y-81366358D01*
X147777700Y-81366355D01*
X147777699Y-81366353D01*
X147746938Y-81211710D01*
X147746937Y-81211703D01*
X147746935Y-81211698D01*
X147686597Y-81066027D01*
X147686590Y-81066014D01*
X147598989Y-80934911D01*
X147598986Y-80934907D01*
X147487492Y-80823413D01*
X147487488Y-80823410D01*
X147356385Y-80735809D01*
X147356372Y-80735802D01*
X147210701Y-80675464D01*
X147210689Y-80675461D01*
X147056045Y-80644700D01*
X147056042Y-80644700D01*
X146898358Y-80644700D01*
X146898353Y-80644700D01*
X146798691Y-80664524D01*
X146729099Y-80658297D01*
X146673922Y-80615433D01*
X146650678Y-80549544D01*
X146650500Y-80542907D01*
X146650500Y-78532365D01*
X146670185Y-78465326D01*
X146671398Y-78463474D01*
X146759390Y-78331785D01*
X146759390Y-78331784D01*
X146759394Y-78331779D01*
X146819737Y-78186097D01*
X146850500Y-78031442D01*
X146850500Y-77873758D01*
X146850500Y-77873755D01*
X146850499Y-77873753D01*
X146847555Y-77858954D01*
X146819737Y-77719103D01*
X146798731Y-77668389D01*
X146759397Y-77573427D01*
X146759390Y-77573414D01*
X146671789Y-77442311D01*
X146671786Y-77442307D01*
X146560292Y-77330813D01*
X146560288Y-77330810D01*
X146429185Y-77243209D01*
X146429172Y-77243202D01*
X146283501Y-77182864D01*
X146283489Y-77182861D01*
X146128845Y-77152100D01*
X146128842Y-77152100D01*
X145971158Y-77152100D01*
X145971155Y-77152100D01*
X145816510Y-77182861D01*
X145816498Y-77182864D01*
X145670827Y-77243202D01*
X145670814Y-77243209D01*
X145539711Y-77330810D01*
X145539707Y-77330813D01*
X145428213Y-77442307D01*
X145428210Y-77442311D01*
X145340609Y-77573414D01*
X145340602Y-77573427D01*
X145280264Y-77719098D01*
X145280261Y-77719110D01*
X145249500Y-77873753D01*
X145249500Y-78031443D01*
X145280261Y-78186089D01*
X145280264Y-78186101D01*
X145340602Y-78331772D01*
X145340609Y-78331785D01*
X145428602Y-78463474D01*
X145449480Y-78530151D01*
X145449500Y-78532365D01*
X145449500Y-90591330D01*
X145449499Y-90591348D01*
X145449499Y-90757054D01*
X145449498Y-90757054D01*
X145449499Y-90757057D01*
X145485420Y-90891115D01*
X145490424Y-90909787D01*
X145504174Y-90933602D01*
X145504175Y-90933604D01*
X145569477Y-91046712D01*
X145569481Y-91046717D01*
X145688349Y-91165585D01*
X145688355Y-91165590D01*
X150295425Y-95772660D01*
X150328910Y-95833983D01*
X150329361Y-95836149D01*
X150360261Y-95991491D01*
X150360264Y-95991501D01*
X150420602Y-96137172D01*
X150420609Y-96137185D01*
X150508210Y-96268288D01*
X150508213Y-96268292D01*
X150619707Y-96379786D01*
X150619711Y-96379789D01*
X150750814Y-96467390D01*
X150750827Y-96467397D01*
X150896498Y-96527735D01*
X150896503Y-96527737D01*
X151006987Y-96549713D01*
X151029691Y-96554230D01*
X151091602Y-96586615D01*
X151126176Y-96647330D01*
X151129500Y-96675847D01*
X151129500Y-98670362D01*
X151109815Y-98737401D01*
X151057011Y-98783156D01*
X151050241Y-98786009D01*
X151040223Y-98789884D01*
X150998103Y-98798263D01*
X150852421Y-98858606D01*
X150838430Y-98867954D01*
X150825657Y-98872896D01*
X150803927Y-98874715D01*
X150783119Y-98881229D01*
X150769797Y-98877573D01*
X150756031Y-98878726D01*
X150736767Y-98868509D01*
X150715740Y-98862739D01*
X150706509Y-98852461D01*
X150694306Y-98845989D01*
X150683624Y-98826979D01*
X150669054Y-98810756D01*
X150666845Y-98797118D01*
X150660079Y-98785077D01*
X150661370Y-98763310D01*
X150657884Y-98741785D01*
X150659295Y-98733078D01*
X150668500Y-98686803D01*
X150668500Y-98563197D01*
X150668500Y-97022485D01*
X150667434Y-97017130D01*
X150667172Y-97015810D01*
X150667171Y-97015808D01*
X150644385Y-96901253D01*
X150597083Y-96787055D01*
X150556232Y-96725917D01*
X150528411Y-96684280D01*
X150441008Y-96596877D01*
X142557659Y-88713528D01*
X142524174Y-88652205D01*
X142523752Y-88650182D01*
X142501737Y-88539503D01*
X142462428Y-88444602D01*
X142441397Y-88393827D01*
X142441390Y-88393814D01*
X142353789Y-88262711D01*
X142353786Y-88262707D01*
X142242292Y-88151213D01*
X142242288Y-88151210D01*
X142111185Y-88063609D01*
X142111172Y-88063602D01*
X141965501Y-88003264D01*
X141965489Y-88003261D01*
X141810845Y-87972500D01*
X141810842Y-87972500D01*
X141653158Y-87972500D01*
X141653155Y-87972500D01*
X141498510Y-88003261D01*
X141498498Y-88003264D01*
X141352827Y-88063602D01*
X141352814Y-88063609D01*
X141221711Y-88151210D01*
X141221707Y-88151213D01*
X141110213Y-88262707D01*
X141110210Y-88262711D01*
X141022609Y-88393814D01*
X141022602Y-88393827D01*
X140962264Y-88539498D01*
X140962261Y-88539510D01*
X140931500Y-88694153D01*
X140931500Y-88851846D01*
X140962261Y-89006489D01*
X140962264Y-89006501D01*
X141022602Y-89152172D01*
X141022609Y-89152185D01*
X141110210Y-89283288D01*
X141110213Y-89283292D01*
X141221707Y-89394786D01*
X141221711Y-89394789D01*
X141352814Y-89482390D01*
X141352827Y-89482397D01*
X141387815Y-89496889D01*
X141498503Y-89542737D01*
X141603329Y-89563588D01*
X141665236Y-89595971D01*
X141666816Y-89597523D01*
X144865842Y-92796549D01*
X144899327Y-92857872D01*
X144894343Y-92927564D01*
X144852471Y-92983497D01*
X144802353Y-93005847D01*
X144738152Y-93018617D01*
X144738142Y-93018620D01*
X144592471Y-93078958D01*
X144592458Y-93078965D01*
X144461355Y-93166566D01*
X144461351Y-93166569D01*
X144349857Y-93278063D01*
X144349854Y-93278067D01*
X144262253Y-93409170D01*
X144262248Y-93409179D01*
X144257744Y-93420055D01*
X144213903Y-93474458D01*
X144147609Y-93496523D01*
X144079910Y-93479244D01*
X144055502Y-93460283D01*
X138763619Y-88168400D01*
X138748915Y-88141472D01*
X138732323Y-88115654D01*
X138731431Y-88109453D01*
X138730134Y-88107077D01*
X138727300Y-88080719D01*
X138727300Y-88038214D01*
X138746985Y-87971175D01*
X138799789Y-87925420D01*
X138868947Y-87915476D01*
X138910881Y-87931551D01*
X138911646Y-87930121D01*
X138917027Y-87932997D01*
X139062698Y-87993335D01*
X139062703Y-87993337D01*
X139217353Y-88024099D01*
X139217356Y-88024100D01*
X139217358Y-88024100D01*
X139375044Y-88024100D01*
X139375045Y-88024099D01*
X139529697Y-87993337D01*
X139675379Y-87932994D01*
X139806489Y-87845389D01*
X139917989Y-87733889D01*
X140005594Y-87602779D01*
X140065937Y-87457097D01*
X140096700Y-87302442D01*
X140096700Y-87144758D01*
X140096700Y-87144755D01*
X140096699Y-87144753D01*
X140084515Y-87083500D01*
X140065937Y-86990103D01*
X140048363Y-86947676D01*
X140005597Y-86844427D01*
X140005590Y-86844414D01*
X139917989Y-86713311D01*
X139917986Y-86713307D01*
X139806492Y-86601813D01*
X139806488Y-86601810D01*
X139675385Y-86514209D01*
X139675372Y-86514202D01*
X139529701Y-86453864D01*
X139529689Y-86453861D01*
X139375045Y-86423100D01*
X139375042Y-86423100D01*
X139217358Y-86423100D01*
X139217355Y-86423100D01*
X139062710Y-86453861D01*
X139062698Y-86453864D01*
X138917027Y-86514202D01*
X138911646Y-86517079D01*
X138910586Y-86515096D01*
X138853504Y-86532965D01*
X138786126Y-86514476D01*
X138739439Y-86462493D01*
X138727300Y-86408985D01*
X138727300Y-81963153D01*
X139464500Y-81963153D01*
X139464500Y-82120846D01*
X139495261Y-82275489D01*
X139495264Y-82275501D01*
X139555602Y-82421172D01*
X139555609Y-82421185D01*
X139643210Y-82552288D01*
X139643213Y-82552292D01*
X139680240Y-82589319D01*
X139713725Y-82650642D01*
X139708741Y-82720334D01*
X139680240Y-82764681D01*
X139643213Y-82801707D01*
X139643210Y-82801711D01*
X139555609Y-82932814D01*
X139555602Y-82932827D01*
X139495264Y-83078498D01*
X139495261Y-83078510D01*
X139464500Y-83233153D01*
X139464500Y-83390846D01*
X139495261Y-83545489D01*
X139495264Y-83545501D01*
X139555602Y-83691172D01*
X139555609Y-83691185D01*
X139643210Y-83822288D01*
X139643213Y-83822292D01*
X139754707Y-83933786D01*
X139754711Y-83933789D01*
X139885814Y-84021390D01*
X139885827Y-84021397D01*
X140031498Y-84081735D01*
X140031503Y-84081737D01*
X140186153Y-84112499D01*
X140186156Y-84112500D01*
X140186158Y-84112500D01*
X140343844Y-84112500D01*
X140343845Y-84112499D01*
X140498497Y-84081737D01*
X140644179Y-84021394D01*
X140775289Y-83933789D01*
X140886789Y-83822289D01*
X140974394Y-83691179D01*
X141034737Y-83545497D01*
X141065500Y-83390842D01*
X141065500Y-83233158D01*
X141065500Y-83233155D01*
X141065499Y-83233153D01*
X141050339Y-83156938D01*
X141034737Y-83078503D01*
X141005944Y-83008989D01*
X140974397Y-82932827D01*
X140974390Y-82932814D01*
X140886789Y-82801711D01*
X140886786Y-82801707D01*
X140849760Y-82764681D01*
X140816275Y-82703358D01*
X140821259Y-82633666D01*
X140849760Y-82589319D01*
X140886786Y-82552292D01*
X140886789Y-82552289D01*
X140974394Y-82421179D01*
X141034737Y-82275497D01*
X141065500Y-82120842D01*
X141065500Y-81963158D01*
X141065500Y-81963155D01*
X141065499Y-81963153D01*
X141047366Y-81871993D01*
X141034737Y-81808503D01*
X141014228Y-81758989D01*
X140974397Y-81662827D01*
X140974390Y-81662814D01*
X140886789Y-81531711D01*
X140886786Y-81531707D01*
X140775292Y-81420213D01*
X140775288Y-81420210D01*
X140644185Y-81332609D01*
X140644172Y-81332602D01*
X140498501Y-81272264D01*
X140498489Y-81272261D01*
X140343845Y-81241500D01*
X140343842Y-81241500D01*
X140186158Y-81241500D01*
X140186155Y-81241500D01*
X140031510Y-81272261D01*
X140031498Y-81272264D01*
X139885827Y-81332602D01*
X139885814Y-81332609D01*
X139754711Y-81420210D01*
X139754707Y-81420213D01*
X139643213Y-81531707D01*
X139643210Y-81531711D01*
X139555609Y-81662814D01*
X139555602Y-81662827D01*
X139495264Y-81808498D01*
X139495261Y-81808510D01*
X139464500Y-81963153D01*
X138727300Y-81963153D01*
X138727300Y-78467080D01*
X138746985Y-78400041D01*
X138763614Y-78379404D01*
X140209064Y-76933953D01*
X147205300Y-76933953D01*
X147205300Y-77091646D01*
X147236061Y-77246289D01*
X147236064Y-77246301D01*
X147296402Y-77391972D01*
X147296409Y-77391985D01*
X147384010Y-77523088D01*
X147384013Y-77523092D01*
X147495507Y-77634586D01*
X147495511Y-77634589D01*
X147626614Y-77722190D01*
X147626627Y-77722197D01*
X147772298Y-77782535D01*
X147772303Y-77782537D01*
X147926953Y-77813299D01*
X147926956Y-77813300D01*
X147926958Y-77813300D01*
X148084644Y-77813300D01*
X148084645Y-77813299D01*
X148239297Y-77782537D01*
X148384979Y-77722194D01*
X148516089Y-77634589D01*
X148627589Y-77523089D01*
X148715194Y-77391979D01*
X148775537Y-77246297D01*
X148806300Y-77091642D01*
X148806300Y-76933958D01*
X148806300Y-76933955D01*
X148806299Y-76933953D01*
X148775538Y-76779310D01*
X148775537Y-76779303D01*
X148741899Y-76698092D01*
X148715197Y-76633627D01*
X148715190Y-76633614D01*
X148627589Y-76502511D01*
X148627586Y-76502507D01*
X148516092Y-76391013D01*
X148516088Y-76391010D01*
X148384985Y-76303409D01*
X148384972Y-76303402D01*
X148239301Y-76243064D01*
X148239289Y-76243061D01*
X148084645Y-76212300D01*
X148084642Y-76212300D01*
X147926958Y-76212300D01*
X147926955Y-76212300D01*
X147772310Y-76243061D01*
X147772298Y-76243064D01*
X147626627Y-76303402D01*
X147626614Y-76303409D01*
X147495511Y-76391010D01*
X147495507Y-76391013D01*
X147384013Y-76502507D01*
X147384010Y-76502511D01*
X147296409Y-76633614D01*
X147296402Y-76633627D01*
X147236064Y-76779298D01*
X147236061Y-76779310D01*
X147205300Y-76933953D01*
X140209064Y-76933953D01*
X140643578Y-76499439D01*
X140704899Y-76465956D01*
X140755446Y-76465505D01*
X140838070Y-76481940D01*
X140891156Y-76492500D01*
X140891158Y-76492500D01*
X141048844Y-76492500D01*
X141048845Y-76492499D01*
X141203497Y-76461737D01*
X141349179Y-76401394D01*
X141480289Y-76313789D01*
X141591789Y-76202289D01*
X141679394Y-76071179D01*
X141739737Y-75925497D01*
X141770500Y-75770842D01*
X141770500Y-75613158D01*
X141770500Y-75613155D01*
X141770499Y-75613153D01*
X141761122Y-75566011D01*
X141739737Y-75458503D01*
X141722987Y-75418064D01*
X141679397Y-75312827D01*
X141679390Y-75312814D01*
X141591789Y-75181711D01*
X141591786Y-75181707D01*
X141480292Y-75070213D01*
X141480288Y-75070210D01*
X141349185Y-74982609D01*
X141349172Y-74982602D01*
X141203501Y-74922264D01*
X141203489Y-74922261D01*
X141048845Y-74891500D01*
X141048842Y-74891500D01*
X140891158Y-74891500D01*
X140891155Y-74891500D01*
X140736510Y-74922261D01*
X140736498Y-74922264D01*
X140590827Y-74982602D01*
X140590814Y-74982609D01*
X140474550Y-75060295D01*
X140429852Y-75078810D01*
X140380568Y-75088613D01*
X140380562Y-75088615D01*
X140266373Y-75135913D01*
X140266360Y-75135920D01*
X140163592Y-75204588D01*
X140163588Y-75204591D01*
X139700210Y-75667969D01*
X139638887Y-75701454D01*
X139569195Y-75696470D01*
X139524848Y-75667969D01*
X139422892Y-75566013D01*
X139422888Y-75566010D01*
X139291785Y-75478409D01*
X139291772Y-75478402D01*
X139146101Y-75418064D01*
X139146089Y-75418061D01*
X138991445Y-75387300D01*
X138991442Y-75387300D01*
X138833758Y-75387300D01*
X138833755Y-75387300D01*
X138679110Y-75418061D01*
X138679098Y-75418064D01*
X138533427Y-75478402D01*
X138533414Y-75478409D01*
X138402311Y-75566010D01*
X138402307Y-75566013D01*
X138290813Y-75677507D01*
X138290810Y-75677511D01*
X138203209Y-75808614D01*
X138203202Y-75808627D01*
X138142864Y-75954298D01*
X138142861Y-75954310D01*
X138112100Y-76108953D01*
X138112100Y-76266646D01*
X138142861Y-76421289D01*
X138142864Y-76421301D01*
X138203202Y-76566972D01*
X138203209Y-76566985D01*
X138290810Y-76698088D01*
X138290813Y-76698092D01*
X138392769Y-76800048D01*
X138426254Y-76861371D01*
X138421270Y-76931063D01*
X138392769Y-76975410D01*
X137845093Y-77523088D01*
X137699792Y-77668389D01*
X137656089Y-77712092D01*
X137612386Y-77755794D01*
X137612385Y-77755796D01*
X137543457Y-77858954D01*
X137543037Y-77860207D01*
X137496414Y-77972765D01*
X137484743Y-78031442D01*
X137483215Y-78039121D01*
X137483211Y-78039135D01*
X137472300Y-78093992D01*
X137472300Y-88453807D01*
X137496412Y-88575028D01*
X137496415Y-88575039D01*
X137501693Y-88587781D01*
X137501696Y-88587788D01*
X137504019Y-88593394D01*
X137543717Y-88689233D01*
X137600905Y-88774821D01*
X137604297Y-88779898D01*
X137604299Y-88779901D01*
X137612390Y-88792010D01*
X137612391Y-88792011D01*
X143049500Y-94229119D01*
X143082985Y-94290442D01*
X143078001Y-94360134D01*
X143036129Y-94416067D01*
X142970665Y-94440484D01*
X142961819Y-94440800D01*
X141263986Y-94440800D01*
X141196947Y-94421115D01*
X141151192Y-94368311D01*
X141141248Y-94299153D01*
X141160884Y-94247909D01*
X141169468Y-94235061D01*
X141171394Y-94232179D01*
X141172662Y-94229119D01*
X141231735Y-94086501D01*
X141231737Y-94086497D01*
X141262500Y-93931842D01*
X141262500Y-93774158D01*
X141262500Y-93774155D01*
X141262499Y-93774153D01*
X141253159Y-93727197D01*
X141231737Y-93619503D01*
X141196037Y-93533315D01*
X141171397Y-93473827D01*
X141171390Y-93473814D01*
X141083789Y-93342711D01*
X141083786Y-93342707D01*
X140972292Y-93231213D01*
X140972288Y-93231210D01*
X140841185Y-93143609D01*
X140841172Y-93143602D01*
X140695501Y-93083264D01*
X140695489Y-93083261D01*
X140540845Y-93052500D01*
X140540842Y-93052500D01*
X140383158Y-93052500D01*
X140383155Y-93052500D01*
X140228510Y-93083261D01*
X140228498Y-93083264D01*
X140082827Y-93143602D01*
X140082814Y-93143609D01*
X139951711Y-93231210D01*
X139951707Y-93231213D01*
X139840213Y-93342707D01*
X139840210Y-93342711D01*
X139752609Y-93473814D01*
X139752602Y-93473827D01*
X139692264Y-93619498D01*
X139692261Y-93619510D01*
X139661500Y-93774153D01*
X139661500Y-93931846D01*
X139692261Y-94086489D01*
X139692264Y-94086501D01*
X139752602Y-94232172D01*
X139752609Y-94232184D01*
X139763116Y-94247909D01*
X139783994Y-94314586D01*
X139765510Y-94381966D01*
X139713531Y-94428657D01*
X139660014Y-94440800D01*
X138134441Y-94440800D01*
X138067402Y-94421115D01*
X138046760Y-94404481D01*
X138025292Y-94383013D01*
X138025288Y-94383010D01*
X137894185Y-94295409D01*
X137894172Y-94295402D01*
X137748501Y-94235064D01*
X137748489Y-94235061D01*
X137593845Y-94204300D01*
X137593842Y-94204300D01*
X137436158Y-94204300D01*
X137436155Y-94204300D01*
X137281510Y-94235061D01*
X137281498Y-94235064D01*
X137135827Y-94295402D01*
X137135814Y-94295409D01*
X137004711Y-94383010D01*
X137004707Y-94383013D01*
X136893213Y-94494507D01*
X136893210Y-94494511D01*
X136805609Y-94625614D01*
X136805602Y-94625627D01*
X136745264Y-94771298D01*
X136745261Y-94771310D01*
X136714500Y-94925953D01*
X136714500Y-95083646D01*
X136745261Y-95238289D01*
X136745264Y-95238301D01*
X136805602Y-95383972D01*
X136805609Y-95383985D01*
X136893210Y-95515088D01*
X136893213Y-95515092D01*
X137004707Y-95626586D01*
X137004711Y-95626589D01*
X137135814Y-95714190D01*
X137135827Y-95714197D01*
X137276971Y-95772660D01*
X137281503Y-95774537D01*
X137436153Y-95805299D01*
X137436156Y-95805300D01*
X137436158Y-95805300D01*
X137593844Y-95805300D01*
X137593845Y-95805299D01*
X137748497Y-95774537D01*
X137894179Y-95714194D01*
X138025289Y-95626589D01*
X138025292Y-95626586D01*
X138046760Y-95605119D01*
X138108083Y-95571634D01*
X138134441Y-95568800D01*
X144950947Y-95568800D01*
X145011822Y-95568800D01*
X145078861Y-95588485D01*
X145099503Y-95605119D01*
X146737181Y-97242797D01*
X146770666Y-97304120D01*
X146773500Y-97330478D01*
X146773500Y-97360846D01*
X146804261Y-97515489D01*
X146804263Y-97515496D01*
X146831417Y-97581054D01*
X146838885Y-97650523D01*
X146807609Y-97713002D01*
X146747520Y-97748654D01*
X146739097Y-97750135D01*
X146739132Y-97750311D01*
X146578510Y-97782261D01*
X146578498Y-97782264D01*
X146432827Y-97842602D01*
X146432814Y-97842609D01*
X146301711Y-97930210D01*
X146301707Y-97930213D01*
X146190213Y-98041707D01*
X146190210Y-98041711D01*
X146102609Y-98172814D01*
X146102602Y-98172827D01*
X146042264Y-98318498D01*
X146042261Y-98318510D01*
X146011500Y-98473153D01*
X146011500Y-98630846D01*
X146042261Y-98785489D01*
X146042264Y-98785501D01*
X146102602Y-98931172D01*
X146102609Y-98931185D01*
X146190210Y-99062288D01*
X146190213Y-99062292D01*
X146301707Y-99173786D01*
X146301711Y-99173789D01*
X146432814Y-99261390D01*
X146432827Y-99261397D01*
X146535795Y-99304047D01*
X146578503Y-99321737D01*
X146733153Y-99352499D01*
X146733156Y-99352500D01*
X146733158Y-99352500D01*
X146890844Y-99352500D01*
X146890845Y-99352499D01*
X147045497Y-99321737D01*
X147191179Y-99261394D01*
X147322289Y-99173789D01*
X147433789Y-99062289D01*
X147521394Y-98931179D01*
X147581737Y-98785497D01*
X147612500Y-98630842D01*
X147612500Y-98473158D01*
X147612500Y-98473155D01*
X147612499Y-98473153D01*
X147581738Y-98318510D01*
X147581737Y-98318503D01*
X147581735Y-98318498D01*
X147554583Y-98252946D01*
X147547114Y-98183477D01*
X147578389Y-98120998D01*
X147638479Y-98085346D01*
X147646903Y-98083865D01*
X147646868Y-98083689D01*
X147733334Y-98066488D01*
X147807497Y-98051737D01*
X147953179Y-97991394D01*
X148047592Y-97928308D01*
X148114269Y-97907431D01*
X148133108Y-97909117D01*
X148133130Y-97908903D01*
X148139193Y-97909500D01*
X148139197Y-97909500D01*
X148812643Y-97909500D01*
X148879682Y-97929185D01*
X148881534Y-97930398D01*
X148972814Y-97991390D01*
X148972827Y-97991397D01*
X149094288Y-98041707D01*
X149118503Y-98051737D01*
X149273153Y-98082499D01*
X149273156Y-98082500D01*
X149273158Y-98082500D01*
X149289500Y-98082500D01*
X149298185Y-98085050D01*
X149307147Y-98083762D01*
X149331187Y-98094740D01*
X149356539Y-98102185D01*
X149362466Y-98109025D01*
X149370703Y-98112787D01*
X149384992Y-98135021D01*
X149402294Y-98154989D01*
X149404581Y-98165503D01*
X149408477Y-98171565D01*
X149413500Y-98206500D01*
X149413500Y-98313719D01*
X149393815Y-98380758D01*
X149377181Y-98401400D01*
X147173992Y-100604589D01*
X147130289Y-100648292D01*
X147086586Y-100691994D01*
X147086585Y-100691996D01*
X147017772Y-100794982D01*
X147017584Y-100795569D01*
X146970614Y-100908965D01*
X146953848Y-100993257D01*
X146952495Y-101000055D01*
X146952493Y-101000064D01*
X146946500Y-101030192D01*
X146946500Y-103066719D01*
X146926815Y-103133758D01*
X146910181Y-103154400D01*
X145792181Y-104272400D01*
X145730858Y-104305885D01*
X145661166Y-104300901D01*
X145605233Y-104259029D01*
X145580816Y-104193565D01*
X145580500Y-104184719D01*
X145580500Y-104069155D01*
X145580499Y-104069153D01*
X145549738Y-103914510D01*
X145549737Y-103914503D01*
X145538654Y-103887746D01*
X145489397Y-103768827D01*
X145489390Y-103768814D01*
X145401789Y-103637711D01*
X145401786Y-103637707D01*
X145290292Y-103526213D01*
X145290288Y-103526210D01*
X145166892Y-103443759D01*
X145122087Y-103390147D01*
X145113380Y-103320822D01*
X145143535Y-103257794D01*
X145147682Y-103253418D01*
X145147784Y-103253293D01*
X145147789Y-103253289D01*
X145235394Y-103122179D01*
X145237092Y-103118081D01*
X145265456Y-103049602D01*
X145295737Y-102976497D01*
X145326500Y-102821842D01*
X145326500Y-102664158D01*
X145326500Y-102664155D01*
X145326499Y-102664153D01*
X145325531Y-102659286D01*
X145295737Y-102509503D01*
X145270614Y-102448850D01*
X145235397Y-102363827D01*
X145235390Y-102363814D01*
X145147789Y-102232711D01*
X145147786Y-102232707D01*
X145036292Y-102121213D01*
X145036288Y-102121210D01*
X144970513Y-102077260D01*
X144925708Y-102023647D01*
X144917001Y-101954322D01*
X144917787Y-101949966D01*
X144937500Y-101850866D01*
X144937500Y-101693177D01*
X144937499Y-101693175D01*
X144923658Y-101623594D01*
X144906737Y-101538525D01*
X144879918Y-101473777D01*
X144846397Y-101392849D01*
X144846390Y-101392836D01*
X144758789Y-101261733D01*
X144758786Y-101261729D01*
X144647292Y-101150235D01*
X144647288Y-101150232D01*
X144516185Y-101062631D01*
X144516172Y-101062624D01*
X144370501Y-101002286D01*
X144370489Y-101002283D01*
X144215845Y-100971522D01*
X144215842Y-100971522D01*
X144058158Y-100971522D01*
X144058155Y-100971522D01*
X143903510Y-101002283D01*
X143903498Y-101002286D01*
X143757827Y-101062624D01*
X143757814Y-101062631D01*
X143626711Y-101150232D01*
X143626707Y-101150235D01*
X143515213Y-101261729D01*
X143515210Y-101261733D01*
X143427609Y-101392836D01*
X143427602Y-101392849D01*
X143367264Y-101538520D01*
X143367261Y-101538532D01*
X143336500Y-101693175D01*
X143336500Y-101693180D01*
X143336500Y-101850864D01*
X143336500Y-101850866D01*
X143336499Y-101850866D01*
X143359662Y-101967308D01*
X143353435Y-102036900D01*
X143310572Y-102092077D01*
X143244682Y-102115322D01*
X143238045Y-102115500D01*
X140781192Y-102115500D01*
X140659973Y-102139612D01*
X140659965Y-102139614D01*
X140594974Y-102166535D01*
X140545770Y-102186915D01*
X140545756Y-102186923D01*
X140442996Y-102255585D01*
X140442988Y-102255591D01*
X138810916Y-103887665D01*
X138281704Y-104416877D01*
X138238082Y-104460499D01*
X138194298Y-104504282D01*
X138194297Y-104504284D01*
X138124945Y-104608077D01*
X138123298Y-104612681D01*
X138078326Y-104721252D01*
X138078324Y-104721260D01*
X138057565Y-104825618D01*
X138057566Y-104825619D01*
X138054212Y-104842482D01*
X138054212Y-106879006D01*
X138045567Y-106908446D01*
X138039044Y-106938433D01*
X138035289Y-106943448D01*
X138034527Y-106946045D01*
X138017893Y-106966688D01*
X137859672Y-107124908D01*
X137798349Y-107158392D01*
X137796183Y-107158843D01*
X137688508Y-107180261D01*
X137688498Y-107180264D01*
X137542827Y-107240602D01*
X137542816Y-107240608D01*
X137416968Y-107324697D01*
X137350291Y-107345574D01*
X137282911Y-107327089D01*
X137236221Y-107275110D01*
X137225045Y-107206140D01*
X137228301Y-107189511D01*
X137244500Y-107129058D01*
X137244500Y-106970943D01*
X137244500Y-102018945D01*
X137203577Y-101866218D01*
X137203577Y-101866217D01*
X137152878Y-101778404D01*
X137124520Y-101729286D01*
X137012716Y-101617482D01*
X137008385Y-101613151D01*
X137008374Y-101613141D01*
X134948572Y-99553339D01*
X134915087Y-99492016D01*
X134914636Y-99489849D01*
X134896148Y-99396906D01*
X134883735Y-99334503D01*
X134866038Y-99291778D01*
X134823395Y-99188827D01*
X134823388Y-99188814D01*
X134735787Y-99057711D01*
X134735784Y-99057707D01*
X134624290Y-98946213D01*
X134624286Y-98946210D01*
X134493183Y-98858609D01*
X134493170Y-98858602D01*
X134347499Y-98798264D01*
X134347487Y-98798261D01*
X134192843Y-98767500D01*
X134192840Y-98767500D01*
X134035156Y-98767500D01*
X134035153Y-98767500D01*
X133880508Y-98798261D01*
X133880496Y-98798264D01*
X133734825Y-98858602D01*
X133734812Y-98858609D01*
X133603709Y-98946210D01*
X133603705Y-98946213D01*
X133492211Y-99057707D01*
X133492208Y-99057711D01*
X133404607Y-99188814D01*
X133404600Y-99188827D01*
X133344262Y-99334498D01*
X133344259Y-99334510D01*
X133313498Y-99489153D01*
X133313498Y-99646846D01*
X133344259Y-99801489D01*
X133344262Y-99801501D01*
X133404600Y-99947172D01*
X133404607Y-99947185D01*
X133492208Y-100078288D01*
X133492211Y-100078292D01*
X133603705Y-100189786D01*
X133603709Y-100189789D01*
X133734812Y-100277390D01*
X133734825Y-100277397D01*
X133880496Y-100337735D01*
X133880501Y-100337737D01*
X133945145Y-100350595D01*
X134035847Y-100368638D01*
X134097758Y-100401023D01*
X134099337Y-100402574D01*
X136007181Y-102310418D01*
X136040666Y-102371741D01*
X136043500Y-102398099D01*
X136043500Y-102834500D01*
X136023815Y-102901539D01*
X135971011Y-102947294D01*
X135919500Y-102958500D01*
X135811155Y-102958500D01*
X135656510Y-102989261D01*
X135656498Y-102989264D01*
X135510827Y-103049602D01*
X135510814Y-103049609D01*
X135379711Y-103137210D01*
X135379707Y-103137213D01*
X135268213Y-103248707D01*
X135268210Y-103248711D01*
X135180609Y-103379814D01*
X135180602Y-103379827D01*
X135120264Y-103525498D01*
X135120261Y-103525510D01*
X135089500Y-103680153D01*
X135089500Y-103837846D01*
X135120261Y-103992489D01*
X135120264Y-103992501D01*
X135180602Y-104138172D01*
X135180609Y-104138185D01*
X135268209Y-104269287D01*
X135268210Y-104269288D01*
X135268211Y-104269289D01*
X135289681Y-104290759D01*
X135304387Y-104317691D01*
X135320977Y-104343505D01*
X135321868Y-104349703D01*
X135323166Y-104352080D01*
X135326000Y-104378440D01*
X135326000Y-104617021D01*
X135306315Y-104684060D01*
X135289681Y-104704702D01*
X134719216Y-105275166D01*
X134657893Y-105308651D01*
X134588201Y-105303667D01*
X134532268Y-105261795D01*
X134519499Y-105239372D01*
X134519464Y-105239391D01*
X134518756Y-105238067D01*
X134516974Y-105234937D01*
X134516597Y-105234027D01*
X134516590Y-105234014D01*
X134428989Y-105102911D01*
X134428986Y-105102907D01*
X134317492Y-104991413D01*
X134317488Y-104991410D01*
X134186385Y-104903809D01*
X134186372Y-104903802D01*
X134040701Y-104843464D01*
X134040689Y-104843461D01*
X133886045Y-104812700D01*
X133886042Y-104812700D01*
X133728358Y-104812700D01*
X133728355Y-104812700D01*
X133573710Y-104843461D01*
X133573698Y-104843464D01*
X133428027Y-104903802D01*
X133428014Y-104903809D01*
X133296911Y-104991410D01*
X133296907Y-104991413D01*
X133185413Y-105102907D01*
X133185410Y-105102911D01*
X133097809Y-105234014D01*
X133097802Y-105234027D01*
X133037464Y-105379698D01*
X133037461Y-105379710D01*
X133006700Y-105534353D01*
X133006700Y-105692046D01*
X133037461Y-105846689D01*
X133037464Y-105846701D01*
X133097802Y-105992372D01*
X133097809Y-105992385D01*
X133185410Y-106123488D01*
X133185413Y-106123492D01*
X133296907Y-106234986D01*
X133296911Y-106234989D01*
X133428014Y-106322590D01*
X133428027Y-106322597D01*
X133428937Y-106322974D01*
X133429340Y-106323298D01*
X133433391Y-106325464D01*
X133432980Y-106326232D01*
X133483341Y-106366815D01*
X133505406Y-106433109D01*
X133488127Y-106500808D01*
X133469166Y-106525216D01*
X131954370Y-108040012D01*
X131935886Y-108050104D01*
X131920221Y-108064180D01*
X131905837Y-108066512D01*
X131893047Y-108073497D01*
X131872039Y-108071994D01*
X131851253Y-108075366D01*
X131837891Y-108069552D01*
X131823355Y-108068513D01*
X131806496Y-108055892D01*
X131787185Y-108047490D01*
X131770569Y-108028997D01*
X131767422Y-108026641D01*
X131763596Y-108021236D01*
X131762038Y-108018905D01*
X131741151Y-107952231D01*
X131759626Y-107884848D01*
X131762029Y-107881109D01*
X131774872Y-107861887D01*
X131823632Y-107788914D01*
X131830344Y-107772711D01*
X131867421Y-107683198D01*
X131899051Y-107606835D01*
X131914231Y-107530519D01*
X131937500Y-107413543D01*
X131937500Y-107216456D01*
X131899052Y-107023170D01*
X131899051Y-107023169D01*
X131899051Y-107023165D01*
X131868637Y-106949738D01*
X131823635Y-106841092D01*
X131823628Y-106841079D01*
X131714139Y-106677218D01*
X131714136Y-106677214D01*
X131574785Y-106537863D01*
X131574781Y-106537860D01*
X131410920Y-106428371D01*
X131410907Y-106428364D01*
X131228839Y-106352950D01*
X131228829Y-106352947D01*
X131035543Y-106314500D01*
X131035541Y-106314500D01*
X130838459Y-106314500D01*
X130838457Y-106314500D01*
X130645171Y-106352947D01*
X130645168Y-106352948D01*
X130645166Y-106352948D01*
X130645165Y-106352949D01*
X130645163Y-106352950D01*
X130542874Y-106395318D01*
X130473404Y-106402785D01*
X130421113Y-106380023D01*
X130409335Y-106371206D01*
X130409328Y-106371202D01*
X130274482Y-106320908D01*
X130274483Y-106320908D01*
X130214883Y-106314501D01*
X130214881Y-106314500D01*
X130214873Y-106314500D01*
X130214864Y-106314500D01*
X129119129Y-106314500D01*
X129119123Y-106314501D01*
X129059516Y-106320908D01*
X128924671Y-106371202D01*
X128924664Y-106371206D01*
X128809455Y-106457452D01*
X128809452Y-106457455D01*
X128723206Y-106572664D01*
X128723202Y-106572671D01*
X128672908Y-106707517D01*
X128666501Y-106767116D01*
X128666500Y-106767135D01*
X128666500Y-107862870D01*
X128666501Y-107862876D01*
X128672908Y-107922483D01*
X128723202Y-108057328D01*
X128723203Y-108057330D01*
X128732372Y-108069578D01*
X128756788Y-108135043D01*
X128747665Y-108191340D01*
X128705432Y-108293300D01*
X128705427Y-108293317D01*
X128667000Y-108486504D01*
X128667000Y-108683495D01*
X128705427Y-108876681D01*
X128705430Y-108876693D01*
X128780808Y-109058673D01*
X128780809Y-109058675D01*
X128804425Y-109094019D01*
X129342000Y-108556445D01*
X129342000Y-108627787D01*
X129364149Y-108710445D01*
X129406936Y-108784554D01*
X129467446Y-108845064D01*
X129541555Y-108887851D01*
X129624213Y-108910000D01*
X129709787Y-108910000D01*
X129792445Y-108887851D01*
X129866554Y-108845064D01*
X129927064Y-108784554D01*
X129949025Y-108746515D01*
X129974947Y-108876829D01*
X129974948Y-108876833D01*
X129974949Y-108876835D01*
X129979512Y-108887851D01*
X129997782Y-108931960D01*
X130005250Y-109001429D01*
X129973974Y-109063908D01*
X129913885Y-109099560D01*
X129844059Y-109097065D01*
X129795538Y-109067092D01*
X129667000Y-108938553D01*
X129385553Y-109220000D01*
X129666999Y-109501445D01*
X129795538Y-109372907D01*
X129856862Y-109339422D01*
X129926553Y-109344406D01*
X129982487Y-109386277D01*
X130006904Y-109451742D01*
X129997782Y-109508039D01*
X129974949Y-109563164D01*
X129974947Y-109563170D01*
X129949025Y-109693484D01*
X129927064Y-109655446D01*
X129866554Y-109594936D01*
X129792445Y-109552149D01*
X129709787Y-109530000D01*
X129624213Y-109530000D01*
X129541555Y-109552149D01*
X129467446Y-109594936D01*
X129406936Y-109655446D01*
X129364149Y-109729555D01*
X129342000Y-109812213D01*
X129342000Y-109883553D01*
X128804426Y-109345979D01*
X128780813Y-109381318D01*
X128780809Y-109381325D01*
X128705429Y-109563310D01*
X128705427Y-109563318D01*
X128667000Y-109756504D01*
X128667000Y-109953495D01*
X128705427Y-110146681D01*
X128705430Y-110146693D01*
X128780807Y-110328671D01*
X128780814Y-110328684D01*
X128842270Y-110420659D01*
X128863148Y-110487337D01*
X128844663Y-110554717D01*
X128842271Y-110558440D01*
X128780370Y-110651082D01*
X128780364Y-110651093D01*
X128704950Y-110833160D01*
X128704947Y-110833170D01*
X128666500Y-111026456D01*
X128666500Y-111026459D01*
X128666500Y-111223541D01*
X128666500Y-111223543D01*
X128666499Y-111223543D01*
X127500500Y-111223543D01*
X127500500Y-91874383D01*
X127964500Y-91874383D01*
X127964500Y-93624401D01*
X127964501Y-93624418D01*
X127975000Y-93727196D01*
X127975001Y-93727199D01*
X128030185Y-93893731D01*
X128030187Y-93893736D01*
X128065069Y-93950288D01*
X128122288Y-94043056D01*
X128246344Y-94167112D01*
X128395666Y-94259214D01*
X128562203Y-94314399D01*
X128664991Y-94324900D01*
X130415008Y-94324899D01*
X130517797Y-94314399D01*
X130684334Y-94259214D01*
X130833656Y-94167112D01*
X130957712Y-94043056D01*
X131049814Y-93893734D01*
X131104999Y-93727197D01*
X131115500Y-93624409D01*
X131115499Y-91874392D01*
X131104999Y-91771603D01*
X131049814Y-91605066D01*
X130957712Y-91455744D01*
X130833656Y-91331688D01*
X130740888Y-91274469D01*
X130684336Y-91239587D01*
X130684331Y-91239585D01*
X130682862Y-91239098D01*
X130517797Y-91184401D01*
X130517795Y-91184400D01*
X130415010Y-91173900D01*
X128664998Y-91173900D01*
X128664981Y-91173901D01*
X128562203Y-91184400D01*
X128562200Y-91184401D01*
X128395668Y-91239585D01*
X128395663Y-91239587D01*
X128246342Y-91331689D01*
X128122289Y-91455742D01*
X128030187Y-91605063D01*
X128030185Y-91605068D01*
X128002349Y-91689070D01*
X127975001Y-91771603D01*
X127975001Y-91771604D01*
X127975000Y-91771604D01*
X127964500Y-91874383D01*
X127500500Y-91874383D01*
X127500500Y-88025399D01*
X127964500Y-88025399D01*
X127964500Y-88273400D01*
X128003293Y-88518327D01*
X128003294Y-88518331D01*
X128079927Y-88754182D01*
X128192511Y-88975142D01*
X128338276Y-89175770D01*
X128513630Y-89351124D01*
X128714258Y-89496889D01*
X128935218Y-89609473D01*
X129171069Y-89686106D01*
X129262920Y-89700653D01*
X129416000Y-89724900D01*
X129416005Y-89724900D01*
X129664000Y-89724900D01*
X129800070Y-89703347D01*
X129908931Y-89686106D01*
X130144782Y-89609473D01*
X130365742Y-89496889D01*
X130566370Y-89351124D01*
X130741724Y-89175770D01*
X130887489Y-88975142D01*
X131000073Y-88754182D01*
X131076706Y-88518331D01*
X131096352Y-88394289D01*
X131115500Y-88273400D01*
X131115500Y-88025399D01*
X131080616Y-87805155D01*
X131076706Y-87780469D01*
X131000073Y-87544618D01*
X130887489Y-87323658D01*
X130842845Y-87262211D01*
X130806041Y-87211554D01*
X130806039Y-87211552D01*
X130779193Y-87174602D01*
X130757507Y-87144753D01*
X134225900Y-87144753D01*
X134225900Y-87302446D01*
X134256661Y-87457089D01*
X134256664Y-87457101D01*
X134317002Y-87602772D01*
X134317009Y-87602785D01*
X134404610Y-87733888D01*
X134404613Y-87733892D01*
X134516107Y-87845386D01*
X134516111Y-87845389D01*
X134647214Y-87932990D01*
X134647227Y-87932997D01*
X134792898Y-87993335D01*
X134792903Y-87993337D01*
X134947553Y-88024099D01*
X134947556Y-88024100D01*
X134947558Y-88024100D01*
X135105244Y-88024100D01*
X135105245Y-88024099D01*
X135259897Y-87993337D01*
X135405579Y-87932994D01*
X135536689Y-87845389D01*
X135648189Y-87733889D01*
X135735794Y-87602779D01*
X135796137Y-87457097D01*
X135826900Y-87302442D01*
X135826900Y-87144758D01*
X135826900Y-87144755D01*
X135826899Y-87144753D01*
X135814715Y-87083500D01*
X135796137Y-86990103D01*
X135778563Y-86947676D01*
X135735797Y-86844427D01*
X135735790Y-86844414D01*
X135648189Y-86713311D01*
X135648186Y-86713307D01*
X135536692Y-86601813D01*
X135536688Y-86601810D01*
X135405585Y-86514209D01*
X135405572Y-86514202D01*
X135259901Y-86453864D01*
X135259889Y-86453861D01*
X135105245Y-86423100D01*
X135105242Y-86423100D01*
X134947558Y-86423100D01*
X134947555Y-86423100D01*
X134792910Y-86453861D01*
X134792898Y-86453864D01*
X134647227Y-86514202D01*
X134647214Y-86514209D01*
X134516111Y-86601810D01*
X134516107Y-86601813D01*
X134404613Y-86713307D01*
X134404610Y-86713311D01*
X134317009Y-86844414D01*
X134317002Y-86844427D01*
X134256664Y-86990098D01*
X134256661Y-86990110D01*
X134225900Y-87144753D01*
X130757507Y-87144753D01*
X130741724Y-87123030D01*
X130566370Y-86947676D01*
X130365742Y-86801911D01*
X130286436Y-86761503D01*
X130144784Y-86689328D01*
X130144783Y-86689327D01*
X130144782Y-86689327D01*
X129908931Y-86612694D01*
X129908929Y-86612693D01*
X129908927Y-86612693D01*
X129664000Y-86573900D01*
X129663995Y-86573900D01*
X129416005Y-86573900D01*
X129416000Y-86573900D01*
X129171072Y-86612693D01*
X128935215Y-86689328D01*
X128714257Y-86801911D01*
X128599792Y-86885075D01*
X128513630Y-86947676D01*
X128513628Y-86947678D01*
X128513627Y-86947678D01*
X128338278Y-87123027D01*
X128338278Y-87123028D01*
X128338276Y-87123030D01*
X128322492Y-87144755D01*
X128192511Y-87323657D01*
X128079928Y-87544615D01*
X128079927Y-87544617D01*
X128079927Y-87544618D01*
X128069676Y-87576166D01*
X128003293Y-87780472D01*
X127964500Y-88025399D01*
X127500500Y-88025399D01*
X127500500Y-83404783D01*
X127964500Y-83404783D01*
X127964500Y-85154801D01*
X127964501Y-85154818D01*
X127975000Y-85257596D01*
X127975001Y-85257599D01*
X128030185Y-85424131D01*
X128030186Y-85424134D01*
X128122288Y-85573456D01*
X128246344Y-85697512D01*
X128395666Y-85789614D01*
X128562203Y-85844799D01*
X128664991Y-85855300D01*
X130415008Y-85855299D01*
X130517797Y-85844799D01*
X130684334Y-85789614D01*
X130833656Y-85697512D01*
X130957712Y-85573456D01*
X131049814Y-85424134D01*
X131104999Y-85257597D01*
X131115500Y-85154809D01*
X131115499Y-83404792D01*
X131114074Y-83390846D01*
X131104999Y-83302003D01*
X131104998Y-83302000D01*
X131068254Y-83191114D01*
X131049814Y-83135466D01*
X130957712Y-82986144D01*
X130833656Y-82862088D01*
X130684334Y-82769986D01*
X130517797Y-82714801D01*
X130517795Y-82714800D01*
X130415010Y-82704300D01*
X128664998Y-82704300D01*
X128664981Y-82704301D01*
X128562203Y-82714800D01*
X128562200Y-82714801D01*
X128395668Y-82769985D01*
X128395663Y-82769987D01*
X128246342Y-82862089D01*
X128122289Y-82986142D01*
X128030187Y-83135463D01*
X128030186Y-83135466D01*
X127975001Y-83302003D01*
X127975001Y-83302004D01*
X127975000Y-83302004D01*
X127964500Y-83404783D01*
X127500500Y-83404783D01*
X127500500Y-79555799D01*
X127964500Y-79555799D01*
X127964500Y-79803800D01*
X128003293Y-80048727D01*
X128003294Y-80048731D01*
X128079927Y-80284582D01*
X128192511Y-80505542D01*
X128338276Y-80706170D01*
X128513630Y-80881524D01*
X128714258Y-81027289D01*
X128935218Y-81139873D01*
X129171069Y-81216506D01*
X129262920Y-81231053D01*
X129416000Y-81255300D01*
X129416005Y-81255300D01*
X129664000Y-81255300D01*
X129800070Y-81233747D01*
X129908931Y-81216506D01*
X130144782Y-81139873D01*
X130365742Y-81027289D01*
X130566370Y-80881524D01*
X130741724Y-80706170D01*
X130887489Y-80505542D01*
X131000073Y-80284582D01*
X131076706Y-80048731D01*
X131093947Y-79939870D01*
X131115500Y-79803800D01*
X131115500Y-79555799D01*
X131076706Y-79310872D01*
X131076706Y-79310869D01*
X131000073Y-79075018D01*
X130887489Y-78854058D01*
X130741724Y-78653430D01*
X130566370Y-78478076D01*
X130365742Y-78332311D01*
X130144782Y-78219727D01*
X129908931Y-78143094D01*
X129908929Y-78143093D01*
X129908927Y-78143093D01*
X129664000Y-78104300D01*
X129663995Y-78104300D01*
X129416005Y-78104300D01*
X129416000Y-78104300D01*
X129171072Y-78143093D01*
X128935215Y-78219728D01*
X128714257Y-78332311D01*
X128649447Y-78379399D01*
X128513630Y-78478076D01*
X128513628Y-78478078D01*
X128513627Y-78478078D01*
X128338278Y-78653427D01*
X128338278Y-78653428D01*
X128338276Y-78653430D01*
X128275675Y-78739592D01*
X128192511Y-78854057D01*
X128079928Y-79075015D01*
X128003293Y-79310872D01*
X127964500Y-79555799D01*
X127500500Y-79555799D01*
X127500500Y-74582568D01*
X127801500Y-74582568D01*
X127801500Y-74863431D01*
X127832942Y-75142494D01*
X127832945Y-75142512D01*
X127895439Y-75416317D01*
X127895443Y-75416329D01*
X127988200Y-75681411D01*
X128110053Y-75934442D01*
X128122533Y-75954303D01*
X128259477Y-76172248D01*
X128434584Y-76391825D01*
X128633175Y-76590416D01*
X128852752Y-76765523D01*
X129090555Y-76914945D01*
X129343592Y-77036801D01*
X129500330Y-77091646D01*
X129608670Y-77129556D01*
X129608682Y-77129560D01*
X129882491Y-77192055D01*
X129882497Y-77192055D01*
X129882505Y-77192057D01*
X130068547Y-77213018D01*
X130161569Y-77223499D01*
X130161572Y-77223500D01*
X130161575Y-77223500D01*
X130442428Y-77223500D01*
X130442429Y-77223499D01*
X130585055Y-77207429D01*
X130721494Y-77192057D01*
X130721499Y-77192056D01*
X130721509Y-77192055D01*
X130995318Y-77129560D01*
X131260408Y-77036801D01*
X131513445Y-76914945D01*
X131751248Y-76765523D01*
X131970825Y-76590416D01*
X132169416Y-76391825D01*
X132344523Y-76172248D01*
X132493945Y-75934445D01*
X132615801Y-75681408D01*
X132708560Y-75416318D01*
X132771055Y-75142509D01*
X132771798Y-75135920D01*
X132795870Y-74922264D01*
X132802500Y-74863425D01*
X132802500Y-74582575D01*
X132771055Y-74303491D01*
X132708560Y-74029682D01*
X132615801Y-73764592D01*
X132493945Y-73511555D01*
X132344523Y-73273752D01*
X132169416Y-73054175D01*
X131970825Y-72855584D01*
X131751248Y-72680477D01*
X131513445Y-72531055D01*
X131513442Y-72531053D01*
X131260411Y-72409200D01*
X131131355Y-72364041D01*
X131074579Y-72323319D01*
X131048832Y-72258367D01*
X131062288Y-72189805D01*
X131110676Y-72139402D01*
X131172310Y-72123000D01*
X131506706Y-72123000D01*
X131506719Y-72122999D01*
X131639906Y-72112517D01*
X131639912Y-72112516D01*
X131859829Y-72057101D01*
X131859832Y-72057100D01*
X132066330Y-71963304D01*
X132066336Y-71963301D01*
X132252758Y-71834148D01*
X132252770Y-71834138D01*
X132413138Y-71673770D01*
X132413148Y-71673758D01*
X132542301Y-71487336D01*
X132542304Y-71487330D01*
X132636100Y-71280832D01*
X132636101Y-71280829D01*
X132691516Y-71060912D01*
X132691517Y-71060906D01*
X132701999Y-70927719D01*
X132702000Y-70927706D01*
X132702000Y-69973000D01*
X131629231Y-69973000D01*
X131652000Y-69829247D01*
X131652000Y-69616753D01*
X131629231Y-69473000D01*
X132702000Y-69473000D01*
X132702000Y-68518293D01*
X132701999Y-68518280D01*
X132691517Y-68385096D01*
X132676555Y-68325715D01*
X132676555Y-68325712D01*
X132670455Y-68301504D01*
X138190000Y-68301504D01*
X138190000Y-68700000D01*
X138890000Y-68700000D01*
X138890000Y-69200000D01*
X138190000Y-69200000D01*
X138190000Y-69598495D01*
X138228427Y-69791681D01*
X138228430Y-69791693D01*
X138303807Y-69973671D01*
X138303814Y-69973684D01*
X138413248Y-70137462D01*
X138413251Y-70137466D01*
X138552533Y-70276748D01*
X138552537Y-70276751D01*
X138716315Y-70386185D01*
X138716328Y-70386192D01*
X138898308Y-70461569D01*
X138940000Y-70469862D01*
X138940000Y-69666988D01*
X138949940Y-69684205D01*
X139005795Y-69740060D01*
X139074204Y-69779556D01*
X139150504Y-69800000D01*
X139229496Y-69800000D01*
X139305796Y-69779556D01*
X139374205Y-69740060D01*
X139430060Y-69684205D01*
X139440000Y-69666988D01*
X139440000Y-70469862D01*
X139481690Y-70461569D01*
X139481692Y-70461569D01*
X139663671Y-70386192D01*
X139663684Y-70386185D01*
X139827462Y-70276751D01*
X139827466Y-70276748D01*
X139966748Y-70137466D01*
X139966751Y-70137462D01*
X140076185Y-69973684D01*
X140076192Y-69973671D01*
X140151569Y-69791693D01*
X140151572Y-69791681D01*
X140189999Y-69598495D01*
X140190000Y-69598492D01*
X140190000Y-69200000D01*
X139490000Y-69200000D01*
X139490000Y-68700000D01*
X140028216Y-68700000D01*
X140095255Y-68719685D01*
X140135602Y-68761999D01*
X140159485Y-68803365D01*
X140266635Y-68910515D01*
X140397865Y-68986281D01*
X140544234Y-69025500D01*
X140544236Y-69025500D01*
X140695764Y-69025500D01*
X140695766Y-69025500D01*
X140842135Y-68986281D01*
X140973365Y-68910515D01*
X141080515Y-68803365D01*
X141156281Y-68672135D01*
X141195500Y-68525766D01*
X141195500Y-68374234D01*
X145824500Y-68374234D01*
X145824500Y-68525766D01*
X145844109Y-68598950D01*
X145863719Y-68672136D01*
X145875926Y-68693278D01*
X145939485Y-68803365D01*
X146046635Y-68910515D01*
X146177865Y-68986281D01*
X146324234Y-69025500D01*
X146324236Y-69025500D01*
X146475763Y-69025500D01*
X146475766Y-69025500D01*
X146622135Y-68986281D01*
X146753365Y-68910515D01*
X146860515Y-68803365D01*
X146884397Y-68761999D01*
X146934964Y-68713784D01*
X146991784Y-68700000D01*
X147530000Y-68700000D01*
X147530000Y-69200000D01*
X146830000Y-69200000D01*
X146830000Y-69598495D01*
X146868427Y-69791681D01*
X146868430Y-69791693D01*
X146943807Y-69973671D01*
X146943814Y-69973684D01*
X147053248Y-70137462D01*
X147053251Y-70137466D01*
X147192533Y-70276748D01*
X147192537Y-70276751D01*
X147356315Y-70386185D01*
X147356328Y-70386192D01*
X147538308Y-70461569D01*
X147580000Y-70469862D01*
X147580000Y-69666988D01*
X147589940Y-69684205D01*
X147645795Y-69740060D01*
X147714204Y-69779556D01*
X147790504Y-69800000D01*
X147869496Y-69800000D01*
X147945796Y-69779556D01*
X148014205Y-69740060D01*
X148070060Y-69684205D01*
X148080000Y-69666988D01*
X148080000Y-70469862D01*
X148121690Y-70461569D01*
X148121692Y-70461569D01*
X148303671Y-70386192D01*
X148303684Y-70386185D01*
X148467462Y-70276751D01*
X148467466Y-70276748D01*
X148606748Y-70137466D01*
X148606751Y-70137462D01*
X148716185Y-69973684D01*
X148716192Y-69973671D01*
X148791569Y-69791693D01*
X148791572Y-69791681D01*
X148829999Y-69598495D01*
X148830000Y-69598492D01*
X148830000Y-69200000D01*
X148130000Y-69200000D01*
X148130000Y-68700000D01*
X148830000Y-68700000D01*
X148830000Y-68301508D01*
X148829999Y-68301504D01*
X148791572Y-68108318D01*
X148791569Y-68108306D01*
X148716192Y-67926328D01*
X148716185Y-67926315D01*
X148606751Y-67762537D01*
X148606748Y-67762533D01*
X148467466Y-67623251D01*
X148467462Y-67623248D01*
X148303684Y-67513814D01*
X148303671Y-67513807D01*
X148121691Y-67438429D01*
X148121683Y-67438427D01*
X148080000Y-67430135D01*
X148080000Y-68233011D01*
X148070060Y-68215795D01*
X148014205Y-68159940D01*
X147945796Y-68120444D01*
X147869496Y-68100000D01*
X147790504Y-68100000D01*
X147714204Y-68120444D01*
X147645795Y-68159940D01*
X147589940Y-68215795D01*
X147580000Y-68233011D01*
X147580000Y-67430136D01*
X147579999Y-67430135D01*
X147538316Y-67438427D01*
X147538308Y-67438429D01*
X147356328Y-67513807D01*
X147356315Y-67513814D01*
X147192537Y-67623248D01*
X147192533Y-67623251D01*
X147053251Y-67762533D01*
X147053248Y-67762537D01*
X146943814Y-67926315D01*
X146943809Y-67926324D01*
X146939866Y-67935845D01*
X146896023Y-67990247D01*
X146829728Y-68012310D01*
X146762030Y-67995029D01*
X146756597Y-67991351D01*
X146622136Y-67913719D01*
X146548950Y-67894109D01*
X146475766Y-67874500D01*
X146324234Y-67874500D01*
X146177863Y-67913719D01*
X146046635Y-67989485D01*
X146046632Y-67989487D01*
X145939487Y-68096632D01*
X145939485Y-68096635D01*
X145863719Y-68227863D01*
X145837501Y-68325712D01*
X145824500Y-68374234D01*
X141195500Y-68374234D01*
X141156281Y-68227865D01*
X141080515Y-68096635D01*
X140973365Y-67989485D01*
X140903406Y-67949094D01*
X140842136Y-67913719D01*
X140768950Y-67894109D01*
X140695766Y-67874500D01*
X140544234Y-67874500D01*
X140397863Y-67913719D01*
X140306428Y-67966510D01*
X140266635Y-67989485D01*
X140266633Y-67989486D01*
X140259597Y-67993549D01*
X140258327Y-67991349D01*
X140204995Y-68011960D01*
X140136552Y-67997914D01*
X140086568Y-67949094D01*
X140080131Y-67935838D01*
X140076192Y-67926328D01*
X140076185Y-67926315D01*
X139966751Y-67762537D01*
X139966748Y-67762533D01*
X139827466Y-67623251D01*
X139827462Y-67623248D01*
X139663684Y-67513814D01*
X139663671Y-67513807D01*
X139481691Y-67438429D01*
X139481683Y-67438427D01*
X139440000Y-67430135D01*
X139440000Y-68233011D01*
X139430060Y-68215795D01*
X139374205Y-68159940D01*
X139305796Y-68120444D01*
X139229496Y-68100000D01*
X139150504Y-68100000D01*
X139074204Y-68120444D01*
X139005795Y-68159940D01*
X138949940Y-68215795D01*
X138940000Y-68233011D01*
X138940000Y-67430136D01*
X138939999Y-67430135D01*
X138898316Y-67438427D01*
X138898308Y-67438429D01*
X138716328Y-67513807D01*
X138716315Y-67513814D01*
X138552537Y-67623248D01*
X138552533Y-67623251D01*
X138413251Y-67762533D01*
X138413248Y-67762537D01*
X138303814Y-67926315D01*
X138303807Y-67926328D01*
X138228430Y-68108306D01*
X138228427Y-68108318D01*
X138190000Y-68301504D01*
X132670455Y-68301504D01*
X132636100Y-68165167D01*
X132542304Y-67958669D01*
X132542301Y-67958663D01*
X132413148Y-67772241D01*
X132413138Y-67772229D01*
X132252770Y-67611861D01*
X132252758Y-67611851D01*
X132066336Y-67482698D01*
X132066330Y-67482695D01*
X131859832Y-67388899D01*
X131859829Y-67388898D01*
X131639912Y-67333483D01*
X131639906Y-67333482D01*
X131506719Y-67323000D01*
X130552000Y-67323000D01*
X130552000Y-68395768D01*
X130408247Y-68373000D01*
X130195753Y-68373000D01*
X130052000Y-68395768D01*
X130052000Y-67323000D01*
X129097280Y-67323000D01*
X128964093Y-67333482D01*
X128964087Y-67333483D01*
X128744170Y-67388898D01*
X128744167Y-67388899D01*
X128537669Y-67482695D01*
X128537663Y-67482698D01*
X128351241Y-67611851D01*
X128351229Y-67611861D01*
X128190861Y-67772229D01*
X128190851Y-67772241D01*
X128061698Y-67958663D01*
X128061695Y-67958669D01*
X127967899Y-68165167D01*
X127967898Y-68165170D01*
X127912483Y-68385087D01*
X127912482Y-68385093D01*
X127902000Y-68518280D01*
X127902000Y-69473000D01*
X128974769Y-69473000D01*
X128952000Y-69616753D01*
X128952000Y-69829247D01*
X128974769Y-69973000D01*
X127902000Y-69973000D01*
X127902000Y-70927719D01*
X127912482Y-71060906D01*
X127912483Y-71060912D01*
X127967898Y-71280829D01*
X127967899Y-71280832D01*
X128061695Y-71487330D01*
X128061698Y-71487336D01*
X128190851Y-71673758D01*
X128190861Y-71673770D01*
X128351229Y-71834138D01*
X128351241Y-71834148D01*
X128537663Y-71963301D01*
X128537669Y-71963304D01*
X128744167Y-72057100D01*
X128744170Y-72057101D01*
X128964087Y-72112516D01*
X128964093Y-72112517D01*
X129097280Y-72122999D01*
X129097294Y-72123000D01*
X129431690Y-72123000D01*
X129498729Y-72142685D01*
X129544484Y-72195489D01*
X129554428Y-72264647D01*
X129525403Y-72328203D01*
X129472645Y-72364041D01*
X129343588Y-72409200D01*
X129090557Y-72531053D01*
X128852753Y-72680476D01*
X128633175Y-72855583D01*
X128434583Y-73054175D01*
X128259476Y-73273753D01*
X128110053Y-73511557D01*
X127988200Y-73764588D01*
X127895443Y-74029670D01*
X127895439Y-74029682D01*
X127832945Y-74303487D01*
X127832942Y-74303505D01*
X127801500Y-74582568D01*
X127500500Y-74582568D01*
X127500500Y-64651902D01*
X128039500Y-64651902D01*
X128039500Y-64888097D01*
X128076446Y-65121368D01*
X128149433Y-65345996D01*
X128212617Y-65470000D01*
X128256657Y-65556433D01*
X128395483Y-65747510D01*
X128562490Y-65914517D01*
X128753567Y-66053343D01*
X128852991Y-66104002D01*
X128964003Y-66160566D01*
X128964005Y-66160566D01*
X128964008Y-66160568D01*
X129084412Y-66199689D01*
X129188631Y-66233553D01*
X129421903Y-66270500D01*
X129421908Y-66270500D01*
X129658097Y-66270500D01*
X129891368Y-66233553D01*
X130115992Y-66160568D01*
X130326433Y-66053343D01*
X130517510Y-65914517D01*
X130684517Y-65747510D01*
X130823343Y-65556433D01*
X130930568Y-65345992D01*
X131003553Y-65121368D01*
X131019608Y-65020000D01*
X131030816Y-64949240D01*
X131040500Y-64888097D01*
X131040500Y-64651902D01*
X131019005Y-64516197D01*
X131003553Y-64418632D01*
X131003552Y-64418628D01*
X131003552Y-64418627D01*
X130966221Y-64303735D01*
X130955748Y-64271504D01*
X138190000Y-64271504D01*
X138190000Y-64520000D01*
X138890000Y-64520000D01*
X138890000Y-65020000D01*
X138190000Y-65020000D01*
X138190000Y-65268495D01*
X138228427Y-65461681D01*
X138228430Y-65461693D01*
X138303807Y-65643671D01*
X138303814Y-65643684D01*
X138413248Y-65807462D01*
X138413251Y-65807466D01*
X138552533Y-65946748D01*
X138552537Y-65946751D01*
X138716315Y-66056185D01*
X138716328Y-66056192D01*
X138898308Y-66131569D01*
X138940000Y-66139862D01*
X138940000Y-65336988D01*
X138949940Y-65354205D01*
X139005795Y-65410060D01*
X139074204Y-65449556D01*
X139150504Y-65470000D01*
X139229496Y-65470000D01*
X139305796Y-65449556D01*
X139374205Y-65410060D01*
X139430060Y-65354205D01*
X139440000Y-65336988D01*
X139440000Y-66139862D01*
X139481690Y-66131569D01*
X139481692Y-66131569D01*
X139663671Y-66056192D01*
X139663684Y-66056185D01*
X139827462Y-65946751D01*
X139827466Y-65946748D01*
X139966748Y-65807466D01*
X139966751Y-65807462D01*
X140076185Y-65643684D01*
X140076192Y-65643671D01*
X140151569Y-65461693D01*
X140151572Y-65461681D01*
X140189999Y-65268495D01*
X140190000Y-65268492D01*
X140190000Y-65020000D01*
X139490000Y-65020000D01*
X139490000Y-64520000D01*
X140190000Y-64520000D01*
X140190000Y-64271508D01*
X140189999Y-64271504D01*
X146830000Y-64271504D01*
X146830000Y-64520000D01*
X147530000Y-64520000D01*
X147530000Y-65020000D01*
X146830000Y-65020000D01*
X146830000Y-65268495D01*
X146868427Y-65461681D01*
X146868430Y-65461693D01*
X146943807Y-65643671D01*
X146943814Y-65643684D01*
X147053248Y-65807462D01*
X147053251Y-65807466D01*
X147192533Y-65946748D01*
X147192537Y-65946751D01*
X147356315Y-66056185D01*
X147356328Y-66056192D01*
X147538308Y-66131569D01*
X147580000Y-66139862D01*
X147580000Y-65336988D01*
X147589940Y-65354205D01*
X147645795Y-65410060D01*
X147714204Y-65449556D01*
X147790504Y-65470000D01*
X147869496Y-65470000D01*
X147945796Y-65449556D01*
X148014205Y-65410060D01*
X148070060Y-65354205D01*
X148080000Y-65336988D01*
X148080000Y-66139862D01*
X148121690Y-66131569D01*
X148121692Y-66131569D01*
X148303671Y-66056192D01*
X148303684Y-66056185D01*
X148467462Y-65946751D01*
X148467466Y-65946748D01*
X148606748Y-65807466D01*
X148606751Y-65807462D01*
X148716185Y-65643684D01*
X148716192Y-65643671D01*
X148791569Y-65461693D01*
X148791572Y-65461681D01*
X148829999Y-65268495D01*
X148830000Y-65268492D01*
X148830000Y-65020000D01*
X148130000Y-65020000D01*
X148130000Y-64651902D01*
X155979500Y-64651902D01*
X155979500Y-64888097D01*
X156016446Y-65121368D01*
X156089433Y-65345996D01*
X156152617Y-65470000D01*
X156196657Y-65556433D01*
X156335483Y-65747510D01*
X156502490Y-65914517D01*
X156693567Y-66053343D01*
X156792991Y-66104002D01*
X156904003Y-66160566D01*
X156904005Y-66160566D01*
X156904008Y-66160568D01*
X157024412Y-66199689D01*
X157128631Y-66233553D01*
X157361903Y-66270500D01*
X157361908Y-66270500D01*
X157598097Y-66270500D01*
X157831368Y-66233553D01*
X158055992Y-66160568D01*
X158266433Y-66053343D01*
X158457510Y-65914517D01*
X158624517Y-65747510D01*
X158763343Y-65556433D01*
X158870568Y-65345992D01*
X158943553Y-65121368D01*
X158959608Y-65020000D01*
X158980500Y-64888097D01*
X158980500Y-64651902D01*
X158943553Y-64418631D01*
X158870566Y-64194003D01*
X158763342Y-63983566D01*
X158624517Y-63792490D01*
X158457510Y-63625483D01*
X158266433Y-63486657D01*
X158260840Y-63483807D01*
X158055996Y-63379433D01*
X157831368Y-63306446D01*
X157598097Y-63269500D01*
X157598092Y-63269500D01*
X157361908Y-63269500D01*
X157361903Y-63269500D01*
X157128631Y-63306446D01*
X156904003Y-63379433D01*
X156693566Y-63486657D01*
X156584550Y-63565862D01*
X156502490Y-63625483D01*
X156502488Y-63625485D01*
X156502487Y-63625485D01*
X156335485Y-63792487D01*
X156335485Y-63792488D01*
X156335483Y-63792490D01*
X156275862Y-63874550D01*
X156196657Y-63983566D01*
X156089433Y-64194003D01*
X156016446Y-64418631D01*
X155979500Y-64651902D01*
X148130000Y-64651902D01*
X148130000Y-64520000D01*
X148830000Y-64520000D01*
X148830000Y-64271508D01*
X148829999Y-64271504D01*
X148791572Y-64078318D01*
X148791569Y-64078306D01*
X148716192Y-63896328D01*
X148716185Y-63896315D01*
X148606751Y-63732537D01*
X148606748Y-63732533D01*
X148467466Y-63593251D01*
X148467462Y-63593248D01*
X148303684Y-63483814D01*
X148303671Y-63483807D01*
X148121691Y-63408429D01*
X148121683Y-63408427D01*
X148080000Y-63400135D01*
X148080000Y-64203011D01*
X148070060Y-64185795D01*
X148014205Y-64129940D01*
X147945796Y-64090444D01*
X147869496Y-64070000D01*
X147790504Y-64070000D01*
X147714204Y-64090444D01*
X147645795Y-64129940D01*
X147589940Y-64185795D01*
X147580000Y-64203011D01*
X147580000Y-63400136D01*
X147579999Y-63400135D01*
X147538316Y-63408427D01*
X147538308Y-63408429D01*
X147356328Y-63483807D01*
X147356315Y-63483814D01*
X147192537Y-63593248D01*
X147192533Y-63593251D01*
X147053251Y-63732533D01*
X147053248Y-63732537D01*
X146943814Y-63896315D01*
X146943807Y-63896328D01*
X146868430Y-64078306D01*
X146868427Y-64078318D01*
X146830000Y-64271504D01*
X140189999Y-64271504D01*
X140151572Y-64078318D01*
X140151569Y-64078306D01*
X140076192Y-63896328D01*
X140076185Y-63896315D01*
X139966751Y-63732537D01*
X139966748Y-63732533D01*
X139827466Y-63593251D01*
X139827462Y-63593248D01*
X139663684Y-63483814D01*
X139663671Y-63483807D01*
X139481691Y-63408429D01*
X139481683Y-63408427D01*
X139440000Y-63400135D01*
X139440000Y-64203011D01*
X139430060Y-64185795D01*
X139374205Y-64129940D01*
X139305796Y-64090444D01*
X139229496Y-64070000D01*
X139150504Y-64070000D01*
X139074204Y-64090444D01*
X139005795Y-64129940D01*
X138949940Y-64185795D01*
X138940000Y-64203011D01*
X138940000Y-63400136D01*
X138939999Y-63400135D01*
X138898316Y-63408427D01*
X138898308Y-63408429D01*
X138716328Y-63483807D01*
X138716315Y-63483814D01*
X138552537Y-63593248D01*
X138552533Y-63593251D01*
X138413251Y-63732533D01*
X138413248Y-63732537D01*
X138303814Y-63896315D01*
X138303807Y-63896328D01*
X138228430Y-64078306D01*
X138228427Y-64078318D01*
X138190000Y-64271504D01*
X130955748Y-64271504D01*
X130930566Y-64194003D01*
X130823342Y-63983566D01*
X130684517Y-63792490D01*
X130517510Y-63625483D01*
X130326433Y-63486657D01*
X130320840Y-63483807D01*
X130115996Y-63379433D01*
X129891368Y-63306446D01*
X129658097Y-63269500D01*
X129658092Y-63269500D01*
X129421908Y-63269500D01*
X129421903Y-63269500D01*
X129188631Y-63306446D01*
X128964003Y-63379433D01*
X128753566Y-63486657D01*
X128644550Y-63565862D01*
X128562490Y-63625483D01*
X128562488Y-63625485D01*
X128562487Y-63625485D01*
X128395485Y-63792487D01*
X128395485Y-63792488D01*
X128395483Y-63792490D01*
X128335862Y-63874550D01*
X128256657Y-63983566D01*
X128149433Y-64194003D01*
X128076446Y-64418631D01*
X128039500Y-64651902D01*
X127500500Y-64651902D01*
X127500500Y-62854500D01*
X127520185Y-62787461D01*
X127572989Y-62741706D01*
X127624500Y-62730500D01*
X159395500Y-62730500D01*
X159462539Y-62750185D01*
G37*
%TD.AperFunction*%
%TD*%
M02*
