%TF.GenerationSoftware,KiCad,Pcbnew,10.0.1*%
%TF.CreationDate,2026-05-05T10:01:04-07:00*%
%TF.ProjectId,versorlite,76657273-6f72-46c6-9974-652e6b696361,rev?*%
%TF.SameCoordinates,Original*%
%TF.FileFunction,Legend,Bot*%
%TF.FilePolarity,Positive*%
%FSLAX46Y46*%
G04 Gerber Fmt 4.6, Leading zero omitted, Abs format (unit mm)*
G04 Created by KiCad (PCBNEW 10.0.1) date 2026-05-05 10:01:04*
%MOMM*%
%LPD*%
G01*
G04 APERTURE LIST*
G04 Aperture macros list*
%AMRoundRect*
0 Rectangle with rounded corners*
0 $1 Rounding radius*
0 $2 $3 $4 $5 $6 $7 $8 $9 X,Y pos of 4 corners*
0 Add a 4 corners polygon primitive as box body*
4,1,4,$2,$3,$4,$5,$6,$7,$8,$9,$2,$3,0*
0 Add four circle primitives for the rounded corners*
1,1,$1+$1,$2,$3*
1,1,$1+$1,$4,$5*
1,1,$1+$1,$6,$7*
1,1,$1+$1,$8,$9*
0 Add four rect primitives between the rounded corners*
20,1,$1+$1,$2,$3,$4,$5,0*
20,1,$1+$1,$4,$5,$6,$7,0*
20,1,$1+$1,$6,$7,$8,$9,0*
20,1,$1+$1,$8,$9,$2,$3,0*%
G04 Aperture macros list end*
%ADD10C,0.150000*%
%ADD11C,0.125000*%
%ADD12C,0.120000*%
%ADD13C,0.127000*%
%ADD14C,0.200000*%
%ADD15C,0.010000*%
%ADD16C,0.000000*%
%ADD17R,1.000000X1.000000*%
%ADD18C,1.000000*%
%ADD19C,0.650000*%
%ADD20O,1.000000X2.100000*%
%ADD21O,1.000000X1.800000*%
%ADD22RoundRect,0.250000X-0.825000X-0.825000X0.825000X-0.825000X0.825000X0.825000X-0.825000X0.825000X0*%
%ADD23RoundRect,0.250000X0.825000X-0.825000X0.825000X0.825000X-0.825000X0.825000X-0.825000X-0.825000X0*%
%ADD24C,2.150000*%
%ADD25RoundRect,0.760000X-1.140000X1.140000X-1.140000X-1.140000X1.140000X-1.140000X1.140000X1.140000X0*%
%ADD26C,4.000000*%
%ADD27RoundRect,0.140000X0.170000X-0.140000X0.170000X0.140000X-0.170000X0.140000X-0.170000X-0.140000X0*%
%ADD28RoundRect,0.135000X0.185000X-0.135000X0.185000X0.135000X-0.185000X0.135000X-0.185000X-0.135000X0*%
%ADD29RoundRect,0.250000X-0.250000X-0.475000X0.250000X-0.475000X0.250000X0.475000X-0.250000X0.475000X0*%
%ADD30R,1.100000X0.850000*%
%ADD31R,1.100000X0.750000*%
%ADD32R,1.000000X1.200000*%
%ADD33R,1.350000X1.550000*%
%ADD34R,1.350000X1.900000*%
%ADD35R,1.800000X1.170000*%
%ADD36RoundRect,0.140000X0.140000X0.170000X-0.140000X0.170000X-0.140000X-0.170000X0.140000X-0.170000X0*%
%ADD37RoundRect,0.218750X-0.256250X0.218750X-0.256250X-0.218750X0.256250X-0.218750X0.256250X0.218750X0*%
%ADD38R,0.980000X3.400000*%
%ADD39RoundRect,0.140000X-0.140000X-0.170000X0.140000X-0.170000X0.140000X0.170000X-0.140000X0.170000X0*%
%ADD40RoundRect,0.200000X0.275000X-0.200000X0.275000X0.200000X-0.275000X0.200000X-0.275000X-0.200000X0*%
%ADD41RoundRect,0.147500X-0.147500X-0.172500X0.147500X-0.172500X0.147500X0.172500X-0.147500X0.172500X0*%
%ADD42RoundRect,0.135000X-0.135000X-0.185000X0.135000X-0.185000X0.135000X0.185000X-0.135000X0.185000X0*%
%ADD43RoundRect,0.140000X-0.170000X0.140000X-0.170000X-0.140000X0.170000X-0.140000X0.170000X0.140000X0*%
%ADD44RoundRect,0.135000X-0.185000X0.135000X-0.185000X-0.135000X0.185000X-0.135000X0.185000X0.135000X0*%
%ADD45RoundRect,0.250000X0.250000X0.475000X-0.250000X0.475000X-0.250000X-0.475000X0.250000X-0.475000X0*%
%ADD46RoundRect,0.250000X-0.475000X0.250000X-0.475000X-0.250000X0.475000X-0.250000X0.475000X0.250000X0*%
%ADD47RoundRect,0.135000X0.135000X0.185000X-0.135000X0.185000X-0.135000X-0.185000X0.135000X-0.185000X0*%
%ADD48RoundRect,0.250000X-0.625000X0.312500X-0.625000X-0.312500X0.625000X-0.312500X0.625000X0.312500X0*%
%ADD49RoundRect,0.225000X-0.225000X-0.250000X0.225000X-0.250000X0.225000X0.250000X-0.225000X0.250000X0*%
%ADD50RoundRect,0.062500X-0.275000X0.062500X-0.275000X-0.062500X0.275000X-0.062500X0.275000X0.062500X0*%
%ADD51RoundRect,0.062500X-0.062500X0.275000X-0.062500X-0.275000X0.062500X-0.275000X0.062500X0.275000X0*%
%ADD52RoundRect,0.102000X2.100000X1.000000X-2.100000X1.000000X-2.100000X-1.000000X2.100000X-1.000000X0*%
%ADD53RoundRect,0.250000X-0.625000X0.375000X-0.625000X-0.375000X0.625000X-0.375000X0.625000X0.375000X0*%
%ADD54RoundRect,0.100500X-0.986500X-0.301500X0.986500X-0.301500X0.986500X0.301500X-0.986500X0.301500X0*%
%ADD55RoundRect,0.250000X-0.450000X-0.350000X0.450000X-0.350000X0.450000X0.350000X-0.450000X0.350000X0*%
%ADD56RoundRect,0.250000X-0.250000X0.275000X-0.250000X-0.275000X0.250000X-0.275000X0.250000X0.275000X0*%
%ADD57RoundRect,0.250000X-0.275000X0.850000X-0.275000X-0.850000X0.275000X-0.850000X0.275000X0.850000X0*%
%ADD58RoundRect,0.250000X-1.000000X-0.650000X1.000000X-0.650000X1.000000X0.650000X-1.000000X0.650000X0*%
%ADD59RoundRect,0.250000X-0.420000X-0.945000X0.420000X-0.945000X0.420000X0.945000X-0.420000X0.945000X0*%
%ADD60RoundRect,0.162500X-0.162500X0.650000X-0.162500X-0.650000X0.162500X-0.650000X0.162500X0.650000X0*%
%ADD61RoundRect,0.087500X0.087500X-0.225000X0.087500X0.225000X-0.087500X0.225000X-0.087500X-0.225000X0*%
%ADD62RoundRect,0.087500X0.225000X-0.087500X0.225000X0.087500X-0.225000X0.087500X-0.225000X-0.087500X0*%
%ADD63RoundRect,0.375000X0.625000X0.375000X-0.625000X0.375000X-0.625000X-0.375000X0.625000X-0.375000X0*%
%ADD64RoundRect,0.500000X0.500000X1.400000X-0.500000X1.400000X-0.500000X-1.400000X0.500000X-1.400000X0*%
%ADD65RoundRect,0.250000X0.800000X-0.450000X0.800000X0.450000X-0.800000X0.450000X-0.800000X-0.450000X0*%
%ADD66RoundRect,0.175000X0.725000X0.175000X-0.725000X0.175000X-0.725000X-0.175000X0.725000X-0.175000X0*%
%ADD67RoundRect,0.200000X0.700000X0.200000X-0.700000X0.200000X-0.700000X-0.200000X0.700000X-0.200000X0*%
%ADD68RoundRect,0.200000X-0.200000X-0.275000X0.200000X-0.275000X0.200000X0.275000X-0.200000X0.275000X0*%
G04 APERTURE END LIST*
D10*
X137295304Y-125168219D02*
X136723876Y-125168219D01*
X137009590Y-126168219D02*
X137009590Y-125168219D01*
X136390542Y-126168219D02*
X136390542Y-125168219D01*
X136390542Y-125168219D02*
X136009590Y-125168219D01*
X136009590Y-125168219D02*
X135914352Y-125215838D01*
X135914352Y-125215838D02*
X135866733Y-125263457D01*
X135866733Y-125263457D02*
X135819114Y-125358695D01*
X135819114Y-125358695D02*
X135819114Y-125501552D01*
X135819114Y-125501552D02*
X135866733Y-125596790D01*
X135866733Y-125596790D02*
X135914352Y-125644409D01*
X135914352Y-125644409D02*
X136009590Y-125692028D01*
X136009590Y-125692028D02*
X136390542Y-125692028D01*
X134866733Y-126168219D02*
X135438161Y-126168219D01*
X135152447Y-126168219D02*
X135152447Y-125168219D01*
X135152447Y-125168219D02*
X135247685Y-125311076D01*
X135247685Y-125311076D02*
X135342923Y-125406314D01*
X135342923Y-125406314D02*
X135438161Y-125453933D01*
X140790504Y-117773467D02*
X140828600Y-117735371D01*
X140828600Y-117735371D02*
X140866695Y-117621086D01*
X140866695Y-117621086D02*
X140866695Y-117544895D01*
X140866695Y-117544895D02*
X140828600Y-117430609D01*
X140828600Y-117430609D02*
X140752409Y-117354419D01*
X140752409Y-117354419D02*
X140676219Y-117316324D01*
X140676219Y-117316324D02*
X140523838Y-117278228D01*
X140523838Y-117278228D02*
X140409552Y-117278228D01*
X140409552Y-117278228D02*
X140257171Y-117316324D01*
X140257171Y-117316324D02*
X140180980Y-117354419D01*
X140180980Y-117354419D02*
X140104790Y-117430609D01*
X140104790Y-117430609D02*
X140066695Y-117544895D01*
X140066695Y-117544895D02*
X140066695Y-117621086D01*
X140066695Y-117621086D02*
X140104790Y-117735371D01*
X140104790Y-117735371D02*
X140142885Y-117773467D01*
X140066695Y-118040133D02*
X140066695Y-118573467D01*
X140066695Y-118573467D02*
X140866695Y-118230609D01*
X155387571Y-103297085D02*
X155101857Y-103097085D01*
X155387571Y-102954228D02*
X154787571Y-102954228D01*
X154787571Y-102954228D02*
X154787571Y-103182799D01*
X154787571Y-103182799D02*
X154816142Y-103239942D01*
X154816142Y-103239942D02*
X154844714Y-103268513D01*
X154844714Y-103268513D02*
X154901857Y-103297085D01*
X154901857Y-103297085D02*
X154987571Y-103297085D01*
X154987571Y-103297085D02*
X155044714Y-103268513D01*
X155044714Y-103268513D02*
X155073285Y-103239942D01*
X155073285Y-103239942D02*
X155101857Y-103182799D01*
X155101857Y-103182799D02*
X155101857Y-102954228D01*
X155387571Y-103868513D02*
X155387571Y-103525656D01*
X155387571Y-103697085D02*
X154787571Y-103697085D01*
X154787571Y-103697085D02*
X154873285Y-103639942D01*
X154873285Y-103639942D02*
X154930428Y-103582799D01*
X154930428Y-103582799D02*
X154959000Y-103525656D01*
X155044714Y-104211371D02*
X155016142Y-104154228D01*
X155016142Y-104154228D02*
X154987571Y-104125657D01*
X154987571Y-104125657D02*
X154930428Y-104097085D01*
X154930428Y-104097085D02*
X154901857Y-104097085D01*
X154901857Y-104097085D02*
X154844714Y-104125657D01*
X154844714Y-104125657D02*
X154816142Y-104154228D01*
X154816142Y-104154228D02*
X154787571Y-104211371D01*
X154787571Y-104211371D02*
X154787571Y-104325657D01*
X154787571Y-104325657D02*
X154816142Y-104382800D01*
X154816142Y-104382800D02*
X154844714Y-104411371D01*
X154844714Y-104411371D02*
X154901857Y-104439942D01*
X154901857Y-104439942D02*
X154930428Y-104439942D01*
X154930428Y-104439942D02*
X154987571Y-104411371D01*
X154987571Y-104411371D02*
X155016142Y-104382800D01*
X155016142Y-104382800D02*
X155044714Y-104325657D01*
X155044714Y-104325657D02*
X155044714Y-104211371D01*
X155044714Y-104211371D02*
X155073285Y-104154228D01*
X155073285Y-104154228D02*
X155101857Y-104125657D01*
X155101857Y-104125657D02*
X155159000Y-104097085D01*
X155159000Y-104097085D02*
X155273285Y-104097085D01*
X155273285Y-104097085D02*
X155330428Y-104125657D01*
X155330428Y-104125657D02*
X155359000Y-104154228D01*
X155359000Y-104154228D02*
X155387571Y-104211371D01*
X155387571Y-104211371D02*
X155387571Y-104325657D01*
X155387571Y-104325657D02*
X155359000Y-104382800D01*
X155359000Y-104382800D02*
X155330428Y-104411371D01*
X155330428Y-104411371D02*
X155273285Y-104439942D01*
X155273285Y-104439942D02*
X155159000Y-104439942D01*
X155159000Y-104439942D02*
X155101857Y-104411371D01*
X155101857Y-104411371D02*
X155073285Y-104382800D01*
X155073285Y-104382800D02*
X155044714Y-104325657D01*
X143898857Y-78874580D02*
X143946476Y-78922200D01*
X143946476Y-78922200D02*
X144089333Y-78969819D01*
X144089333Y-78969819D02*
X144184571Y-78969819D01*
X144184571Y-78969819D02*
X144327428Y-78922200D01*
X144327428Y-78922200D02*
X144422666Y-78826961D01*
X144422666Y-78826961D02*
X144470285Y-78731723D01*
X144470285Y-78731723D02*
X144517904Y-78541247D01*
X144517904Y-78541247D02*
X144517904Y-78398390D01*
X144517904Y-78398390D02*
X144470285Y-78207914D01*
X144470285Y-78207914D02*
X144422666Y-78112676D01*
X144422666Y-78112676D02*
X144327428Y-78017438D01*
X144327428Y-78017438D02*
X144184571Y-77969819D01*
X144184571Y-77969819D02*
X144089333Y-77969819D01*
X144089333Y-77969819D02*
X143946476Y-78017438D01*
X143946476Y-78017438D02*
X143898857Y-78065057D01*
X142994095Y-77969819D02*
X143470285Y-77969819D01*
X143470285Y-77969819D02*
X143517904Y-78446009D01*
X143517904Y-78446009D02*
X143470285Y-78398390D01*
X143470285Y-78398390D02*
X143375047Y-78350771D01*
X143375047Y-78350771D02*
X143136952Y-78350771D01*
X143136952Y-78350771D02*
X143041714Y-78398390D01*
X143041714Y-78398390D02*
X142994095Y-78446009D01*
X142994095Y-78446009D02*
X142946476Y-78541247D01*
X142946476Y-78541247D02*
X142946476Y-78779342D01*
X142946476Y-78779342D02*
X142994095Y-78874580D01*
X142994095Y-78874580D02*
X143041714Y-78922200D01*
X143041714Y-78922200D02*
X143136952Y-78969819D01*
X143136952Y-78969819D02*
X143375047Y-78969819D01*
X143375047Y-78969819D02*
X143470285Y-78922200D01*
X143470285Y-78922200D02*
X143517904Y-78874580D01*
X142089333Y-77969819D02*
X142279809Y-77969819D01*
X142279809Y-77969819D02*
X142375047Y-78017438D01*
X142375047Y-78017438D02*
X142422666Y-78065057D01*
X142422666Y-78065057D02*
X142517904Y-78207914D01*
X142517904Y-78207914D02*
X142565523Y-78398390D01*
X142565523Y-78398390D02*
X142565523Y-78779342D01*
X142565523Y-78779342D02*
X142517904Y-78874580D01*
X142517904Y-78874580D02*
X142470285Y-78922200D01*
X142470285Y-78922200D02*
X142375047Y-78969819D01*
X142375047Y-78969819D02*
X142184571Y-78969819D01*
X142184571Y-78969819D02*
X142089333Y-78922200D01*
X142089333Y-78922200D02*
X142041714Y-78874580D01*
X142041714Y-78874580D02*
X141994095Y-78779342D01*
X141994095Y-78779342D02*
X141994095Y-78541247D01*
X141994095Y-78541247D02*
X142041714Y-78446009D01*
X142041714Y-78446009D02*
X142089333Y-78398390D01*
X142089333Y-78398390D02*
X142184571Y-78350771D01*
X142184571Y-78350771D02*
X142375047Y-78350771D01*
X142375047Y-78350771D02*
X142470285Y-78398390D01*
X142470285Y-78398390D02*
X142517904Y-78446009D01*
X142517904Y-78446009D02*
X142565523Y-78541247D01*
X147663819Y-105838666D02*
X148378104Y-105838666D01*
X148378104Y-105838666D02*
X148520961Y-105791047D01*
X148520961Y-105791047D02*
X148616200Y-105695809D01*
X148616200Y-105695809D02*
X148663819Y-105552952D01*
X148663819Y-105552952D02*
X148663819Y-105457714D01*
X148663819Y-106362476D02*
X148663819Y-106552952D01*
X148663819Y-106552952D02*
X148616200Y-106648190D01*
X148616200Y-106648190D02*
X148568580Y-106695809D01*
X148568580Y-106695809D02*
X148425723Y-106791047D01*
X148425723Y-106791047D02*
X148235247Y-106838666D01*
X148235247Y-106838666D02*
X147854295Y-106838666D01*
X147854295Y-106838666D02*
X147759057Y-106791047D01*
X147759057Y-106791047D02*
X147711438Y-106743428D01*
X147711438Y-106743428D02*
X147663819Y-106648190D01*
X147663819Y-106648190D02*
X147663819Y-106457714D01*
X147663819Y-106457714D02*
X147711438Y-106362476D01*
X147711438Y-106362476D02*
X147759057Y-106314857D01*
X147759057Y-106314857D02*
X147854295Y-106267238D01*
X147854295Y-106267238D02*
X148092390Y-106267238D01*
X148092390Y-106267238D02*
X148187628Y-106314857D01*
X148187628Y-106314857D02*
X148235247Y-106362476D01*
X148235247Y-106362476D02*
X148282866Y-106457714D01*
X148282866Y-106457714D02*
X148282866Y-106648190D01*
X148282866Y-106648190D02*
X148235247Y-106743428D01*
X148235247Y-106743428D02*
X148187628Y-106791047D01*
X148187628Y-106791047D02*
X148092390Y-106838666D01*
X129290714Y-120354628D02*
X129319286Y-120383200D01*
X129319286Y-120383200D02*
X129405000Y-120411771D01*
X129405000Y-120411771D02*
X129462143Y-120411771D01*
X129462143Y-120411771D02*
X129547857Y-120383200D01*
X129547857Y-120383200D02*
X129605000Y-120326057D01*
X129605000Y-120326057D02*
X129633571Y-120268914D01*
X129633571Y-120268914D02*
X129662143Y-120154628D01*
X129662143Y-120154628D02*
X129662143Y-120068914D01*
X129662143Y-120068914D02*
X129633571Y-119954628D01*
X129633571Y-119954628D02*
X129605000Y-119897485D01*
X129605000Y-119897485D02*
X129547857Y-119840342D01*
X129547857Y-119840342D02*
X129462143Y-119811771D01*
X129462143Y-119811771D02*
X129405000Y-119811771D01*
X129405000Y-119811771D02*
X129319286Y-119840342D01*
X129319286Y-119840342D02*
X129290714Y-119868914D01*
X128719286Y-120411771D02*
X129062143Y-120411771D01*
X128890714Y-120411771D02*
X128890714Y-119811771D01*
X128890714Y-119811771D02*
X128947857Y-119897485D01*
X128947857Y-119897485D02*
X129005000Y-119954628D01*
X129005000Y-119954628D02*
X129062143Y-119983200D01*
X128433571Y-120411771D02*
X128319285Y-120411771D01*
X128319285Y-120411771D02*
X128262142Y-120383200D01*
X128262142Y-120383200D02*
X128233571Y-120354628D01*
X128233571Y-120354628D02*
X128176428Y-120268914D01*
X128176428Y-120268914D02*
X128147857Y-120154628D01*
X128147857Y-120154628D02*
X128147857Y-119926057D01*
X128147857Y-119926057D02*
X128176428Y-119868914D01*
X128176428Y-119868914D02*
X128205000Y-119840342D01*
X128205000Y-119840342D02*
X128262142Y-119811771D01*
X128262142Y-119811771D02*
X128376428Y-119811771D01*
X128376428Y-119811771D02*
X128433571Y-119840342D01*
X128433571Y-119840342D02*
X128462142Y-119868914D01*
X128462142Y-119868914D02*
X128490714Y-119926057D01*
X128490714Y-119926057D02*
X128490714Y-120068914D01*
X128490714Y-120068914D02*
X128462142Y-120126057D01*
X128462142Y-120126057D02*
X128433571Y-120154628D01*
X128433571Y-120154628D02*
X128376428Y-120183200D01*
X128376428Y-120183200D02*
X128262142Y-120183200D01*
X128262142Y-120183200D02*
X128205000Y-120154628D01*
X128205000Y-120154628D02*
X128176428Y-120126057D01*
X128176428Y-120126057D02*
X128147857Y-120068914D01*
X147588266Y-72588019D02*
X148064456Y-72588019D01*
X148064456Y-72588019D02*
X148064456Y-71588019D01*
X146731123Y-72588019D02*
X147302551Y-72588019D01*
X147016837Y-72588019D02*
X147016837Y-71588019D01*
X147016837Y-71588019D02*
X147112075Y-71730876D01*
X147112075Y-71730876D02*
X147207313Y-71826114D01*
X147207313Y-71826114D02*
X147302551Y-71873733D01*
X142884428Y-115743085D02*
X142913000Y-115714513D01*
X142913000Y-115714513D02*
X142941571Y-115628799D01*
X142941571Y-115628799D02*
X142941571Y-115571656D01*
X142941571Y-115571656D02*
X142913000Y-115485942D01*
X142913000Y-115485942D02*
X142855857Y-115428799D01*
X142855857Y-115428799D02*
X142798714Y-115400228D01*
X142798714Y-115400228D02*
X142684428Y-115371656D01*
X142684428Y-115371656D02*
X142598714Y-115371656D01*
X142598714Y-115371656D02*
X142484428Y-115400228D01*
X142484428Y-115400228D02*
X142427285Y-115428799D01*
X142427285Y-115428799D02*
X142370142Y-115485942D01*
X142370142Y-115485942D02*
X142341571Y-115571656D01*
X142341571Y-115571656D02*
X142341571Y-115628799D01*
X142341571Y-115628799D02*
X142370142Y-115714513D01*
X142370142Y-115714513D02*
X142398714Y-115743085D01*
X142341571Y-115943085D02*
X142341571Y-116314513D01*
X142341571Y-116314513D02*
X142570142Y-116114513D01*
X142570142Y-116114513D02*
X142570142Y-116200228D01*
X142570142Y-116200228D02*
X142598714Y-116257371D01*
X142598714Y-116257371D02*
X142627285Y-116285942D01*
X142627285Y-116285942D02*
X142684428Y-116314513D01*
X142684428Y-116314513D02*
X142827285Y-116314513D01*
X142827285Y-116314513D02*
X142884428Y-116285942D01*
X142884428Y-116285942D02*
X142913000Y-116257371D01*
X142913000Y-116257371D02*
X142941571Y-116200228D01*
X142941571Y-116200228D02*
X142941571Y-116028799D01*
X142941571Y-116028799D02*
X142913000Y-115971656D01*
X142913000Y-115971656D02*
X142884428Y-115943085D01*
X142341571Y-116857371D02*
X142341571Y-116571657D01*
X142341571Y-116571657D02*
X142627285Y-116543085D01*
X142627285Y-116543085D02*
X142598714Y-116571657D01*
X142598714Y-116571657D02*
X142570142Y-116628800D01*
X142570142Y-116628800D02*
X142570142Y-116771657D01*
X142570142Y-116771657D02*
X142598714Y-116828800D01*
X142598714Y-116828800D02*
X142627285Y-116857371D01*
X142627285Y-116857371D02*
X142684428Y-116885942D01*
X142684428Y-116885942D02*
X142827285Y-116885942D01*
X142827285Y-116885942D02*
X142884428Y-116857371D01*
X142884428Y-116857371D02*
X142913000Y-116828800D01*
X142913000Y-116828800D02*
X142941571Y-116771657D01*
X142941571Y-116771657D02*
X142941571Y-116628800D01*
X142941571Y-116628800D02*
X142913000Y-116571657D01*
X142913000Y-116571657D02*
X142884428Y-116543085D01*
X129290714Y-121624628D02*
X129319286Y-121653200D01*
X129319286Y-121653200D02*
X129405000Y-121681771D01*
X129405000Y-121681771D02*
X129462143Y-121681771D01*
X129462143Y-121681771D02*
X129547857Y-121653200D01*
X129547857Y-121653200D02*
X129605000Y-121596057D01*
X129605000Y-121596057D02*
X129633571Y-121538914D01*
X129633571Y-121538914D02*
X129662143Y-121424628D01*
X129662143Y-121424628D02*
X129662143Y-121338914D01*
X129662143Y-121338914D02*
X129633571Y-121224628D01*
X129633571Y-121224628D02*
X129605000Y-121167485D01*
X129605000Y-121167485D02*
X129547857Y-121110342D01*
X129547857Y-121110342D02*
X129462143Y-121081771D01*
X129462143Y-121081771D02*
X129405000Y-121081771D01*
X129405000Y-121081771D02*
X129319286Y-121110342D01*
X129319286Y-121110342D02*
X129290714Y-121138914D01*
X129062143Y-121138914D02*
X129033571Y-121110342D01*
X129033571Y-121110342D02*
X128976429Y-121081771D01*
X128976429Y-121081771D02*
X128833571Y-121081771D01*
X128833571Y-121081771D02*
X128776429Y-121110342D01*
X128776429Y-121110342D02*
X128747857Y-121138914D01*
X128747857Y-121138914D02*
X128719286Y-121196057D01*
X128719286Y-121196057D02*
X128719286Y-121253200D01*
X128719286Y-121253200D02*
X128747857Y-121338914D01*
X128747857Y-121338914D02*
X129090714Y-121681771D01*
X129090714Y-121681771D02*
X128719286Y-121681771D01*
X128347857Y-121081771D02*
X128290714Y-121081771D01*
X128290714Y-121081771D02*
X128233571Y-121110342D01*
X128233571Y-121110342D02*
X128205000Y-121138914D01*
X128205000Y-121138914D02*
X128176428Y-121196057D01*
X128176428Y-121196057D02*
X128147857Y-121310342D01*
X128147857Y-121310342D02*
X128147857Y-121453200D01*
X128147857Y-121453200D02*
X128176428Y-121567485D01*
X128176428Y-121567485D02*
X128205000Y-121624628D01*
X128205000Y-121624628D02*
X128233571Y-121653200D01*
X128233571Y-121653200D02*
X128290714Y-121681771D01*
X128290714Y-121681771D02*
X128347857Y-121681771D01*
X128347857Y-121681771D02*
X128405000Y-121653200D01*
X128405000Y-121653200D02*
X128433571Y-121624628D01*
X128433571Y-121624628D02*
X128462142Y-121567485D01*
X128462142Y-121567485D02*
X128490714Y-121453200D01*
X128490714Y-121453200D02*
X128490714Y-121310342D01*
X128490714Y-121310342D02*
X128462142Y-121196057D01*
X128462142Y-121196057D02*
X128433571Y-121138914D01*
X128433571Y-121138914D02*
X128405000Y-121110342D01*
X128405000Y-121110342D02*
X128347857Y-121081771D01*
X159140428Y-86837885D02*
X159169000Y-86809313D01*
X159169000Y-86809313D02*
X159197571Y-86723599D01*
X159197571Y-86723599D02*
X159197571Y-86666456D01*
X159197571Y-86666456D02*
X159169000Y-86580742D01*
X159169000Y-86580742D02*
X159111857Y-86523599D01*
X159111857Y-86523599D02*
X159054714Y-86495028D01*
X159054714Y-86495028D02*
X158940428Y-86466456D01*
X158940428Y-86466456D02*
X158854714Y-86466456D01*
X158854714Y-86466456D02*
X158740428Y-86495028D01*
X158740428Y-86495028D02*
X158683285Y-86523599D01*
X158683285Y-86523599D02*
X158626142Y-86580742D01*
X158626142Y-86580742D02*
X158597571Y-86666456D01*
X158597571Y-86666456D02*
X158597571Y-86723599D01*
X158597571Y-86723599D02*
X158626142Y-86809313D01*
X158626142Y-86809313D02*
X158654714Y-86837885D01*
X158797571Y-87352171D02*
X159197571Y-87352171D01*
X158569000Y-87209313D02*
X158997571Y-87066456D01*
X158997571Y-87066456D02*
X158997571Y-87437885D01*
X158654714Y-87637885D02*
X158626142Y-87666457D01*
X158626142Y-87666457D02*
X158597571Y-87723600D01*
X158597571Y-87723600D02*
X158597571Y-87866457D01*
X158597571Y-87866457D02*
X158626142Y-87923600D01*
X158626142Y-87923600D02*
X158654714Y-87952171D01*
X158654714Y-87952171D02*
X158711857Y-87980742D01*
X158711857Y-87980742D02*
X158769000Y-87980742D01*
X158769000Y-87980742D02*
X158854714Y-87952171D01*
X158854714Y-87952171D02*
X159197571Y-87609314D01*
X159197571Y-87609314D02*
X159197571Y-87980742D01*
X140704895Y-76498514D02*
X140323942Y-76231847D01*
X140704895Y-76041371D02*
X139904895Y-76041371D01*
X139904895Y-76041371D02*
X139904895Y-76346133D01*
X139904895Y-76346133D02*
X139942990Y-76422323D01*
X139942990Y-76422323D02*
X139981085Y-76460418D01*
X139981085Y-76460418D02*
X140057276Y-76498514D01*
X140057276Y-76498514D02*
X140171561Y-76498514D01*
X140171561Y-76498514D02*
X140247752Y-76460418D01*
X140247752Y-76460418D02*
X140285847Y-76422323D01*
X140285847Y-76422323D02*
X140323942Y-76346133D01*
X140323942Y-76346133D02*
X140323942Y-76041371D01*
X139981085Y-76803275D02*
X139942990Y-76841371D01*
X139942990Y-76841371D02*
X139904895Y-76917561D01*
X139904895Y-76917561D02*
X139904895Y-77108037D01*
X139904895Y-77108037D02*
X139942990Y-77184228D01*
X139942990Y-77184228D02*
X139981085Y-77222323D01*
X139981085Y-77222323D02*
X140057276Y-77260418D01*
X140057276Y-77260418D02*
X140133466Y-77260418D01*
X140133466Y-77260418D02*
X140247752Y-77222323D01*
X140247752Y-77222323D02*
X140704895Y-76765180D01*
X140704895Y-76765180D02*
X140704895Y-77260418D01*
X140704895Y-77641371D02*
X140704895Y-77793752D01*
X140704895Y-77793752D02*
X140666800Y-77869942D01*
X140666800Y-77869942D02*
X140628704Y-77908038D01*
X140628704Y-77908038D02*
X140514419Y-77984228D01*
X140514419Y-77984228D02*
X140362038Y-78022323D01*
X140362038Y-78022323D02*
X140057276Y-78022323D01*
X140057276Y-78022323D02*
X139981085Y-77984228D01*
X139981085Y-77984228D02*
X139942990Y-77946133D01*
X139942990Y-77946133D02*
X139904895Y-77869942D01*
X139904895Y-77869942D02*
X139904895Y-77717561D01*
X139904895Y-77717561D02*
X139942990Y-77641371D01*
X139942990Y-77641371D02*
X139981085Y-77603276D01*
X139981085Y-77603276D02*
X140057276Y-77565180D01*
X140057276Y-77565180D02*
X140247752Y-77565180D01*
X140247752Y-77565180D02*
X140323942Y-77603276D01*
X140323942Y-77603276D02*
X140362038Y-77641371D01*
X140362038Y-77641371D02*
X140400133Y-77717561D01*
X140400133Y-77717561D02*
X140400133Y-77869942D01*
X140400133Y-77869942D02*
X140362038Y-77946133D01*
X140362038Y-77946133D02*
X140323942Y-77984228D01*
X140323942Y-77984228D02*
X140247752Y-78022323D01*
X145533999Y-137750485D02*
X145733999Y-137750485D01*
X145733999Y-138064771D02*
X145733999Y-137464771D01*
X145733999Y-137464771D02*
X145448285Y-137464771D01*
X145019713Y-137750485D02*
X144933999Y-137779057D01*
X144933999Y-137779057D02*
X144905428Y-137807628D01*
X144905428Y-137807628D02*
X144876856Y-137864771D01*
X144876856Y-137864771D02*
X144876856Y-137950485D01*
X144876856Y-137950485D02*
X144905428Y-138007628D01*
X144905428Y-138007628D02*
X144933999Y-138036200D01*
X144933999Y-138036200D02*
X144991142Y-138064771D01*
X144991142Y-138064771D02*
X145219713Y-138064771D01*
X145219713Y-138064771D02*
X145219713Y-137464771D01*
X145219713Y-137464771D02*
X145019713Y-137464771D01*
X145019713Y-137464771D02*
X144962571Y-137493342D01*
X144962571Y-137493342D02*
X144933999Y-137521914D01*
X144933999Y-137521914D02*
X144905428Y-137579057D01*
X144905428Y-137579057D02*
X144905428Y-137636200D01*
X144905428Y-137636200D02*
X144933999Y-137693342D01*
X144933999Y-137693342D02*
X144962571Y-137721914D01*
X144962571Y-137721914D02*
X145019713Y-137750485D01*
X145019713Y-137750485D02*
X145219713Y-137750485D01*
X144305428Y-138064771D02*
X144648285Y-138064771D01*
X144476856Y-138064771D02*
X144476856Y-137464771D01*
X144476856Y-137464771D02*
X144533999Y-137550485D01*
X144533999Y-137550485D02*
X144591142Y-137607628D01*
X144591142Y-137607628D02*
X144648285Y-137636200D01*
X140928628Y-137790285D02*
X140957200Y-137761713D01*
X140957200Y-137761713D02*
X140985771Y-137675999D01*
X140985771Y-137675999D02*
X140985771Y-137618856D01*
X140985771Y-137618856D02*
X140957200Y-137533142D01*
X140957200Y-137533142D02*
X140900057Y-137475999D01*
X140900057Y-137475999D02*
X140842914Y-137447428D01*
X140842914Y-137447428D02*
X140728628Y-137418856D01*
X140728628Y-137418856D02*
X140642914Y-137418856D01*
X140642914Y-137418856D02*
X140528628Y-137447428D01*
X140528628Y-137447428D02*
X140471485Y-137475999D01*
X140471485Y-137475999D02*
X140414342Y-137533142D01*
X140414342Y-137533142D02*
X140385771Y-137618856D01*
X140385771Y-137618856D02*
X140385771Y-137675999D01*
X140385771Y-137675999D02*
X140414342Y-137761713D01*
X140414342Y-137761713D02*
X140442914Y-137790285D01*
X140385771Y-137990285D02*
X140385771Y-138361713D01*
X140385771Y-138361713D02*
X140614342Y-138161713D01*
X140614342Y-138161713D02*
X140614342Y-138247428D01*
X140614342Y-138247428D02*
X140642914Y-138304571D01*
X140642914Y-138304571D02*
X140671485Y-138333142D01*
X140671485Y-138333142D02*
X140728628Y-138361713D01*
X140728628Y-138361713D02*
X140871485Y-138361713D01*
X140871485Y-138361713D02*
X140928628Y-138333142D01*
X140928628Y-138333142D02*
X140957200Y-138304571D01*
X140957200Y-138304571D02*
X140985771Y-138247428D01*
X140985771Y-138247428D02*
X140985771Y-138075999D01*
X140985771Y-138075999D02*
X140957200Y-138018856D01*
X140957200Y-138018856D02*
X140928628Y-137990285D01*
X140985771Y-138933142D02*
X140985771Y-138590285D01*
X140985771Y-138761714D02*
X140385771Y-138761714D01*
X140385771Y-138761714D02*
X140471485Y-138704571D01*
X140471485Y-138704571D02*
X140528628Y-138647428D01*
X140528628Y-138647428D02*
X140557200Y-138590285D01*
D11*
X141431009Y-73567171D02*
X141192914Y-73400505D01*
X141431009Y-73281457D02*
X140931009Y-73281457D01*
X140931009Y-73281457D02*
X140931009Y-73471933D01*
X140931009Y-73471933D02*
X140954819Y-73519552D01*
X140954819Y-73519552D02*
X140978628Y-73543362D01*
X140978628Y-73543362D02*
X141026247Y-73567171D01*
X141026247Y-73567171D02*
X141097676Y-73567171D01*
X141097676Y-73567171D02*
X141145295Y-73543362D01*
X141145295Y-73543362D02*
X141169104Y-73519552D01*
X141169104Y-73519552D02*
X141192914Y-73471933D01*
X141192914Y-73471933D02*
X141192914Y-73281457D01*
X140931009Y-73733838D02*
X140931009Y-74043362D01*
X140931009Y-74043362D02*
X141121485Y-73876695D01*
X141121485Y-73876695D02*
X141121485Y-73948124D01*
X141121485Y-73948124D02*
X141145295Y-73995743D01*
X141145295Y-73995743D02*
X141169104Y-74019552D01*
X141169104Y-74019552D02*
X141216723Y-74043362D01*
X141216723Y-74043362D02*
X141335771Y-74043362D01*
X141335771Y-74043362D02*
X141383390Y-74019552D01*
X141383390Y-74019552D02*
X141407200Y-73995743D01*
X141407200Y-73995743D02*
X141431009Y-73948124D01*
X141431009Y-73948124D02*
X141431009Y-73805267D01*
X141431009Y-73805267D02*
X141407200Y-73757648D01*
X141407200Y-73757648D02*
X141383390Y-73733838D01*
X140931009Y-74352885D02*
X140931009Y-74400504D01*
X140931009Y-74400504D02*
X140954819Y-74448123D01*
X140954819Y-74448123D02*
X140978628Y-74471933D01*
X140978628Y-74471933D02*
X141026247Y-74495742D01*
X141026247Y-74495742D02*
X141121485Y-74519552D01*
X141121485Y-74519552D02*
X141240533Y-74519552D01*
X141240533Y-74519552D02*
X141335771Y-74495742D01*
X141335771Y-74495742D02*
X141383390Y-74471933D01*
X141383390Y-74471933D02*
X141407200Y-74448123D01*
X141407200Y-74448123D02*
X141431009Y-74400504D01*
X141431009Y-74400504D02*
X141431009Y-74352885D01*
X141431009Y-74352885D02*
X141407200Y-74305266D01*
X141407200Y-74305266D02*
X141383390Y-74281457D01*
X141383390Y-74281457D02*
X141335771Y-74257647D01*
X141335771Y-74257647D02*
X141240533Y-74233838D01*
X141240533Y-74233838D02*
X141121485Y-74233838D01*
X141121485Y-74233838D02*
X141026247Y-74257647D01*
X141026247Y-74257647D02*
X140978628Y-74281457D01*
X140978628Y-74281457D02*
X140954819Y-74305266D01*
X140954819Y-74305266D02*
X140931009Y-74352885D01*
D10*
X155911485Y-134956904D02*
X155949581Y-134995000D01*
X155949581Y-134995000D02*
X156063866Y-135033095D01*
X156063866Y-135033095D02*
X156140057Y-135033095D01*
X156140057Y-135033095D02*
X156254343Y-134995000D01*
X156254343Y-134995000D02*
X156330533Y-134918809D01*
X156330533Y-134918809D02*
X156368628Y-134842619D01*
X156368628Y-134842619D02*
X156406724Y-134690238D01*
X156406724Y-134690238D02*
X156406724Y-134575952D01*
X156406724Y-134575952D02*
X156368628Y-134423571D01*
X156368628Y-134423571D02*
X156330533Y-134347380D01*
X156330533Y-134347380D02*
X156254343Y-134271190D01*
X156254343Y-134271190D02*
X156140057Y-134233095D01*
X156140057Y-134233095D02*
X156063866Y-134233095D01*
X156063866Y-134233095D02*
X155949581Y-134271190D01*
X155949581Y-134271190D02*
X155911485Y-134309285D01*
X155606724Y-134309285D02*
X155568628Y-134271190D01*
X155568628Y-134271190D02*
X155492438Y-134233095D01*
X155492438Y-134233095D02*
X155301962Y-134233095D01*
X155301962Y-134233095D02*
X155225771Y-134271190D01*
X155225771Y-134271190D02*
X155187676Y-134309285D01*
X155187676Y-134309285D02*
X155149581Y-134385476D01*
X155149581Y-134385476D02*
X155149581Y-134461666D01*
X155149581Y-134461666D02*
X155187676Y-134575952D01*
X155187676Y-134575952D02*
X155644819Y-135033095D01*
X155644819Y-135033095D02*
X155149581Y-135033095D01*
X154882914Y-134233095D02*
X154387676Y-134233095D01*
X154387676Y-134233095D02*
X154654342Y-134537857D01*
X154654342Y-134537857D02*
X154540057Y-134537857D01*
X154540057Y-134537857D02*
X154463866Y-134575952D01*
X154463866Y-134575952D02*
X154425771Y-134614047D01*
X154425771Y-134614047D02*
X154387676Y-134690238D01*
X154387676Y-134690238D02*
X154387676Y-134880714D01*
X154387676Y-134880714D02*
X154425771Y-134956904D01*
X154425771Y-134956904D02*
X154463866Y-134995000D01*
X154463866Y-134995000D02*
X154540057Y-135033095D01*
X154540057Y-135033095D02*
X154768628Y-135033095D01*
X154768628Y-135033095D02*
X154844819Y-134995000D01*
X154844819Y-134995000D02*
X154882914Y-134956904D01*
X155608531Y-89292956D02*
X155808531Y-89007242D01*
X155951388Y-89292956D02*
X155951388Y-88692956D01*
X155951388Y-88692956D02*
X155722817Y-88692956D01*
X155722817Y-88692956D02*
X155665674Y-88721527D01*
X155665674Y-88721527D02*
X155637103Y-88750099D01*
X155637103Y-88750099D02*
X155608531Y-88807242D01*
X155608531Y-88807242D02*
X155608531Y-88892956D01*
X155608531Y-88892956D02*
X155637103Y-88950099D01*
X155637103Y-88950099D02*
X155665674Y-88978670D01*
X155665674Y-88978670D02*
X155722817Y-89007242D01*
X155722817Y-89007242D02*
X155951388Y-89007242D01*
X155379960Y-88750099D02*
X155351388Y-88721527D01*
X155351388Y-88721527D02*
X155294246Y-88692956D01*
X155294246Y-88692956D02*
X155151388Y-88692956D01*
X155151388Y-88692956D02*
X155094246Y-88721527D01*
X155094246Y-88721527D02*
X155065674Y-88750099D01*
X155065674Y-88750099D02*
X155037103Y-88807242D01*
X155037103Y-88807242D02*
X155037103Y-88864385D01*
X155037103Y-88864385D02*
X155065674Y-88950099D01*
X155065674Y-88950099D02*
X155408531Y-89292956D01*
X155408531Y-89292956D02*
X155037103Y-89292956D01*
X154465674Y-89292956D02*
X154808531Y-89292956D01*
X154637102Y-89292956D02*
X154637102Y-88692956D01*
X154637102Y-88692956D02*
X154694245Y-88778670D01*
X154694245Y-88778670D02*
X154751388Y-88835813D01*
X154751388Y-88835813D02*
X154808531Y-88864385D01*
X133667180Y-79544942D02*
X133714800Y-79497323D01*
X133714800Y-79497323D02*
X133762419Y-79354466D01*
X133762419Y-79354466D02*
X133762419Y-79259228D01*
X133762419Y-79259228D02*
X133714800Y-79116371D01*
X133714800Y-79116371D02*
X133619561Y-79021133D01*
X133619561Y-79021133D02*
X133524323Y-78973514D01*
X133524323Y-78973514D02*
X133333847Y-78925895D01*
X133333847Y-78925895D02*
X133190990Y-78925895D01*
X133190990Y-78925895D02*
X133000514Y-78973514D01*
X133000514Y-78973514D02*
X132905276Y-79021133D01*
X132905276Y-79021133D02*
X132810038Y-79116371D01*
X132810038Y-79116371D02*
X132762419Y-79259228D01*
X132762419Y-79259228D02*
X132762419Y-79354466D01*
X132762419Y-79354466D02*
X132810038Y-79497323D01*
X132810038Y-79497323D02*
X132857657Y-79544942D01*
X132762419Y-80402085D02*
X132762419Y-80211609D01*
X132762419Y-80211609D02*
X132810038Y-80116371D01*
X132810038Y-80116371D02*
X132857657Y-80068752D01*
X132857657Y-80068752D02*
X133000514Y-79973514D01*
X133000514Y-79973514D02*
X133190990Y-79925895D01*
X133190990Y-79925895D02*
X133571942Y-79925895D01*
X133571942Y-79925895D02*
X133667180Y-79973514D01*
X133667180Y-79973514D02*
X133714800Y-80021133D01*
X133714800Y-80021133D02*
X133762419Y-80116371D01*
X133762419Y-80116371D02*
X133762419Y-80306847D01*
X133762419Y-80306847D02*
X133714800Y-80402085D01*
X133714800Y-80402085D02*
X133667180Y-80449704D01*
X133667180Y-80449704D02*
X133571942Y-80497323D01*
X133571942Y-80497323D02*
X133333847Y-80497323D01*
X133333847Y-80497323D02*
X133238609Y-80449704D01*
X133238609Y-80449704D02*
X133190990Y-80402085D01*
X133190990Y-80402085D02*
X133143371Y-80306847D01*
X133143371Y-80306847D02*
X133143371Y-80116371D01*
X133143371Y-80116371D02*
X133190990Y-80021133D01*
X133190990Y-80021133D02*
X133238609Y-79973514D01*
X133238609Y-79973514D02*
X133333847Y-79925895D01*
X132762419Y-81116371D02*
X132762419Y-81211609D01*
X132762419Y-81211609D02*
X132810038Y-81306847D01*
X132810038Y-81306847D02*
X132857657Y-81354466D01*
X132857657Y-81354466D02*
X132952895Y-81402085D01*
X132952895Y-81402085D02*
X133143371Y-81449704D01*
X133143371Y-81449704D02*
X133381466Y-81449704D01*
X133381466Y-81449704D02*
X133571942Y-81402085D01*
X133571942Y-81402085D02*
X133667180Y-81354466D01*
X133667180Y-81354466D02*
X133714800Y-81306847D01*
X133714800Y-81306847D02*
X133762419Y-81211609D01*
X133762419Y-81211609D02*
X133762419Y-81116371D01*
X133762419Y-81116371D02*
X133714800Y-81021133D01*
X133714800Y-81021133D02*
X133667180Y-80973514D01*
X133667180Y-80973514D02*
X133571942Y-80925895D01*
X133571942Y-80925895D02*
X133381466Y-80878276D01*
X133381466Y-80878276D02*
X133143371Y-80878276D01*
X133143371Y-80878276D02*
X132952895Y-80925895D01*
X132952895Y-80925895D02*
X132857657Y-80973514D01*
X132857657Y-80973514D02*
X132810038Y-81021133D01*
X132810038Y-81021133D02*
X132762419Y-81116371D01*
X143898857Y-81795580D02*
X143946476Y-81843200D01*
X143946476Y-81843200D02*
X144089333Y-81890819D01*
X144089333Y-81890819D02*
X144184571Y-81890819D01*
X144184571Y-81890819D02*
X144327428Y-81843200D01*
X144327428Y-81843200D02*
X144422666Y-81747961D01*
X144422666Y-81747961D02*
X144470285Y-81652723D01*
X144470285Y-81652723D02*
X144517904Y-81462247D01*
X144517904Y-81462247D02*
X144517904Y-81319390D01*
X144517904Y-81319390D02*
X144470285Y-81128914D01*
X144470285Y-81128914D02*
X144422666Y-81033676D01*
X144422666Y-81033676D02*
X144327428Y-80938438D01*
X144327428Y-80938438D02*
X144184571Y-80890819D01*
X144184571Y-80890819D02*
X144089333Y-80890819D01*
X144089333Y-80890819D02*
X143946476Y-80938438D01*
X143946476Y-80938438D02*
X143898857Y-80986057D01*
X142994095Y-80890819D02*
X143470285Y-80890819D01*
X143470285Y-80890819D02*
X143517904Y-81367009D01*
X143517904Y-81367009D02*
X143470285Y-81319390D01*
X143470285Y-81319390D02*
X143375047Y-81271771D01*
X143375047Y-81271771D02*
X143136952Y-81271771D01*
X143136952Y-81271771D02*
X143041714Y-81319390D01*
X143041714Y-81319390D02*
X142994095Y-81367009D01*
X142994095Y-81367009D02*
X142946476Y-81462247D01*
X142946476Y-81462247D02*
X142946476Y-81700342D01*
X142946476Y-81700342D02*
X142994095Y-81795580D01*
X142994095Y-81795580D02*
X143041714Y-81843200D01*
X143041714Y-81843200D02*
X143136952Y-81890819D01*
X143136952Y-81890819D02*
X143375047Y-81890819D01*
X143375047Y-81890819D02*
X143470285Y-81843200D01*
X143470285Y-81843200D02*
X143517904Y-81795580D01*
X142375047Y-81319390D02*
X142470285Y-81271771D01*
X142470285Y-81271771D02*
X142517904Y-81224152D01*
X142517904Y-81224152D02*
X142565523Y-81128914D01*
X142565523Y-81128914D02*
X142565523Y-81081295D01*
X142565523Y-81081295D02*
X142517904Y-80986057D01*
X142517904Y-80986057D02*
X142470285Y-80938438D01*
X142470285Y-80938438D02*
X142375047Y-80890819D01*
X142375047Y-80890819D02*
X142184571Y-80890819D01*
X142184571Y-80890819D02*
X142089333Y-80938438D01*
X142089333Y-80938438D02*
X142041714Y-80986057D01*
X142041714Y-80986057D02*
X141994095Y-81081295D01*
X141994095Y-81081295D02*
X141994095Y-81128914D01*
X141994095Y-81128914D02*
X142041714Y-81224152D01*
X142041714Y-81224152D02*
X142089333Y-81271771D01*
X142089333Y-81271771D02*
X142184571Y-81319390D01*
X142184571Y-81319390D02*
X142375047Y-81319390D01*
X142375047Y-81319390D02*
X142470285Y-81367009D01*
X142470285Y-81367009D02*
X142517904Y-81414628D01*
X142517904Y-81414628D02*
X142565523Y-81509866D01*
X142565523Y-81509866D02*
X142565523Y-81700342D01*
X142565523Y-81700342D02*
X142517904Y-81795580D01*
X142517904Y-81795580D02*
X142470285Y-81843200D01*
X142470285Y-81843200D02*
X142375047Y-81890819D01*
X142375047Y-81890819D02*
X142184571Y-81890819D01*
X142184571Y-81890819D02*
X142089333Y-81843200D01*
X142089333Y-81843200D02*
X142041714Y-81795580D01*
X142041714Y-81795580D02*
X141994095Y-81700342D01*
X141994095Y-81700342D02*
X141994095Y-81509866D01*
X141994095Y-81509866D02*
X142041714Y-81414628D01*
X142041714Y-81414628D02*
X142089333Y-81367009D01*
X142089333Y-81367009D02*
X142184571Y-81319390D01*
X139588104Y-121456514D02*
X139626200Y-121418418D01*
X139626200Y-121418418D02*
X139664295Y-121304133D01*
X139664295Y-121304133D02*
X139664295Y-121227942D01*
X139664295Y-121227942D02*
X139626200Y-121113656D01*
X139626200Y-121113656D02*
X139550009Y-121037466D01*
X139550009Y-121037466D02*
X139473819Y-120999371D01*
X139473819Y-120999371D02*
X139321438Y-120961275D01*
X139321438Y-120961275D02*
X139207152Y-120961275D01*
X139207152Y-120961275D02*
X139054771Y-120999371D01*
X139054771Y-120999371D02*
X138978580Y-121037466D01*
X138978580Y-121037466D02*
X138902390Y-121113656D01*
X138902390Y-121113656D02*
X138864295Y-121227942D01*
X138864295Y-121227942D02*
X138864295Y-121304133D01*
X138864295Y-121304133D02*
X138902390Y-121418418D01*
X138902390Y-121418418D02*
X138940485Y-121456514D01*
X138864295Y-121723180D02*
X138864295Y-122218418D01*
X138864295Y-122218418D02*
X139169057Y-121951752D01*
X139169057Y-121951752D02*
X139169057Y-122066037D01*
X139169057Y-122066037D02*
X139207152Y-122142228D01*
X139207152Y-122142228D02*
X139245247Y-122180323D01*
X139245247Y-122180323D02*
X139321438Y-122218418D01*
X139321438Y-122218418D02*
X139511914Y-122218418D01*
X139511914Y-122218418D02*
X139588104Y-122180323D01*
X139588104Y-122180323D02*
X139626200Y-122142228D01*
X139626200Y-122142228D02*
X139664295Y-122066037D01*
X139664295Y-122066037D02*
X139664295Y-121837466D01*
X139664295Y-121837466D02*
X139626200Y-121761275D01*
X139626200Y-121761275D02*
X139588104Y-121723180D01*
X138864295Y-122485085D02*
X138864295Y-123018419D01*
X138864295Y-123018419D02*
X139664295Y-122675561D01*
X138156932Y-119589895D02*
X138423599Y-119208942D01*
X138614075Y-119589895D02*
X138614075Y-118789895D01*
X138614075Y-118789895D02*
X138309313Y-118789895D01*
X138309313Y-118789895D02*
X138233123Y-118827990D01*
X138233123Y-118827990D02*
X138195028Y-118866085D01*
X138195028Y-118866085D02*
X138156932Y-118942276D01*
X138156932Y-118942276D02*
X138156932Y-119056561D01*
X138156932Y-119056561D02*
X138195028Y-119132752D01*
X138195028Y-119132752D02*
X138233123Y-119170847D01*
X138233123Y-119170847D02*
X138309313Y-119208942D01*
X138309313Y-119208942D02*
X138614075Y-119208942D01*
X137471218Y-119056561D02*
X137471218Y-119589895D01*
X137661694Y-118751800D02*
X137852171Y-119323228D01*
X137852171Y-119323228D02*
X137356932Y-119323228D01*
X151619295Y-123564714D02*
X151238342Y-123298047D01*
X151619295Y-123107571D02*
X150819295Y-123107571D01*
X150819295Y-123107571D02*
X150819295Y-123412333D01*
X150819295Y-123412333D02*
X150857390Y-123488523D01*
X150857390Y-123488523D02*
X150895485Y-123526618D01*
X150895485Y-123526618D02*
X150971676Y-123564714D01*
X150971676Y-123564714D02*
X151085961Y-123564714D01*
X151085961Y-123564714D02*
X151162152Y-123526618D01*
X151162152Y-123526618D02*
X151200247Y-123488523D01*
X151200247Y-123488523D02*
X151238342Y-123412333D01*
X151238342Y-123412333D02*
X151238342Y-123107571D01*
X151619295Y-124326618D02*
X151619295Y-123869475D01*
X151619295Y-124098047D02*
X150819295Y-124098047D01*
X150819295Y-124098047D02*
X150933580Y-124021856D01*
X150933580Y-124021856D02*
X151009771Y-123945666D01*
X151009771Y-123945666D02*
X151047866Y-123869475D01*
X150819295Y-125012333D02*
X150819295Y-124859952D01*
X150819295Y-124859952D02*
X150857390Y-124783761D01*
X150857390Y-124783761D02*
X150895485Y-124745666D01*
X150895485Y-124745666D02*
X151009771Y-124669476D01*
X151009771Y-124669476D02*
X151162152Y-124631380D01*
X151162152Y-124631380D02*
X151466914Y-124631380D01*
X151466914Y-124631380D02*
X151543104Y-124669476D01*
X151543104Y-124669476D02*
X151581200Y-124707571D01*
X151581200Y-124707571D02*
X151619295Y-124783761D01*
X151619295Y-124783761D02*
X151619295Y-124936142D01*
X151619295Y-124936142D02*
X151581200Y-125012333D01*
X151581200Y-125012333D02*
X151543104Y-125050428D01*
X151543104Y-125050428D02*
X151466914Y-125088523D01*
X151466914Y-125088523D02*
X151276438Y-125088523D01*
X151276438Y-125088523D02*
X151200247Y-125050428D01*
X151200247Y-125050428D02*
X151162152Y-125012333D01*
X151162152Y-125012333D02*
X151124057Y-124936142D01*
X151124057Y-124936142D02*
X151124057Y-124783761D01*
X151124057Y-124783761D02*
X151162152Y-124707571D01*
X151162152Y-124707571D02*
X151200247Y-124669476D01*
X151200247Y-124669476D02*
X151276438Y-124631380D01*
X145446685Y-118853304D02*
X145484781Y-118891400D01*
X145484781Y-118891400D02*
X145599066Y-118929495D01*
X145599066Y-118929495D02*
X145675257Y-118929495D01*
X145675257Y-118929495D02*
X145789543Y-118891400D01*
X145789543Y-118891400D02*
X145865733Y-118815209D01*
X145865733Y-118815209D02*
X145903828Y-118739019D01*
X145903828Y-118739019D02*
X145941924Y-118586638D01*
X145941924Y-118586638D02*
X145941924Y-118472352D01*
X145941924Y-118472352D02*
X145903828Y-118319971D01*
X145903828Y-118319971D02*
X145865733Y-118243780D01*
X145865733Y-118243780D02*
X145789543Y-118167590D01*
X145789543Y-118167590D02*
X145675257Y-118129495D01*
X145675257Y-118129495D02*
X145599066Y-118129495D01*
X145599066Y-118129495D02*
X145484781Y-118167590D01*
X145484781Y-118167590D02*
X145446685Y-118205685D01*
X145180019Y-118129495D02*
X144684781Y-118129495D01*
X144684781Y-118129495D02*
X144951447Y-118434257D01*
X144951447Y-118434257D02*
X144837162Y-118434257D01*
X144837162Y-118434257D02*
X144760971Y-118472352D01*
X144760971Y-118472352D02*
X144722876Y-118510447D01*
X144722876Y-118510447D02*
X144684781Y-118586638D01*
X144684781Y-118586638D02*
X144684781Y-118777114D01*
X144684781Y-118777114D02*
X144722876Y-118853304D01*
X144722876Y-118853304D02*
X144760971Y-118891400D01*
X144760971Y-118891400D02*
X144837162Y-118929495D01*
X144837162Y-118929495D02*
X145065733Y-118929495D01*
X145065733Y-118929495D02*
X145141924Y-118891400D01*
X145141924Y-118891400D02*
X145180019Y-118853304D01*
X143999066Y-118129495D02*
X144151447Y-118129495D01*
X144151447Y-118129495D02*
X144227638Y-118167590D01*
X144227638Y-118167590D02*
X144265733Y-118205685D01*
X144265733Y-118205685D02*
X144341923Y-118319971D01*
X144341923Y-118319971D02*
X144380019Y-118472352D01*
X144380019Y-118472352D02*
X144380019Y-118777114D01*
X144380019Y-118777114D02*
X144341923Y-118853304D01*
X144341923Y-118853304D02*
X144303828Y-118891400D01*
X144303828Y-118891400D02*
X144227638Y-118929495D01*
X144227638Y-118929495D02*
X144075257Y-118929495D01*
X144075257Y-118929495D02*
X143999066Y-118891400D01*
X143999066Y-118891400D02*
X143960971Y-118853304D01*
X143960971Y-118853304D02*
X143922876Y-118777114D01*
X143922876Y-118777114D02*
X143922876Y-118586638D01*
X143922876Y-118586638D02*
X143960971Y-118510447D01*
X143960971Y-118510447D02*
X143999066Y-118472352D01*
X143999066Y-118472352D02*
X144075257Y-118434257D01*
X144075257Y-118434257D02*
X144227638Y-118434257D01*
X144227638Y-118434257D02*
X144303828Y-118472352D01*
X144303828Y-118472352D02*
X144341923Y-118510447D01*
X144341923Y-118510447D02*
X144380019Y-118586638D01*
X156530571Y-103297085D02*
X156244857Y-103097085D01*
X156530571Y-102954228D02*
X155930571Y-102954228D01*
X155930571Y-102954228D02*
X155930571Y-103182799D01*
X155930571Y-103182799D02*
X155959142Y-103239942D01*
X155959142Y-103239942D02*
X155987714Y-103268513D01*
X155987714Y-103268513D02*
X156044857Y-103297085D01*
X156044857Y-103297085D02*
X156130571Y-103297085D01*
X156130571Y-103297085D02*
X156187714Y-103268513D01*
X156187714Y-103268513D02*
X156216285Y-103239942D01*
X156216285Y-103239942D02*
X156244857Y-103182799D01*
X156244857Y-103182799D02*
X156244857Y-102954228D01*
X156530571Y-103868513D02*
X156530571Y-103525656D01*
X156530571Y-103697085D02*
X155930571Y-103697085D01*
X155930571Y-103697085D02*
X156016285Y-103639942D01*
X156016285Y-103639942D02*
X156073428Y-103582799D01*
X156073428Y-103582799D02*
X156102000Y-103525656D01*
X155930571Y-104068514D02*
X155930571Y-104468514D01*
X155930571Y-104468514D02*
X156530571Y-104211371D01*
X133738857Y-86177780D02*
X133786476Y-86225400D01*
X133786476Y-86225400D02*
X133929333Y-86273019D01*
X133929333Y-86273019D02*
X134024571Y-86273019D01*
X134024571Y-86273019D02*
X134167428Y-86225400D01*
X134167428Y-86225400D02*
X134262666Y-86130161D01*
X134262666Y-86130161D02*
X134310285Y-86034923D01*
X134310285Y-86034923D02*
X134357904Y-85844447D01*
X134357904Y-85844447D02*
X134357904Y-85701590D01*
X134357904Y-85701590D02*
X134310285Y-85511114D01*
X134310285Y-85511114D02*
X134262666Y-85415876D01*
X134262666Y-85415876D02*
X134167428Y-85320638D01*
X134167428Y-85320638D02*
X134024571Y-85273019D01*
X134024571Y-85273019D02*
X133929333Y-85273019D01*
X133929333Y-85273019D02*
X133786476Y-85320638D01*
X133786476Y-85320638D02*
X133738857Y-85368257D01*
X132881714Y-85273019D02*
X133072190Y-85273019D01*
X133072190Y-85273019D02*
X133167428Y-85320638D01*
X133167428Y-85320638D02*
X133215047Y-85368257D01*
X133215047Y-85368257D02*
X133310285Y-85511114D01*
X133310285Y-85511114D02*
X133357904Y-85701590D01*
X133357904Y-85701590D02*
X133357904Y-86082542D01*
X133357904Y-86082542D02*
X133310285Y-86177780D01*
X133310285Y-86177780D02*
X133262666Y-86225400D01*
X133262666Y-86225400D02*
X133167428Y-86273019D01*
X133167428Y-86273019D02*
X132976952Y-86273019D01*
X132976952Y-86273019D02*
X132881714Y-86225400D01*
X132881714Y-86225400D02*
X132834095Y-86177780D01*
X132834095Y-86177780D02*
X132786476Y-86082542D01*
X132786476Y-86082542D02*
X132786476Y-85844447D01*
X132786476Y-85844447D02*
X132834095Y-85749209D01*
X132834095Y-85749209D02*
X132881714Y-85701590D01*
X132881714Y-85701590D02*
X132976952Y-85653971D01*
X132976952Y-85653971D02*
X133167428Y-85653971D01*
X133167428Y-85653971D02*
X133262666Y-85701590D01*
X133262666Y-85701590D02*
X133310285Y-85749209D01*
X133310285Y-85749209D02*
X133357904Y-85844447D01*
X131834095Y-86273019D02*
X132405523Y-86273019D01*
X132119809Y-86273019D02*
X132119809Y-85273019D01*
X132119809Y-85273019D02*
X132215047Y-85415876D01*
X132215047Y-85415876D02*
X132310285Y-85511114D01*
X132310285Y-85511114D02*
X132405523Y-85558733D01*
X148213714Y-92668628D02*
X148242286Y-92697200D01*
X148242286Y-92697200D02*
X148328000Y-92725771D01*
X148328000Y-92725771D02*
X148385143Y-92725771D01*
X148385143Y-92725771D02*
X148470857Y-92697200D01*
X148470857Y-92697200D02*
X148528000Y-92640057D01*
X148528000Y-92640057D02*
X148556571Y-92582914D01*
X148556571Y-92582914D02*
X148585143Y-92468628D01*
X148585143Y-92468628D02*
X148585143Y-92382914D01*
X148585143Y-92382914D02*
X148556571Y-92268628D01*
X148556571Y-92268628D02*
X148528000Y-92211485D01*
X148528000Y-92211485D02*
X148470857Y-92154342D01*
X148470857Y-92154342D02*
X148385143Y-92125771D01*
X148385143Y-92125771D02*
X148328000Y-92125771D01*
X148328000Y-92125771D02*
X148242286Y-92154342D01*
X148242286Y-92154342D02*
X148213714Y-92182914D01*
X147670857Y-92125771D02*
X147956571Y-92125771D01*
X147956571Y-92125771D02*
X147985143Y-92411485D01*
X147985143Y-92411485D02*
X147956571Y-92382914D01*
X147956571Y-92382914D02*
X147899429Y-92354342D01*
X147899429Y-92354342D02*
X147756571Y-92354342D01*
X147756571Y-92354342D02*
X147699429Y-92382914D01*
X147699429Y-92382914D02*
X147670857Y-92411485D01*
X147670857Y-92411485D02*
X147642286Y-92468628D01*
X147642286Y-92468628D02*
X147642286Y-92611485D01*
X147642286Y-92611485D02*
X147670857Y-92668628D01*
X147670857Y-92668628D02*
X147699429Y-92697200D01*
X147699429Y-92697200D02*
X147756571Y-92725771D01*
X147756571Y-92725771D02*
X147899429Y-92725771D01*
X147899429Y-92725771D02*
X147956571Y-92697200D01*
X147956571Y-92697200D02*
X147985143Y-92668628D01*
X147270857Y-92125771D02*
X147213714Y-92125771D01*
X147213714Y-92125771D02*
X147156571Y-92154342D01*
X147156571Y-92154342D02*
X147128000Y-92182914D01*
X147128000Y-92182914D02*
X147099428Y-92240057D01*
X147099428Y-92240057D02*
X147070857Y-92354342D01*
X147070857Y-92354342D02*
X147070857Y-92497200D01*
X147070857Y-92497200D02*
X147099428Y-92611485D01*
X147099428Y-92611485D02*
X147128000Y-92668628D01*
X147128000Y-92668628D02*
X147156571Y-92697200D01*
X147156571Y-92697200D02*
X147213714Y-92725771D01*
X147213714Y-92725771D02*
X147270857Y-92725771D01*
X147270857Y-92725771D02*
X147328000Y-92697200D01*
X147328000Y-92697200D02*
X147356571Y-92668628D01*
X147356571Y-92668628D02*
X147385142Y-92611485D01*
X147385142Y-92611485D02*
X147413714Y-92497200D01*
X147413714Y-92497200D02*
X147413714Y-92354342D01*
X147413714Y-92354342D02*
X147385142Y-92240057D01*
X147385142Y-92240057D02*
X147356571Y-92182914D01*
X147356571Y-92182914D02*
X147328000Y-92154342D01*
X147328000Y-92154342D02*
X147270857Y-92125771D01*
X157308904Y-124504514D02*
X157347000Y-124466418D01*
X157347000Y-124466418D02*
X157385095Y-124352133D01*
X157385095Y-124352133D02*
X157385095Y-124275942D01*
X157385095Y-124275942D02*
X157347000Y-124161656D01*
X157347000Y-124161656D02*
X157270809Y-124085466D01*
X157270809Y-124085466D02*
X157194619Y-124047371D01*
X157194619Y-124047371D02*
X157042238Y-124009275D01*
X157042238Y-124009275D02*
X156927952Y-124009275D01*
X156927952Y-124009275D02*
X156775571Y-124047371D01*
X156775571Y-124047371D02*
X156699380Y-124085466D01*
X156699380Y-124085466D02*
X156623190Y-124161656D01*
X156623190Y-124161656D02*
X156585095Y-124275942D01*
X156585095Y-124275942D02*
X156585095Y-124352133D01*
X156585095Y-124352133D02*
X156623190Y-124466418D01*
X156623190Y-124466418D02*
X156661285Y-124504514D01*
X156851761Y-125190228D02*
X157385095Y-125190228D01*
X156547000Y-124999752D02*
X157118428Y-124809275D01*
X157118428Y-124809275D02*
X157118428Y-125304514D01*
X156585095Y-125952133D02*
X156585095Y-125799752D01*
X156585095Y-125799752D02*
X156623190Y-125723561D01*
X156623190Y-125723561D02*
X156661285Y-125685466D01*
X156661285Y-125685466D02*
X156775571Y-125609276D01*
X156775571Y-125609276D02*
X156927952Y-125571180D01*
X156927952Y-125571180D02*
X157232714Y-125571180D01*
X157232714Y-125571180D02*
X157308904Y-125609276D01*
X157308904Y-125609276D02*
X157347000Y-125647371D01*
X157347000Y-125647371D02*
X157385095Y-125723561D01*
X157385095Y-125723561D02*
X157385095Y-125875942D01*
X157385095Y-125875942D02*
X157347000Y-125952133D01*
X157347000Y-125952133D02*
X157308904Y-125990228D01*
X157308904Y-125990228D02*
X157232714Y-126028323D01*
X157232714Y-126028323D02*
X157042238Y-126028323D01*
X157042238Y-126028323D02*
X156966047Y-125990228D01*
X156966047Y-125990228D02*
X156927952Y-125952133D01*
X156927952Y-125952133D02*
X156889857Y-125875942D01*
X156889857Y-125875942D02*
X156889857Y-125723561D01*
X156889857Y-125723561D02*
X156927952Y-125647371D01*
X156927952Y-125647371D02*
X156966047Y-125609276D01*
X156966047Y-125609276D02*
X157042238Y-125571180D01*
D11*
X145863428Y-83841609D02*
X146030094Y-83603514D01*
X146149142Y-83841609D02*
X146149142Y-83341609D01*
X146149142Y-83341609D02*
X145958666Y-83341609D01*
X145958666Y-83341609D02*
X145911047Y-83365419D01*
X145911047Y-83365419D02*
X145887237Y-83389228D01*
X145887237Y-83389228D02*
X145863428Y-83436847D01*
X145863428Y-83436847D02*
X145863428Y-83508276D01*
X145863428Y-83508276D02*
X145887237Y-83555895D01*
X145887237Y-83555895D02*
X145911047Y-83579704D01*
X145911047Y-83579704D02*
X145958666Y-83603514D01*
X145958666Y-83603514D02*
X146149142Y-83603514D01*
X145672951Y-83389228D02*
X145649142Y-83365419D01*
X145649142Y-83365419D02*
X145601523Y-83341609D01*
X145601523Y-83341609D02*
X145482475Y-83341609D01*
X145482475Y-83341609D02*
X145434856Y-83365419D01*
X145434856Y-83365419D02*
X145411047Y-83389228D01*
X145411047Y-83389228D02*
X145387237Y-83436847D01*
X145387237Y-83436847D02*
X145387237Y-83484466D01*
X145387237Y-83484466D02*
X145411047Y-83555895D01*
X145411047Y-83555895D02*
X145696761Y-83841609D01*
X145696761Y-83841609D02*
X145387237Y-83841609D01*
X144934857Y-83341609D02*
X145172952Y-83341609D01*
X145172952Y-83341609D02*
X145196761Y-83579704D01*
X145196761Y-83579704D02*
X145172952Y-83555895D01*
X145172952Y-83555895D02*
X145125333Y-83532085D01*
X145125333Y-83532085D02*
X145006285Y-83532085D01*
X145006285Y-83532085D02*
X144958666Y-83555895D01*
X144958666Y-83555895D02*
X144934857Y-83579704D01*
X144934857Y-83579704D02*
X144911047Y-83627323D01*
X144911047Y-83627323D02*
X144911047Y-83746371D01*
X144911047Y-83746371D02*
X144934857Y-83793990D01*
X144934857Y-83793990D02*
X144958666Y-83817800D01*
X144958666Y-83817800D02*
X145006285Y-83841609D01*
X145006285Y-83841609D02*
X145125333Y-83841609D01*
X145125333Y-83841609D02*
X145172952Y-83817800D01*
X145172952Y-83817800D02*
X145196761Y-83793990D01*
D10*
X134006820Y-132726133D02*
X133530629Y-132392800D01*
X134006820Y-132154705D02*
X133006820Y-132154705D01*
X133006820Y-132154705D02*
X133006820Y-132535657D01*
X133006820Y-132535657D02*
X133054439Y-132630895D01*
X133054439Y-132630895D02*
X133102058Y-132678514D01*
X133102058Y-132678514D02*
X133197296Y-132726133D01*
X133197296Y-132726133D02*
X133340153Y-132726133D01*
X133340153Y-132726133D02*
X133435391Y-132678514D01*
X133435391Y-132678514D02*
X133483010Y-132630895D01*
X133483010Y-132630895D02*
X133530629Y-132535657D01*
X133530629Y-132535657D02*
X133530629Y-132154705D01*
X133006820Y-133059467D02*
X133006820Y-133726133D01*
X133006820Y-133726133D02*
X134006820Y-133297562D01*
X147707332Y-100268104D02*
X147745428Y-100306200D01*
X147745428Y-100306200D02*
X147859713Y-100344295D01*
X147859713Y-100344295D02*
X147935904Y-100344295D01*
X147935904Y-100344295D02*
X148050190Y-100306200D01*
X148050190Y-100306200D02*
X148126380Y-100230009D01*
X148126380Y-100230009D02*
X148164475Y-100153819D01*
X148164475Y-100153819D02*
X148202571Y-100001438D01*
X148202571Y-100001438D02*
X148202571Y-99887152D01*
X148202571Y-99887152D02*
X148164475Y-99734771D01*
X148164475Y-99734771D02*
X148126380Y-99658580D01*
X148126380Y-99658580D02*
X148050190Y-99582390D01*
X148050190Y-99582390D02*
X147935904Y-99544295D01*
X147935904Y-99544295D02*
X147859713Y-99544295D01*
X147859713Y-99544295D02*
X147745428Y-99582390D01*
X147745428Y-99582390D02*
X147707332Y-99620485D01*
X147326380Y-100344295D02*
X147173999Y-100344295D01*
X147173999Y-100344295D02*
X147097809Y-100306200D01*
X147097809Y-100306200D02*
X147059713Y-100268104D01*
X147059713Y-100268104D02*
X146983523Y-100153819D01*
X146983523Y-100153819D02*
X146945428Y-100001438D01*
X146945428Y-100001438D02*
X146945428Y-99696676D01*
X146945428Y-99696676D02*
X146983523Y-99620485D01*
X146983523Y-99620485D02*
X147021618Y-99582390D01*
X147021618Y-99582390D02*
X147097809Y-99544295D01*
X147097809Y-99544295D02*
X147250190Y-99544295D01*
X147250190Y-99544295D02*
X147326380Y-99582390D01*
X147326380Y-99582390D02*
X147364475Y-99620485D01*
X147364475Y-99620485D02*
X147402571Y-99696676D01*
X147402571Y-99696676D02*
X147402571Y-99887152D01*
X147402571Y-99887152D02*
X147364475Y-99963342D01*
X147364475Y-99963342D02*
X147326380Y-100001438D01*
X147326380Y-100001438D02*
X147250190Y-100039533D01*
X147250190Y-100039533D02*
X147097809Y-100039533D01*
X147097809Y-100039533D02*
X147021618Y-100001438D01*
X147021618Y-100001438D02*
X146983523Y-99963342D01*
X146983523Y-99963342D02*
X146945428Y-99887152D01*
X132023295Y-120802476D02*
X132670914Y-120802476D01*
X132670914Y-120802476D02*
X132747104Y-120840571D01*
X132747104Y-120840571D02*
X132785200Y-120878666D01*
X132785200Y-120878666D02*
X132823295Y-120954857D01*
X132823295Y-120954857D02*
X132823295Y-121107238D01*
X132823295Y-121107238D02*
X132785200Y-121183428D01*
X132785200Y-121183428D02*
X132747104Y-121221523D01*
X132747104Y-121221523D02*
X132670914Y-121259619D01*
X132670914Y-121259619D02*
X132023295Y-121259619D01*
X132023295Y-121564380D02*
X132023295Y-122059618D01*
X132023295Y-122059618D02*
X132328057Y-121792952D01*
X132328057Y-121792952D02*
X132328057Y-121907237D01*
X132328057Y-121907237D02*
X132366152Y-121983428D01*
X132366152Y-121983428D02*
X132404247Y-122021523D01*
X132404247Y-122021523D02*
X132480438Y-122059618D01*
X132480438Y-122059618D02*
X132670914Y-122059618D01*
X132670914Y-122059618D02*
X132747104Y-122021523D01*
X132747104Y-122021523D02*
X132785200Y-121983428D01*
X132785200Y-121983428D02*
X132823295Y-121907237D01*
X132823295Y-121907237D02*
X132823295Y-121678666D01*
X132823295Y-121678666D02*
X132785200Y-121602475D01*
X132785200Y-121602475D02*
X132747104Y-121564380D01*
X138614504Y-116630467D02*
X138652600Y-116592371D01*
X138652600Y-116592371D02*
X138690695Y-116478086D01*
X138690695Y-116478086D02*
X138690695Y-116401895D01*
X138690695Y-116401895D02*
X138652600Y-116287609D01*
X138652600Y-116287609D02*
X138576409Y-116211419D01*
X138576409Y-116211419D02*
X138500219Y-116173324D01*
X138500219Y-116173324D02*
X138347838Y-116135228D01*
X138347838Y-116135228D02*
X138233552Y-116135228D01*
X138233552Y-116135228D02*
X138081171Y-116173324D01*
X138081171Y-116173324D02*
X138004980Y-116211419D01*
X138004980Y-116211419D02*
X137928790Y-116287609D01*
X137928790Y-116287609D02*
X137890695Y-116401895D01*
X137890695Y-116401895D02*
X137890695Y-116478086D01*
X137890695Y-116478086D02*
X137928790Y-116592371D01*
X137928790Y-116592371D02*
X137966885Y-116630467D01*
X137890695Y-116897133D02*
X137890695Y-117392371D01*
X137890695Y-117392371D02*
X138195457Y-117125705D01*
X138195457Y-117125705D02*
X138195457Y-117239990D01*
X138195457Y-117239990D02*
X138233552Y-117316181D01*
X138233552Y-117316181D02*
X138271647Y-117354276D01*
X138271647Y-117354276D02*
X138347838Y-117392371D01*
X138347838Y-117392371D02*
X138538314Y-117392371D01*
X138538314Y-117392371D02*
X138614504Y-117354276D01*
X138614504Y-117354276D02*
X138652600Y-117316181D01*
X138652600Y-117316181D02*
X138690695Y-117239990D01*
X138690695Y-117239990D02*
X138690695Y-117011419D01*
X138690695Y-117011419D02*
X138652600Y-116935228D01*
X138652600Y-116935228D02*
X138614504Y-116897133D01*
X156069315Y-65940216D02*
X156736289Y-65940216D01*
X156736289Y-65940216D02*
X156736289Y-64539570D01*
X155669131Y-65873519D02*
X155469039Y-65940216D01*
X155469039Y-65940216D02*
X155135551Y-65940216D01*
X155135551Y-65940216D02*
X155002157Y-65873519D01*
X155002157Y-65873519D02*
X154935459Y-65806821D01*
X154935459Y-65806821D02*
X154868762Y-65673426D01*
X154868762Y-65673426D02*
X154868762Y-65540031D01*
X154868762Y-65540031D02*
X154935459Y-65406637D01*
X154935459Y-65406637D02*
X155002157Y-65339939D01*
X155002157Y-65339939D02*
X155135551Y-65273242D01*
X155135551Y-65273242D02*
X155402341Y-65206544D01*
X155402341Y-65206544D02*
X155535736Y-65139847D01*
X155535736Y-65139847D02*
X155602433Y-65073149D01*
X155602433Y-65073149D02*
X155669131Y-64939755D01*
X155669131Y-64939755D02*
X155669131Y-64806360D01*
X155669131Y-64806360D02*
X155602433Y-64672965D01*
X155602433Y-64672965D02*
X155535736Y-64606267D01*
X155535736Y-64606267D02*
X155402341Y-64539570D01*
X155402341Y-64539570D02*
X155068854Y-64539570D01*
X155068854Y-64539570D02*
X154868762Y-64606267D01*
X154335182Y-64672965D02*
X154268484Y-64606267D01*
X154268484Y-64606267D02*
X154135090Y-64539570D01*
X154135090Y-64539570D02*
X153801602Y-64539570D01*
X153801602Y-64539570D02*
X153668208Y-64606267D01*
X153668208Y-64606267D02*
X153601510Y-64672965D01*
X153601510Y-64672965D02*
X153534813Y-64806360D01*
X153534813Y-64806360D02*
X153534813Y-64939755D01*
X153534813Y-64939755D02*
X153601510Y-65139847D01*
X153601510Y-65139847D02*
X154401879Y-65940216D01*
X154401879Y-65940216D02*
X153534813Y-65940216D01*
X150625876Y-82722818D02*
X151143971Y-82722818D01*
X151143971Y-82722818D02*
X151204923Y-82753295D01*
X151204923Y-82753295D02*
X151235400Y-82783771D01*
X151235400Y-82783771D02*
X151265876Y-82844723D01*
X151265876Y-82844723D02*
X151265876Y-82966628D01*
X151265876Y-82966628D02*
X151235400Y-83027580D01*
X151235400Y-83027580D02*
X151204923Y-83058057D01*
X151204923Y-83058057D02*
X151143971Y-83088533D01*
X151143971Y-83088533D02*
X150625876Y-83088533D01*
X151265876Y-83728533D02*
X151265876Y-83362818D01*
X151265876Y-83545675D02*
X150625876Y-83545675D01*
X150625876Y-83545675D02*
X150717304Y-83484723D01*
X150717304Y-83484723D02*
X150778257Y-83423771D01*
X150778257Y-83423771D02*
X150808733Y-83362818D01*
X150686828Y-83972342D02*
X150656352Y-84002818D01*
X150656352Y-84002818D02*
X150625876Y-84063771D01*
X150625876Y-84063771D02*
X150625876Y-84216152D01*
X150625876Y-84216152D02*
X150656352Y-84277104D01*
X150656352Y-84277104D02*
X150686828Y-84307580D01*
X150686828Y-84307580D02*
X150747780Y-84338057D01*
X150747780Y-84338057D02*
X150808733Y-84338057D01*
X150808733Y-84338057D02*
X150900161Y-84307580D01*
X150900161Y-84307580D02*
X151265876Y-83941866D01*
X151265876Y-83941866D02*
X151265876Y-84338057D01*
X135363304Y-109975667D02*
X135401400Y-109937571D01*
X135401400Y-109937571D02*
X135439495Y-109823286D01*
X135439495Y-109823286D02*
X135439495Y-109747095D01*
X135439495Y-109747095D02*
X135401400Y-109632809D01*
X135401400Y-109632809D02*
X135325209Y-109556619D01*
X135325209Y-109556619D02*
X135249019Y-109518524D01*
X135249019Y-109518524D02*
X135096638Y-109480428D01*
X135096638Y-109480428D02*
X134982352Y-109480428D01*
X134982352Y-109480428D02*
X134829971Y-109518524D01*
X134829971Y-109518524D02*
X134753780Y-109556619D01*
X134753780Y-109556619D02*
X134677590Y-109632809D01*
X134677590Y-109632809D02*
X134639495Y-109747095D01*
X134639495Y-109747095D02*
X134639495Y-109823286D01*
X134639495Y-109823286D02*
X134677590Y-109937571D01*
X134677590Y-109937571D02*
X134715685Y-109975667D01*
X134906161Y-110661381D02*
X135439495Y-110661381D01*
X134601400Y-110470905D02*
X135172828Y-110280428D01*
X135172828Y-110280428D02*
X135172828Y-110775667D01*
X154692285Y-133890104D02*
X154730381Y-133928200D01*
X154730381Y-133928200D02*
X154844666Y-133966295D01*
X154844666Y-133966295D02*
X154920857Y-133966295D01*
X154920857Y-133966295D02*
X155035143Y-133928200D01*
X155035143Y-133928200D02*
X155111333Y-133852009D01*
X155111333Y-133852009D02*
X155149428Y-133775819D01*
X155149428Y-133775819D02*
X155187524Y-133623438D01*
X155187524Y-133623438D02*
X155187524Y-133509152D01*
X155187524Y-133509152D02*
X155149428Y-133356771D01*
X155149428Y-133356771D02*
X155111333Y-133280580D01*
X155111333Y-133280580D02*
X155035143Y-133204390D01*
X155035143Y-133204390D02*
X154920857Y-133166295D01*
X154920857Y-133166295D02*
X154844666Y-133166295D01*
X154844666Y-133166295D02*
X154730381Y-133204390D01*
X154730381Y-133204390D02*
X154692285Y-133242485D01*
X154387524Y-133242485D02*
X154349428Y-133204390D01*
X154349428Y-133204390D02*
X154273238Y-133166295D01*
X154273238Y-133166295D02*
X154082762Y-133166295D01*
X154082762Y-133166295D02*
X154006571Y-133204390D01*
X154006571Y-133204390D02*
X153968476Y-133242485D01*
X153968476Y-133242485D02*
X153930381Y-133318676D01*
X153930381Y-133318676D02*
X153930381Y-133394866D01*
X153930381Y-133394866D02*
X153968476Y-133509152D01*
X153968476Y-133509152D02*
X154425619Y-133966295D01*
X154425619Y-133966295D02*
X153930381Y-133966295D01*
X153244666Y-133432961D02*
X153244666Y-133966295D01*
X153435142Y-133128200D02*
X153625619Y-133699628D01*
X153625619Y-133699628D02*
X153130380Y-133699628D01*
X134016409Y-71421666D02*
X134016409Y-71088333D01*
X134540219Y-71088333D02*
X133540219Y-71088333D01*
X133540219Y-71088333D02*
X133540219Y-71564523D01*
X134540219Y-72469285D02*
X134540219Y-71897857D01*
X134540219Y-72183571D02*
X133540219Y-72183571D01*
X133540219Y-72183571D02*
X133683076Y-72088333D01*
X133683076Y-72088333D02*
X133778314Y-71993095D01*
X133778314Y-71993095D02*
X133825933Y-71897857D01*
X158170514Y-89138028D02*
X158199086Y-89166600D01*
X158199086Y-89166600D02*
X158284800Y-89195171D01*
X158284800Y-89195171D02*
X158341943Y-89195171D01*
X158341943Y-89195171D02*
X158427657Y-89166600D01*
X158427657Y-89166600D02*
X158484800Y-89109457D01*
X158484800Y-89109457D02*
X158513371Y-89052314D01*
X158513371Y-89052314D02*
X158541943Y-88938028D01*
X158541943Y-88938028D02*
X158541943Y-88852314D01*
X158541943Y-88852314D02*
X158513371Y-88738028D01*
X158513371Y-88738028D02*
X158484800Y-88680885D01*
X158484800Y-88680885D02*
X158427657Y-88623742D01*
X158427657Y-88623742D02*
X158341943Y-88595171D01*
X158341943Y-88595171D02*
X158284800Y-88595171D01*
X158284800Y-88595171D02*
X158199086Y-88623742D01*
X158199086Y-88623742D02*
X158170514Y-88652314D01*
X157656229Y-88795171D02*
X157656229Y-89195171D01*
X157799086Y-88566600D02*
X157941943Y-88995171D01*
X157941943Y-88995171D02*
X157570514Y-88995171D01*
X157027657Y-89195171D02*
X157370514Y-89195171D01*
X157199085Y-89195171D02*
X157199085Y-88595171D01*
X157199085Y-88595171D02*
X157256228Y-88680885D01*
X157256228Y-88680885D02*
X157313371Y-88738028D01*
X157313371Y-88738028D02*
X157370514Y-88766600D01*
X138648094Y-86938819D02*
X138648094Y-87748342D01*
X138648094Y-87748342D02*
X138600475Y-87843580D01*
X138600475Y-87843580D02*
X138552856Y-87891200D01*
X138552856Y-87891200D02*
X138457618Y-87938819D01*
X138457618Y-87938819D02*
X138267142Y-87938819D01*
X138267142Y-87938819D02*
X138171904Y-87891200D01*
X138171904Y-87891200D02*
X138124285Y-87843580D01*
X138124285Y-87843580D02*
X138076666Y-87748342D01*
X138076666Y-87748342D02*
X138076666Y-86938819D01*
X137076666Y-87938819D02*
X137648094Y-87938819D01*
X137362380Y-87938819D02*
X137362380Y-86938819D01*
X137362380Y-86938819D02*
X137457618Y-87081676D01*
X137457618Y-87081676D02*
X137552856Y-87176914D01*
X137552856Y-87176914D02*
X137648094Y-87224533D01*
X136743332Y-86938819D02*
X136124285Y-86938819D01*
X136124285Y-86938819D02*
X136457618Y-87319771D01*
X136457618Y-87319771D02*
X136314761Y-87319771D01*
X136314761Y-87319771D02*
X136219523Y-87367390D01*
X136219523Y-87367390D02*
X136171904Y-87415009D01*
X136171904Y-87415009D02*
X136124285Y-87510247D01*
X136124285Y-87510247D02*
X136124285Y-87748342D01*
X136124285Y-87748342D02*
X136171904Y-87843580D01*
X136171904Y-87843580D02*
X136219523Y-87891200D01*
X136219523Y-87891200D02*
X136314761Y-87938819D01*
X136314761Y-87938819D02*
X136600475Y-87938819D01*
X136600475Y-87938819D02*
X136695713Y-87891200D01*
X136695713Y-87891200D02*
X136743332Y-87843580D01*
X143973485Y-113980103D02*
X144011581Y-114018199D01*
X144011581Y-114018199D02*
X144125866Y-114056294D01*
X144125866Y-114056294D02*
X144202057Y-114056294D01*
X144202057Y-114056294D02*
X144316343Y-114018199D01*
X144316343Y-114018199D02*
X144392533Y-113942008D01*
X144392533Y-113942008D02*
X144430628Y-113865818D01*
X144430628Y-113865818D02*
X144468724Y-113713437D01*
X144468724Y-113713437D02*
X144468724Y-113599151D01*
X144468724Y-113599151D02*
X144430628Y-113446770D01*
X144430628Y-113446770D02*
X144392533Y-113370579D01*
X144392533Y-113370579D02*
X144316343Y-113294389D01*
X144316343Y-113294389D02*
X144202057Y-113256294D01*
X144202057Y-113256294D02*
X144125866Y-113256294D01*
X144125866Y-113256294D02*
X144011581Y-113294389D01*
X144011581Y-113294389D02*
X143973485Y-113332484D01*
X143211581Y-114056294D02*
X143668724Y-114056294D01*
X143440152Y-114056294D02*
X143440152Y-113256294D01*
X143440152Y-113256294D02*
X143516343Y-113370579D01*
X143516343Y-113370579D02*
X143592533Y-113446770D01*
X143592533Y-113446770D02*
X143668724Y-113484865D01*
X142487771Y-113256294D02*
X142868723Y-113256294D01*
X142868723Y-113256294D02*
X142906819Y-113637246D01*
X142906819Y-113637246D02*
X142868723Y-113599151D01*
X142868723Y-113599151D02*
X142792533Y-113561056D01*
X142792533Y-113561056D02*
X142602057Y-113561056D01*
X142602057Y-113561056D02*
X142525866Y-113599151D01*
X142525866Y-113599151D02*
X142487771Y-113637246D01*
X142487771Y-113637246D02*
X142449676Y-113713437D01*
X142449676Y-113713437D02*
X142449676Y-113903913D01*
X142449676Y-113903913D02*
X142487771Y-113980103D01*
X142487771Y-113980103D02*
X142525866Y-114018199D01*
X142525866Y-114018199D02*
X142602057Y-114056294D01*
X142602057Y-114056294D02*
X142792533Y-114056294D01*
X142792533Y-114056294D02*
X142868723Y-114018199D01*
X142868723Y-114018199D02*
X142906819Y-113980103D01*
X138448990Y-115396228D02*
X138448990Y-115872419D01*
X138782323Y-114872419D02*
X138448990Y-115396228D01*
X138448990Y-115396228D02*
X138115657Y-114872419D01*
X137258514Y-115872419D02*
X137829942Y-115872419D01*
X137544228Y-115872419D02*
X137544228Y-114872419D01*
X137544228Y-114872419D02*
X137639466Y-115015276D01*
X137639466Y-115015276D02*
X137734704Y-115110514D01*
X137734704Y-115110514D02*
X137829942Y-115158133D01*
X135292780Y-115587542D02*
X135340400Y-115539923D01*
X135340400Y-115539923D02*
X135388019Y-115397066D01*
X135388019Y-115397066D02*
X135388019Y-115301828D01*
X135388019Y-115301828D02*
X135340400Y-115158971D01*
X135340400Y-115158971D02*
X135245161Y-115063733D01*
X135245161Y-115063733D02*
X135149923Y-115016114D01*
X135149923Y-115016114D02*
X134959447Y-114968495D01*
X134959447Y-114968495D02*
X134816590Y-114968495D01*
X134816590Y-114968495D02*
X134626114Y-115016114D01*
X134626114Y-115016114D02*
X134530876Y-115063733D01*
X134530876Y-115063733D02*
X134435638Y-115158971D01*
X134435638Y-115158971D02*
X134388019Y-115301828D01*
X134388019Y-115301828D02*
X134388019Y-115397066D01*
X134388019Y-115397066D02*
X134435638Y-115539923D01*
X134435638Y-115539923D02*
X134483257Y-115587542D01*
X135388019Y-116539923D02*
X135388019Y-115968495D01*
X135388019Y-116254209D02*
X134388019Y-116254209D01*
X134388019Y-116254209D02*
X134530876Y-116158971D01*
X134530876Y-116158971D02*
X134626114Y-116063733D01*
X134626114Y-116063733D02*
X134673733Y-115968495D01*
X134388019Y-117158971D02*
X134388019Y-117254209D01*
X134388019Y-117254209D02*
X134435638Y-117349447D01*
X134435638Y-117349447D02*
X134483257Y-117397066D01*
X134483257Y-117397066D02*
X134578495Y-117444685D01*
X134578495Y-117444685D02*
X134768971Y-117492304D01*
X134768971Y-117492304D02*
X135007066Y-117492304D01*
X135007066Y-117492304D02*
X135197542Y-117444685D01*
X135197542Y-117444685D02*
X135292780Y-117397066D01*
X135292780Y-117397066D02*
X135340400Y-117349447D01*
X135340400Y-117349447D02*
X135388019Y-117254209D01*
X135388019Y-117254209D02*
X135388019Y-117158971D01*
X135388019Y-117158971D02*
X135340400Y-117063733D01*
X135340400Y-117063733D02*
X135292780Y-117016114D01*
X135292780Y-117016114D02*
X135197542Y-116968495D01*
X135197542Y-116968495D02*
X135007066Y-116920876D01*
X135007066Y-116920876D02*
X134768971Y-116920876D01*
X134768971Y-116920876D02*
X134578495Y-116968495D01*
X134578495Y-116968495D02*
X134483257Y-117016114D01*
X134483257Y-117016114D02*
X134435638Y-117063733D01*
X134435638Y-117063733D02*
X134388019Y-117158971D01*
X142630428Y-121407285D02*
X142659000Y-121378713D01*
X142659000Y-121378713D02*
X142687571Y-121292999D01*
X142687571Y-121292999D02*
X142687571Y-121235856D01*
X142687571Y-121235856D02*
X142659000Y-121150142D01*
X142659000Y-121150142D02*
X142601857Y-121092999D01*
X142601857Y-121092999D02*
X142544714Y-121064428D01*
X142544714Y-121064428D02*
X142430428Y-121035856D01*
X142430428Y-121035856D02*
X142344714Y-121035856D01*
X142344714Y-121035856D02*
X142230428Y-121064428D01*
X142230428Y-121064428D02*
X142173285Y-121092999D01*
X142173285Y-121092999D02*
X142116142Y-121150142D01*
X142116142Y-121150142D02*
X142087571Y-121235856D01*
X142087571Y-121235856D02*
X142087571Y-121292999D01*
X142087571Y-121292999D02*
X142116142Y-121378713D01*
X142116142Y-121378713D02*
X142144714Y-121407285D01*
X142087571Y-121607285D02*
X142087571Y-121978713D01*
X142087571Y-121978713D02*
X142316142Y-121778713D01*
X142316142Y-121778713D02*
X142316142Y-121864428D01*
X142316142Y-121864428D02*
X142344714Y-121921571D01*
X142344714Y-121921571D02*
X142373285Y-121950142D01*
X142373285Y-121950142D02*
X142430428Y-121978713D01*
X142430428Y-121978713D02*
X142573285Y-121978713D01*
X142573285Y-121978713D02*
X142630428Y-121950142D01*
X142630428Y-121950142D02*
X142659000Y-121921571D01*
X142659000Y-121921571D02*
X142687571Y-121864428D01*
X142687571Y-121864428D02*
X142687571Y-121692999D01*
X142687571Y-121692999D02*
X142659000Y-121635856D01*
X142659000Y-121635856D02*
X142630428Y-121607285D01*
X142344714Y-122321571D02*
X142316142Y-122264428D01*
X142316142Y-122264428D02*
X142287571Y-122235857D01*
X142287571Y-122235857D02*
X142230428Y-122207285D01*
X142230428Y-122207285D02*
X142201857Y-122207285D01*
X142201857Y-122207285D02*
X142144714Y-122235857D01*
X142144714Y-122235857D02*
X142116142Y-122264428D01*
X142116142Y-122264428D02*
X142087571Y-122321571D01*
X142087571Y-122321571D02*
X142087571Y-122435857D01*
X142087571Y-122435857D02*
X142116142Y-122493000D01*
X142116142Y-122493000D02*
X142144714Y-122521571D01*
X142144714Y-122521571D02*
X142201857Y-122550142D01*
X142201857Y-122550142D02*
X142230428Y-122550142D01*
X142230428Y-122550142D02*
X142287571Y-122521571D01*
X142287571Y-122521571D02*
X142316142Y-122493000D01*
X142316142Y-122493000D02*
X142344714Y-122435857D01*
X142344714Y-122435857D02*
X142344714Y-122321571D01*
X142344714Y-122321571D02*
X142373285Y-122264428D01*
X142373285Y-122264428D02*
X142401857Y-122235857D01*
X142401857Y-122235857D02*
X142459000Y-122207285D01*
X142459000Y-122207285D02*
X142573285Y-122207285D01*
X142573285Y-122207285D02*
X142630428Y-122235857D01*
X142630428Y-122235857D02*
X142659000Y-122264428D01*
X142659000Y-122264428D02*
X142687571Y-122321571D01*
X142687571Y-122321571D02*
X142687571Y-122435857D01*
X142687571Y-122435857D02*
X142659000Y-122493000D01*
X142659000Y-122493000D02*
X142630428Y-122521571D01*
X142630428Y-122521571D02*
X142573285Y-122550142D01*
X142573285Y-122550142D02*
X142459000Y-122550142D01*
X142459000Y-122550142D02*
X142401857Y-122521571D01*
X142401857Y-122521571D02*
X142373285Y-122493000D01*
X142373285Y-122493000D02*
X142344714Y-122435857D01*
X139872295Y-140703333D02*
X140443723Y-140703333D01*
X140443723Y-140703333D02*
X140558009Y-140665238D01*
X140558009Y-140665238D02*
X140634200Y-140589047D01*
X140634200Y-140589047D02*
X140672295Y-140474762D01*
X140672295Y-140474762D02*
X140672295Y-140398571D01*
X140138961Y-141427143D02*
X140672295Y-141427143D01*
X139834200Y-141236667D02*
X140405628Y-141046190D01*
X140405628Y-141046190D02*
X140405628Y-141541429D01*
D11*
X150037190Y-79688571D02*
X150061000Y-79664762D01*
X150061000Y-79664762D02*
X150084809Y-79593333D01*
X150084809Y-79593333D02*
X150084809Y-79545714D01*
X150084809Y-79545714D02*
X150061000Y-79474286D01*
X150061000Y-79474286D02*
X150013380Y-79426667D01*
X150013380Y-79426667D02*
X149965761Y-79402857D01*
X149965761Y-79402857D02*
X149870523Y-79379048D01*
X149870523Y-79379048D02*
X149799095Y-79379048D01*
X149799095Y-79379048D02*
X149703857Y-79402857D01*
X149703857Y-79402857D02*
X149656238Y-79426667D01*
X149656238Y-79426667D02*
X149608619Y-79474286D01*
X149608619Y-79474286D02*
X149584809Y-79545714D01*
X149584809Y-79545714D02*
X149584809Y-79593333D01*
X149584809Y-79593333D02*
X149608619Y-79664762D01*
X149608619Y-79664762D02*
X149632428Y-79688571D01*
X149751476Y-80117143D02*
X150084809Y-80117143D01*
X149561000Y-79998095D02*
X149918142Y-79879048D01*
X149918142Y-79879048D02*
X149918142Y-80188571D01*
X150084809Y-80402857D02*
X150084809Y-80498095D01*
X150084809Y-80498095D02*
X150061000Y-80545714D01*
X150061000Y-80545714D02*
X150037190Y-80569523D01*
X150037190Y-80569523D02*
X149965761Y-80617142D01*
X149965761Y-80617142D02*
X149870523Y-80640952D01*
X149870523Y-80640952D02*
X149680047Y-80640952D01*
X149680047Y-80640952D02*
X149632428Y-80617142D01*
X149632428Y-80617142D02*
X149608619Y-80593333D01*
X149608619Y-80593333D02*
X149584809Y-80545714D01*
X149584809Y-80545714D02*
X149584809Y-80450476D01*
X149584809Y-80450476D02*
X149608619Y-80402857D01*
X149608619Y-80402857D02*
X149632428Y-80379047D01*
X149632428Y-80379047D02*
X149680047Y-80355238D01*
X149680047Y-80355238D02*
X149799095Y-80355238D01*
X149799095Y-80355238D02*
X149846714Y-80379047D01*
X149846714Y-80379047D02*
X149870523Y-80402857D01*
X149870523Y-80402857D02*
X149894333Y-80450476D01*
X149894333Y-80450476D02*
X149894333Y-80545714D01*
X149894333Y-80545714D02*
X149870523Y-80593333D01*
X149870523Y-80593333D02*
X149846714Y-80617142D01*
X149846714Y-80617142D02*
X149799095Y-80640952D01*
D10*
X146389628Y-91181285D02*
X146418200Y-91152713D01*
X146418200Y-91152713D02*
X146446771Y-91066999D01*
X146446771Y-91066999D02*
X146446771Y-91009856D01*
X146446771Y-91009856D02*
X146418200Y-90924142D01*
X146418200Y-90924142D02*
X146361057Y-90866999D01*
X146361057Y-90866999D02*
X146303914Y-90838428D01*
X146303914Y-90838428D02*
X146189628Y-90809856D01*
X146189628Y-90809856D02*
X146103914Y-90809856D01*
X146103914Y-90809856D02*
X145989628Y-90838428D01*
X145989628Y-90838428D02*
X145932485Y-90866999D01*
X145932485Y-90866999D02*
X145875342Y-90924142D01*
X145875342Y-90924142D02*
X145846771Y-91009856D01*
X145846771Y-91009856D02*
X145846771Y-91066999D01*
X145846771Y-91066999D02*
X145875342Y-91152713D01*
X145875342Y-91152713D02*
X145903914Y-91181285D01*
X145846771Y-91724142D02*
X145846771Y-91438428D01*
X145846771Y-91438428D02*
X146132485Y-91409856D01*
X146132485Y-91409856D02*
X146103914Y-91438428D01*
X146103914Y-91438428D02*
X146075342Y-91495571D01*
X146075342Y-91495571D02*
X146075342Y-91638428D01*
X146075342Y-91638428D02*
X146103914Y-91695571D01*
X146103914Y-91695571D02*
X146132485Y-91724142D01*
X146132485Y-91724142D02*
X146189628Y-91752713D01*
X146189628Y-91752713D02*
X146332485Y-91752713D01*
X146332485Y-91752713D02*
X146389628Y-91724142D01*
X146389628Y-91724142D02*
X146418200Y-91695571D01*
X146418200Y-91695571D02*
X146446771Y-91638428D01*
X146446771Y-91638428D02*
X146446771Y-91495571D01*
X146446771Y-91495571D02*
X146418200Y-91438428D01*
X146418200Y-91438428D02*
X146389628Y-91409856D01*
X145903914Y-91981285D02*
X145875342Y-92009857D01*
X145875342Y-92009857D02*
X145846771Y-92067000D01*
X145846771Y-92067000D02*
X145846771Y-92209857D01*
X145846771Y-92209857D02*
X145875342Y-92267000D01*
X145875342Y-92267000D02*
X145903914Y-92295571D01*
X145903914Y-92295571D02*
X145961057Y-92324142D01*
X145961057Y-92324142D02*
X146018200Y-92324142D01*
X146018200Y-92324142D02*
X146103914Y-92295571D01*
X146103914Y-92295571D02*
X146446771Y-91952714D01*
X146446771Y-91952714D02*
X146446771Y-92324142D01*
X146254694Y-89645019D02*
X146254694Y-88645019D01*
X146254694Y-88645019D02*
X146016599Y-88645019D01*
X146016599Y-88645019D02*
X145873742Y-88692638D01*
X145873742Y-88692638D02*
X145778504Y-88787876D01*
X145778504Y-88787876D02*
X145730885Y-88883114D01*
X145730885Y-88883114D02*
X145683266Y-89073590D01*
X145683266Y-89073590D02*
X145683266Y-89216447D01*
X145683266Y-89216447D02*
X145730885Y-89406923D01*
X145730885Y-89406923D02*
X145778504Y-89502161D01*
X145778504Y-89502161D02*
X145873742Y-89597400D01*
X145873742Y-89597400D02*
X146016599Y-89645019D01*
X146016599Y-89645019D02*
X146254694Y-89645019D01*
X144826123Y-88645019D02*
X145016599Y-88645019D01*
X145016599Y-88645019D02*
X145111837Y-88692638D01*
X145111837Y-88692638D02*
X145159456Y-88740257D01*
X145159456Y-88740257D02*
X145254694Y-88883114D01*
X145254694Y-88883114D02*
X145302313Y-89073590D01*
X145302313Y-89073590D02*
X145302313Y-89454542D01*
X145302313Y-89454542D02*
X145254694Y-89549780D01*
X145254694Y-89549780D02*
X145207075Y-89597400D01*
X145207075Y-89597400D02*
X145111837Y-89645019D01*
X145111837Y-89645019D02*
X144921361Y-89645019D01*
X144921361Y-89645019D02*
X144826123Y-89597400D01*
X144826123Y-89597400D02*
X144778504Y-89549780D01*
X144778504Y-89549780D02*
X144730885Y-89454542D01*
X144730885Y-89454542D02*
X144730885Y-89216447D01*
X144730885Y-89216447D02*
X144778504Y-89121209D01*
X144778504Y-89121209D02*
X144826123Y-89073590D01*
X144826123Y-89073590D02*
X144921361Y-89025971D01*
X144921361Y-89025971D02*
X145111837Y-89025971D01*
X145111837Y-89025971D02*
X145207075Y-89073590D01*
X145207075Y-89073590D02*
X145254694Y-89121209D01*
X145254694Y-89121209D02*
X145302313Y-89216447D01*
X145537580Y-115463142D02*
X145585200Y-115415523D01*
X145585200Y-115415523D02*
X145632819Y-115272666D01*
X145632819Y-115272666D02*
X145632819Y-115177428D01*
X145632819Y-115177428D02*
X145585200Y-115034571D01*
X145585200Y-115034571D02*
X145489961Y-114939333D01*
X145489961Y-114939333D02*
X145394723Y-114891714D01*
X145394723Y-114891714D02*
X145204247Y-114844095D01*
X145204247Y-114844095D02*
X145061390Y-114844095D01*
X145061390Y-114844095D02*
X144870914Y-114891714D01*
X144870914Y-114891714D02*
X144775676Y-114939333D01*
X144775676Y-114939333D02*
X144680438Y-115034571D01*
X144680438Y-115034571D02*
X144632819Y-115177428D01*
X144632819Y-115177428D02*
X144632819Y-115272666D01*
X144632819Y-115272666D02*
X144680438Y-115415523D01*
X144680438Y-115415523D02*
X144728057Y-115463142D01*
X145632819Y-116415523D02*
X145632819Y-115844095D01*
X145632819Y-116129809D02*
X144632819Y-116129809D01*
X144632819Y-116129809D02*
X144775676Y-116034571D01*
X144775676Y-116034571D02*
X144870914Y-115939333D01*
X144870914Y-115939333D02*
X144918533Y-115844095D01*
X144632819Y-116748857D02*
X144632819Y-117367904D01*
X144632819Y-117367904D02*
X145013771Y-117034571D01*
X145013771Y-117034571D02*
X145013771Y-117177428D01*
X145013771Y-117177428D02*
X145061390Y-117272666D01*
X145061390Y-117272666D02*
X145109009Y-117320285D01*
X145109009Y-117320285D02*
X145204247Y-117367904D01*
X145204247Y-117367904D02*
X145442342Y-117367904D01*
X145442342Y-117367904D02*
X145537580Y-117320285D01*
X145537580Y-117320285D02*
X145585200Y-117272666D01*
X145585200Y-117272666D02*
X145632819Y-117177428D01*
X145632819Y-117177428D02*
X145632819Y-116891714D01*
X145632819Y-116891714D02*
X145585200Y-116796476D01*
X145585200Y-116796476D02*
X145537580Y-116748857D01*
D11*
X135693933Y-111556190D02*
X135717742Y-111580000D01*
X135717742Y-111580000D02*
X135789171Y-111603809D01*
X135789171Y-111603809D02*
X135836790Y-111603809D01*
X135836790Y-111603809D02*
X135908218Y-111580000D01*
X135908218Y-111580000D02*
X135955837Y-111532380D01*
X135955837Y-111532380D02*
X135979647Y-111484761D01*
X135979647Y-111484761D02*
X136003456Y-111389523D01*
X136003456Y-111389523D02*
X136003456Y-111318095D01*
X136003456Y-111318095D02*
X135979647Y-111222857D01*
X135979647Y-111222857D02*
X135955837Y-111175238D01*
X135955837Y-111175238D02*
X135908218Y-111127619D01*
X135908218Y-111127619D02*
X135836790Y-111103809D01*
X135836790Y-111103809D02*
X135789171Y-111103809D01*
X135789171Y-111103809D02*
X135717742Y-111127619D01*
X135717742Y-111127619D02*
X135693933Y-111151428D01*
X135217742Y-111603809D02*
X135503456Y-111603809D01*
X135360599Y-111603809D02*
X135360599Y-111103809D01*
X135360599Y-111103809D02*
X135408218Y-111175238D01*
X135408218Y-111175238D02*
X135455837Y-111222857D01*
X135455837Y-111222857D02*
X135503456Y-111246666D01*
D10*
X129004999Y-125364771D02*
X129204999Y-125079057D01*
X129347856Y-125364771D02*
X129347856Y-124764771D01*
X129347856Y-124764771D02*
X129119285Y-124764771D01*
X129119285Y-124764771D02*
X129062142Y-124793342D01*
X129062142Y-124793342D02*
X129033571Y-124821914D01*
X129033571Y-124821914D02*
X129004999Y-124879057D01*
X129004999Y-124879057D02*
X129004999Y-124964771D01*
X129004999Y-124964771D02*
X129033571Y-125021914D01*
X129033571Y-125021914D02*
X129062142Y-125050485D01*
X129062142Y-125050485D02*
X129119285Y-125079057D01*
X129119285Y-125079057D02*
X129347856Y-125079057D01*
X128804999Y-124764771D02*
X128433571Y-124764771D01*
X128433571Y-124764771D02*
X128633571Y-124993342D01*
X128633571Y-124993342D02*
X128547856Y-124993342D01*
X128547856Y-124993342D02*
X128490714Y-125021914D01*
X128490714Y-125021914D02*
X128462142Y-125050485D01*
X128462142Y-125050485D02*
X128433571Y-125107628D01*
X128433571Y-125107628D02*
X128433571Y-125250485D01*
X128433571Y-125250485D02*
X128462142Y-125307628D01*
X128462142Y-125307628D02*
X128490714Y-125336200D01*
X128490714Y-125336200D02*
X128547856Y-125364771D01*
X128547856Y-125364771D02*
X128719285Y-125364771D01*
X128719285Y-125364771D02*
X128776428Y-125336200D01*
X128776428Y-125336200D02*
X128804999Y-125307628D01*
X139096685Y-102651703D02*
X139134781Y-102689799D01*
X139134781Y-102689799D02*
X139249066Y-102727894D01*
X139249066Y-102727894D02*
X139325257Y-102727894D01*
X139325257Y-102727894D02*
X139439543Y-102689799D01*
X139439543Y-102689799D02*
X139515733Y-102613608D01*
X139515733Y-102613608D02*
X139553828Y-102537418D01*
X139553828Y-102537418D02*
X139591924Y-102385037D01*
X139591924Y-102385037D02*
X139591924Y-102270751D01*
X139591924Y-102270751D02*
X139553828Y-102118370D01*
X139553828Y-102118370D02*
X139515733Y-102042179D01*
X139515733Y-102042179D02*
X139439543Y-101965989D01*
X139439543Y-101965989D02*
X139325257Y-101927894D01*
X139325257Y-101927894D02*
X139249066Y-101927894D01*
X139249066Y-101927894D02*
X139134781Y-101965989D01*
X139134781Y-101965989D02*
X139096685Y-102004084D01*
X138334781Y-102727894D02*
X138791924Y-102727894D01*
X138563352Y-102727894D02*
X138563352Y-101927894D01*
X138563352Y-101927894D02*
X138639543Y-102042179D01*
X138639543Y-102042179D02*
X138715733Y-102118370D01*
X138715733Y-102118370D02*
X138791924Y-102156465D01*
X137649066Y-102194560D02*
X137649066Y-102727894D01*
X137839542Y-101889799D02*
X138030019Y-102461227D01*
X138030019Y-102461227D02*
X137534780Y-102461227D01*
X147743715Y-97130628D02*
X147772287Y-97159200D01*
X147772287Y-97159200D02*
X147858001Y-97187771D01*
X147858001Y-97187771D02*
X147915144Y-97187771D01*
X147915144Y-97187771D02*
X148000858Y-97159200D01*
X148000858Y-97159200D02*
X148058001Y-97102057D01*
X148058001Y-97102057D02*
X148086572Y-97044914D01*
X148086572Y-97044914D02*
X148115144Y-96930628D01*
X148115144Y-96930628D02*
X148115144Y-96844914D01*
X148115144Y-96844914D02*
X148086572Y-96730628D01*
X148086572Y-96730628D02*
X148058001Y-96673485D01*
X148058001Y-96673485D02*
X148000858Y-96616342D01*
X148000858Y-96616342D02*
X147915144Y-96587771D01*
X147915144Y-96587771D02*
X147858001Y-96587771D01*
X147858001Y-96587771D02*
X147772287Y-96616342D01*
X147772287Y-96616342D02*
X147743715Y-96644914D01*
X147200858Y-96587771D02*
X147486572Y-96587771D01*
X147486572Y-96587771D02*
X147515144Y-96873485D01*
X147515144Y-96873485D02*
X147486572Y-96844914D01*
X147486572Y-96844914D02*
X147429430Y-96816342D01*
X147429430Y-96816342D02*
X147286572Y-96816342D01*
X147286572Y-96816342D02*
X147229430Y-96844914D01*
X147229430Y-96844914D02*
X147200858Y-96873485D01*
X147200858Y-96873485D02*
X147172287Y-96930628D01*
X147172287Y-96930628D02*
X147172287Y-97073485D01*
X147172287Y-97073485D02*
X147200858Y-97130628D01*
X147200858Y-97130628D02*
X147229430Y-97159200D01*
X147229430Y-97159200D02*
X147286572Y-97187771D01*
X147286572Y-97187771D02*
X147429430Y-97187771D01*
X147429430Y-97187771D02*
X147486572Y-97159200D01*
X147486572Y-97159200D02*
X147515144Y-97130628D01*
X146600858Y-97187771D02*
X146943715Y-97187771D01*
X146772286Y-97187771D02*
X146772286Y-96587771D01*
X146772286Y-96587771D02*
X146829429Y-96673485D01*
X146829429Y-96673485D02*
X146886572Y-96730628D01*
X146886572Y-96730628D02*
X146943715Y-96759200D01*
X137423428Y-121280285D02*
X137452000Y-121251713D01*
X137452000Y-121251713D02*
X137480571Y-121165999D01*
X137480571Y-121165999D02*
X137480571Y-121108856D01*
X137480571Y-121108856D02*
X137452000Y-121023142D01*
X137452000Y-121023142D02*
X137394857Y-120965999D01*
X137394857Y-120965999D02*
X137337714Y-120937428D01*
X137337714Y-120937428D02*
X137223428Y-120908856D01*
X137223428Y-120908856D02*
X137137714Y-120908856D01*
X137137714Y-120908856D02*
X137023428Y-120937428D01*
X137023428Y-120937428D02*
X136966285Y-120965999D01*
X136966285Y-120965999D02*
X136909142Y-121023142D01*
X136909142Y-121023142D02*
X136880571Y-121108856D01*
X136880571Y-121108856D02*
X136880571Y-121165999D01*
X136880571Y-121165999D02*
X136909142Y-121251713D01*
X136909142Y-121251713D02*
X136937714Y-121280285D01*
X136937714Y-121508856D02*
X136909142Y-121537428D01*
X136909142Y-121537428D02*
X136880571Y-121594571D01*
X136880571Y-121594571D02*
X136880571Y-121737428D01*
X136880571Y-121737428D02*
X136909142Y-121794571D01*
X136909142Y-121794571D02*
X136937714Y-121823142D01*
X136937714Y-121823142D02*
X136994857Y-121851713D01*
X136994857Y-121851713D02*
X137052000Y-121851713D01*
X137052000Y-121851713D02*
X137137714Y-121823142D01*
X137137714Y-121823142D02*
X137480571Y-121480285D01*
X137480571Y-121480285D02*
X137480571Y-121851713D01*
X137480571Y-122423142D02*
X137480571Y-122080285D01*
X137480571Y-122251714D02*
X136880571Y-122251714D01*
X136880571Y-122251714D02*
X136966285Y-122194571D01*
X136966285Y-122194571D02*
X137023428Y-122137428D01*
X137023428Y-122137428D02*
X137052000Y-122080285D01*
X143051104Y-100323714D02*
X143089200Y-100285618D01*
X143089200Y-100285618D02*
X143127295Y-100171333D01*
X143127295Y-100171333D02*
X143127295Y-100095142D01*
X143127295Y-100095142D02*
X143089200Y-99980856D01*
X143089200Y-99980856D02*
X143013009Y-99904666D01*
X143013009Y-99904666D02*
X142936819Y-99866571D01*
X142936819Y-99866571D02*
X142784438Y-99828475D01*
X142784438Y-99828475D02*
X142670152Y-99828475D01*
X142670152Y-99828475D02*
X142517771Y-99866571D01*
X142517771Y-99866571D02*
X142441580Y-99904666D01*
X142441580Y-99904666D02*
X142365390Y-99980856D01*
X142365390Y-99980856D02*
X142327295Y-100095142D01*
X142327295Y-100095142D02*
X142327295Y-100171333D01*
X142327295Y-100171333D02*
X142365390Y-100285618D01*
X142365390Y-100285618D02*
X142403485Y-100323714D01*
X143127295Y-101085618D02*
X143127295Y-100628475D01*
X143127295Y-100857047D02*
X142327295Y-100857047D01*
X142327295Y-100857047D02*
X142441580Y-100780856D01*
X142441580Y-100780856D02*
X142517771Y-100704666D01*
X142517771Y-100704666D02*
X142555866Y-100628475D01*
X142403485Y-101390380D02*
X142365390Y-101428476D01*
X142365390Y-101428476D02*
X142327295Y-101504666D01*
X142327295Y-101504666D02*
X142327295Y-101695142D01*
X142327295Y-101695142D02*
X142365390Y-101771333D01*
X142365390Y-101771333D02*
X142403485Y-101809428D01*
X142403485Y-101809428D02*
X142479676Y-101847523D01*
X142479676Y-101847523D02*
X142555866Y-101847523D01*
X142555866Y-101847523D02*
X142670152Y-101809428D01*
X142670152Y-101809428D02*
X143127295Y-101352285D01*
X143127295Y-101352285D02*
X143127295Y-101847523D01*
X157841885Y-82734504D02*
X157879981Y-82772600D01*
X157879981Y-82772600D02*
X157994266Y-82810695D01*
X157994266Y-82810695D02*
X158070457Y-82810695D01*
X158070457Y-82810695D02*
X158184743Y-82772600D01*
X158184743Y-82772600D02*
X158260933Y-82696409D01*
X158260933Y-82696409D02*
X158299028Y-82620219D01*
X158299028Y-82620219D02*
X158337124Y-82467838D01*
X158337124Y-82467838D02*
X158337124Y-82353552D01*
X158337124Y-82353552D02*
X158299028Y-82201171D01*
X158299028Y-82201171D02*
X158260933Y-82124980D01*
X158260933Y-82124980D02*
X158184743Y-82048790D01*
X158184743Y-82048790D02*
X158070457Y-82010695D01*
X158070457Y-82010695D02*
X157994266Y-82010695D01*
X157994266Y-82010695D02*
X157879981Y-82048790D01*
X157879981Y-82048790D02*
X157841885Y-82086885D01*
X157156171Y-82277361D02*
X157156171Y-82810695D01*
X157346647Y-81972600D02*
X157537124Y-82544028D01*
X157537124Y-82544028D02*
X157041885Y-82544028D01*
X156813314Y-82010695D02*
X156318076Y-82010695D01*
X156318076Y-82010695D02*
X156584742Y-82315457D01*
X156584742Y-82315457D02*
X156470457Y-82315457D01*
X156470457Y-82315457D02*
X156394266Y-82353552D01*
X156394266Y-82353552D02*
X156356171Y-82391647D01*
X156356171Y-82391647D02*
X156318076Y-82467838D01*
X156318076Y-82467838D02*
X156318076Y-82658314D01*
X156318076Y-82658314D02*
X156356171Y-82734504D01*
X156356171Y-82734504D02*
X156394266Y-82772600D01*
X156394266Y-82772600D02*
X156470457Y-82810695D01*
X156470457Y-82810695D02*
X156699028Y-82810695D01*
X156699028Y-82810695D02*
X156775219Y-82772600D01*
X156775219Y-82772600D02*
X156813314Y-82734504D01*
X151018005Y-92772720D02*
X151827528Y-92772720D01*
X151827528Y-92772720D02*
X151922766Y-92820339D01*
X151922766Y-92820339D02*
X151970386Y-92867958D01*
X151970386Y-92867958D02*
X152018005Y-92963196D01*
X152018005Y-92963196D02*
X152018005Y-93153672D01*
X152018005Y-93153672D02*
X151970386Y-93248910D01*
X151970386Y-93248910D02*
X151922766Y-93296529D01*
X151922766Y-93296529D02*
X151827528Y-93344148D01*
X151827528Y-93344148D02*
X151018005Y-93344148D01*
X152018005Y-94344148D02*
X152018005Y-93772720D01*
X152018005Y-94058434D02*
X151018005Y-94058434D01*
X151018005Y-94058434D02*
X151160862Y-93963196D01*
X151160862Y-93963196D02*
X151256100Y-93867958D01*
X151256100Y-93867958D02*
X151303719Y-93772720D01*
X151018005Y-94963196D02*
X151018005Y-95058434D01*
X151018005Y-95058434D02*
X151065624Y-95153672D01*
X151065624Y-95153672D02*
X151113243Y-95201291D01*
X151113243Y-95201291D02*
X151208481Y-95248910D01*
X151208481Y-95248910D02*
X151398957Y-95296529D01*
X151398957Y-95296529D02*
X151637052Y-95296529D01*
X151637052Y-95296529D02*
X151827528Y-95248910D01*
X151827528Y-95248910D02*
X151922766Y-95201291D01*
X151922766Y-95201291D02*
X151970386Y-95153672D01*
X151970386Y-95153672D02*
X152018005Y-95058434D01*
X152018005Y-95058434D02*
X152018005Y-94963196D01*
X152018005Y-94963196D02*
X151970386Y-94867958D01*
X151970386Y-94867958D02*
X151922766Y-94820339D01*
X151922766Y-94820339D02*
X151827528Y-94772720D01*
X151827528Y-94772720D02*
X151637052Y-94725101D01*
X151637052Y-94725101D02*
X151398957Y-94725101D01*
X151398957Y-94725101D02*
X151208481Y-94772720D01*
X151208481Y-94772720D02*
X151113243Y-94820339D01*
X151113243Y-94820339D02*
X151065624Y-94867958D01*
X151065624Y-94867958D02*
X151018005Y-94963196D01*
D11*
X141586733Y-116940990D02*
X141610542Y-116964800D01*
X141610542Y-116964800D02*
X141681971Y-116988609D01*
X141681971Y-116988609D02*
X141729590Y-116988609D01*
X141729590Y-116988609D02*
X141801018Y-116964800D01*
X141801018Y-116964800D02*
X141848637Y-116917180D01*
X141848637Y-116917180D02*
X141872447Y-116869561D01*
X141872447Y-116869561D02*
X141896256Y-116774323D01*
X141896256Y-116774323D02*
X141896256Y-116702895D01*
X141896256Y-116702895D02*
X141872447Y-116607657D01*
X141872447Y-116607657D02*
X141848637Y-116560038D01*
X141848637Y-116560038D02*
X141801018Y-116512419D01*
X141801018Y-116512419D02*
X141729590Y-116488609D01*
X141729590Y-116488609D02*
X141681971Y-116488609D01*
X141681971Y-116488609D02*
X141610542Y-116512419D01*
X141610542Y-116512419D02*
X141586733Y-116536228D01*
X141396256Y-116536228D02*
X141372447Y-116512419D01*
X141372447Y-116512419D02*
X141324828Y-116488609D01*
X141324828Y-116488609D02*
X141205780Y-116488609D01*
X141205780Y-116488609D02*
X141158161Y-116512419D01*
X141158161Y-116512419D02*
X141134352Y-116536228D01*
X141134352Y-116536228D02*
X141110542Y-116583847D01*
X141110542Y-116583847D02*
X141110542Y-116631466D01*
X141110542Y-116631466D02*
X141134352Y-116702895D01*
X141134352Y-116702895D02*
X141420066Y-116988609D01*
X141420066Y-116988609D02*
X141110542Y-116988609D01*
D10*
X146374295Y-121310476D02*
X147021914Y-121310476D01*
X147021914Y-121310476D02*
X147098104Y-121348571D01*
X147098104Y-121348571D02*
X147136200Y-121386666D01*
X147136200Y-121386666D02*
X147174295Y-121462857D01*
X147174295Y-121462857D02*
X147174295Y-121615238D01*
X147174295Y-121615238D02*
X147136200Y-121691428D01*
X147136200Y-121691428D02*
X147098104Y-121729523D01*
X147098104Y-121729523D02*
X147021914Y-121767619D01*
X147021914Y-121767619D02*
X146374295Y-121767619D01*
X146374295Y-122072380D02*
X146374295Y-122605714D01*
X146374295Y-122605714D02*
X147174295Y-122262856D01*
X141884275Y-96347695D02*
X141884275Y-96995314D01*
X141884275Y-96995314D02*
X141846180Y-97071504D01*
X141846180Y-97071504D02*
X141808085Y-97109600D01*
X141808085Y-97109600D02*
X141731894Y-97147695D01*
X141731894Y-97147695D02*
X141579513Y-97147695D01*
X141579513Y-97147695D02*
X141503323Y-97109600D01*
X141503323Y-97109600D02*
X141465228Y-97071504D01*
X141465228Y-97071504D02*
X141427132Y-96995314D01*
X141427132Y-96995314D02*
X141427132Y-96347695D01*
X140627133Y-97147695D02*
X141084276Y-97147695D01*
X140855704Y-97147695D02*
X140855704Y-96347695D01*
X140855704Y-96347695D02*
X140931895Y-96461980D01*
X140931895Y-96461980D02*
X141008085Y-96538171D01*
X141008085Y-96538171D02*
X141084276Y-96576266D01*
X139865228Y-97147695D02*
X140322371Y-97147695D01*
X140093799Y-97147695D02*
X140093799Y-96347695D01*
X140093799Y-96347695D02*
X140169990Y-96461980D01*
X140169990Y-96461980D02*
X140246180Y-96538171D01*
X140246180Y-96538171D02*
X140322371Y-96576266D01*
X151366457Y-101192819D02*
X151699790Y-100716628D01*
X151937885Y-101192819D02*
X151937885Y-100192819D01*
X151937885Y-100192819D02*
X151556933Y-100192819D01*
X151556933Y-100192819D02*
X151461695Y-100240438D01*
X151461695Y-100240438D02*
X151414076Y-100288057D01*
X151414076Y-100288057D02*
X151366457Y-100383295D01*
X151366457Y-100383295D02*
X151366457Y-100526152D01*
X151366457Y-100526152D02*
X151414076Y-100621390D01*
X151414076Y-100621390D02*
X151461695Y-100669009D01*
X151461695Y-100669009D02*
X151556933Y-100716628D01*
X151556933Y-100716628D02*
X151937885Y-100716628D01*
X150985504Y-100288057D02*
X150937885Y-100240438D01*
X150937885Y-100240438D02*
X150842647Y-100192819D01*
X150842647Y-100192819D02*
X150604552Y-100192819D01*
X150604552Y-100192819D02*
X150509314Y-100240438D01*
X150509314Y-100240438D02*
X150461695Y-100288057D01*
X150461695Y-100288057D02*
X150414076Y-100383295D01*
X150414076Y-100383295D02*
X150414076Y-100478533D01*
X150414076Y-100478533D02*
X150461695Y-100621390D01*
X150461695Y-100621390D02*
X151033123Y-101192819D01*
X151033123Y-101192819D02*
X150414076Y-101192819D01*
X150033123Y-100288057D02*
X149985504Y-100240438D01*
X149985504Y-100240438D02*
X149890266Y-100192819D01*
X149890266Y-100192819D02*
X149652171Y-100192819D01*
X149652171Y-100192819D02*
X149556933Y-100240438D01*
X149556933Y-100240438D02*
X149509314Y-100288057D01*
X149509314Y-100288057D02*
X149461695Y-100383295D01*
X149461695Y-100383295D02*
X149461695Y-100478533D01*
X149461695Y-100478533D02*
X149509314Y-100621390D01*
X149509314Y-100621390D02*
X150080742Y-101192819D01*
X150080742Y-101192819D02*
X149461695Y-101192819D01*
X140393657Y-78816580D02*
X140441276Y-78864200D01*
X140441276Y-78864200D02*
X140584133Y-78911819D01*
X140584133Y-78911819D02*
X140679371Y-78911819D01*
X140679371Y-78911819D02*
X140822228Y-78864200D01*
X140822228Y-78864200D02*
X140917466Y-78768961D01*
X140917466Y-78768961D02*
X140965085Y-78673723D01*
X140965085Y-78673723D02*
X141012704Y-78483247D01*
X141012704Y-78483247D02*
X141012704Y-78340390D01*
X141012704Y-78340390D02*
X140965085Y-78149914D01*
X140965085Y-78149914D02*
X140917466Y-78054676D01*
X140917466Y-78054676D02*
X140822228Y-77959438D01*
X140822228Y-77959438D02*
X140679371Y-77911819D01*
X140679371Y-77911819D02*
X140584133Y-77911819D01*
X140584133Y-77911819D02*
X140441276Y-77959438D01*
X140441276Y-77959438D02*
X140393657Y-78007057D01*
X139536514Y-77911819D02*
X139726990Y-77911819D01*
X139726990Y-77911819D02*
X139822228Y-77959438D01*
X139822228Y-77959438D02*
X139869847Y-78007057D01*
X139869847Y-78007057D02*
X139965085Y-78149914D01*
X139965085Y-78149914D02*
X140012704Y-78340390D01*
X140012704Y-78340390D02*
X140012704Y-78721342D01*
X140012704Y-78721342D02*
X139965085Y-78816580D01*
X139965085Y-78816580D02*
X139917466Y-78864200D01*
X139917466Y-78864200D02*
X139822228Y-78911819D01*
X139822228Y-78911819D02*
X139631752Y-78911819D01*
X139631752Y-78911819D02*
X139536514Y-78864200D01*
X139536514Y-78864200D02*
X139488895Y-78816580D01*
X139488895Y-78816580D02*
X139441276Y-78721342D01*
X139441276Y-78721342D02*
X139441276Y-78483247D01*
X139441276Y-78483247D02*
X139488895Y-78388009D01*
X139488895Y-78388009D02*
X139536514Y-78340390D01*
X139536514Y-78340390D02*
X139631752Y-78292771D01*
X139631752Y-78292771D02*
X139822228Y-78292771D01*
X139822228Y-78292771D02*
X139917466Y-78340390D01*
X139917466Y-78340390D02*
X139965085Y-78388009D01*
X139965085Y-78388009D02*
X140012704Y-78483247D01*
X139060323Y-78007057D02*
X139012704Y-77959438D01*
X139012704Y-77959438D02*
X138917466Y-77911819D01*
X138917466Y-77911819D02*
X138679371Y-77911819D01*
X138679371Y-77911819D02*
X138584133Y-77959438D01*
X138584133Y-77959438D02*
X138536514Y-78007057D01*
X138536514Y-78007057D02*
X138488895Y-78102295D01*
X138488895Y-78102295D02*
X138488895Y-78197533D01*
X138488895Y-78197533D02*
X138536514Y-78340390D01*
X138536514Y-78340390D02*
X139107942Y-78911819D01*
X139107942Y-78911819D02*
X138488895Y-78911819D01*
D11*
X146325609Y-82126971D02*
X146087514Y-81960305D01*
X146325609Y-81841257D02*
X145825609Y-81841257D01*
X145825609Y-81841257D02*
X145825609Y-82031733D01*
X145825609Y-82031733D02*
X145849419Y-82079352D01*
X145849419Y-82079352D02*
X145873228Y-82103162D01*
X145873228Y-82103162D02*
X145920847Y-82126971D01*
X145920847Y-82126971D02*
X145992276Y-82126971D01*
X145992276Y-82126971D02*
X146039895Y-82103162D01*
X146039895Y-82103162D02*
X146063704Y-82079352D01*
X146063704Y-82079352D02*
X146087514Y-82031733D01*
X146087514Y-82031733D02*
X146087514Y-81841257D01*
X145873228Y-82317448D02*
X145849419Y-82341257D01*
X145849419Y-82341257D02*
X145825609Y-82388876D01*
X145825609Y-82388876D02*
X145825609Y-82507924D01*
X145825609Y-82507924D02*
X145849419Y-82555543D01*
X145849419Y-82555543D02*
X145873228Y-82579352D01*
X145873228Y-82579352D02*
X145920847Y-82603162D01*
X145920847Y-82603162D02*
X145968466Y-82603162D01*
X145968466Y-82603162D02*
X146039895Y-82579352D01*
X146039895Y-82579352D02*
X146325609Y-82293638D01*
X146325609Y-82293638D02*
X146325609Y-82603162D01*
X145825609Y-82769828D02*
X145825609Y-83079352D01*
X145825609Y-83079352D02*
X146016085Y-82912685D01*
X146016085Y-82912685D02*
X146016085Y-82984114D01*
X146016085Y-82984114D02*
X146039895Y-83031733D01*
X146039895Y-83031733D02*
X146063704Y-83055542D01*
X146063704Y-83055542D02*
X146111323Y-83079352D01*
X146111323Y-83079352D02*
X146230371Y-83079352D01*
X146230371Y-83079352D02*
X146277990Y-83055542D01*
X146277990Y-83055542D02*
X146301800Y-83031733D01*
X146301800Y-83031733D02*
X146325609Y-82984114D01*
X146325609Y-82984114D02*
X146325609Y-82841257D01*
X146325609Y-82841257D02*
X146301800Y-82793638D01*
X146301800Y-82793638D02*
X146277990Y-82769828D01*
D10*
X139162695Y-77209724D02*
X138362695Y-77209724D01*
X138362695Y-77209724D02*
X138362695Y-77400200D01*
X138362695Y-77400200D02*
X138400790Y-77514486D01*
X138400790Y-77514486D02*
X138476980Y-77590676D01*
X138476980Y-77590676D02*
X138553171Y-77628771D01*
X138553171Y-77628771D02*
X138705552Y-77666867D01*
X138705552Y-77666867D02*
X138819838Y-77666867D01*
X138819838Y-77666867D02*
X138972219Y-77628771D01*
X138972219Y-77628771D02*
X139048409Y-77590676D01*
X139048409Y-77590676D02*
X139124600Y-77514486D01*
X139124600Y-77514486D02*
X139162695Y-77400200D01*
X139162695Y-77400200D02*
X139162695Y-77209724D01*
X138362695Y-77933533D02*
X138362695Y-78466867D01*
X138362695Y-78466867D02*
X139162695Y-78124009D01*
X139986104Y-106038667D02*
X140024200Y-106000571D01*
X140024200Y-106000571D02*
X140062295Y-105886286D01*
X140062295Y-105886286D02*
X140062295Y-105810095D01*
X140062295Y-105810095D02*
X140024200Y-105695809D01*
X140024200Y-105695809D02*
X139948009Y-105619619D01*
X139948009Y-105619619D02*
X139871819Y-105581524D01*
X139871819Y-105581524D02*
X139719438Y-105543428D01*
X139719438Y-105543428D02*
X139605152Y-105543428D01*
X139605152Y-105543428D02*
X139452771Y-105581524D01*
X139452771Y-105581524D02*
X139376580Y-105619619D01*
X139376580Y-105619619D02*
X139300390Y-105695809D01*
X139300390Y-105695809D02*
X139262295Y-105810095D01*
X139262295Y-105810095D02*
X139262295Y-105886286D01*
X139262295Y-105886286D02*
X139300390Y-106000571D01*
X139300390Y-106000571D02*
X139338485Y-106038667D01*
X139262295Y-106724381D02*
X139262295Y-106572000D01*
X139262295Y-106572000D02*
X139300390Y-106495809D01*
X139300390Y-106495809D02*
X139338485Y-106457714D01*
X139338485Y-106457714D02*
X139452771Y-106381524D01*
X139452771Y-106381524D02*
X139605152Y-106343428D01*
X139605152Y-106343428D02*
X139909914Y-106343428D01*
X139909914Y-106343428D02*
X139986104Y-106381524D01*
X139986104Y-106381524D02*
X140024200Y-106419619D01*
X140024200Y-106419619D02*
X140062295Y-106495809D01*
X140062295Y-106495809D02*
X140062295Y-106648190D01*
X140062295Y-106648190D02*
X140024200Y-106724381D01*
X140024200Y-106724381D02*
X139986104Y-106762476D01*
X139986104Y-106762476D02*
X139909914Y-106800571D01*
X139909914Y-106800571D02*
X139719438Y-106800571D01*
X139719438Y-106800571D02*
X139643247Y-106762476D01*
X139643247Y-106762476D02*
X139605152Y-106724381D01*
X139605152Y-106724381D02*
X139567057Y-106648190D01*
X139567057Y-106648190D02*
X139567057Y-106495809D01*
X139567057Y-106495809D02*
X139605152Y-106419619D01*
X139605152Y-106419619D02*
X139643247Y-106381524D01*
X139643247Y-106381524D02*
X139719438Y-106343428D01*
X141538228Y-113152285D02*
X141566800Y-113123713D01*
X141566800Y-113123713D02*
X141595371Y-113037999D01*
X141595371Y-113037999D02*
X141595371Y-112980856D01*
X141595371Y-112980856D02*
X141566800Y-112895142D01*
X141566800Y-112895142D02*
X141509657Y-112837999D01*
X141509657Y-112837999D02*
X141452514Y-112809428D01*
X141452514Y-112809428D02*
X141338228Y-112780856D01*
X141338228Y-112780856D02*
X141252514Y-112780856D01*
X141252514Y-112780856D02*
X141138228Y-112809428D01*
X141138228Y-112809428D02*
X141081085Y-112837999D01*
X141081085Y-112837999D02*
X141023942Y-112895142D01*
X141023942Y-112895142D02*
X140995371Y-112980856D01*
X140995371Y-112980856D02*
X140995371Y-113037999D01*
X140995371Y-113037999D02*
X141023942Y-113123713D01*
X141023942Y-113123713D02*
X141052514Y-113152285D01*
X141595371Y-113723713D02*
X141595371Y-113380856D01*
X141595371Y-113552285D02*
X140995371Y-113552285D01*
X140995371Y-113552285D02*
X141081085Y-113495142D01*
X141081085Y-113495142D02*
X141138228Y-113437999D01*
X141138228Y-113437999D02*
X141166800Y-113380856D01*
X140995371Y-114238000D02*
X140995371Y-114123714D01*
X140995371Y-114123714D02*
X141023942Y-114066571D01*
X141023942Y-114066571D02*
X141052514Y-114038000D01*
X141052514Y-114038000D02*
X141138228Y-113980857D01*
X141138228Y-113980857D02*
X141252514Y-113952285D01*
X141252514Y-113952285D02*
X141481085Y-113952285D01*
X141481085Y-113952285D02*
X141538228Y-113980857D01*
X141538228Y-113980857D02*
X141566800Y-114009428D01*
X141566800Y-114009428D02*
X141595371Y-114066571D01*
X141595371Y-114066571D02*
X141595371Y-114180857D01*
X141595371Y-114180857D02*
X141566800Y-114238000D01*
X141566800Y-114238000D02*
X141538228Y-114266571D01*
X141538228Y-114266571D02*
X141481085Y-114295142D01*
X141481085Y-114295142D02*
X141338228Y-114295142D01*
X141338228Y-114295142D02*
X141281085Y-114266571D01*
X141281085Y-114266571D02*
X141252514Y-114238000D01*
X141252514Y-114238000D02*
X141223942Y-114180857D01*
X141223942Y-114180857D02*
X141223942Y-114066571D01*
X141223942Y-114066571D02*
X141252514Y-114009428D01*
X141252514Y-114009428D02*
X141281085Y-113980857D01*
X141281085Y-113980857D02*
X141338228Y-113952285D01*
X146996132Y-124619095D02*
X147262799Y-124238142D01*
X147453275Y-124619095D02*
X147453275Y-123819095D01*
X147453275Y-123819095D02*
X147148513Y-123819095D01*
X147148513Y-123819095D02*
X147072323Y-123857190D01*
X147072323Y-123857190D02*
X147034228Y-123895285D01*
X147034228Y-123895285D02*
X146996132Y-123971476D01*
X146996132Y-123971476D02*
X146996132Y-124085761D01*
X146996132Y-124085761D02*
X147034228Y-124161952D01*
X147034228Y-124161952D02*
X147072323Y-124200047D01*
X147072323Y-124200047D02*
X147148513Y-124238142D01*
X147148513Y-124238142D02*
X147453275Y-124238142D01*
X146615180Y-124619095D02*
X146462799Y-124619095D01*
X146462799Y-124619095D02*
X146386609Y-124581000D01*
X146386609Y-124581000D02*
X146348513Y-124542904D01*
X146348513Y-124542904D02*
X146272323Y-124428619D01*
X146272323Y-124428619D02*
X146234228Y-124276238D01*
X146234228Y-124276238D02*
X146234228Y-123971476D01*
X146234228Y-123971476D02*
X146272323Y-123895285D01*
X146272323Y-123895285D02*
X146310418Y-123857190D01*
X146310418Y-123857190D02*
X146386609Y-123819095D01*
X146386609Y-123819095D02*
X146538990Y-123819095D01*
X146538990Y-123819095D02*
X146615180Y-123857190D01*
X146615180Y-123857190D02*
X146653275Y-123895285D01*
X146653275Y-123895285D02*
X146691371Y-123971476D01*
X146691371Y-123971476D02*
X146691371Y-124161952D01*
X146691371Y-124161952D02*
X146653275Y-124238142D01*
X146653275Y-124238142D02*
X146615180Y-124276238D01*
X146615180Y-124276238D02*
X146538990Y-124314333D01*
X146538990Y-124314333D02*
X146386609Y-124314333D01*
X146386609Y-124314333D02*
X146310418Y-124276238D01*
X146310418Y-124276238D02*
X146272323Y-124238142D01*
X146272323Y-124238142D02*
X146234228Y-124161952D01*
X141891104Y-106038667D02*
X141929200Y-106000571D01*
X141929200Y-106000571D02*
X141967295Y-105886286D01*
X141967295Y-105886286D02*
X141967295Y-105810095D01*
X141967295Y-105810095D02*
X141929200Y-105695809D01*
X141929200Y-105695809D02*
X141853009Y-105619619D01*
X141853009Y-105619619D02*
X141776819Y-105581524D01*
X141776819Y-105581524D02*
X141624438Y-105543428D01*
X141624438Y-105543428D02*
X141510152Y-105543428D01*
X141510152Y-105543428D02*
X141357771Y-105581524D01*
X141357771Y-105581524D02*
X141281580Y-105619619D01*
X141281580Y-105619619D02*
X141205390Y-105695809D01*
X141205390Y-105695809D02*
X141167295Y-105810095D01*
X141167295Y-105810095D02*
X141167295Y-105886286D01*
X141167295Y-105886286D02*
X141205390Y-106000571D01*
X141205390Y-106000571D02*
X141243485Y-106038667D01*
X141167295Y-106762476D02*
X141167295Y-106381524D01*
X141167295Y-106381524D02*
X141548247Y-106343428D01*
X141548247Y-106343428D02*
X141510152Y-106381524D01*
X141510152Y-106381524D02*
X141472057Y-106457714D01*
X141472057Y-106457714D02*
X141472057Y-106648190D01*
X141472057Y-106648190D02*
X141510152Y-106724381D01*
X141510152Y-106724381D02*
X141548247Y-106762476D01*
X141548247Y-106762476D02*
X141624438Y-106800571D01*
X141624438Y-106800571D02*
X141814914Y-106800571D01*
X141814914Y-106800571D02*
X141891104Y-106762476D01*
X141891104Y-106762476D02*
X141929200Y-106724381D01*
X141929200Y-106724381D02*
X141967295Y-106648190D01*
X141967295Y-106648190D02*
X141967295Y-106457714D01*
X141967295Y-106457714D02*
X141929200Y-106381524D01*
X141929200Y-106381524D02*
X141891104Y-106343428D01*
X154669485Y-132823303D02*
X154707581Y-132861399D01*
X154707581Y-132861399D02*
X154821866Y-132899494D01*
X154821866Y-132899494D02*
X154898057Y-132899494D01*
X154898057Y-132899494D02*
X155012343Y-132861399D01*
X155012343Y-132861399D02*
X155088533Y-132785208D01*
X155088533Y-132785208D02*
X155126628Y-132709018D01*
X155126628Y-132709018D02*
X155164724Y-132556637D01*
X155164724Y-132556637D02*
X155164724Y-132442351D01*
X155164724Y-132442351D02*
X155126628Y-132289970D01*
X155126628Y-132289970D02*
X155088533Y-132213779D01*
X155088533Y-132213779D02*
X155012343Y-132137589D01*
X155012343Y-132137589D02*
X154898057Y-132099494D01*
X154898057Y-132099494D02*
X154821866Y-132099494D01*
X154821866Y-132099494D02*
X154707581Y-132137589D01*
X154707581Y-132137589D02*
X154669485Y-132175684D01*
X154364724Y-132175684D02*
X154326628Y-132137589D01*
X154326628Y-132137589D02*
X154250438Y-132099494D01*
X154250438Y-132099494D02*
X154059962Y-132099494D01*
X154059962Y-132099494D02*
X153983771Y-132137589D01*
X153983771Y-132137589D02*
X153945676Y-132175684D01*
X153945676Y-132175684D02*
X153907581Y-132251875D01*
X153907581Y-132251875D02*
X153907581Y-132328065D01*
X153907581Y-132328065D02*
X153945676Y-132442351D01*
X153945676Y-132442351D02*
X154402819Y-132899494D01*
X154402819Y-132899494D02*
X153907581Y-132899494D01*
X153183771Y-132099494D02*
X153564723Y-132099494D01*
X153564723Y-132099494D02*
X153602819Y-132480446D01*
X153602819Y-132480446D02*
X153564723Y-132442351D01*
X153564723Y-132442351D02*
X153488533Y-132404256D01*
X153488533Y-132404256D02*
X153298057Y-132404256D01*
X153298057Y-132404256D02*
X153221866Y-132442351D01*
X153221866Y-132442351D02*
X153183771Y-132480446D01*
X153183771Y-132480446D02*
X153145676Y-132556637D01*
X153145676Y-132556637D02*
X153145676Y-132747113D01*
X153145676Y-132747113D02*
X153183771Y-132823303D01*
X153183771Y-132823303D02*
X153221866Y-132861399D01*
X153221866Y-132861399D02*
X153298057Y-132899494D01*
X153298057Y-132899494D02*
X153488533Y-132899494D01*
X153488533Y-132899494D02*
X153564723Y-132861399D01*
X153564723Y-132861399D02*
X153602819Y-132823303D01*
X152913095Y-105200514D02*
X152532142Y-104933847D01*
X152913095Y-104743371D02*
X152113095Y-104743371D01*
X152113095Y-104743371D02*
X152113095Y-105048133D01*
X152113095Y-105048133D02*
X152151190Y-105124323D01*
X152151190Y-105124323D02*
X152189285Y-105162418D01*
X152189285Y-105162418D02*
X152265476Y-105200514D01*
X152265476Y-105200514D02*
X152379761Y-105200514D01*
X152379761Y-105200514D02*
X152455952Y-105162418D01*
X152455952Y-105162418D02*
X152494047Y-105124323D01*
X152494047Y-105124323D02*
X152532142Y-105048133D01*
X152532142Y-105048133D02*
X152532142Y-104743371D01*
X152913095Y-105962418D02*
X152913095Y-105505275D01*
X152913095Y-105733847D02*
X152113095Y-105733847D01*
X152113095Y-105733847D02*
X152227380Y-105657656D01*
X152227380Y-105657656D02*
X152303571Y-105581466D01*
X152303571Y-105581466D02*
X152341666Y-105505275D01*
X152113095Y-106686228D02*
X152113095Y-106305276D01*
X152113095Y-106305276D02*
X152494047Y-106267180D01*
X152494047Y-106267180D02*
X152455952Y-106305276D01*
X152455952Y-106305276D02*
X152417857Y-106381466D01*
X152417857Y-106381466D02*
X152417857Y-106571942D01*
X152417857Y-106571942D02*
X152455952Y-106648133D01*
X152455952Y-106648133D02*
X152494047Y-106686228D01*
X152494047Y-106686228D02*
X152570238Y-106724323D01*
X152570238Y-106724323D02*
X152760714Y-106724323D01*
X152760714Y-106724323D02*
X152836904Y-106686228D01*
X152836904Y-106686228D02*
X152875000Y-106648133D01*
X152875000Y-106648133D02*
X152913095Y-106571942D01*
X152913095Y-106571942D02*
X152913095Y-106381466D01*
X152913095Y-106381466D02*
X152875000Y-106305276D01*
X152875000Y-106305276D02*
X152836904Y-106267180D01*
X144271904Y-124899819D02*
X144271904Y-125709342D01*
X144271904Y-125709342D02*
X144224285Y-125804580D01*
X144224285Y-125804580D02*
X144176666Y-125852200D01*
X144176666Y-125852200D02*
X144081428Y-125899819D01*
X144081428Y-125899819D02*
X143890952Y-125899819D01*
X143890952Y-125899819D02*
X143795714Y-125852200D01*
X143795714Y-125852200D02*
X143748095Y-125804580D01*
X143748095Y-125804580D02*
X143700476Y-125709342D01*
X143700476Y-125709342D02*
X143700476Y-124899819D01*
X142748095Y-124899819D02*
X143224285Y-124899819D01*
X143224285Y-124899819D02*
X143271904Y-125376009D01*
X143271904Y-125376009D02*
X143224285Y-125328390D01*
X143224285Y-125328390D02*
X143129047Y-125280771D01*
X143129047Y-125280771D02*
X142890952Y-125280771D01*
X142890952Y-125280771D02*
X142795714Y-125328390D01*
X142795714Y-125328390D02*
X142748095Y-125376009D01*
X142748095Y-125376009D02*
X142700476Y-125471247D01*
X142700476Y-125471247D02*
X142700476Y-125709342D01*
X142700476Y-125709342D02*
X142748095Y-125804580D01*
X142748095Y-125804580D02*
X142795714Y-125852200D01*
X142795714Y-125852200D02*
X142890952Y-125899819D01*
X142890952Y-125899819D02*
X143129047Y-125899819D01*
X143129047Y-125899819D02*
X143224285Y-125852200D01*
X143224285Y-125852200D02*
X143271904Y-125804580D01*
X147163619Y-79265542D02*
X146687428Y-78932209D01*
X147163619Y-78694114D02*
X146163619Y-78694114D01*
X146163619Y-78694114D02*
X146163619Y-79075066D01*
X146163619Y-79075066D02*
X146211238Y-79170304D01*
X146211238Y-79170304D02*
X146258857Y-79217923D01*
X146258857Y-79217923D02*
X146354095Y-79265542D01*
X146354095Y-79265542D02*
X146496952Y-79265542D01*
X146496952Y-79265542D02*
X146592190Y-79217923D01*
X146592190Y-79217923D02*
X146639809Y-79170304D01*
X146639809Y-79170304D02*
X146687428Y-79075066D01*
X146687428Y-79075066D02*
X146687428Y-78694114D01*
X146258857Y-79646495D02*
X146211238Y-79694114D01*
X146211238Y-79694114D02*
X146163619Y-79789352D01*
X146163619Y-79789352D02*
X146163619Y-80027447D01*
X146163619Y-80027447D02*
X146211238Y-80122685D01*
X146211238Y-80122685D02*
X146258857Y-80170304D01*
X146258857Y-80170304D02*
X146354095Y-80217923D01*
X146354095Y-80217923D02*
X146449333Y-80217923D01*
X146449333Y-80217923D02*
X146592190Y-80170304D01*
X146592190Y-80170304D02*
X147163619Y-79598876D01*
X147163619Y-79598876D02*
X147163619Y-80217923D01*
X146496952Y-81075066D02*
X147163619Y-81075066D01*
X146116000Y-80836971D02*
X146830285Y-80598876D01*
X146830285Y-80598876D02*
X146830285Y-81217923D01*
X150659814Y-97435099D02*
X150688386Y-97406527D01*
X150688386Y-97406527D02*
X150716957Y-97320813D01*
X150716957Y-97320813D02*
X150716957Y-97263670D01*
X150716957Y-97263670D02*
X150688386Y-97177956D01*
X150688386Y-97177956D02*
X150631243Y-97120813D01*
X150631243Y-97120813D02*
X150574100Y-97092242D01*
X150574100Y-97092242D02*
X150459814Y-97063670D01*
X150459814Y-97063670D02*
X150374100Y-97063670D01*
X150374100Y-97063670D02*
X150259814Y-97092242D01*
X150259814Y-97092242D02*
X150202671Y-97120813D01*
X150202671Y-97120813D02*
X150145528Y-97177956D01*
X150145528Y-97177956D02*
X150116957Y-97263670D01*
X150116957Y-97263670D02*
X150116957Y-97320813D01*
X150116957Y-97320813D02*
X150145528Y-97406527D01*
X150145528Y-97406527D02*
X150174100Y-97435099D01*
X150316957Y-97949385D02*
X150716957Y-97949385D01*
X150088386Y-97806527D02*
X150516957Y-97663670D01*
X150516957Y-97663670D02*
X150516957Y-98035099D01*
X150374100Y-98349385D02*
X150345528Y-98292242D01*
X150345528Y-98292242D02*
X150316957Y-98263671D01*
X150316957Y-98263671D02*
X150259814Y-98235099D01*
X150259814Y-98235099D02*
X150231243Y-98235099D01*
X150231243Y-98235099D02*
X150174100Y-98263671D01*
X150174100Y-98263671D02*
X150145528Y-98292242D01*
X150145528Y-98292242D02*
X150116957Y-98349385D01*
X150116957Y-98349385D02*
X150116957Y-98463671D01*
X150116957Y-98463671D02*
X150145528Y-98520814D01*
X150145528Y-98520814D02*
X150174100Y-98549385D01*
X150174100Y-98549385D02*
X150231243Y-98577956D01*
X150231243Y-98577956D02*
X150259814Y-98577956D01*
X150259814Y-98577956D02*
X150316957Y-98549385D01*
X150316957Y-98549385D02*
X150345528Y-98520814D01*
X150345528Y-98520814D02*
X150374100Y-98463671D01*
X150374100Y-98463671D02*
X150374100Y-98349385D01*
X150374100Y-98349385D02*
X150402671Y-98292242D01*
X150402671Y-98292242D02*
X150431243Y-98263671D01*
X150431243Y-98263671D02*
X150488386Y-98235099D01*
X150488386Y-98235099D02*
X150602671Y-98235099D01*
X150602671Y-98235099D02*
X150659814Y-98263671D01*
X150659814Y-98263671D02*
X150688386Y-98292242D01*
X150688386Y-98292242D02*
X150716957Y-98349385D01*
X150716957Y-98349385D02*
X150716957Y-98463671D01*
X150716957Y-98463671D02*
X150688386Y-98520814D01*
X150688386Y-98520814D02*
X150659814Y-98549385D01*
X150659814Y-98549385D02*
X150602671Y-98577956D01*
X150602671Y-98577956D02*
X150488386Y-98577956D01*
X150488386Y-98577956D02*
X150431243Y-98549385D01*
X150431243Y-98549385D02*
X150402671Y-98520814D01*
X150402671Y-98520814D02*
X150374100Y-98463671D01*
D11*
X141974628Y-87400790D02*
X141998437Y-87424600D01*
X141998437Y-87424600D02*
X142069866Y-87448409D01*
X142069866Y-87448409D02*
X142117485Y-87448409D01*
X142117485Y-87448409D02*
X142188913Y-87424600D01*
X142188913Y-87424600D02*
X142236532Y-87376980D01*
X142236532Y-87376980D02*
X142260342Y-87329361D01*
X142260342Y-87329361D02*
X142284151Y-87234123D01*
X142284151Y-87234123D02*
X142284151Y-87162695D01*
X142284151Y-87162695D02*
X142260342Y-87067457D01*
X142260342Y-87067457D02*
X142236532Y-87019838D01*
X142236532Y-87019838D02*
X142188913Y-86972219D01*
X142188913Y-86972219D02*
X142117485Y-86948409D01*
X142117485Y-86948409D02*
X142069866Y-86948409D01*
X142069866Y-86948409D02*
X141998437Y-86972219D01*
X141998437Y-86972219D02*
X141974628Y-86996028D01*
X141522247Y-86948409D02*
X141760342Y-86948409D01*
X141760342Y-86948409D02*
X141784151Y-87186504D01*
X141784151Y-87186504D02*
X141760342Y-87162695D01*
X141760342Y-87162695D02*
X141712723Y-87138885D01*
X141712723Y-87138885D02*
X141593675Y-87138885D01*
X141593675Y-87138885D02*
X141546056Y-87162695D01*
X141546056Y-87162695D02*
X141522247Y-87186504D01*
X141522247Y-87186504D02*
X141498437Y-87234123D01*
X141498437Y-87234123D02*
X141498437Y-87353171D01*
X141498437Y-87353171D02*
X141522247Y-87400790D01*
X141522247Y-87400790D02*
X141546056Y-87424600D01*
X141546056Y-87424600D02*
X141593675Y-87448409D01*
X141593675Y-87448409D02*
X141712723Y-87448409D01*
X141712723Y-87448409D02*
X141760342Y-87424600D01*
X141760342Y-87424600D02*
X141784151Y-87400790D01*
X141260342Y-87448409D02*
X141165104Y-87448409D01*
X141165104Y-87448409D02*
X141117485Y-87424600D01*
X141117485Y-87424600D02*
X141093676Y-87400790D01*
X141093676Y-87400790D02*
X141046057Y-87329361D01*
X141046057Y-87329361D02*
X141022247Y-87234123D01*
X141022247Y-87234123D02*
X141022247Y-87043647D01*
X141022247Y-87043647D02*
X141046057Y-86996028D01*
X141046057Y-86996028D02*
X141069866Y-86972219D01*
X141069866Y-86972219D02*
X141117485Y-86948409D01*
X141117485Y-86948409D02*
X141212723Y-86948409D01*
X141212723Y-86948409D02*
X141260342Y-86972219D01*
X141260342Y-86972219D02*
X141284152Y-86996028D01*
X141284152Y-86996028D02*
X141307961Y-87043647D01*
X141307961Y-87043647D02*
X141307961Y-87162695D01*
X141307961Y-87162695D02*
X141284152Y-87210314D01*
X141284152Y-87210314D02*
X141260342Y-87234123D01*
X141260342Y-87234123D02*
X141212723Y-87257933D01*
X141212723Y-87257933D02*
X141117485Y-87257933D01*
X141117485Y-87257933D02*
X141069866Y-87234123D01*
X141069866Y-87234123D02*
X141046057Y-87210314D01*
X141046057Y-87210314D02*
X141022247Y-87162695D01*
D10*
X149437628Y-89784285D02*
X149466200Y-89755713D01*
X149466200Y-89755713D02*
X149494771Y-89669999D01*
X149494771Y-89669999D02*
X149494771Y-89612856D01*
X149494771Y-89612856D02*
X149466200Y-89527142D01*
X149466200Y-89527142D02*
X149409057Y-89469999D01*
X149409057Y-89469999D02*
X149351914Y-89441428D01*
X149351914Y-89441428D02*
X149237628Y-89412856D01*
X149237628Y-89412856D02*
X149151914Y-89412856D01*
X149151914Y-89412856D02*
X149037628Y-89441428D01*
X149037628Y-89441428D02*
X148980485Y-89469999D01*
X148980485Y-89469999D02*
X148923342Y-89527142D01*
X148923342Y-89527142D02*
X148894771Y-89612856D01*
X148894771Y-89612856D02*
X148894771Y-89669999D01*
X148894771Y-89669999D02*
X148923342Y-89755713D01*
X148923342Y-89755713D02*
X148951914Y-89784285D01*
X148894771Y-90327142D02*
X148894771Y-90041428D01*
X148894771Y-90041428D02*
X149180485Y-90012856D01*
X149180485Y-90012856D02*
X149151914Y-90041428D01*
X149151914Y-90041428D02*
X149123342Y-90098571D01*
X149123342Y-90098571D02*
X149123342Y-90241428D01*
X149123342Y-90241428D02*
X149151914Y-90298571D01*
X149151914Y-90298571D02*
X149180485Y-90327142D01*
X149180485Y-90327142D02*
X149237628Y-90355713D01*
X149237628Y-90355713D02*
X149380485Y-90355713D01*
X149380485Y-90355713D02*
X149437628Y-90327142D01*
X149437628Y-90327142D02*
X149466200Y-90298571D01*
X149466200Y-90298571D02*
X149494771Y-90241428D01*
X149494771Y-90241428D02*
X149494771Y-90098571D01*
X149494771Y-90098571D02*
X149466200Y-90041428D01*
X149466200Y-90041428D02*
X149437628Y-90012856D01*
X148894771Y-90555714D02*
X148894771Y-90927142D01*
X148894771Y-90927142D02*
X149123342Y-90727142D01*
X149123342Y-90727142D02*
X149123342Y-90812857D01*
X149123342Y-90812857D02*
X149151914Y-90870000D01*
X149151914Y-90870000D02*
X149180485Y-90898571D01*
X149180485Y-90898571D02*
X149237628Y-90927142D01*
X149237628Y-90927142D02*
X149380485Y-90927142D01*
X149380485Y-90927142D02*
X149437628Y-90898571D01*
X149437628Y-90898571D02*
X149466200Y-90870000D01*
X149466200Y-90870000D02*
X149494771Y-90812857D01*
X149494771Y-90812857D02*
X149494771Y-90641428D01*
X149494771Y-90641428D02*
X149466200Y-90584285D01*
X149466200Y-90584285D02*
X149437628Y-90555714D01*
X151907771Y-87752285D02*
X151622057Y-87552285D01*
X151907771Y-87409428D02*
X151307771Y-87409428D01*
X151307771Y-87409428D02*
X151307771Y-87637999D01*
X151307771Y-87637999D02*
X151336342Y-87695142D01*
X151336342Y-87695142D02*
X151364914Y-87723713D01*
X151364914Y-87723713D02*
X151422057Y-87752285D01*
X151422057Y-87752285D02*
X151507771Y-87752285D01*
X151507771Y-87752285D02*
X151564914Y-87723713D01*
X151564914Y-87723713D02*
X151593485Y-87695142D01*
X151593485Y-87695142D02*
X151622057Y-87637999D01*
X151622057Y-87637999D02*
X151622057Y-87409428D01*
X151907771Y-88323713D02*
X151907771Y-87980856D01*
X151907771Y-88152285D02*
X151307771Y-88152285D01*
X151307771Y-88152285D02*
X151393485Y-88095142D01*
X151393485Y-88095142D02*
X151450628Y-88037999D01*
X151450628Y-88037999D02*
X151479200Y-87980856D01*
X151907771Y-88609428D02*
X151907771Y-88723714D01*
X151907771Y-88723714D02*
X151879200Y-88780857D01*
X151879200Y-88780857D02*
X151850628Y-88809428D01*
X151850628Y-88809428D02*
X151764914Y-88866571D01*
X151764914Y-88866571D02*
X151650628Y-88895142D01*
X151650628Y-88895142D02*
X151422057Y-88895142D01*
X151422057Y-88895142D02*
X151364914Y-88866571D01*
X151364914Y-88866571D02*
X151336342Y-88838000D01*
X151336342Y-88838000D02*
X151307771Y-88780857D01*
X151307771Y-88780857D02*
X151307771Y-88666571D01*
X151307771Y-88666571D02*
X151336342Y-88609428D01*
X151336342Y-88609428D02*
X151364914Y-88580857D01*
X151364914Y-88580857D02*
X151422057Y-88552285D01*
X151422057Y-88552285D02*
X151564914Y-88552285D01*
X151564914Y-88552285D02*
X151622057Y-88580857D01*
X151622057Y-88580857D02*
X151650628Y-88609428D01*
X151650628Y-88609428D02*
X151679200Y-88666571D01*
X151679200Y-88666571D02*
X151679200Y-88780857D01*
X151679200Y-88780857D02*
X151650628Y-88838000D01*
X151650628Y-88838000D02*
X151622057Y-88866571D01*
X151622057Y-88866571D02*
X151564914Y-88895142D01*
X157359285Y-100692295D02*
X157625952Y-100311342D01*
X157816428Y-100692295D02*
X157816428Y-99892295D01*
X157816428Y-99892295D02*
X157511666Y-99892295D01*
X157511666Y-99892295D02*
X157435476Y-99930390D01*
X157435476Y-99930390D02*
X157397381Y-99968485D01*
X157397381Y-99968485D02*
X157359285Y-100044676D01*
X157359285Y-100044676D02*
X157359285Y-100158961D01*
X157359285Y-100158961D02*
X157397381Y-100235152D01*
X157397381Y-100235152D02*
X157435476Y-100273247D01*
X157435476Y-100273247D02*
X157511666Y-100311342D01*
X157511666Y-100311342D02*
X157816428Y-100311342D01*
X157054524Y-99968485D02*
X157016428Y-99930390D01*
X157016428Y-99930390D02*
X156940238Y-99892295D01*
X156940238Y-99892295D02*
X156749762Y-99892295D01*
X156749762Y-99892295D02*
X156673571Y-99930390D01*
X156673571Y-99930390D02*
X156635476Y-99968485D01*
X156635476Y-99968485D02*
X156597381Y-100044676D01*
X156597381Y-100044676D02*
X156597381Y-100120866D01*
X156597381Y-100120866D02*
X156635476Y-100235152D01*
X156635476Y-100235152D02*
X157092619Y-100692295D01*
X157092619Y-100692295D02*
X156597381Y-100692295D01*
X156102142Y-99892295D02*
X156025952Y-99892295D01*
X156025952Y-99892295D02*
X155949761Y-99930390D01*
X155949761Y-99930390D02*
X155911666Y-99968485D01*
X155911666Y-99968485D02*
X155873571Y-100044676D01*
X155873571Y-100044676D02*
X155835476Y-100197057D01*
X155835476Y-100197057D02*
X155835476Y-100387533D01*
X155835476Y-100387533D02*
X155873571Y-100539914D01*
X155873571Y-100539914D02*
X155911666Y-100616104D01*
X155911666Y-100616104D02*
X155949761Y-100654200D01*
X155949761Y-100654200D02*
X156025952Y-100692295D01*
X156025952Y-100692295D02*
X156102142Y-100692295D01*
X156102142Y-100692295D02*
X156178333Y-100654200D01*
X156178333Y-100654200D02*
X156216428Y-100616104D01*
X156216428Y-100616104D02*
X156254523Y-100539914D01*
X156254523Y-100539914D02*
X156292619Y-100387533D01*
X156292619Y-100387533D02*
X156292619Y-100197057D01*
X156292619Y-100197057D02*
X156254523Y-100044676D01*
X156254523Y-100044676D02*
X156216428Y-99968485D01*
X156216428Y-99968485D02*
X156178333Y-99930390D01*
X156178333Y-99930390D02*
X156102142Y-99892295D01*
X154616504Y-121050114D02*
X154654600Y-121012018D01*
X154654600Y-121012018D02*
X154692695Y-120897733D01*
X154692695Y-120897733D02*
X154692695Y-120821542D01*
X154692695Y-120821542D02*
X154654600Y-120707256D01*
X154654600Y-120707256D02*
X154578409Y-120631066D01*
X154578409Y-120631066D02*
X154502219Y-120592971D01*
X154502219Y-120592971D02*
X154349838Y-120554875D01*
X154349838Y-120554875D02*
X154235552Y-120554875D01*
X154235552Y-120554875D02*
X154083171Y-120592971D01*
X154083171Y-120592971D02*
X154006980Y-120631066D01*
X154006980Y-120631066D02*
X153930790Y-120707256D01*
X153930790Y-120707256D02*
X153892695Y-120821542D01*
X153892695Y-120821542D02*
X153892695Y-120897733D01*
X153892695Y-120897733D02*
X153930790Y-121012018D01*
X153930790Y-121012018D02*
X153968885Y-121050114D01*
X154159361Y-121735828D02*
X154692695Y-121735828D01*
X153854600Y-121545352D02*
X154426028Y-121354875D01*
X154426028Y-121354875D02*
X154426028Y-121850114D01*
X153892695Y-122078685D02*
X153892695Y-122612019D01*
X153892695Y-122612019D02*
X154692695Y-122269161D01*
%TO.C,TP1*%
D12*
X136733400Y-127161400D02*
G75*
G02*
X135333400Y-127161400I-700000J0D01*
G01*
X135333400Y-127161400D02*
G75*
G02*
X136733400Y-127161400I700000J0D01*
G01*
%TO.C,C7*%
X138984400Y-118014636D02*
X138984400Y-117798964D01*
X139704400Y-118014636D02*
X139704400Y-117798964D01*
%TO.C,R18*%
X154737800Y-105868441D02*
X154737800Y-105561159D01*
X155497800Y-105868441D02*
X155497800Y-105561159D01*
%TO.C,C56*%
X142994748Y-76100000D02*
X143517252Y-76100000D01*
X142994748Y-77570000D02*
X143517252Y-77570000D01*
%TO.C,J9*%
X147596000Y-107555000D02*
X157416001Y-107555000D01*
X147596000Y-108784999D02*
X147596000Y-107555000D01*
X147596000Y-114755000D02*
X147596000Y-111085000D01*
X147596000Y-119735000D02*
X147596001Y-117055000D01*
X148316000Y-119735000D02*
X147596000Y-119735000D01*
X152016000Y-119735000D02*
X149716000Y-119735000D01*
X157866000Y-119735000D02*
X153416000Y-119735000D01*
X159236000Y-118255001D02*
X159236000Y-117395000D01*
%TO.C,C19*%
X130889835Y-119781999D02*
X130674163Y-119781999D01*
X130889835Y-120501999D02*
X130674163Y-120501999D01*
%TO.C,BLM18AG601SZ1D1*%
X137285000Y-104319621D02*
X137285000Y-104645179D01*
X138305000Y-104319621D02*
X138305000Y-104645179D01*
%TO.C,L1*%
X145267600Y-77287200D02*
X149575600Y-77287200D01*
X149575600Y-72979200D02*
X145267600Y-72979200D01*
%TO.C,C35*%
X142144636Y-117292800D02*
X141928964Y-117292800D01*
X142144636Y-118012800D02*
X141928964Y-118012800D01*
%TO.C,C20*%
X130889836Y-121052000D02*
X130674164Y-121052000D01*
X130889836Y-121772000D02*
X130674164Y-121772000D01*
%TO.C,C42*%
X157422964Y-86558800D02*
X157638636Y-86558800D01*
X157422964Y-87278800D02*
X157638636Y-87278800D01*
%TO.C,R29*%
X138390100Y-77250058D02*
X138390100Y-76775542D01*
X139435100Y-77250058D02*
X139435100Y-76775542D01*
%TO.C,C31*%
X139187600Y-138385436D02*
X139187600Y-138169764D01*
X139907600Y-138385436D02*
X139907600Y-138169764D01*
%TO.C,R30*%
X139253700Y-74125858D02*
X139253700Y-73651342D01*
X140298700Y-74125858D02*
X140298700Y-73651342D01*
%TO.C,C23*%
X152965036Y-134310800D02*
X152749364Y-134310800D01*
X152965036Y-135030800D02*
X152749364Y-135030800D01*
%TO.C,R21*%
X155069176Y-87473185D02*
X155376458Y-87473185D01*
X155069176Y-88233185D02*
X155376458Y-88233185D01*
%TO.C,C60*%
X134107600Y-80079964D02*
X134107600Y-80295636D01*
X134827600Y-80079964D02*
X134827600Y-80295636D01*
%TO.C,C58*%
X142994748Y-79021000D02*
X143517252Y-79021000D01*
X142994748Y-80491000D02*
X143517252Y-80491000D01*
%TO.C,C37*%
X140102000Y-121862964D02*
X140102000Y-122078636D01*
X140822000Y-121862964D02*
X140822000Y-122078636D01*
%TO.C,R4*%
X137745200Y-120547159D02*
X137745200Y-120854441D01*
X138505200Y-120547159D02*
X138505200Y-120854441D01*
%TO.C,R16*%
X150877000Y-121692641D02*
X150877000Y-121385359D01*
X151637000Y-121692641D02*
X151637000Y-121385359D01*
%TO.C,C36*%
X142754236Y-118207200D02*
X142538564Y-118207200D01*
X142754236Y-118927200D02*
X142538564Y-118927200D01*
%TO.C,R17*%
X155880800Y-105868441D02*
X155880800Y-105561159D01*
X156640800Y-105868441D02*
X156640800Y-105561159D01*
%TO.C,C61*%
X132988164Y-84298200D02*
X133203836Y-84298200D01*
X132988164Y-85018200D02*
X133203836Y-85018200D01*
%TO.C,C50*%
X148089253Y-93245000D02*
X147566747Y-93245000D01*
X148089253Y-94715000D02*
X147566747Y-94715000D01*
%TO.C,C46*%
X154611400Y-124198747D02*
X154611400Y-124721253D01*
X156081400Y-124198747D02*
X156081400Y-124721253D01*
%TO.C,R25*%
X145644841Y-84049600D02*
X145337559Y-84049600D01*
X145644841Y-84809600D02*
X145337559Y-84809600D01*
%TO.C,R7*%
X134472000Y-132165736D02*
X134472000Y-133619864D01*
X136292000Y-132165736D02*
X136292000Y-133619864D01*
%TO.C,C9*%
X147433419Y-98042000D02*
X147714581Y-98042000D01*
X147433419Y-99062000D02*
X147714581Y-99062000D01*
%TO.C,U3*%
X133264000Y-119052000D02*
X133264000Y-119527000D01*
X133264000Y-123297000D02*
X133264000Y-123772000D01*
X133264000Y-123772000D02*
X134489000Y-123772000D01*
X134489000Y-119052000D02*
X133264000Y-119052000D01*
X135259000Y-123772000D02*
X136484000Y-123772000D01*
X136484000Y-119052000D02*
X135259000Y-119052000D01*
X136484000Y-119527000D02*
X136484000Y-119052000D01*
X136484000Y-123772000D02*
X136484000Y-123297000D01*
X133014000Y-119912000D02*
X132684000Y-120152000D01*
X132684000Y-119672000D01*
X133014000Y-119912000D01*
G36*
X133014000Y-119912000D02*
G01*
X132684000Y-120152000D01*
X132684000Y-119672000D01*
X133014000Y-119912000D01*
G37*
%TO.C,C3*%
X140254400Y-116071764D02*
X140254400Y-116287436D01*
X140974400Y-116071764D02*
X140974400Y-116287436D01*
%TO.C,LS2*%
D13*
X150033600Y-68042400D02*
X152033600Y-68042400D01*
X150033600Y-77042400D02*
X150033600Y-68042400D01*
X152033600Y-77042400D02*
X150033600Y-77042400D01*
X157033600Y-68042400D02*
X159033600Y-68042400D01*
X159033600Y-68042400D02*
X159033600Y-77042400D01*
X159033600Y-77042400D02*
X157033600Y-77042400D01*
D14*
X157883600Y-67542400D02*
G75*
G02*
X157683600Y-67542400I-100000J0D01*
G01*
X157683600Y-67542400D02*
G75*
G02*
X157883600Y-67542400I100000J0D01*
G01*
%TO.C,U12*%
X150860200Y-82195200D02*
G75*
G02*
X150660200Y-82195200I-100000J0D01*
G01*
X150660200Y-82195200D02*
G75*
G02*
X150860200Y-82195200I100000J0D01*
G01*
%TO.C,C4*%
D12*
X136165000Y-110267636D02*
X136165000Y-110051964D01*
X136885000Y-110267636D02*
X136885000Y-110051964D01*
%TO.C,C24*%
X151717836Y-133244000D02*
X151502164Y-133244000D01*
X151717836Y-133964000D02*
X151502164Y-133964000D01*
%TO.C,F1*%
X135005400Y-71152936D02*
X135005400Y-72357064D01*
X136825400Y-71152936D02*
X136825400Y-72357064D01*
%TO.C,C41*%
X157397564Y-87651000D02*
X157613236Y-87651000D01*
X157397564Y-88371000D02*
X157613236Y-88371000D01*
%TO.C,U13*%
D13*
X135845000Y-81422000D02*
X139745000Y-81422000D01*
X135845000Y-86472000D02*
X139745000Y-86472000D01*
D14*
X133855000Y-86252000D02*
G75*
G02*
X133655000Y-86252000I-100000J0D01*
G01*
X133655000Y-86252000D02*
G75*
G02*
X133855000Y-86252000I100000J0D01*
G01*
%TO.C,C15*%
D12*
X143197947Y-111279000D02*
X143720453Y-111279000D01*
X143197947Y-112749000D02*
X143720453Y-112749000D01*
%TO.C,Y1*%
X136624000Y-111269199D02*
X140744000Y-111269199D01*
X136624000Y-114689201D02*
X136624000Y-111269199D01*
%TO.C,C10*%
X135733200Y-116122564D02*
X135733200Y-116338236D01*
X136453200Y-116122564D02*
X136453200Y-116338236D01*
%TO.C,C38*%
X141168800Y-121608964D02*
X141168800Y-121824636D01*
X141888800Y-121608964D02*
X141888800Y-121824636D01*
%TO.C,J4*%
X142110000Y-139610000D02*
X142750000Y-139610000D01*
X142160000Y-142330000D02*
X144860000Y-142330000D01*
X142750000Y-139610000D02*
X142750000Y-138980000D01*
X144910000Y-139610000D02*
X144270000Y-139610000D01*
%TO.C,C49*%
X148636400Y-79800564D02*
X148636400Y-80016236D01*
X149356400Y-79800564D02*
X149356400Y-80016236D01*
%TO.C,C52*%
X145817000Y-89769836D02*
X145817000Y-89554164D01*
X146537000Y-89769836D02*
X146537000Y-89554164D01*
%TO.C,D6*%
X142006600Y-85040200D02*
X147516600Y-85040200D01*
X142006600Y-88340200D02*
X142006600Y-85040200D01*
X142006600Y-88340200D02*
X147516600Y-88340200D01*
%TO.C,C13*%
X143658000Y-116213836D02*
X143658000Y-115998164D01*
X144378000Y-116213836D02*
X144378000Y-115998164D01*
%TO.C,C1*%
X135718436Y-112035000D02*
X135502764Y-112035000D01*
X135718436Y-112755000D02*
X135502764Y-112755000D01*
%TO.C,R3*%
X130963641Y-124715000D02*
X130656359Y-124715000D01*
X130963641Y-125475000D02*
X130656359Y-125475000D01*
%TO.C,C14*%
X138321147Y-99950600D02*
X138843653Y-99950600D01*
X138321147Y-101420600D02*
X138843653Y-101420600D01*
%TO.C,C51*%
X147250165Y-95398000D02*
X147465837Y-95398000D01*
X147250165Y-96118000D02*
X147465837Y-96118000D01*
%TO.C,C21*%
X137206400Y-124009036D02*
X137206400Y-123793364D01*
X137926400Y-124009036D02*
X137926400Y-123793364D01*
%TO.C,C12*%
X141245000Y-100945836D02*
X141245000Y-100730164D01*
X141965000Y-100945836D02*
X141965000Y-100730164D01*
%TO.C,C43*%
X154552800Y-83249800D02*
X158772800Y-83249800D01*
X154552800Y-86269800D02*
X154552800Y-83249800D01*
X158772800Y-86269800D02*
X154552800Y-86269800D01*
%TO.C,U10*%
X152403185Y-91250815D02*
X152403185Y-96770815D01*
X152403185Y-96770815D02*
X152673185Y-96770815D01*
X152673185Y-91250815D02*
X152403185Y-91250815D01*
X157653185Y-96770815D02*
X157923185Y-96770815D01*
X157923185Y-91250815D02*
X157653185Y-91250815D01*
X157923185Y-96770815D02*
X157923185Y-91250815D01*
X152663185Y-90420815D02*
X152193185Y-90760815D01*
X152193185Y-90080815D01*
X152663185Y-90420815D01*
G36*
X152663185Y-90420815D02*
G01*
X152193185Y-90760815D01*
X152193185Y-90080815D01*
X152663185Y-90420815D01*
G37*
%TO.C,C2*%
X138984400Y-115792364D02*
X138984400Y-116008036D01*
X139704400Y-115792364D02*
X139704400Y-116008036D01*
%TO.C,U7*%
X143166000Y-119294000D02*
X143166000Y-119969000D01*
X143166000Y-121839000D02*
X143166000Y-122514000D01*
X143166000Y-122514000D02*
X143341000Y-122513999D01*
X143341000Y-119294001D02*
X143166000Y-119294000D01*
X145711000Y-122513999D02*
X145886000Y-122514000D01*
X145886000Y-119294000D02*
X145711000Y-119294001D01*
X145886000Y-119969000D02*
X145886000Y-119294000D01*
X145886000Y-122514000D02*
X145886000Y-121839000D01*
X145516000Y-122974000D02*
X145035999Y-122974000D01*
X145276000Y-122644000D01*
X145516000Y-122974000D01*
G36*
X145516000Y-122974000D02*
G01*
X145035999Y-122974000D01*
X145276000Y-122644000D01*
X145516000Y-122974000D01*
G37*
%TO.C,U11*%
X138983800Y-89071400D02*
X138983800Y-90331399D01*
X138983800Y-95891400D02*
X138983800Y-94631401D01*
X142743800Y-89071399D02*
X138983800Y-89071400D01*
X142743800Y-95891401D02*
X138983800Y-95891400D01*
X144023800Y-89171400D02*
X143783800Y-88841400D01*
X144263800Y-88841400D01*
X144023800Y-89171400D01*
G36*
X144023800Y-89171400D02*
G01*
X143783800Y-88841400D01*
X144263800Y-88841400D01*
X144023800Y-89171400D01*
G37*
%TO.C,R22*%
X150569959Y-99188000D02*
X150877241Y-99188000D01*
X150569959Y-99948000D02*
X150877241Y-99948000D01*
%TO.C,C62*%
X140012052Y-79402000D02*
X139489548Y-79402000D01*
X140012052Y-80872000D02*
X139489548Y-80872000D01*
%TO.C,R23*%
X146533600Y-83416841D02*
X146533600Y-83109559D01*
X147293600Y-83416841D02*
X147293600Y-83109559D01*
%TO.C,D7*%
X135190400Y-80960200D02*
X135190400Y-75900200D01*
X137910400Y-80960200D02*
X135190400Y-80960200D01*
X137910400Y-80960200D02*
X137910400Y-75900200D01*
%TO.C,C6*%
X139340000Y-104032164D02*
X139340000Y-104247836D01*
X140060000Y-104032164D02*
X140060000Y-104247836D01*
%TO.C,C16*%
X141372000Y-115360564D02*
X141372000Y-115576236D01*
X142092000Y-115360564D02*
X142092000Y-115576236D01*
%TO.C,R9*%
X144984441Y-123876800D02*
X144677159Y-123876800D01*
X144984441Y-124636800D02*
X144677159Y-124636800D01*
%TO.C,C5*%
X141245000Y-104032164D02*
X141245000Y-104247836D01*
X141965000Y-104032164D02*
X141965000Y-104247836D01*
%TO.C,C25*%
X151695036Y-132177200D02*
X151479364Y-132177200D01*
X151695036Y-132897200D02*
X151479364Y-132897200D01*
%TO.C,R15*%
X153340800Y-105561159D02*
X153340800Y-105868441D01*
X154100800Y-105561159D02*
X154100800Y-105868441D01*
%TO.C,U5*%
X138550000Y-126285000D02*
X138550000Y-126435000D01*
X138550000Y-136455000D02*
X138550000Y-136605000D01*
X148470000Y-126285000D02*
X138550000Y-126285000D01*
X148470000Y-126285000D02*
X148470000Y-126435000D01*
X148470000Y-136455000D02*
X148470000Y-136605000D01*
X148470000Y-136605000D02*
X138550000Y-136605000D01*
X148940000Y-126435000D02*
X148700000Y-126105000D01*
X149180000Y-126105000D01*
X148940000Y-126435000D01*
G36*
X148940000Y-126435000D02*
G01*
X148700000Y-126105000D01*
X149180000Y-126105000D01*
X148940000Y-126435000D01*
G37*
%TO.C,R24*%
X147498800Y-79754759D02*
X147498800Y-80062041D01*
X148258800Y-79754759D02*
X148258800Y-80062041D01*
%TO.C,C48*%
X151247186Y-97712978D02*
X151247186Y-97928650D01*
X151967186Y-97712978D02*
X151967186Y-97928650D01*
%TO.C,C59*%
X139884036Y-86863600D02*
X139668364Y-86863600D01*
X139884036Y-87583600D02*
X139668364Y-87583600D01*
%TO.C,C53*%
X146966000Y-89908747D02*
X146966000Y-90431253D01*
X148436000Y-89908747D02*
X148436000Y-90431253D01*
%TO.C,R19*%
X151227186Y-90356454D02*
X151227186Y-90049172D01*
X151987186Y-90356454D02*
X151987186Y-90049172D01*
%TO.C,R20*%
X153622742Y-99807500D02*
X154097258Y-99807500D01*
X153622742Y-100852500D02*
X154097258Y-100852500D01*
%TO.C,C47*%
X155088000Y-121773836D02*
X155088000Y-121558164D01*
X155808000Y-121773836D02*
X155808000Y-121558164D01*
%TD*%
%LPC*%
D15*
%TO.C,U12*%
X148360200Y-81795200D02*
X148060200Y-81795200D01*
X148060200Y-81095200D01*
X148360200Y-81095200D01*
X148360200Y-81795200D01*
G36*
X148360200Y-81795200D02*
G01*
X148060200Y-81795200D01*
X148060200Y-81095200D01*
X148360200Y-81095200D01*
X148360200Y-81795200D01*
G37*
X148360200Y-84095200D02*
X148060200Y-84095200D01*
X148060200Y-83395200D01*
X148360200Y-83395200D01*
X148360200Y-84095200D01*
G36*
X148360200Y-84095200D02*
G01*
X148060200Y-84095200D01*
X148060200Y-83395200D01*
X148360200Y-83395200D01*
X148360200Y-84095200D01*
G37*
X148860200Y-81795200D02*
X148560200Y-81795200D01*
X148560200Y-81095200D01*
X148860200Y-81095200D01*
X148860200Y-81795200D01*
G36*
X148860200Y-81795200D02*
G01*
X148560200Y-81795200D01*
X148560200Y-81095200D01*
X148860200Y-81095200D01*
X148860200Y-81795200D01*
G37*
X148860200Y-82495200D02*
X147710200Y-82495200D01*
X147710200Y-81995200D01*
X148860200Y-81995200D01*
X148860200Y-82495200D01*
G36*
X148860200Y-82495200D02*
G01*
X147710200Y-82495200D01*
X147710200Y-81995200D01*
X148860200Y-81995200D01*
X148860200Y-82495200D01*
G37*
X148860200Y-83195200D02*
X147710200Y-83195200D01*
X147710200Y-82695200D01*
X148860200Y-82695200D01*
X148860200Y-83195200D01*
G36*
X148860200Y-83195200D02*
G01*
X147710200Y-83195200D01*
X147710200Y-82695200D01*
X148860200Y-82695200D01*
X148860200Y-83195200D01*
G37*
X148860200Y-84095200D02*
X148560200Y-84095200D01*
X148560200Y-83395200D01*
X148860200Y-83395200D01*
X148860200Y-84095200D01*
G36*
X148860200Y-84095200D02*
G01*
X148560200Y-84095200D01*
X148560200Y-83395200D01*
X148860200Y-83395200D01*
X148860200Y-84095200D01*
G37*
X149360200Y-81795200D02*
X149060200Y-81795200D01*
X149060200Y-81095200D01*
X149360200Y-81095200D01*
X149360200Y-81795200D01*
G36*
X149360200Y-81795200D02*
G01*
X149060200Y-81795200D01*
X149060200Y-81095200D01*
X149360200Y-81095200D01*
X149360200Y-81795200D01*
G37*
X149360200Y-84095200D02*
X149060200Y-84095200D01*
X149060200Y-83395200D01*
X149360200Y-83395200D01*
X149360200Y-84095200D01*
G36*
X149360200Y-84095200D02*
G01*
X149060200Y-84095200D01*
X149060200Y-83395200D01*
X149360200Y-83395200D01*
X149360200Y-84095200D01*
G37*
X149860200Y-81795200D02*
X149560200Y-81795200D01*
X149560200Y-81095200D01*
X149860200Y-81095200D01*
X149860200Y-81795200D01*
G36*
X149860200Y-81795200D02*
G01*
X149560200Y-81795200D01*
X149560200Y-81095200D01*
X149860200Y-81095200D01*
X149860200Y-81795200D01*
G37*
X149860200Y-84095200D02*
X149560200Y-84095200D01*
X149560200Y-83395200D01*
X149860200Y-83395200D01*
X149860200Y-84095200D01*
G36*
X149860200Y-84095200D02*
G01*
X149560200Y-84095200D01*
X149560200Y-83395200D01*
X149860200Y-83395200D01*
X149860200Y-84095200D01*
G37*
X150210200Y-82495200D02*
X149060200Y-82495200D01*
X149060200Y-81995200D01*
X150210200Y-81995200D01*
X150210200Y-82495200D01*
G36*
X150210200Y-82495200D02*
G01*
X149060200Y-82495200D01*
X149060200Y-81995200D01*
X150210200Y-81995200D01*
X150210200Y-82495200D01*
G37*
X150210200Y-83195200D02*
X149060200Y-83195200D01*
X149060200Y-82695200D01*
X150210200Y-82695200D01*
X150210200Y-83195200D01*
G36*
X150210200Y-83195200D02*
G01*
X149060200Y-83195200D01*
X149060200Y-82695200D01*
X150210200Y-82695200D01*
X150210200Y-83195200D01*
G37*
D16*
%TO.C,J4*%
G36*
X144450000Y-142070000D02*
G01*
X142570000Y-142070000D01*
X142570000Y-139980000D01*
X144450000Y-139980000D01*
X144450000Y-142070000D01*
G37*
%TD*%
D17*
%TO.C,J6*%
X129667000Y-107315000D03*
D18*
X130937000Y-107315000D03*
X129667000Y-108585000D03*
X130937000Y-108585000D03*
X129667000Y-109855000D03*
X130937000Y-109855000D03*
X129667000Y-111125000D03*
X130937000Y-111125000D03*
X129667000Y-112395000D03*
X130937000Y-112395000D03*
%TD*%
D19*
%TO.C,J8*%
X146400000Y-68450000D03*
X140620000Y-68450000D03*
D20*
X147830000Y-68950000D03*
D21*
X147830000Y-64770000D03*
D20*
X139190000Y-68950000D03*
D21*
X139190000Y-64770000D03*
%TD*%
D22*
%TO.C,J3*%
X128828800Y-123118600D03*
%TD*%
D23*
%TO.C,J11*%
X129540000Y-84279800D03*
D24*
X129540000Y-79679800D03*
%TD*%
D25*
%TO.C,J10*%
X130302000Y-69723000D03*
D26*
X130302000Y-74723000D03*
%TD*%
D22*
%TO.C,J2*%
X158242000Y-122529600D03*
%TD*%
D23*
%TO.C,J12*%
X129540000Y-92749400D03*
D24*
X129540000Y-88149400D03*
%TD*%
D22*
%TO.C,J1*%
X158242000Y-134366000D03*
%TD*%
D18*
%TO.C,TP1*%
X136033400Y-127161400D03*
%TD*%
D27*
%TO.C,C7*%
X139344400Y-118386800D03*
X139344400Y-117426800D03*
%TD*%
D28*
%TO.C,R18*%
X155117800Y-106224799D03*
X155117800Y-105204801D03*
%TD*%
D29*
%TO.C,C56*%
X142306000Y-76835000D03*
X144206000Y-76835000D03*
%TD*%
D30*
%TO.C,J9*%
X158866000Y-116770001D03*
X158866000Y-115670000D03*
X158866000Y-114570001D03*
X158866000Y-113470000D03*
X158866000Y-112370000D03*
X158866000Y-111270000D03*
X158866000Y-110170000D03*
D31*
X158866000Y-109120000D03*
D32*
X152716000Y-119405000D03*
X149016000Y-119405000D03*
D33*
X158741000Y-119230000D03*
D34*
X148041000Y-115905000D03*
X148041000Y-109935000D03*
D35*
X158516000Y-107910000D03*
%TD*%
D36*
%TO.C,C19*%
X131261999Y-120141999D03*
X130301999Y-120141999D03*
%TD*%
D37*
%TO.C,BLM18AG601SZ1D1*%
X137795000Y-103694900D03*
X137795000Y-105269900D03*
%TD*%
D38*
%TO.C,L1*%
X148606600Y-75133200D03*
X146236600Y-75133200D03*
%TD*%
D36*
%TO.C,C35*%
X142516800Y-117652800D03*
X141556800Y-117652800D03*
%TD*%
%TO.C,C20*%
X131262000Y-121412000D03*
X130302000Y-121412000D03*
%TD*%
D39*
%TO.C,C42*%
X157050800Y-86918800D03*
X158010800Y-86918800D03*
%TD*%
D40*
%TO.C,R29*%
X138912600Y-77837800D03*
X138912600Y-76187800D03*
%TD*%
D41*
%TO.C,FB1*%
X142517000Y-137795000D03*
X143487000Y-137795000D03*
%TD*%
D27*
%TO.C,C31*%
X139547600Y-138757600D03*
X139547600Y-137797600D03*
%TD*%
D40*
%TO.C,R30*%
X139776200Y-74713600D03*
X139776200Y-73063600D03*
%TD*%
D36*
%TO.C,C23*%
X153337200Y-134670800D03*
X152377200Y-134670800D03*
%TD*%
D42*
%TO.C,R21*%
X154712818Y-87853185D03*
X155732816Y-87853185D03*
%TD*%
D43*
%TO.C,C60*%
X134467600Y-79707800D03*
X134467600Y-80667800D03*
%TD*%
D29*
%TO.C,C58*%
X142306000Y-79756000D03*
X144206000Y-79756000D03*
%TD*%
D43*
%TO.C,C37*%
X140462000Y-121490800D03*
X140462000Y-122450800D03*
%TD*%
D44*
%TO.C,R4*%
X138125200Y-120190801D03*
X138125200Y-121210799D03*
%TD*%
D28*
%TO.C,R16*%
X151257000Y-122048999D03*
X151257000Y-121029001D03*
%TD*%
D36*
%TO.C,C36*%
X143126400Y-118567200D03*
X142166400Y-118567200D03*
%TD*%
D28*
%TO.C,R17*%
X156260800Y-106224799D03*
X156260800Y-105204801D03*
%TD*%
D39*
%TO.C,C61*%
X132616000Y-84658200D03*
X133576000Y-84658200D03*
%TD*%
D45*
%TO.C,C50*%
X148777999Y-93980000D03*
X146878001Y-93980000D03*
%TD*%
D46*
%TO.C,C46*%
X155346400Y-123510001D03*
X155346400Y-125409999D03*
%TD*%
D47*
%TO.C,R25*%
X146001200Y-84429600D03*
X144981200Y-84429600D03*
%TD*%
D48*
%TO.C,R7*%
X135382000Y-131430300D03*
X135382000Y-134355300D03*
%TD*%
D49*
%TO.C,C9*%
X146799000Y-98552000D03*
X148349000Y-98552000D03*
%TD*%
D50*
%TO.C,U3*%
X133611500Y-119912000D03*
X133611500Y-120412000D03*
X133611500Y-120912000D03*
X133611500Y-121412000D03*
X133611500Y-121912000D03*
X133611500Y-122412000D03*
X133611500Y-122912000D03*
D51*
X134874000Y-123424499D03*
D50*
X136136500Y-122912000D03*
X136136500Y-122412000D03*
X136136500Y-121912000D03*
X136136500Y-121412000D03*
X136136500Y-120912000D03*
X136136500Y-120412000D03*
X136136500Y-119912000D03*
D51*
X134874000Y-119399501D03*
%TD*%
D43*
%TO.C,C3*%
X140614400Y-115699600D03*
X140614400Y-116659600D03*
%TD*%
D52*
%TO.C,LS2*%
X154533600Y-68542400D03*
X154533600Y-76542400D03*
%TD*%
D27*
%TO.C,C4*%
X136525000Y-110639800D03*
X136525000Y-109679800D03*
%TD*%
D36*
%TO.C,C24*%
X152090000Y-133604000D03*
X151130000Y-133604000D03*
%TD*%
D53*
%TO.C,F1*%
X135915400Y-70355000D03*
X135915400Y-73155000D03*
%TD*%
D39*
%TO.C,C41*%
X157025400Y-88011000D03*
X157985400Y-88011000D03*
%TD*%
D54*
%TO.C,U13*%
X135325000Y-85852000D03*
X135325000Y-84582000D03*
X135325000Y-83312000D03*
X135325000Y-82042000D03*
X140265000Y-82042000D03*
X140265000Y-83312000D03*
X140265000Y-84582000D03*
X140265000Y-85852000D03*
%TD*%
D29*
%TO.C,C15*%
X142509201Y-112014000D03*
X144409199Y-112014000D03*
%TD*%
D55*
%TO.C,Y1*%
X137584000Y-112129200D03*
X139784000Y-112129200D03*
X139784000Y-113829200D03*
X137584000Y-113829200D03*
%TD*%
D43*
%TO.C,C10*%
X136093200Y-115750400D03*
X136093200Y-116710400D03*
%TD*%
%TO.C,C38*%
X141528800Y-121236800D03*
X141528800Y-122196800D03*
%TD*%
D56*
%TO.C,J4*%
X143510000Y-139445000D03*
D57*
X144985001Y-140970000D03*
X142034999Y-140970000D03*
%TD*%
D43*
%TO.C,C49*%
X148996400Y-79428400D03*
X148996400Y-80388400D03*
%TD*%
D27*
%TO.C,C52*%
X146177000Y-90142000D03*
X146177000Y-89182000D03*
%TD*%
D58*
%TO.C,D6*%
X143516600Y-86690200D03*
X147516600Y-86690200D03*
%TD*%
D27*
%TO.C,C13*%
X144018000Y-116586000D03*
X144018000Y-115626000D03*
%TD*%
D36*
%TO.C,C1*%
X136090600Y-112395000D03*
X135130600Y-112395000D03*
%TD*%
D47*
%TO.C,R3*%
X131319999Y-125095000D03*
X130300001Y-125095000D03*
%TD*%
D29*
%TO.C,C14*%
X137632401Y-100685600D03*
X139532399Y-100685600D03*
%TD*%
D39*
%TO.C,C51*%
X146878001Y-95758000D03*
X147838001Y-95758000D03*
%TD*%
D27*
%TO.C,C21*%
X137566400Y-124381200D03*
X137566400Y-123421200D03*
%TD*%
%TO.C,C12*%
X141605000Y-101318000D03*
X141605000Y-100358000D03*
%TD*%
D59*
%TO.C,C43*%
X155482801Y-84759800D03*
X158562799Y-84759800D03*
%TD*%
D60*
%TO.C,U10*%
X153258185Y-90423315D03*
X154528185Y-90423315D03*
X155798185Y-90423315D03*
X157068185Y-90423315D03*
X157068185Y-97598315D03*
X155798185Y-97598315D03*
X154528185Y-97598315D03*
X153258185Y-97598315D03*
%TD*%
D43*
%TO.C,C2*%
X139344400Y-115420200D03*
X139344400Y-116380200D03*
%TD*%
D61*
%TO.C,U7*%
X145276000Y-122066501D03*
X144776000Y-122066500D03*
X144276000Y-122066500D03*
X143776000Y-122066501D03*
D62*
X143613500Y-121403999D03*
X143613500Y-120904000D03*
X143613500Y-120404001D03*
D61*
X143776000Y-119741499D03*
X144276000Y-119741500D03*
X144776000Y-119741500D03*
X145276000Y-119741499D03*
D62*
X145438500Y-120404001D03*
X145438500Y-120904000D03*
X145438500Y-121403999D03*
%TD*%
D63*
%TO.C,U11*%
X144043800Y-90181400D03*
X144043799Y-92481400D03*
D64*
X137743801Y-92481400D03*
D63*
X144043800Y-94781400D03*
%TD*%
D42*
%TO.C,R22*%
X150213600Y-99568000D03*
X151233600Y-99568000D03*
%TD*%
D45*
%TO.C,C62*%
X140700800Y-80137000D03*
X138800800Y-80137000D03*
%TD*%
D28*
%TO.C,R23*%
X146913600Y-83773200D03*
X146913600Y-82753200D03*
%TD*%
D65*
%TO.C,D7*%
X136550400Y-80000200D03*
X136550400Y-75600200D03*
%TD*%
D43*
%TO.C,C6*%
X139700000Y-103660000D03*
X139700000Y-104620000D03*
%TD*%
%TO.C,C16*%
X141732000Y-114988400D03*
X141732000Y-115948400D03*
%TD*%
D47*
%TO.C,R9*%
X145340799Y-124256800D03*
X144320801Y-124256800D03*
%TD*%
D43*
%TO.C,C5*%
X141605000Y-103660000D03*
X141605000Y-104620000D03*
%TD*%
D36*
%TO.C,C25*%
X152067200Y-132537200D03*
X151107200Y-132537200D03*
%TD*%
D44*
%TO.C,R15*%
X153720800Y-105204801D03*
X153720800Y-106224799D03*
%TD*%
D66*
%TO.C,U5*%
X148260000Y-127045000D03*
D67*
X148260000Y-128145000D03*
X148260000Y-129245000D03*
X148260000Y-130345000D03*
X148260000Y-131445000D03*
X148260000Y-132545000D03*
X148260000Y-133645000D03*
X148260000Y-134745000D03*
D66*
X148260000Y-135845000D03*
X138760000Y-135845000D03*
D67*
X138760000Y-134745000D03*
X138760000Y-133645000D03*
X138760000Y-132545000D03*
X138760000Y-131445000D03*
X138760000Y-130345000D03*
X138760000Y-129245000D03*
X138760000Y-128145000D03*
D66*
X138760000Y-127045000D03*
%TD*%
D44*
%TO.C,R24*%
X147878800Y-79398400D03*
X147878800Y-80418400D03*
%TD*%
D43*
%TO.C,C48*%
X151607186Y-97340814D03*
X151607186Y-98300814D03*
%TD*%
D36*
%TO.C,C59*%
X140256200Y-87223600D03*
X139296200Y-87223600D03*
%TD*%
D46*
%TO.C,C53*%
X147701000Y-89220001D03*
X147701000Y-91119999D03*
%TD*%
D28*
%TO.C,R19*%
X151607186Y-90712812D03*
X151607186Y-89692814D03*
%TD*%
D68*
%TO.C,R20*%
X153035000Y-100330000D03*
X154685000Y-100330000D03*
%TD*%
D27*
%TO.C,C47*%
X155448000Y-122146000D03*
X155448000Y-121186000D03*
%TD*%
%LPD*%
M02*
