%TF.GenerationSoftware,KiCad,Pcbnew,10.0.1*%
%TF.CreationDate,2026-05-05T10:01:04-07:00*%
%TF.ProjectId,versorlite,76657273-6f72-46c6-9974-652e6b696361,rev?*%
%TF.SameCoordinates,Original*%
%TF.FileFunction,Paste,Top*%
%TF.FilePolarity,Positive*%
%FSLAX46Y46*%
G04 Gerber Fmt 4.6, Leading zero omitted, Abs format (unit mm)*
G04 Created by KiCad (PCBNEW 10.0.1) date 2026-05-05 10:01:04*
%MOMM*%
%LPD*%
G01*
G04 APERTURE LIST*
G04 Aperture macros list*
%AMRoundRect*
0 Rectangle with rounded corners*
0 $1 Rounding radius*
0 $2 $3 $4 $5 $6 $7 $8 $9 X,Y pos of 4 corners*
0 Add a 4 corners polygon primitive as box body*
4,1,4,$2,$3,$4,$5,$6,$7,$8,$9,$2,$3,0*
0 Add four circle primitives for the rounded corners*
1,1,$1+$1,$2,$3*
1,1,$1+$1,$4,$5*
1,1,$1+$1,$6,$7*
1,1,$1+$1,$8,$9*
0 Add four rect primitives between the rounded corners*
20,1,$1+$1,$2,$3,$4,$5,0*
20,1,$1+$1,$4,$5,$6,$7,0*
20,1,$1+$1,$6,$7,$8,$9,0*
20,1,$1+$1,$8,$9,$2,$3,0*%
G04 Aperture macros list end*
%ADD10RoundRect,0.135000X0.185000X-0.135000X0.185000X0.135000X-0.185000X0.135000X-0.185000X-0.135000X0*%
%ADD11RoundRect,0.140000X-0.170000X0.140000X-0.170000X-0.140000X0.170000X-0.140000X0.170000X0.140000X0*%
%ADD12RoundRect,0.225000X0.250000X-0.225000X0.250000X0.225000X-0.250000X0.225000X-0.250000X-0.225000X0*%
%ADD13R,1.700000X0.600000*%
%ADD14R,2.800000X1.000000*%
%ADD15RoundRect,0.015750X0.159250X0.174250X-0.159250X0.174250X-0.159250X-0.174250X0.159250X-0.174250X0*%
%ADD16RoundRect,0.218750X-0.256250X0.218750X-0.256250X-0.218750X0.256250X-0.218750X0.256250X0.218750X0*%
%ADD17RoundRect,0.150000X-0.150000X0.512500X-0.150000X-0.512500X0.150000X-0.512500X0.150000X0.512500X0*%
%ADD18RoundRect,0.135000X0.135000X0.185000X-0.135000X0.185000X-0.135000X-0.185000X0.135000X-0.185000X0*%
%ADD19RoundRect,0.150000X0.587500X0.150000X-0.587500X0.150000X-0.587500X-0.150000X0.587500X-0.150000X0*%
%ADD20RoundRect,0.250000X0.475000X-0.250000X0.475000X0.250000X-0.475000X0.250000X-0.475000X-0.250000X0*%
%ADD21RoundRect,0.218750X0.381250X-0.218750X0.381250X0.218750X-0.381250X0.218750X-0.381250X-0.218750X0*%
%ADD22RoundRect,0.135000X-0.185000X0.135000X-0.185000X-0.135000X0.185000X-0.135000X0.185000X0.135000X0*%
%ADD23RoundRect,0.140000X0.140000X0.170000X-0.140000X0.170000X-0.140000X-0.170000X0.140000X-0.170000X0*%
%ADD24RoundRect,0.135000X-0.135000X-0.185000X0.135000X-0.185000X0.135000X0.185000X-0.135000X0.185000X0*%
%ADD25R,0.700000X0.700000*%
%ADD26RoundRect,0.218750X-0.218750X-0.256250X0.218750X-0.256250X0.218750X0.256250X-0.218750X0.256250X0*%
%ADD27R,1.050000X0.650000*%
%ADD28R,2.700000X1.000000*%
%ADD29RoundRect,0.250000X0.800000X-0.450000X0.800000X0.450000X-0.800000X0.450000X-0.800000X-0.450000X0*%
%ADD30RoundRect,0.200000X-0.200000X-0.275000X0.200000X-0.275000X0.200000X0.275000X-0.200000X0.275000X0*%
%ADD31R,0.550000X0.950000*%
%ADD32RoundRect,0.140000X0.170000X-0.140000X0.170000X0.140000X-0.170000X0.140000X-0.170000X-0.140000X0*%
%ADD33RoundRect,0.250000X-0.475000X0.250000X-0.475000X-0.250000X0.475000X-0.250000X0.475000X0.250000X0*%
%ADD34RoundRect,0.140000X0.219203X0.021213X0.021213X0.219203X-0.219203X-0.021213X-0.021213X-0.219203X0*%
%ADD35R,0.450000X0.300000*%
%ADD36R,0.300000X0.450000*%
%ADD37RoundRect,0.150000X0.150000X0.425000X-0.150000X0.425000X-0.150000X-0.425000X0.150000X-0.425000X0*%
%ADD38RoundRect,0.075000X0.075000X0.500000X-0.075000X0.500000X-0.075000X-0.500000X0.075000X-0.500000X0*%
%ADD39O,1.000000X2.100000*%
%ADD40O,1.000000X1.800000*%
%ADD41RoundRect,0.050000X0.250000X-0.100000X0.250000X0.100000X-0.250000X0.100000X-0.250000X-0.100000X0*%
%ADD42RoundRect,0.075000X-0.459619X-0.565685X0.565685X0.459619X0.459619X0.565685X-0.565685X-0.459619X0*%
%ADD43RoundRect,0.075000X0.459619X-0.565685X0.565685X-0.459619X-0.459619X0.565685X-0.565685X0.459619X0*%
%ADD44RoundRect,0.140000X-0.140000X-0.170000X0.140000X-0.170000X0.140000X0.170000X-0.140000X0.170000X0*%
%ADD45RoundRect,0.150000X0.150000X-0.512500X0.150000X0.512500X-0.150000X0.512500X-0.150000X-0.512500X0*%
%ADD46RoundRect,0.225000X-0.225000X-0.250000X0.225000X-0.250000X0.225000X0.250000X-0.225000X0.250000X0*%
%ADD47RoundRect,0.135000X0.226274X0.035355X0.035355X0.226274X-0.226274X-0.035355X-0.035355X-0.226274X0*%
G04 APERTURE END LIST*
D10*
%TO.C,R37*%
X132892800Y-96217199D03*
X132892800Y-95197201D03*
%TD*%
D11*
%TO.C,C11*%
X152654000Y-132362000D03*
X152654000Y-133322000D03*
%TD*%
D12*
%TO.C,C45*%
X151130000Y-73660000D03*
X151130000Y-72110000D03*
%TD*%
D10*
%TO.C,R32*%
X132384800Y-83771199D03*
X132384800Y-82751201D03*
%TD*%
D13*
%TO.C,J7*%
X154765000Y-69463601D03*
X154765000Y-70713600D03*
X154765000Y-71963599D03*
D14*
X158115000Y-67613600D03*
X158115000Y-73813600D03*
%TD*%
D15*
%TO.C,U6*%
X144275000Y-128520000D03*
X144275000Y-128020000D03*
X144010000Y-127505000D03*
X143510000Y-127505000D03*
X143010000Y-127505000D03*
X142745000Y-128020000D03*
X142745000Y-128520000D03*
X143010000Y-129035000D03*
X143510000Y-129035000D03*
X144010000Y-129035000D03*
%TD*%
D16*
%TO.C,FB2*%
X134620000Y-118084500D03*
X134620000Y-119659500D03*
%TD*%
D17*
%TO.C,U9*%
X144459999Y-73030500D03*
X143510000Y-73030500D03*
X142560001Y-73030500D03*
X142560001Y-75305500D03*
X143510000Y-75305500D03*
X144459999Y-75305500D03*
%TD*%
D18*
%TO.C,R1*%
X132310599Y-133350000D03*
X131290601Y-133350000D03*
%TD*%
D10*
%TO.C,R5*%
X150876000Y-129289998D03*
X150876000Y-128270000D03*
%TD*%
D19*
%TO.C,Q2*%
X134490700Y-93685400D03*
X134490700Y-91785400D03*
X132615699Y-92735400D03*
%TD*%
D10*
%TO.C,R6*%
X140892805Y-128016000D03*
X140892805Y-126996002D03*
%TD*%
D20*
%TO.C,C34*%
X138938000Y-122869999D03*
X138938000Y-120970001D03*
%TD*%
D21*
%TO.C,FB3*%
X149098000Y-73810000D03*
X149098000Y-71685000D03*
%TD*%
D22*
%TO.C,R36*%
X131673600Y-94105001D03*
X131673600Y-95124999D03*
%TD*%
D23*
%TO.C,C17*%
X135455600Y-124460000D03*
X134495600Y-124460000D03*
%TD*%
%TO.C,C26*%
X150848000Y-126949200D03*
X149888000Y-126949200D03*
%TD*%
%TO.C,C27*%
X155420000Y-125984000D03*
X154460000Y-125984000D03*
%TD*%
D24*
%TO.C,R26*%
X141095000Y-82042000D03*
X142115000Y-82042000D03*
%TD*%
D22*
%TO.C,R38*%
X131546600Y-96289401D03*
X131546600Y-97309399D03*
%TD*%
D23*
%TO.C,C18*%
X135455600Y-125730000D03*
X134495600Y-125730000D03*
%TD*%
D25*
%TO.C,D3*%
X147675000Y-95004800D03*
X147675000Y-96104800D03*
X149505000Y-96104800D03*
X149505000Y-95004800D03*
%TD*%
D26*
%TO.C,D1*%
X147573900Y-133400800D03*
X149148900Y-133400800D03*
%TD*%
D27*
%TO.C,SW1*%
X135425000Y-136965000D03*
X131275000Y-136965000D03*
X135425000Y-134815000D03*
X131275000Y-134815000D03*
%TD*%
D11*
%TO.C,C40*%
X149606000Y-92131000D03*
X149606000Y-93091000D03*
%TD*%
D13*
%TO.C,J5*%
X154915000Y-88637200D03*
X154915000Y-87387200D03*
X154915000Y-86137200D03*
X154915000Y-84887200D03*
X154915000Y-83637200D03*
X154915000Y-82387200D03*
X154915000Y-81137200D03*
X154915000Y-79887200D03*
X154915000Y-78637200D03*
X154915000Y-77387200D03*
D28*
X158115000Y-90487200D03*
X158115000Y-75537200D03*
%TD*%
D29*
%TO.C,D5*%
X149098000Y-80178000D03*
X149098000Y-75778000D03*
%TD*%
D30*
%TO.C,R8*%
X146317200Y-135509000D03*
X147967200Y-135509000D03*
%TD*%
D31*
%TO.C,U2*%
X135479000Y-127195000D03*
X134229000Y-127195000D03*
X132979000Y-127195000D03*
X131729000Y-127195000D03*
X131729000Y-129345000D03*
X132979000Y-129345000D03*
X134229000Y-129345000D03*
X135479000Y-129345000D03*
%TD*%
D32*
%TO.C,C32*%
X144780000Y-131544000D03*
X144780000Y-130584000D03*
%TD*%
D18*
%TO.C,R33*%
X134164799Y-81381600D03*
X133144801Y-81381600D03*
%TD*%
D33*
%TO.C,C22*%
X157226000Y-126624002D03*
X157226000Y-128524000D03*
%TD*%
D34*
%TO.C,C55*%
X141106211Y-84972211D03*
X140427389Y-84293389D03*
%TD*%
D22*
%TO.C,R14*%
X140970000Y-74674001D03*
X140970000Y-75693999D03*
%TD*%
D35*
%TO.C,U4*%
X152445800Y-127520000D03*
X152445800Y-128020000D03*
X152445800Y-128520000D03*
X152445800Y-129020000D03*
D36*
X152970800Y-129545000D03*
X153470800Y-129545000D03*
X153970800Y-129545000D03*
X154470800Y-129545000D03*
D35*
X154995800Y-129020000D03*
X154995800Y-128520000D03*
X154995800Y-128020000D03*
X154995800Y-127520000D03*
D36*
X154470800Y-126995000D03*
X153970800Y-126995000D03*
X153470800Y-126995000D03*
X152970800Y-126995000D03*
%TD*%
D37*
%TO.C,J8*%
X146710000Y-69525000D03*
X145910000Y-69525000D03*
D38*
X144760000Y-69524999D03*
X143760000Y-69525000D03*
X143260000Y-69525000D03*
X142260000Y-69524999D03*
D37*
X141110000Y-69525000D03*
X140310000Y-69525000D03*
X140310000Y-69525000D03*
X141110000Y-69525000D03*
D38*
X141760000Y-69525000D03*
X142760000Y-69525000D03*
X144260000Y-69525000D03*
X145260000Y-69525000D03*
D37*
X145910000Y-69525000D03*
X146710000Y-69525000D03*
D39*
X147830000Y-68950000D03*
D40*
X147830000Y-64770000D03*
D39*
X139190000Y-68950000D03*
D40*
X139190000Y-64770000D03*
%TD*%
D41*
%TO.C,D4*%
X151130000Y-69184000D03*
X151130000Y-68484000D03*
%TD*%
D22*
%TO.C,R13*%
X146050000Y-74674001D03*
X146050000Y-75693999D03*
%TD*%
D42*
%TO.C,U1*%
X133840315Y-110912404D03*
X134193868Y-111265957D03*
X134547422Y-111619511D03*
X134900975Y-111973064D03*
X135254528Y-112326617D03*
X135608082Y-112680171D03*
X135961635Y-113033724D03*
X136315189Y-113387278D03*
X136668742Y-113740831D03*
X137022295Y-114094384D03*
X137375849Y-114447938D03*
X137729402Y-114801491D03*
X138082955Y-115155045D03*
X138436509Y-115508598D03*
X138790062Y-115862151D03*
X139143616Y-116215705D03*
X139497169Y-116569258D03*
X139850722Y-116922811D03*
X140204276Y-117276365D03*
X140557829Y-117629918D03*
X140911383Y-117983472D03*
X141264936Y-118337025D03*
X141618489Y-118690578D03*
X141972043Y-119044132D03*
X142325596Y-119397685D03*
D43*
X144694404Y-119397685D03*
X145047957Y-119044132D03*
X145401511Y-118690578D03*
X145755064Y-118337025D03*
X146108617Y-117983472D03*
X146462171Y-117629918D03*
X146815724Y-117276365D03*
X147169278Y-116922811D03*
X147522831Y-116569258D03*
X147876384Y-116215705D03*
X148229938Y-115862151D03*
X148583491Y-115508598D03*
X148937045Y-115155045D03*
X149290598Y-114801491D03*
X149644151Y-114447938D03*
X149997705Y-114094384D03*
X150351258Y-113740831D03*
X150704811Y-113387278D03*
X151058365Y-113033724D03*
X151411918Y-112680171D03*
X151765472Y-112326617D03*
X152119025Y-111973064D03*
X152472578Y-111619511D03*
X152826132Y-111265957D03*
X153179685Y-110912404D03*
D42*
X153179685Y-108543596D03*
X152826132Y-108190043D03*
X152472578Y-107836489D03*
X152119025Y-107482936D03*
X151765472Y-107129383D03*
X151411918Y-106775829D03*
X151058365Y-106422276D03*
X150704811Y-106068722D03*
X150351258Y-105715169D03*
X149997705Y-105361616D03*
X149644151Y-105008062D03*
X149290598Y-104654509D03*
X148937045Y-104300955D03*
X148583491Y-103947402D03*
X148229938Y-103593849D03*
X147876384Y-103240295D03*
X147522831Y-102886742D03*
X147169278Y-102533189D03*
X146815724Y-102179635D03*
X146462171Y-101826082D03*
X146108617Y-101472528D03*
X145755064Y-101118975D03*
X145401511Y-100765422D03*
X145047957Y-100411868D03*
X144694404Y-100058315D03*
D43*
X142325596Y-100058315D03*
X141972043Y-100411868D03*
X141618489Y-100765422D03*
X141264936Y-101118975D03*
X140911383Y-101472528D03*
X140557829Y-101826082D03*
X140204276Y-102179635D03*
X139850722Y-102533189D03*
X139497169Y-102886742D03*
X139143616Y-103240295D03*
X138790062Y-103593849D03*
X138436509Y-103947402D03*
X138082955Y-104300955D03*
X137729402Y-104654509D03*
X137375849Y-105008062D03*
X137022295Y-105361616D03*
X136668742Y-105715169D03*
X136315189Y-106068722D03*
X135961635Y-106422276D03*
X135608082Y-106775829D03*
X135254528Y-107129383D03*
X134900975Y-107482936D03*
X134547422Y-107836489D03*
X134193868Y-108190043D03*
X133840315Y-108543596D03*
%TD*%
D19*
%TO.C,Q1*%
X135786100Y-85227200D03*
X135786100Y-83327200D03*
X133911099Y-84277200D03*
%TD*%
D44*
%TO.C,C33*%
X140845600Y-130302000D03*
X141805600Y-130302000D03*
%TD*%
D45*
%TO.C,U8*%
X142560001Y-97276500D03*
X143510000Y-97276500D03*
X144459999Y-97276500D03*
X144459999Y-95001500D03*
X142560001Y-95001500D03*
%TD*%
D46*
%TO.C,C8*%
X155435000Y-112268000D03*
X156985000Y-112268000D03*
%TD*%
D23*
%TO.C,C29*%
X155369200Y-124917200D03*
X154409200Y-124917200D03*
%TD*%
D18*
%TO.C,R35*%
X135790399Y-96316800D03*
X134770401Y-96316800D03*
%TD*%
D23*
%TO.C,C28*%
X150876000Y-125730000D03*
X149916000Y-125730000D03*
%TD*%
D18*
%TO.C,R10*%
X144019999Y-93345000D03*
X143000001Y-93345000D03*
%TD*%
D47*
%TO.C,R28*%
X143413424Y-85501424D03*
X142692176Y-84780176D03*
%TD*%
D18*
%TO.C,R31*%
X133834599Y-88087200D03*
X132814601Y-88087200D03*
%TD*%
D10*
%TO.C,R34*%
X132334000Y-80443799D03*
X132334000Y-79423801D03*
%TD*%
D34*
%TO.C,C57*%
X141969811Y-84083211D03*
X141290989Y-83404389D03*
%TD*%
D27*
%TO.C,SW2*%
X151188600Y-134764200D03*
X155338600Y-134764200D03*
X151188600Y-136914200D03*
X155338600Y-136914200D03*
%TD*%
D25*
%TO.C,D2*%
X137515000Y-95004800D03*
X137515000Y-96104800D03*
X139345000Y-96104800D03*
X139345000Y-95004800D03*
%TD*%
D32*
%TO.C,C39*%
X137922000Y-93063000D03*
X137922000Y-92103000D03*
%TD*%
%TO.C,C44*%
X152653999Y-73660000D03*
X152653999Y-72700000D03*
%TD*%
D22*
%TO.C,R27*%
X140284200Y-80109600D03*
X140284200Y-81129600D03*
%TD*%
%TO.C,R12*%
X140970000Y-71753001D03*
X140970000Y-72772999D03*
%TD*%
D10*
%TO.C,R2*%
X131521200Y-124969999D03*
X131521200Y-123950001D03*
%TD*%
D22*
%TO.C,R11*%
X146050000Y-71755000D03*
X146050000Y-72774998D03*
%TD*%
D11*
%TO.C,C30*%
X143510000Y-130584000D03*
X143510000Y-131544000D03*
%TD*%
M02*
